<?xml version="1.0" encoding="UTF-8"?>
<svg id="_テキスト" data-name="テキスト" xmlns="http://www.w3.org/2000/svg" viewBox="0 0 132 14">
  <defs>
    <style>
      .cls-1 {
        fill: #444;
      }
    </style>
  </defs>
  <path class="cls-1" d="m10.29,4.74c.12.58.29,1.15.5,1.71.63,1.6,1.6,3.03,2.88,4.17.45.4.93.76,1.42,1.09.52.35,1.08.65,1.63.93-.34.31-.58.61-.79.99-3.03-1.74-5.28-4.3-6.17-7.36-.18,1.21-.52,2.35-1.03,3.29-.93,1.72-2.49,3.16-5.25,4.29-.23-.34-.44-.58-.77-.82,2.6-.95,4.25-2.19,5.16-3.98.62-1.19.93-2.59,1.05-4.3h-3.36l-2.25.06v-1.02l2.25.06h3.39c.01-.24.01-.5.01-.75v-1.58c0-.55-.04-1-.12-1.36,1.46.12,1.68.23,1.68.4,0,.15-.15.25-.53.35v2.08c0,.28,0,.57-.01.85h4l2.25-.06v1.02l-2.25-.06h-3.71Z"/>
  <path class="cls-1" d="m22.84.41c.63.54.87.79.87.96s-.14.24-.53.36c-.63,1.56-.93,2.29-1.51,3.6,1.08,1.06,1.53,1.98,1.53,3.3,0,1.42-.87,2.13-2.1,2.19-.12-.41-.24-.66-.46-.99,1.11.08,1.6-.13,1.6-1.36,0-1.06-.36-1.92-1.54-2.91.69-1.58,1.11-2.66,1.61-4.05h-2.17v10.03l.03,2.25h-1l.08-2.25V2.48l-.06-1.74.06-.06,1.74.06h1.37l.33-.33h.18Zm7.83,3.48c.69.6.86.76.86.92,0,.13-.09.22-.53.31-.3,2.32-.88,4.08-1.89,5.47.78.77,1.77,1.38,3.08,2-.21.24-.41.52-.57.82-1.21-.57-2.24-1.26-3.08-2.11-.79.87-1.8,1.59-3.04,2.22-.15-.25-.38-.52-.6-.75,1.25-.55,2.25-1.26,3.04-2.17-.93-1.2-1.56-2.71-1.89-4.68l.85-.1c.33,1.8.81,3.07,1.58,4.08.85-1.27,1.37-2.86,1.54-4.84h-4.72v1.89c0,3.13-.66,4.95-2.5,6.52-.18-.22-.46-.46-.71-.6,1.77-1.35,2.29-2.97,2.29-6.03V2.73l-.04-1.74.06-.06,1.74.06h3.55l2.25-.06v.92l-2.25-.06h-4.39v2.43h4.84l.34-.33h.18Z"/>
  <path class="cls-1" d="m40.66,3.42V1.37c0-.44-.04-.82-.12-1.19,1.41.04,1.63.15,1.63.31,0,.14-.17.23-.5.36v2.56h3.15l2.25-.06v.99l-2.25-.06h-3.15v3.25h2.29l2.25-.06v.98l-2.25-.06h-2.29v3.65h3.92l2.25-.06v.99l-2.25-.06h-8.98l-2.25.06v-.99l2.25.06h4.05v-3.65h-1.77l-2.25.06v-.98l2.25.06h1.77v-3.25h-3.58c-.45,1.4-1.09,2.7-1.93,3.96-.29-.18-.58-.3-.93-.36,1.31-1.77,2.07-3.75,2.46-5.91.11-.58.14-.92.12-1.23,1.35.33,1.42.4,1.42.57s-.17.23-.5.31c-.1.62-.22,1.21-.39,1.79h3.33Z"/>
  <path class="cls-1" d="m50.6,3.08c1.59-.13,3.21-.24,4.84-.29v-1.57c-.39-.1-.52-.23-.52-.36,0-.12.13-.17.31-.17s.45,0,1.28.03c-.03.73-.04,1.41-.06,2.02.81-.02,1.6-.03,2.4-.03.57,0,1.29.01,1.86.03l.03.9c-.57-.01-1.3-.03-1.88-.03-.75,0-1.57.02-2.43.03-.01.42-.01.79-.01,1.12s0,.75.01,1.21c1.07-.09,2.22-.25,3.51-.46l.21.9c-1.25.23-2.49.39-3.69.5.03.98.08,2.04.1,2.94,1.4.55,2.88,1.29,4.31,2.05l-.58.95c-1.19-.74-2.49-1.38-3.69-1.95-.15,1.53-1.23,2.1-2.59,2.1-2.05,0-3.1-.92-3.1-1.86,0-.85,1.36-1.92,3.1-1.92.31,0,1.04.13,1.56.3-.03-.81-.06-1.69-.09-2.55-.6.04-1.2.06-1.77.06-1.29,0-2.07-.33-2.62-.66l.57-.71c.53.3,1.07.45,2.06.45.55,0,1.14-.02,1.75-.06-.02-.45-.02-.87-.02-1.23v-1.15c-1.59.04-3.25.13-4.78.27l-.06-.87Zm3.3,7.05c-1.12,0-2.01.55-2.01,1.03,0,.44.77.92,2.12.92,1.05,0,1.56-.63,1.56-1.54-.6-.24-1.25-.4-1.67-.4Z"/>
  <path class="cls-1" d="m67.86,1.5l-.03,1.81c.24-.02.42-.03.66-.03l.15.06.24.44v.13c-.51.75-.81,1.37-1.09,1.86v.36c2.16-2.28,3.69-3.73,4.95-3.73,1.1,0,1.52.6,1.52,1.71,0,.67-.08,1.8-.15,3.19-.08,1.26-.13,2.32-.13,2.95,0,.57.09.85.63.85.66,0,1.26-.33,2.08-1.53.24.38.42.57.66.81-.93,1.19-1.82,1.8-3,1.8-.75,0-1.4-.58-1.4-1.81,0-.9.05-1.81.12-3.06.11-1.56.12-2.55.12-3.1,0-.45-.13-.87-.5-.87-.57,0-1.68.52-4.96,4.06,0,1.65,0,4.12.02,5.74h-.99v-4.09l.06-1.08-.45.77c-.38.57-.81,1.21-1.49,2.19h-.13s-.66-.56-.66-.56v-.13c1.04-1.47,1.54-2.18,2.71-3.81.03-.73.04-1.62.04-2.1-.81.12-1.74.3-2.55.51l-.21-.92c.84-.15,1.83-.31,2.78-.46V1.19c-.33-.09-.47-.24-.47-.34,0-.08.09-.15.24-.15.39,0,.83.03,1.3.06l-.07.75Z"/>
</svg>