<?xml version="1.0" encoding="UTF-8"?>
<svg id="_テキスト" data-name="テキスト" xmlns="http://www.w3.org/2000/svg" viewBox="0 0 132 14">
  <defs>
    <style>
      .cls-1 {
        fill: #444;
      }
    </style>
  </defs>
  <path class="cls-1" d="m6.47,2c.99-.58,2.28-.87,3.24-.87,2.16,0,3.3,1.19,3.3,2.95,0,2.22-1,3.66-5.62,7.5h6.31v.97h-7.8v-1.03c4.66-3.81,5.83-5.31,5.83-7.32,0-1.21-.76-2.07-2.35-2.07-.6,0-1.29.18-1.79.4l-.12,2.12h-1V2Z"/>
  <path class="cls-1" d="m18.2,7.17c0-4.09,1.35-6.04,4.2-6.04,2.57,0,3.99,1.98,3.99,5.52,0,4.09-1.35,6.04-4.2,6.04-2.56,0-3.99-1.98-3.99-5.52Zm1.29-.21c0,3.39.99,4.71,2.85,4.71s2.75-1.41,2.75-4.81-.98-4.71-2.83-4.71-2.76,1.41-2.76,4.81Z"/>
  <path class="cls-1" d="m31.26,7.17c0-4.09,1.35-6.04,4.2-6.04,2.57,0,3.99,1.98,3.99,5.52,0,4.09-1.35,6.04-4.2,6.04-2.56,0-3.99-1.98-3.99-5.52Zm1.29-.21c0,3.39.99,4.71,2.85,4.71s2.75-1.41,2.75-4.81-.98-4.71-2.83-4.71-2.76,1.41-2.76,4.81Z"/>
  <path class="cls-1" d="m44.63,2c.99-.58,2.28-.87,3.24-.87,2.16,0,3.3,1.19,3.3,2.95,0,2.22-1,3.66-5.62,7.5h6.31v.97h-7.8v-1.03c4.66-3.81,5.83-5.31,5.83-7.32,0-1.21-.76-2.07-2.35-2.07-.6,0-1.29.18-1.79.4l-.12,2.12h-1V2Z"/>
  <path class="cls-1" d="m62.06,2.87h-3.87c-.58.94-1.29,1.86-2.1,2.75-.25-.24-.55-.42-.81-.53,1.16-1.2,2.12-2.58,2.79-4.14.12-.3.21-.6.24-.88,1.08.25,1.46.39,1.46.57,0,.21-.09.25-.57.31-.15.36-.33.72-.51,1.06h7.46l2.25-.06v.98l-2.25-.06h-3.04v2.61h2.17l2.25-.06v.96l-2.25-.06h-2.17v3.23h3.48l2.25-.06v.98l-2.25-.06h-3.48v1.2l.06,2.25h-1.16l.06-2.25v-1.2h-4.78l-2.25.06v-.98l2.25.06h.5v-2.32l-.06-1.74.06-.06,1.74.06h2.55v-2.61Zm-3.28,3.45v3.23h3.28v-3.23h-3.28Z"/>
  <path class="cls-1" d="m79.29,2.37h-5.01l-.21,3.72c.6-.17,1.32-.27,2.1-.27,2.71,0,3.67,1.5,3.67,3.15,0,2.41-1.54,3.66-3.87,3.66-2.17,0-3.3-.87-3.45-2.49h1.25c.06.75.46,1.48,2.31,1.48,1.57,0,2.53-.89,2.53-2.4s-.84-2.43-2.94-2.43c-.78,0-2.01.23-2.75.48l.32-5.98h6.12l-.08,1.08Z"/>
  <path class="cls-1" d="m86.11,8.6c-.28,2.61-1.32,3.99-2.8,5.34-.21-.26-.54-.53-.83-.69,1.8-1.41,2.71-3.01,2.71-6.33V2.69l-.06-1.74.06-.06,1.74.06h4.53l1.74-.06.06.06-.06,1.74v7.31l.04,2.49c0,1.03-.39,1.29-1.5,1.29h-1.08c-.08-.36-.18-.74-.36-1.08.69.07,1.12.09,1.42.09.36,0,.48-.1.48-.54v-3.64h-6.11Zm6.11-3.46h-6.03v1.92c0,.25,0,.49-.01.72h6.04v-2.64Zm0-3.36h-6.03v2.53h6.03V1.77Z"/>
  <path class="cls-1" d="m101.24,2.48l-2.76,1.17v-.96l3.15-1.38h.83v10.32l2.32.15v.78h-5.79v-.78l2.25-.15V2.48Z"/>
  <path class="cls-1" d="m116.61,1.31v1.23c-2.05,3.15-3.25,6.42-3.76,10.02h-1.25c.29-2.76,1.67-6.54,3.96-10.21h-5.16l-.15,2.53h-.98V1.31h7.33Z"/>
  <path class="cls-1" d="m122.43,12.65v1.19h-1.04l.06-2.25V3.38l-.06-2.19.06-.06,2.19.06h4.65l2.19-.06.06.06-.06,2.19v8.14l.06,2.26h-1.04v-1.14h-7.08Zm7.08-10.6h-7.08v4.39h7.08V2.04Zm0,5.23h-7.08v4.52h7.08v-4.52Z"/>
</svg>