<?xml version="1.0" encoding="UTF-8"?>
<svg id="_テキスト" data-name="テキスト" xmlns="http://www.w3.org/2000/svg" viewBox="0 0 78 20">
  <defs>
    <style>
      .cls-1 {
        fill: #444;
      }
    </style>
  </defs>
  <path class="cls-1" d="m15.68,6.94l3.38-.08v1.74l-3.38-.08H4.46v2.56c0,3.5-.7,5.76-2.2,7.84-.38-.5-.92-.9-1.44-1.16,1.38-1.94,1.84-3.66,1.84-6.64v-1.56l-.08-2.62.08-.08,3.16.08h9.86Zm-6.38-4.74c0-.62-.06-.94-.18-1.46,2.28.12,2.64.2,2.64.56,0,.2-.18.3-.64.42v2.24h4.38v-1.2c0-.56-.04-.96-.18-1.46,2.28.12,2.62.22,2.62.56,0,.2-.18.3-.64.42v1.34l.06,1.82-.08.12-2.78-.06H6.02l-2.76.06-.1-.14.06-1.8v-.86c0-.58-.04-.92-.18-1.46,2.28.12,2.6.22,2.6.56,0,.2-.18.3-.64.42v1.68h4.3v-1.76Zm1.28,9.38h-1.68l-3.2.08v-1.68l3.2.08h5.48l3.2-.08v1.68l-3.2-.08h-1.98v2.08h3.72l3.2-.08v1.72l-3.2-.08h-3.72v1.26l.08,2.86h-1.98l.08-2.86v-1.26h-2.74l-3.2.08v-1.72l3.2.08h2.74v-2.08Z"/>
  <path class="cls-1" d="m42.42,9.78l-3.2.08v-1.58l3.2.08h2.64c.3-.5.58-1.02.8-1.56h-1.08l-3.22.08v-1.54l3.22.08h1.6c.16-.42.26-.86.38-1.3h-3.16l-3.2.08v-1.58l3.2.08h3.44c.12-.64.18-1.2.18-1.62,0-.04,0-.14-.02-.48,1.9.26,2.54.44,2.54.74s-.1.34-.68.46c-.06.32-.12.62-.18.9h4.12l3.22-.08v1.58l-3.22-.08h-4.44c-.1.44-.22.88-.36,1.3h3.6l3.22-.08v1.54l-3.22-.08h-.9c.22.54.5,1.06.82,1.56h2.46l3.2-.08v1.58l-3.2-.08h-1.36l.32.32c1.22,1.22,2.32,1.9,4.94,2.72-.42.44-.9,1.08-1.22,1.7-1.46-.72-2.62-1.36-3.66-2.2l-.04,1.42v2.32l.08,3.26h-1.86v-.86h-6v.94h-1.84l.08-3.22v-2.44l-.04-1.26c-.98.84-2.14,1.66-3.62,2.52-.56-.66-.86-.88-1.38-1.26,2.26-1.16,3.06-1.7,4.22-2.72.44-.38.86-.8,1.22-1.24h-1.6Zm3.56.1c-.32.44-.68.88-1.06,1.3l1.26.02h4.42l1.36-.02c-.04-.06-.1-.1-.14-.16-.38-.42-.72-.82-1.02-1.24h-4.74l-.08.1Zm5.4,2.76h-6v1.4h6v-1.4Zm0,2.8h-6v1.58h6v-1.58Zm-1.46-7.08c-.26-.5-.48-1.04-.72-1.56h-1.48c-.22.54-.48,1.06-.76,1.56h2.96Z"/>
  <path class="cls-1" d="m61.92,12.68c-.9.64-1.9,1.22-2.98,1.82-.16-.42-.5-.98-1.04-1.48,2.94-1.14,4.72-2.6,6.02-4.32h-2.48l-3.22.08v-1.7l3.22.08h3.5c.16-.3.34-.62.5-.94.14-.28.26-.56.36-.84-1.92.5-3.86.86-5.68,1.14-.14-.42-.52-.98-1.02-1.48,2.9-.4,5.12-.76,7.16-1.34-1.76-.6-3.44-1.1-4.84-1.46l.96-1.24c1.72.44,3.9,1.06,6.06,1.84.74-.3,1.46-.64,2.16-1.02.62-.34,1.12-.6,1.44-1,1.64,1.04,1.76,1.14,1.76,1.38s-.24.3-.94.24c-.72.44-1.5.84-2.32,1.2,1.08.44,2.1.9,3.02,1.4l-.9,1.48c-1.24-.74-2.66-1.4-4.12-1.98-.66.22-1.32.42-1.98.62,1.34.5,1.54.64,1.54.88-.02.24-.24.3-.74.32-.14.28-.28.54-.42.8h6.22l3.22-.08v1.7l-3.22-.08h-7.16c-.64.9-1.36,1.74-2.18,2.48h3.5v-.24c0-.7-.02-.9-.16-1.8,2.16.06,2.54.18,2.54.48,0,.22-.2.32-.62.44v1.12h3.26l2.4-.06.08.08-.08,1.94v1.56l.04,1.54c0,1.28-.52,1.72-2.22,1.72h-1.02c-.14-.56-.44-1.36-.76-1.88.86.1,1.28.12,1.74.12.32,0,.44-.1.44-.48v-3.02h-3.88v3.4l.08,3.22h-1.92l.08-3.22v-3.4h-3.7v5.42h-1.84l.08-2.82v-.92l.06-1.7Z"/>
</svg>