<?xml version="1.0" encoding="UTF-8"?>
<svg id="_テキスト" data-name="テキスト" xmlns="http://www.w3.org/2000/svg" viewBox="0 0 296 14">
  <defs>
    <style>
      .cls-1 {
        fill: #444;
      }
    </style>
  </defs>
  <path class="cls-1" d="m6.7,1.46c.78,1.32,1.56,2.79,2.31,4.36,1.47-.81,2.62-1.38,3.9-2.05-.06-.24-.08-.33-.08-.41,0-.17.09-.24.2-.24.09,0,.2.06.3.19.22.29.49.66.78,1.16-1.71.75-3.38,1.47-5.26,2.56-1.82,1.05-2.75,1.94-2.75,3.11s.84,1.63,3.69,1.63c1.4,0,3.15-.15,4.61-.32l.09,1.08c-1.52.17-3.2.25-4.9.25-3.2,0-4.49-.91-4.49-2.68,0-1.29.78-2.49,3.01-3.78-.81-1.76-1.53-3.11-2.32-4.44l.91-.43Z"/>
  <path class="cls-1" d="m19.99,8.27c-.38.51-.62,1.11-.62,1.54,0,1.02.77,1.6,4.14,1.6,1.79,0,3.06-.09,4.54-.33l.04,1.11c-1.47.17-2.84.27-4.53.27-3.79,0-5.24-.84-5.24-2.62,0-.66.32-1.49.75-2.1l.9.53Zm-.3-5.75c.48-.01.96-.03,1.44-.03,1.57,0,3.87.13,5.74.42l-.11,1.02c-1.83-.27-4.03-.42-5.68-.43-.5,0-.98.01-1.47.04l.08-1.02Z"/>
  <path class="cls-1" d="m33.88,1.46c.78,1.32,1.56,2.79,2.31,4.36,1.47-.81,2.62-1.38,3.9-2.05-.06-.24-.07-.33-.07-.41,0-.17.09-.24.19-.24.09,0,.2.06.3.19.22.29.5.66.78,1.16-1.71.75-3.38,1.47-5.26,2.56-1.81,1.05-2.75,1.94-2.75,3.11s.84,1.63,3.69,1.63c1.39,0,3.15-.15,4.6-.32l.09,1.08c-1.51.17-3.19.25-4.91.25-3.19,0-4.48-.91-4.48-2.68,0-1.29.78-2.49,3.02-3.78-.81-1.76-1.53-3.11-2.33-4.44l.92-.43Z"/>
  <path class="cls-1" d="m45.06,12.35c1.79-4.17,3.51-7.74,5.07-10.84-.24-.24-.33-.34-.33-.46,0-.09.07-.14.18-.14.18,0,.39.08,1.39.6-1.35,2.52-2.13,4.08-2.98,5.76l-.39.62.06.03c.87-1.15,1.75-1.72,2.56-1.72,1.17,0,1.62.76,1.62,2.68,0,2.71.3,3.17,1.21,3.17,1.38,0,3.09-1.48,3.5-4.77.29.2.69.39,1,.52-.47,3.18-2.26,5.29-4.56,5.29-1.47,0-2.18-.66-2.18-3.3,0-1.89-.09-2.71-.78-2.71s-1.74.78-2.66,2c-.57.76-.93,1.74-1.72,3.67l-.14.09-.85-.34v-.13Z"/>
  <path class="cls-1" d="m67.7,9.09c1.34,2.29,3.21,3.13,6,3.75-.25.3-.46.57-.63.93-2.76-.69-4.71-1.86-6.04-4.17-.26.79-.68,1.47-1.22,2.02-1.21,1.28-2.58,1.82-4.68,2.19-.18-.32-.36-.55-.72-.84,2.36-.32,3.73-.95,4.7-1.98.49-.54.87-1.14,1.08-1.9h-3.55l-2.25.06v-.92l2.25.06h3.71c.03-.23.04-.48.04-.74,0-.51-.04-1.02-.12-1.38,1.46.06,1.61.18,1.61.33s-.17.24-.5.36c0,.54-.01,1.01-.06,1.43h4.16l2.25-.06v.92l-2.25-.06h-3.77Zm-1.21-7.7c0-.43-.03-.79-.1-1.15,1.36.07,1.58.18,1.58.33,0,.12-.11.22-.48.31v1.02h3.67l2.19-.06.06.06-.06,1.41.06,1.71h-1v-2.29h-3.78v2.1c0,.48.16.51.97.51,1.29,0,1.39-.13,1.39-1.12.26.17.64.3.93.38-.06,1.41-.71,1.56-2.35,1.56-1.47,0-1.86-.08-1.86-1.08v-2.34h-2.43c.78.18,1.07.32,1.07.46,0,.18-.09.23-.53.29-.32,2.06-1.56,2.79-3.64,3.3-.14-.27-.36-.58-.62-.81,2.25-.36,3.18-1.04,3.36-3.24h-3.21v2.29h-1.02l.06-1.71-.06-1.41.06-.06,2.19.06h3.55v-.51Z"/>
  <path class="cls-1" d="m85.36,2.69c-1.17.41-2.29.72-3.39.96.32.65.68,1.26,1.07,1.84,1.12-.3,2.29-.72,3.45-1.27l.4.79c-1.12.51-2.23.92-3.31,1.21.51.69,1.28,1.54,2.01,2.08l.06.13-.15.58-.12.08c-1.04,0-2.16.01-3.2.04l-.03-.74c.6-.06,1.21-.13,1.82-.19-.45-.51-.98-1.14-1.4-1.74-1.51.36-2.94.51-4.14.51-.42,0-1.25-.07-1.94-.25l.33-.76c.54.08,1.25.17,1.77.17.96,0,2.16-.12,3.46-.41-.38-.62-.72-1.26-1.05-1.9-1.38.25-2.75.39-4.14.42l-.07-.89c1.32,0,2.56-.12,3.82-.34-.25-.54-.45-1.08-.64-1.6-.42-.04-.53-.14-.53-.25,0-.11.17-.18.33-.21.21-.05.44-.08,1.14-.15.18.78.36,1.27.67,2.02,1.09-.24,2.22-.57,3.43-.99l.33.85Zm-7.35,6.99c.18,2.25,2.59,2.32,4.46,2.32.66,0,1.26-.03,2.13-.09v1.04c-.78.08-1.44.09-2.14.09-2.4,0-5.22-.41-5.31-3.3l.87-.06Z"/>
  <path class="cls-1" d="m89.36,3.75v-.92l1.8.06h1.75l1.8-.06v.92l-1.8-.06h-1.75l-1.8.06Zm1.77,9.15v.93h-.95l.06-1.8v-1.74l-.06-1.14.08-.06,1.42.06h1.19l1.42-.06.08.06-.04,1.14v1.49l.07,1.8h-.94v-.67h-2.33Zm-.84-11.25v-.92l1.35.06h1.28l1.35-.06v.92l-1.35-.06h-1.28l-1.35.06Zm0,4.19v-.92l1.35.06h1.28l1.35-.06v.92l-1.35-.06h-1.28l-1.35.06Zm0,2.08v-.92l1.35.06h1.28l1.35-.06v.92l-1.35-.06h-1.28l-1.35.06Zm3.17,1.96h-2.33v2.28h2.33v-2.28Zm5.14-8.47c0-.44-.04-.83-.12-1.19,1.37.04,1.54.15,1.54.32,0,.13-.15.25-.48.36v1.8h1.51l2.25-.06v.93l-2.25-.06h-1.51v2.46h.83l2.25-.06v.93l-2.25-.06h-2.57l-2.25.06v-.93l2.25.06h.79v-2.46h-1.2l-2.25.06v-.93l2.25.06h1.2v-1.29Zm-1.63,11.44v.92h-.99l.06-2.19v-1.27l-.06-1.74.06-.06,1.74.06h2.58l1.74-.06.06.06-.06,1.74v1.23l.06,2.19h-.99v-.87h-4.2Zm4.2-3.53h-4.2v2.76h4.2v-2.76Z"/>
  <path class="cls-1" d="m110.92,10.56c-.34-.24-.64-.48-.93-.74-.5.54-.97.96-1.41,1.26-.82.58-1.39.81-1.79.81-.97,0-1.56-1.12-1.56-2.43,0-1.8.94-3.2,2.29-4.12-.18-.84-.27-1.79-.32-2.83-.33-.09-.46-.18-.46-.32,0-.07.06-.13.24-.15.36-.02.79-.02,1.2-.02.02,1.1.09,2.01.23,2.79,1.18-.6,2.55-.9,3.81-.9h.26c.24-.86.36-1.41.45-2-.29-.18-.39-.3-.39-.41s.09-.17.21-.17c.21,0,.58.08,1.32.25-.13.84-.29,1.42-.6,2.46,2.97.57,3.81,2.66,3.81,4.16,0,2.49-2.11,4.6-5.98,4.74-.11-.31-.25-.66-.42-.97h.29c2.7,0,4.99-1.42,4.99-3.92,0-1.42-1.18-2.92-3.01-3.13-.68,1.61-1.58,3.01-2.48,4.11.27.22.56.45.85.67l-.6.84Zm-4.72-1.29c0,.95.34,1.53.69,1.53.38,0,.53-.11.86-.33.46-.32,1-.78,1.54-1.35-.71-.84-1.21-1.8-1.53-2.85-.99.88-1.56,2.01-1.56,3Zm3.76-.92c.87-1.05,1.67-2.33,2.13-3.58h-.25c-1.26,0-2.37.34-3.25.88.22,1,.71,1.94,1.38,2.7Z"/>
  <path class="cls-1" d="m130.52,3.12c-1.73.15-2.82.43-3.86,1.17-1.38.96-2.21,2.38-2.21,4.11,0,2.82,2.64,3.41,4.96,3.41.18,0,.38,0,.55-.02l-.03,1.17h-.24c-3,0-6.25-.85-6.25-4.48,0-1.83.85-3.36,2.1-4.39.31-.21.63-.41,1-.6l-1.21.24c-1.84.27-3.55.5-5.82.81l-.18-1.03c4.11-.45,7.41-.92,11.01-1.46l.11.06.12.95-.06.08Z"/>
  <path class="cls-1" d="m140.49,4.38c1-.96,1.92-2,2.73-3.11.21-.28.36-.57.48-.87.99.49,1.23.69,1.23.85,0,.15-.2.2-.63.2-.78,1.04-1.63,2.01-2.58,2.92h2.52l2.25-.06v.93l-2.25-.06h-3.39c-.72.65-1.49,1.25-2.28,1.82,1.35-.11,2.82-.3,4.07-.54.31-.06.6-.15.88-.3.81.58.97.78.97.92,0,.16-.06.22-.25.22-.13,0-.33-.03-.63-.09-1.83.31-3.73.51-5.74.63-.06.41-.14.81-.21,1.21h5.37l1.74-.06.06.06-.08.78c-.1,1.03-.25,1.89-.46,2.61-.32,1.07-.85,1.41-2,1.41h-1.11c-.09-.38-.2-.67-.44-1.08.48.08.93.11,1.41.11.83,0,1-.14,1.19-.68.19-.58.33-1.44.4-2.37h-6.22c-.11.51-.2,1.02-.3,1.53l-.98-.07c.26-1.04.45-2.08.62-3.14-1.12.71-2.31,1.33-3.54,1.92-.2-.31-.44-.52-.75-.69,2.65-1.08,4.99-2.49,7-4.2h-4.27l-2.25.06v-.93l2.25.06h2.67v-1.74h-1.41l-2.25.06v-.92l2.25.06h1.41v-.52c0-.44-.05-.83-.12-1.19,1.41.09,1.56.2,1.56.36,0,.13-.14.24-.5.33v1.02h.69l2.25-.06v.92l-2.25-.06h-.69v1.74h1.58Z"/>
  <path class="cls-1" d="m156.96,3.89c.66.66.78.84.78.95,0,.12-.12.21-.65.38-1.11.84-1.83,1.47-2.92,2.52,1.02,0,1.61.51,1.61,1.65v1.09c0,1.27.24,1.36,1.63,1.36.93,0,1.96-.18,3.15-.57l.41,1.04c-1.26.34-2.61.57-3.62.57-2.03,0-2.58-.4-2.58-1.79v-1.39c0-.88-.27-1.26-.69-1.26-.46,0-1.12.45-2.34,1.62-.84.81-1.5,1.51-2.43,2.56l-.17.04-.79-.46-.04-.15c1.54-1.65,2.57-2.61,4.14-4.08,1.35-1.26,2.21-2.03,3.12-2.69v-.07c-1.35.27-3.38.49-5.71.58l-.03-1.07c2.35-.03,4.42-.2,6.63-.52l.35-.32h.16Zm-5.62-2.68c2.15,0,4.18.18,6.03.46l-.12.97c-2.19-.31-3.82-.46-5.97-.46l.06-.97Z"/>
  <path class="cls-1" d="m173.15,3.12c-1.72.15-2.82.43-3.85,1.17-1.38.96-2.21,2.38-2.21,4.11,0,2.82,2.64,3.41,4.96,3.41.18,0,.38,0,.56-.02l-.03,1.17h-.24c-3,0-6.25-.85-6.25-4.48,0-1.83.86-3.36,2.1-4.39.32-.21.63-.41,1.01-.6l-1.21.24c-1.85.27-3.56.5-5.82.81l-.18-1.03c4.11-.45,7.41-.92,11.01-1.46l.1.06.12.95-.06.08Z"/>
  <path class="cls-1" d="m182.06,9.95c-.74,2.01-1.56,2.73-2.28,2.73-1.65,0-3.01-3.04-3.01-5.88,0-1.46.09-2.52.33-4.07-.24-.18-.41-.3-.41-.45,0-.09.15-.12.27-.12.16,0,.42.06,1.37.27-.36,1.72-.48,2.68-.48,4.33,0,2.83,1.29,4.77,1.9,4.77.38,0,.92-.55,1.47-2.21.29.26.54.44.84.62Zm3.25-5.7c1.68,1.9,2.54,3.31,3.32,5.28l-1.03.54c-.75-1.96-1.64-3.54-3.11-5.26l.82-.55Z"/>
  <path class="cls-1" d="m200.41,2.69c-1.17.41-2.29.72-3.39.96.32.65.68,1.26,1.07,1.84,1.12-.3,2.29-.72,3.45-1.27l.4.79c-1.12.51-2.23.92-3.31,1.21.51.69,1.28,1.54,2.01,2.08l.06.13-.15.58-.12.08c-1.04,0-2.16.01-3.2.04l-.03-.74c.6-.06,1.21-.13,1.82-.19-.45-.51-.98-1.14-1.4-1.74-1.51.36-2.94.51-4.14.51-.42,0-1.25-.07-1.94-.25l.33-.76c.54.08,1.25.17,1.77.17.96,0,2.16-.12,3.46-.41-.38-.62-.72-1.26-1.05-1.9-1.38.25-2.75.39-4.14.42l-.07-.89c1.32,0,2.56-.12,3.82-.34-.25-.54-.45-1.08-.64-1.6-.42-.04-.53-.14-.53-.25,0-.11.17-.18.33-.21.21-.05.44-.08,1.14-.15.18.78.36,1.27.67,2.02,1.09-.24,2.22-.57,3.43-.99l.33.85Zm-7.35,6.99c.18,2.25,2.59,2.32,4.46,2.32.66,0,1.26-.03,2.13-.09v1.04c-.78.08-1.44.09-2.14.09-2.4,0-5.22-.41-5.31-3.3l.87-.06Z"/>
  <path class="cls-1" d="m205.46,3.24c1.59-.14,3.21-.24,4.84-.29v-1.58c-.39-.11-.53-.22-.53-.36,0-.12.13-.17.32-.17s.45,0,1.27.03c-.03.74-.04,1.41-.06,2.03.81-.02,1.6-.03,2.4-.03.57,0,1.29.01,1.86.03l.03.9c-.57-.01-1.3-.03-1.88-.03-.75,0-1.58.02-2.43.03-.02.42-.02.79-.02,1.12s0,.75.02,1.21c1.06-.09,2.22-.25,3.51-.46l.21.9c-1.25.22-2.49.39-3.69.5.03.97.08,2.04.11,2.94,1.39.55,2.88,1.29,4.3,2.05l-.58.95c-1.18-.74-2.49-1.38-3.69-1.95-.15,1.53-1.23,2.1-2.59,2.1-2.06,0-3.11-.92-3.11-1.86,0-.86,1.37-1.92,3.11-1.92.31,0,1.03.13,1.56.3-.03-.81-.06-1.7-.09-2.55-.6.04-1.2.06-1.77.06-1.29,0-2.07-.33-2.62-.66l.57-.71c.53.3,1.06.45,2.05.45.55,0,1.14-.01,1.76-.06-.02-.45-.02-.87-.02-1.23v-1.16c-1.59.04-3.25.13-4.79.27l-.06-.87Zm3.3,7.05c-1.12,0-2.01.56-2.01,1.04,0,.44.76.92,2.12.92,1.05,0,1.56-.63,1.56-1.54-.6-.24-1.25-.41-1.67-.41Z"/>
  <path class="cls-1" d="m226.42,3.12h.54c1.36,0,2.74,0,4.11.04l-.02.97c-1.68-.1-2.88-.12-4.06-.12h-.57v2.71c.22.62.32,1.14.32,1.79,0,2.52-1.16,4.21-4.73,4.72-.1-.3-.27-.6-.49-.93,3.01-.3,4.15-1.89,4.23-3.13-.3.46-.9.79-1.92.79-1.27,0-1.88-.62-1.88-1.74,0-1.46,1.33-2.89,2.48-2.89.38,0,.76.1,1.04.46-.02-.58-.02-1.17-.03-1.75-1.59.03-3.57.13-6.3.33l-.04-.96c2.76-.15,4.77-.24,6.33-.29,0-.6-.01-1.2-.01-1.8-.38-.13-.51-.23-.51-.34,0-.11.09-.2.27-.2.33,0,.87.01,1.3.03l-.04.93v1.37Zm-3.57,5.01c0,.67.3.94,1.23.94s1.44-.66,1.49-1.48c-.2-1.04-.79-1.35-1.18-1.35-.57,0-1.53.87-1.53,1.89Z"/>
  <path class="cls-1" d="m235.95,13.86c-1.15,0-2.07-.93-2.07-2.07s.92-2.04,2.07-2.04,2.07.9,2.07,2.04-.92,2.07-2.07,2.07Zm0-.67c.75,0,1.38-.65,1.38-1.4s-.63-1.36-1.38-1.36-1.38.61-1.38,1.36.63,1.4,1.38,1.4Z"/>
</svg>