<?xml version="1.0" encoding="UTF-8"?>
<svg id="_テキスト" data-name="テキスト" xmlns="http://www.w3.org/2000/svg" viewBox="0 0 620 230">
  <defs>
    <style>
      .cls-1 {
        fill: #444;
      }
    </style>
  </defs>
  <path class="cls-1" d="M9.1,1.33v.79H3.79V14.96h-.86V1.33h6.18Z"/>
  <path class="cls-1" d="M14.3,5.24c1.91-.16,3.85-.29,5.82-.34v-1.89c-.47-.13-.63-.27-.63-.43,0-.14,.16-.2,.38-.2s.54,0,1.53,.04c-.04,.88-.05,1.69-.07,2.43,.97-.02,1.93-.04,2.88-.04,.68,0,1.55,.02,2.23,.04l.04,1.08c-.68-.02-1.57-.04-2.25-.04-.9,0-1.89,.02-2.92,.04-.02,.5-.02,.95-.02,1.35s0,.9,.02,1.46c1.28-.11,2.67-.31,4.21-.56l.25,1.08c-1.49,.27-2.99,.47-4.43,.59,.04,1.17,.09,2.45,.13,3.53,1.67,.67,3.46,1.55,5.17,2.47l-.7,1.13c-1.42-.88-2.99-1.66-4.43-2.34-.18,1.84-1.48,2.52-3.12,2.52-2.47,0-3.73-1.1-3.73-2.23,0-1.03,1.64-2.3,3.73-2.3,.38,0,1.24,.16,1.87,.36-.04-.97-.07-2.03-.11-3.06-.72,.05-1.44,.07-2.12,.07-1.55,0-2.48-.4-3.15-.79l.68-.85c.63,.36,1.28,.54,2.47,.54,.67,0,1.37-.02,2.11-.07-.02-.54-.02-1.04-.02-1.48v-1.39c-1.91,.05-3.91,.16-5.74,.32l-.07-1.04Zm3.96,8.46c-1.35,0-2.41,.67-2.41,1.24,0,.52,.92,1.1,2.54,1.1,1.26,0,1.87-.76,1.87-1.85-.72-.29-1.49-.49-2-.49Z"/>
  <path class="cls-1" d="M40.47,5.24h.65c2.48,0,3.56,0,4.93,.05l-.02,1.17c-2.02-.13-3.46-.14-4.88-.14h-.68v3.26c.27,.74,.38,1.37,.38,2.14,0,3.02-1.39,5.06-5.67,5.67-.13-.36-.32-.72-.59-1.12,3.62-.36,4.99-2.27,5.08-3.76-.36,.56-1.08,.95-2.3,.95-1.53,0-2.25-.74-2.25-2.09,0-1.75,1.6-3.47,2.97-3.47,.45,0,.92,.13,1.24,.56-.02-.7-.02-1.4-.04-2.11-1.91,.04-4.29,.16-7.56,.4l-.05-1.15c3.31-.18,5.73-.29,7.6-.34,0-.72-.02-1.44-.02-2.16-.45-.16-.61-.27-.61-.41,0-.13,.11-.23,.32-.23,.4,0,1.04,.02,1.57,.04l-.05,1.12v1.64Zm-4.29,6.01c0,.81,.36,1.13,1.48,1.13s1.73-.79,1.78-1.78c-.23-1.24-.95-1.62-1.42-1.62-.68,0-1.84,1.04-1.84,2.27ZM43.14,1.58c.97,.88,1.6,1.6,2.3,2.74l-.86,.65c-.63-1.08-1.3-1.95-2.27-2.85l.83-.54Zm2.3-.67c.95,.9,1.46,1.44,2.16,2.58l-.81,.63c-.65-1.06-1.17-1.71-2.14-2.61l.79-.59Z"/>
  <path class="cls-1" d="M51.83,17.27c-.54-1.78-.76-3.62-.76-5.49,0-2.97,.38-5.67,1.06-8.37-.36-.23-.47-.36-.47-.49,0-.11,.11-.14,.25-.14,.23,0,.63,.09,1.58,.38-.81,2.9-1.21,5.98-1.21,8.37,0,2.02,.29,3.69,.74,5.46l-1.21,.29Zm3.29-10.96c1.06,.05,2.32,.07,3.39,.07,.56,0,1.17-.02,1.84-.04-.02-.9-.02-1.82-.04-2.72-.43-.13-.63-.25-.63-.43,0-.13,.16-.2,.41-.2s.83,.02,1.49,.05c-.02,.54-.02,1.03-.02,1.49,0,.63,0,1.21,.02,1.73,.92-.05,1.94-.13,3.04-.25l.02,1.15c-1.1,.09-2.09,.16-3.06,.23,.02,1.78,.07,4.23,.18,6.23,.95,.54,2.12,1.21,3.17,1.93l-.77,1.1c-.85-.65-1.73-1.24-2.59-1.76-.54,1.26-1.64,1.94-3.24,1.94-1.91,0-3.17-.9-3.17-2.07s1.6-2.27,2.92-2.27c.76,0,1.66,.16,2.45,.52-.07-1.46-.13-3.78-.18-5.56-.83,.04-1.64,.05-2.5,.05-.72,0-1.62,0-2.7-.04l-.02-1.17Zm2.9,7.24c-.85,0-1.71,.63-1.71,1.17,0,.47,.67,1.03,1.67,1.03,1.33,0,2.12-.47,2.41-1.48-.72-.45-1.62-.72-2.38-.72Z"/>
  <path class="cls-1" d="M71.18,16.84v1.15h-1.24l.07-2.7V6.41l-.07-2.63,.07-.07,2.63,.07h1.84c.2-.41,.38-.85,.54-1.33,.14-.43,.22-.68,.27-1.04,1.51,.32,1.78,.47,1.78,.63,0,.2-.14,.27-.68,.32-.2,.45-.45,.97-.7,1.42h3.85l2.63-.07,.07,.07-.07,2.63V15.25l.07,2.7h-1.24v-1.12h-9.81Zm9.81-12.05h-9.81v2.88h9.81v-2.88Zm0,3.89h-9.81v2.97h9.81v-2.97Zm0,3.98h-9.81v3.15h9.81v-3.15Z"/>
  <path class="cls-1" d="M91.72,2.76c1.48,.34,1.76,.47,1.76,.68,0,.14-.16,.29-.7,.34-1.17,3.02-3.06,5.56-5.13,7.08-.2-.31-.52-.61-.86-.86,2.07-1.46,3.76-3.8,4.63-6.14,.14-.4,.25-.77,.31-1.1Zm2.95,7.54c-.2,4.09-1.71,6.5-6.45,7.42-.14-.34-.47-.76-.7-1.01,4-.63,5.71-2.43,5.91-6.41h-.7l-2.7,.07v-1.19l2.7,.07h5.46l2.09-.07,.07,.07-.07,2.2c-.05,1.84-.11,3.1-.27,3.91-.32,1.67-1.28,2.14-2.81,2.14h-.97c-.09-.43-.27-.86-.5-1.21,.68,.07,.97,.09,1.44,.09,1.31,0,1.62-.56,1.78-2,.13-1.08,.16-2.74,.16-4.09h-4.43Zm3.13-8.46c1.31,3.46,3.19,5.89,5.83,7.69-.32,.23-.65,.58-.95,.97-2.56-1.89-4.54-4.56-5.96-8.3l1.08-.36Z"/>
  <path class="cls-1" d="M119.86,5.1c-2.07,.18-3.38,.52-4.63,1.4-1.66,1.15-2.65,2.86-2.65,4.93,0,3.38,3.17,4.09,5.96,4.09,.22,0,.45,0,.67-.02l-.04,1.41h-.29c-3.6,0-7.51-1.03-7.51-5.38,0-2.2,1.03-4.03,2.52-5.28,.38-.25,.76-.49,1.21-.72l-1.46,.29c-2.21,.32-4.27,.59-6.99,.97l-.22-1.24c4.93-.54,8.9-1.1,13.22-1.75l.13,.07,.14,1.13-.07,.09Zm-2.09,2.39c1.03,.81,1.71,1.49,2.48,2.57l-.81,.7c-.7-1.03-1.42-1.84-2.47-2.66l.79-.61Zm1.87-1.26c1.01,.83,1.55,1.33,2.34,2.41l-.77,.68c-.72-1.01-1.28-1.62-2.32-2.45l.76-.65Z"/>
  <path class="cls-1" d="M125.69,8.7c1.15-.45,2.43-.92,3.76-1.39-.34-1.08-.7-2.21-1.1-3.4-.47-.02-.67-.09-.67-.25,0-.09,.14-.18,.29-.23,.41-.14,.9-.25,1.48-.38,.4,1.24,.79,2.52,1.19,3.83,2.47-.83,4.95-1.49,6.43-1.49,1.96,0,3.82,.99,3.82,3.33,0,1.86-1.55,3.4-3.96,3.4-1.19,0-2.18-.23-3.17-.83,.22-.41,.34-.63,.49-1.08,.92,.54,1.8,.7,2.56,.7,1.57,0,2.81-.88,2.81-2.25,0-1.62-1.28-2.16-2.5-2.16s-3.67,.63-6.14,1.46c.86,2.93,1.73,6,2.57,9.15l-1.28,.36c-.86-3.37-1.58-6.1-2.48-9.07-1.22,.47-2.25,.9-3.58,1.49l-.5-1.19Zm8.26-6.43c.86,.61,1.55,1.24,2.23,2l-.92,.77c-.74-.86-1.48-1.55-2.27-2.11l.95-.67Z"/>
  <path class="cls-1" d="M145.98,9.18c3.58-.85,5.49-1.15,7.18-1.15,2.92,0,4.5,1.31,4.5,3.76,0,2-1.1,3.42-3.19,4.29-1.39,.56-2.59,.79-4.75,1.1-.13-.36-.31-.74-.54-1.08,2.09-.27,3.28-.49,4.57-.99,1.75-.68,2.59-1.8,2.59-3.4,0-1.73-1.06-2.57-3.28-2.57-1.55,0-3.24,.31-6.82,1.24l-.27-1.19Z"/>
  <path class="cls-1" d="M174.97,5.1c-2.07,.18-3.38,.52-4.63,1.4-1.66,1.15-2.65,2.86-2.65,4.93,0,3.38,3.17,4.09,5.96,4.09,.22,0,.45,0,.67-.02l-.04,1.41h-.29c-3.6,0-7.51-1.03-7.51-5.38,0-2.2,1.03-4.03,2.52-5.28,.38-.25,.76-.49,1.21-.72l-1.46,.29c-2.21,.32-4.27,.59-6.99,.97l-.22-1.24c4.93-.54,8.89-1.1,13.22-1.75l.13,.07,.14,1.13-.07,.09Z"/>
  <path class="cls-1" d="M180.93,3.31c1.94,0,3.89-.05,5.83-.16-.25,2.58-.7,4.95-1.01,6.05,1.55,.13,3.02,.38,4.52,.79,.04-.65,.07-1.39,.07-2.05,0-.49-.02-.88-.04-1.22-.29-.11-.54-.23-.54-.41,0-.11,.11-.2,.34-.2,.32,0,.88,.04,1.46,.09,.02,.41,.04,.9,.04,1.37,0,1.26-.04,2.11-.09,2.81,.95,.31,1.93,.67,2.95,1.1l-.47,1.19c-.88-.41-1.76-.77-2.61-1.06-.59,3.75-2.81,5.06-5.89,5.76-.18-.31-.34-.58-.65-.95,3.56-.72,4.92-2.5,5.31-5.22-1.8-.54-3.42-.85-4.75-.97-.76,2.23-1.82,3.75-2.48,4.48-.5,.56-1.12,.94-1.89,.94-.85,0-1.89-.77-1.89-2.29,0-2.77,2.59-4.25,5.22-4.25h.14c.41-1.31,.76-3.29,.88-4.81-1.15,.05-2.68,.11-4.45,.13l-.02-1.1Zm-.65,9.87c0,.88,.49,1.22,.74,1.22,.34,0,.67-.11,1.06-.56,.74-.83,1.4-1.85,2.07-3.64-1.93,.02-3.87,1.13-3.87,2.97Z"/>
  <path class="cls-1" d="M203.22,9.08c1.35-.61,2.39-.83,3.48-.83,2.74,0,4.84,1.48,4.84,4.07,0,2.83-2.36,4.84-6.39,4.84-2.48,0-3.8-1.15-3.8-2.59,0-1.28,1.08-2.05,2.32-2.05,1.48,0,2.72,1.13,3.22,2.56l-1.04,.61c-.56-1.42-1.31-2.09-2.14-2.09-.61,0-1.24,.45-1.24,.94,0,.95,1.01,1.49,2.57,1.49,3.02,0,5.13-1.35,5.13-3.8,0-1.39-1.06-2.94-3.71-2.94-2.25,0-4.23,.96-6.32,3.17l-.16,.02-.79-.72v-.14c3.1-3.12,4.99-4.97,7.49-7.31-1.85,.25-3.75,.41-6.14,.47l-.05-1.21c2.25-.04,4.95-.22,7.11-.52l.4-.32h.16c.92,.76,1.06,1.04,1.06,1.19,0,.22-.18,.27-.77,.47-1.62,1.46-2.83,2.63-4.25,3.87l-1.03,.74,.05,.09Z"/>
  <path class="cls-1" d="M216.97,18.26v-.79h5.31V4.63h.86v13.63h-6.18Z"/>
  <path class="cls-1" d="M238.52,4.83c.74,.04,1.44,.05,2.12,.05,.74,0,1.44-.02,2.16-.05,.34-.61,.65-1.28,.95-2-.29-.13-.47-.27-.47-.43,0-.09,.11-.14,.32-.14,.16,0,1.12,.14,1.64,.25-.4,.86-.76,1.6-1.1,2.23,1.48-.11,3.02-.29,4.83-.52l.14,1.12c-2.02,.25-3.83,.43-5.62,.54-.72,1.17-1.37,1.98-2.16,2.67l.05,.05c.77-.41,1.57-.56,2.25-.56,1.35,0,2.11,.83,2.25,2.23,1.67-.65,3.15-1.13,4.68-1.69-.04-.16-.05-.29-.05-.4,0-.22,.09-.29,.2-.29s.16,.05,.25,.14c.38,.45,.7,.99,.9,1.49-2.03,.59-4.12,1.26-5.89,1.89,.05,.9,.09,1.98,.11,2.97l-1.24,.02c0-.86-.02-1.8-.05-2.54-.25,.09-.5,.2-.74,.29-1.35,.54-2.61,1.37-2.61,2.36,0,1.15,.85,1.48,2.77,1.48,2.65,0,4.54-.2,5.76-.34l.04,1.26c-1.37,.13-3.02,.23-5.67,.23s-4.07-.77-4.07-2.57c0-1.58,1.64-2.63,2.92-3.19,.52-.23,1.03-.45,1.51-.65-.14-1.24-.36-1.75-1.57-1.75-1.28,0-2.34,.68-3.94,1.94l-.18-.05-.61-.85,.02-.13c1.51-1.21,2.72-2.45,3.71-3.98-.58,.02-1.13,.04-1.71,.04-.63,0-1.26-.02-1.89-.04l-.02-1.1Z"/>
  <path class="cls-1" d="M259.81,10.73c-.88,1.64-2.02,2.93-3.33,4.14-.25-.31-.56-.56-.92-.79,1.44-1.24,2.43-2.47,3.12-3.89-.22-.23-.38-.43-.38-.54,0-.13,.11-.18,.22-.18,.13,0,.49,.13,1.64,.76l-.34,.5Zm7.33-4.41l2.74-.07v1.3l-2.74-.05h-3.39v6.23c0,.68,.04,1.19,.04,1.62,0,1.1-.56,1.64-1.53,1.64-.67,0-1.57-.18-2.63-.54,.07-.4,.09-.81,.09-1.17,.97,.31,1.71,.45,2.23,.45,.36,0,.52-.16,.52-.76V7.49h-3.64l-2.74,.05v-1.3l2.74,.07h3.64V3.6c-.47-.31-.56-.41-.56-.54,0-.11,.09-.16,.31-.16s.81,.11,1.66,.32l-.13,.86v2.23h3.39Zm-.16,3.22c1.22,1.21,2.3,2.63,3.28,4.27l-1.04,.79c-.99-1.73-2.03-3.17-3.22-4.3l.99-.76Zm4.48-6.1c0,1.1-.9,1.98-1.98,1.98s-1.96-.88-1.96-1.98,.88-1.96,1.96-1.96,1.98,.88,1.98,1.96Zm-3.17,0c0,.67,.54,1.21,1.19,1.21s1.22-.54,1.22-1.21-.56-1.21-1.22-1.21-1.19,.56-1.19,1.21Z"/>
  <path class="cls-1" d="M278.32,8.66l.07,2.74h-1.44l.07-2.74V3.96c-.52-.36-.59-.43-.59-.59,0-.07,.09-.13,.31-.13,.31,0,.86,.13,1.71,.34l-.13,.86v4.21Zm6.91,1.31c0,4.09-2.23,6.59-7.22,7.06-.14-.4-.32-.79-.56-1.17,4.54-.41,6.45-2.34,6.45-5.89V3.71c-.52-.36-.59-.43-.59-.59,0-.07,.09-.13,.31-.13,.31,0,.9,.13,1.75,.34l-.13,.86v5.78Z"/>
  <path class="cls-1" d="M292.27,7.63c1.87,.41,3.19,.81,4.83,1.48l-.49,1.13c-1.55-.61-2.92-1.04-4.75-1.46l.41-1.15Zm.74,9.04c-.4-1.1-.56-1.49-.56-1.67,0-.14,.09-.23,.22-.23,.11,0,.29,.13,.59,.4,5.1-.67,8.53-3.64,10.79-9.63,.38,.47,.7,.77,1.03,1.04-2.18,5.74-5.69,8.82-11.06,9.89l-1.01,.22Zm.29-12.96c1.91,.45,3.48,.95,4.99,1.75l-.58,1.15c-1.37-.76-2.9-1.28-4.83-1.71l.41-1.19Z"/>
  <path class="cls-1" d="M309.52,10.7v-1.46l2.74,.09h7.96l2.74-.09v1.46l-2.74-.07h-7.96l-2.74,.07Z"/>
  <path class="cls-1" d="M328.48,16.96c-.23-1.89-.32-3.44-.32-5.46s.29-4.54,.94-7.83c-.38-.2-.54-.36-.54-.5,0-.13,.13-.18,.36-.18,.25,0,.59,.05,1.71,.32-.88,2.92-1.21,5.78-1.21,8.28,0,1.95,.09,3.39,.41,5.26l-1.35,.11Zm5.73-5.15c-.34,.56-.5,1.04-.5,1.75,0,.76,.94,1.33,3.85,1.33,1.26,0,2.97-.16,4.27-.4l.09,1.33c-1.17,.18-2.86,.31-4.29,.31-3.62,0-5.19-.86-5.19-2.5,0-.72,.18-1.42,.72-2.39l1.04,.58Zm-.92-6.23c1.64-.25,3.42-.38,5.01-.38,1.13,0,2,.04,2.88,.13l-.02,1.19c-.95-.07-1.78-.11-3.06-.11-1.53,0-3.21,.13-4.74,.38l-.07-1.21Z"/>
  <path class="cls-1" d="M349.9,18.13c-.95-1.53-2.07-2.88-3.46-4.05l.99-.81c1.42,1.12,2.59,2.43,3.6,3.91l-1.13,.95Z"/>
  <path class="cls-1" d="M365.67,5.89v-1.1l2.23,.07h1.94l2.14-.07v1.1l-2.14-.07h-1.94l-2.23,.07Zm2,10.98v1.12h-1.13l.07-2.16v-2.09l-.07-1.37,.09-.07,1.53,.07h1.66l1.53-.07,.09,.07-.05,1.37v1.75l.09,2.16h-1.13v-.77h-2.67Zm-1.01-13.5v-1.1l1.62,.07h1.4l1.62-.07v1.1l-1.62-.07h-1.4l-1.62,.07Zm0,5.02v-1.1l1.62,.07h1.4l1.62-.07v1.1l-1.62-.07h-1.4l-1.62,.07Zm0,2.5v-1.1l1.62,.07h1.4l1.62-.07v1.1l-1.62-.07h-1.4l-1.62,.07Zm3.67,2.36h-2.67v2.74h2.67v-2.74Zm5.11,.9c.83-.13,1.71-.29,2.48-.45-.04,.32-.07,.63-.07,.95-1.6,.36-3.28,.67-4.75,.94,0,.32-.11,.54-.27,.54-.23,0-.38-.2-.88-1.55,.49-.02,.86-.04,1.28-.09,.32-.04,.7-.09,1.1-.16v-4.18h-.41l-1.62,.07v-1.08l1.62,.07h1.85l1.62-.07v1.08l-1.62-.07h-.32v4Zm2.21-9.09c-.02-.74-.02-1.48-.02-2.18,0-.4-.02-.81-.09-1.22,1.64,.14,1.85,.27,1.85,.45,0,.22-.16,.27-.65,.4,0,.86,0,1.73,.02,2.56h.85l2.7-.07v1.12l-2.7-.07h-.83c.05,1.84,.14,3.35,.2,3.91,.2,2.11,.61,4.02,1.31,5.53,.4,.85,.59,1.08,.79,1.08,.29,0,.36-.85,.49-2.27,.34,.27,.74,.41,1.01,.52-.14,2.54-.7,3.08-1.49,3.08-.56,0-1.21-.61-1.8-1.91-.59-1.3-1.15-3.31-1.42-6.25-.07-.83-.14-2.2-.18-3.69h-2.52l-2.7,.07v-1.12l2.7,.07h2.48Zm2.59-3.12c.56,.36,1.19,.86,1.67,1.37l-.76,.77c-.45-.52-1.03-1.06-1.55-1.46l.63-.68Z"/>
  <path class="cls-1" d="M388.52,9.8c-.61,.76-1.28,1.48-1.96,2.11-.25-.31-.61-.59-.88-.74,1.42-1.37,2.63-2.81,3.37-4,.23-.4,.49-.94,.56-1.31,1.35,.5,1.67,.68,1.67,.88,0,.25-.18,.31-.83,.31-.34,.61-.76,1.22-1.19,1.84,.81,.09,.9,.2,.9,.36s-.2,.27-.59,.43v8.43h-1.19l.07-2.7v-3.19l.07-2.41Zm1.01-7.87c1.3,.56,1.51,.72,1.51,.95,0,.22-.25,.23-.76,.18-.99,1.01-2.23,1.96-3.58,2.72-.2-.32-.49-.65-.76-.85,1.26-.67,2.38-1.5,3.04-2.2,.31-.32,.43-.54,.54-.81Zm9.62,11.5l.07,2.86c0,1.42-.32,1.78-1.94,1.78h-1.24c-.07-.34-.25-.92-.5-1.26,.68,.09,1.55,.11,1.94,.11s.5-.16,.5-.58v-7.8h-3.39l-2.7,.07v-1.15l2.7,.07h5.1l2.7-.07v1.15l-2.7-.07h-.54v4.88Zm-6.07-9.61v-1.13l2.7,.07h2.86l2.7-.07v1.13l-2.7-.07h-2.86l-2.7,.07Z"/>
  <path class="cls-1" d="M411.75,5.56c-.81-.86-1.57-1.51-2.39-2.07-.92,1.55-1.87,2.72-3.02,3.76-.22-.32-.47-.56-.79-.77,1.28-1.04,2.38-2.54,3.12-4.11,.16-.34,.25-.61,.29-.95,1.44,.34,1.66,.49,1.66,.67s-.16,.31-.65,.31c-.05,.09-.11,.2-.14,.29,.95,.56,1.89,1.28,2.7,2.05l-.76,.83Zm-2.99,2.11h-.25l-1.44,.07v-1.04l1.44,.07h1.94l1.44-.07v1.04l-1.44-.07h-.65v2.04h.65l1.8-.07v1.04l-1.8-.07h-.65v4.92c.9-.18,1.8-.38,2.59-.59-.02,.29-.02,.63-.02,.94-1.46,.41-3.56,.85-5.4,1.24-.05,.36-.14,.49-.31,.49-.22,0-.38-.16-.9-1.49,.49-.02,.83-.05,1.22-.11,.52-.07,1.12-.16,1.76-.27v-5.11h-.9l-1.8,.07v-1.04l1.8,.07h.9v-2.04Zm-1.66,4.21c.38,.7,.72,1.66,.88,2.36l-.92,.4c-.18-.76-.5-1.69-.86-2.38l.9-.38Zm5.46,.4c0,.14-.13,.23-.56,.32-.18,.63-.38,1.22-.68,1.91-.31-.14-.56-.23-.86-.31,.29-.63,.47-1.26,.61-1.93,.05-.25,.09-.43,.11-.63,1.3,.36,1.39,.49,1.39,.63Zm2.45-7.15l-2.05,.05v-1.04l2.05,.05v-1.42c0-.41-.04-.81-.14-1.24,1.75,.16,1.89,.27,1.89,.47,0,.14-.2,.29-.65,.38v1.82h2.39v-1.42c0-.41-.04-.81-.14-1.24,1.75,.16,1.89,.27,1.89,.47,0,.14-.2,.29-.65,.38v1.82h.14l2.16-.05v1.04l-2.16-.05h-.14v2.83h.63l2.16-.05v1.08l-2.16-.05h-5.69l-2.16,.05v-1.08l2.16,.05h.47v-2.83Zm-.13,12.1v.9h-1.15l.07-2.81v-2.72l-.05-2.09,.07-.07,2.09,.07h2.94l2.09-.07,.07,.07-.05,2.09v2.7l.07,2.77h-1.17v-.85h-4.97Zm4.97-5.78h-4.97v1.94h4.97v-1.94Zm0,2.84h-4.97v2h4.97v-2Zm-1.35-6.34v-2.83h-2.39v2.83h2.39Z"/>
  <path class="cls-1" d="M425.61,5.85v-1.1l2.23,.07h1.96l2.14-.07v1.1l-2.14-.07h-1.96l-2.23,.07Zm2,10.98v1.12h-1.13l.07-2.16v-2.09l-.07-1.37,.09-.07,1.53,.07h1.66l1.53-.07,.09,.07-.05,1.37v1.75l.09,2.16h-1.13v-.77h-2.66Zm-1.01-13.5v-1.1l1.62,.07h1.4l1.62-.07v1.1l-1.62-.07h-1.4l-1.62,.07Zm0,5.02v-1.1l1.62,.07h1.4l1.62-.07v1.1l-1.62-.07h-1.4l-1.62,.07Zm0,2.5v-1.1l1.62,.07h1.4l1.62-.07v1.1l-1.62-.07h-1.4l-1.62,.07Zm3.67,2.36h-2.66v2.74h2.66v-2.74Zm2.41,4.66c-.23-.25-.59-.52-.94-.68,1.08-.68,2.07-1.53,2.75-2.45,.22-.27,.41-.58,.52-.9,1.21,.49,1.44,.65,1.44,.83,0,.2-.27,.29-.76,.25-.77,1.12-1.89,2.11-3.02,2.95Zm9.74-5.82v1.1l-2.7-.07h-5.1l-2.7,.07v-1.1l2.7,.07h5.01v-1.98h-4.18l-2.63,.07-.07-.07,.07-2.09v-2.95c0-.52-.04-.95-.13-1.39,1.58,.13,1.73,.22,1.73,.4,0,.2-.09,.27-.54,.41v4.66h4.2l2.63-.09,.07,.07-.07,1.55v1.39l1.71-.05Zm-6.99-4.57l-.07-.05,.07-1.57v-1.89l-.07-1.55,.07-.07,1.91,.07h1.6l1.91-.07,.07,.07-.07,1.55v1.89l.07,1.55-.07,.07-1.91-.07h-1.6l-1.91,.07Zm4.38-.97V3.35h-3.33v3.17h3.33Zm-.59,7.35c1.28,.97,2.21,1.98,3.12,3.1l-.97,.76c-.9-1.22-1.76-2.25-2.97-3.24l.83-.61Z"/>
  <path class="cls-1" d="M446.22,4.83c.74,.04,1.44,.05,2.12,.05,.74,0,1.44-.02,2.16-.05,.34-.61,.65-1.28,.95-2-.29-.13-.47-.27-.47-.43,0-.09,.11-.14,.32-.14,.16,0,1.12,.14,1.64,.25-.4,.86-.76,1.6-1.1,2.23,1.48-.11,3.02-.29,4.83-.52l.14,1.12c-2.02,.25-3.83,.43-5.62,.54-.72,1.17-1.37,1.98-2.16,2.67l.05,.05c.77-.41,1.57-.56,2.25-.56,1.35,0,2.11,.83,2.25,2.23,1.67-.65,3.15-1.13,4.68-1.69-.04-.16-.05-.29-.05-.4,0-.22,.09-.29,.2-.29s.16,.05,.25,.14c.38,.45,.7,.99,.9,1.49-2.03,.59-4.12,1.26-5.89,1.89,.05,.9,.09,1.98,.11,2.97l-1.24,.02c0-.86-.02-1.8-.05-2.54-.25,.09-.5,.2-.74,.29-1.35,.54-2.61,1.37-2.61,2.36,0,1.15,.85,1.48,2.77,1.48,2.65,0,4.54-.2,5.76-.34l.04,1.26c-1.37,.13-3.02,.23-5.67,.23s-4.07-.77-4.07-2.57c0-1.58,1.64-2.63,2.92-3.19,.52-.23,1.03-.45,1.51-.65-.14-1.24-.36-1.75-1.57-1.75-1.28,0-2.34,.68-3.94,1.94l-.18-.05-.61-.85,.02-.13c1.51-1.21,2.72-2.45,3.71-3.98-.58,.02-1.13,.04-1.71,.04-.63,0-1.26-.02-1.89-.04l-.02-1.1Z"/>
  <path class="cls-1" d="M474.84,7.11l2.09-.07,.07,.07-.07,2.09v1.46l.07,2.09-.07,.07-2.09-.07h-3.33v1.42h3.33l2.7-.07v1.06l-2.7-.07h-3.33v1.46h5.1l2.7-.07v1.08l-2.7-.07h-11.13l-2.7,.07v-1.08l2.7,.07h4.92v-1.46h-3.06l-2.7,.07v-1.06l2.7,.07h3.06v-1.42h-3.24l-2.02,.07-.09-.09,.07-2.07v-1.46l-.07-2.09,.07-.07,2.09,.07h3.19v-1.37h-4.74l-2.7,.07v-1.08l2.7,.07h4.74v-1.44c-2.03,.13-4.07,.2-6.18,.25-.11-.34-.29-.63-.58-.97,4.52-.02,8.53-.27,11.58-.67,.38-.05,.72-.16,1.06-.32,.97,.7,1.24,.97,1.24,1.17,0,.13-.07,.18-.27,.18-.16,0-.41-.04-.77-.14-1.69,.18-3.33,.32-4.97,.43v1.51h4.97l2.7-.07v1.08l-2.7-.07h-4.97v1.37h3.33Zm-4.45,.88h-4.18v1.46h4.18v-1.46Zm-4.18,2.32v1.55h4.18v-1.55h-4.18Zm5.29-.86h4.32v-1.46h-4.32v1.46Zm0,2.41h4.32v-1.55h-4.32v1.55Z"/>
  <path class="cls-1" d="M487.61,3.57l-.05,2.11c.29-.02,.47-.02,.79-.02l.18,.09,.27,.34,.02,.18c-.54,.77-.94,1.35-1.37,2.12l-.04,.54c3.04-3.04,5.15-4.23,6.45-4.23,1.69,0,3.06,1.49,3.06,5.42,0,1.66-.11,2.95-.4,3.96,.79,.65,1.17,.97,1.85,1.66l-.81,1.03c-.61-.7-.94-1.01-1.55-1.58-.77,.99-1.82,1.42-3.02,1.42-1.75,0-2.9-.83-2.9-2.07,0-1.03,1.39-2.18,2.72-2.18,.9,0,1.84,.36,2.63,.95,.16-.77,.18-1.64,.18-2.74,0-3.29-.67-4.74-1.78-4.74s-3.64,1.69-6.46,4.59v3.22c0,1.06,0,2.27,.02,3.51h-1.21v-4.77l.09-1.13-.61,.95c-.59,.72-1.24,1.62-1.84,2.36h-.16l-.76-.72,.02-.18c1.13-1.31,2.3-2.9,3.35-4.52l.02-2.27c-.99,.13-2,.31-2.99,.54l-.18-1.1c1.1-.2,2.11-.36,3.2-.52l.05-2.77c-.41-.16-.58-.29-.58-.43,0-.13,.14-.2,.32-.2,.25,0,.67,.02,1.6,.11l-.13,1.06Zm5.11,9.85c-.65,0-1.55,.65-1.55,1.13,0,.59,.76,.97,1.8,.97,.79,0,1.44-.29,2.03-1.1-.68-.59-1.66-1.01-2.29-1.01Z"/>
  <path class="cls-1" d="M502.38,5.29c.56,.04,1.04,.07,1.6,.07,.61,0,1.33-.04,2.11-.09,.2-.79,.36-1.58,.49-2.38-.4-.22-.5-.34-.5-.49,0-.11,.11-.18,.25-.18,.23,0,.49,.04,1.73,.27-.18,.88-.38,1.78-.61,2.68,.92-.09,1.84-.2,2.66-.32l.09,1.15c-.94,.13-2.02,.25-3.06,.32-.88,3.11-2.05,6.23-3.51,9.31l-1.21-.56c1.42-2.88,2.59-5.76,3.38-8.66-.72,.05-1.37,.07-1.87,.07s-.97,0-1.46-.04l-.09-1.17Zm11.18,3.08c-.45,.54-.65,1.04-.65,1.67,0,.7,.16,1.26,.59,3.13,1.35,.5,2.77,1.33,3.92,2.16l-.7,1.13c-1.1-.86-2.07-1.51-3.08-1.94-.02,1.84-1.3,2.74-3.12,2.74-1.94,0-3.26-.83-3.26-2.09,0-1.37,1.13-2.47,3.28-2.47,.59,0,1.1,.07,1.6,.16-.29-1.37-.45-2.2-.45-2.9,0-.81,.22-1.44,.74-2.09l1.12,.49Zm-3.2,5.44c-1.39,0-1.94,.63-1.94,1.26s.74,1.08,2.02,1.08,1.96-.58,1.96-1.51c0-.13,0-.4-.04-.52-.68-.18-1.17-.31-2-.31Zm2.21-8.91c1.57,.38,3.15,.99,4.72,1.82l-.59,1.08c-1.51-.83-3.1-1.46-4.61-1.87l.49-1.03Z"/>
  <path class="cls-1" d="M521.86,6.64c1.55-.18,2.95-.32,4.09-.43,.32-1.03,.59-2.05,.85-3.08-.36-.14-.5-.27-.5-.41,0-.11,.13-.18,.29-.18,.31,0,.67,.07,1.62,.29-.29,1.08-.61,2.18-.95,3.28,.49-.04,.86-.05,1.12-.05,1.93,0,2.75,.65,2.75,3.15,0,1.89-.36,4.16-.97,5.85-.5,1.39-1.22,1.96-2.09,1.96-.76,0-1.98-.63-2.84-1.39,.22-.32,.38-.63,.54-1.01,.81,.7,1.69,1.08,2.14,1.08s.83-.43,1.1-1.26c.56-1.66,.88-3.75,.88-5.22,0-1.71-.34-2.05-1.67-2.05-.31,0-.77,.02-1.35,.07-1.1,3.15-2.5,6.34-4.16,9.45l-1.1-.54c1.71-3.02,3.01-5.92,3.98-8.79-1.01,.09-2.21,.25-3.57,.43l-.14-1.15Zm11.36-1.17c1.82,1.94,2.95,3.92,3.69,5.94l-1.21,.7c-.61-2.14-1.96-4.38-3.55-5.96l1.06-.68Zm.36-2.88c1.03,.81,1.71,1.49,2.48,2.57l-.81,.7c-.7-1.03-1.42-1.84-2.47-2.66l.79-.61Zm1.87-1.26c1.01,.83,1.55,1.33,2.34,2.41l-.77,.68c-.72-1.01-1.28-1.62-2.32-2.45l.76-.65Z"/>
  <path class="cls-1" d="M544.06,5.76c-.38,1.82-.61,4-.74,5.55,1.42-1.3,3.29-2.38,5.83-2.38,2.81,0,4.59,1.4,4.59,3.55,0,3.02-3.6,4.65-7.96,4.65-.72,0-1.37,0-2.16-.07-.07-.38-.18-.76-.32-1.19,.52,.05,.97,.09,1.78,.09,3.91-.02,7.24-.99,7.24-3.73,0-.9-.88-2.18-3.37-2.18-1.75,0-3.1,.63-4.56,1.78-.43,.36-.72,.61-.95,.97l-.18,.13-1.1-.14-.09-.14c.11-2.81,.31-4.54,.7-7l1.28,.13Zm.99-3.15c1.76,.43,3.42,1.01,4.95,1.73l-.59,1.12c-1.6-.81-3.1-1.35-4.84-1.8l.49-1.04Z"/>
  <path class="cls-1" d="M561.02,9.16c-.41,1.76-1.03,3.31-2.16,5.13-.18-.32-.4-.61-.67-.86,1.21-1.82,2.21-4.39,2.59-6.99h-.36l-1.94,.07v-1.08l1.94,.07h.5V2.94c0-.52-.05-.99-.14-1.42,1.6,.11,1.76,.23,1.76,.41,0,.2-.16,.31-.59,.4v3.19h.47l1.66-.07v1.08l-1.66-.07h-.47v2.84l.58-.41c.59,.63,1.04,1.22,1.46,1.95l-.81,.63c-.34-.67-.76-1.31-1.22-1.89v2.72l.07,5.83h-1.17l.16-8.95Zm3.55,5.98c1.22-.43,2.3-.94,3.46-1.6-.04,.36-.04,.81-.02,1.1-1.06,.65-2.16,1.21-3.35,1.73-.02,.45-.11,.59-.31,.59s-.43-.29-.95-1.51c.47-.09,.97-.23,1.17-.31Zm5.42-10.75c.34-.58,.67-1.21,.92-1.76,.18-.4,.31-.77,.36-1.03,1.22,.41,1.49,.59,1.49,.77s-.14,.23-.58,.25c-.29,.56-.67,1.17-1.04,1.76h.86l2.7-.07v1.03l-2.7-.07h-2.05v1.48h1.3l2.52-.07v1.04l-2.52-.07h-1.3v1.64h2.27l2.7-.07v1.06l-2.7-.07h-2.27v.74c.36,.79,.83,1.51,1.37,2.2,.47-.41,.88-.86,1.22-1.35,.2-.27,.32-.45,.47-.77,1.1,.63,1.26,.79,1.26,.97s-.22,.22-.65,.2c-.58,.65-1.06,1.13-1.67,1.66,.86,.88,1.91,1.6,3.13,2.23-.36,.25-.61,.56-.83,.96-2.18-1.37-3.42-2.72-4.36-4.54l.11,3.91c0,1.21-.47,1.55-2.09,1.55h-.5c-.07-.41-.25-.88-.45-1.22,.68,.07,1.06,.09,1.48,.09,.34,0,.43-.07,.43-.58v-6.03h-2.03l-2.7,.07v-1.06l2.7,.07h2.03v-1.64h-1.28l-2.52,.07v-1.04l2.52,.07h1.28v-1.48h-1.69l-2.7,.07v-1.03l2.7,.07h2.81Zm-4.16,6.62c.59,.38,1.22,.94,1.75,1.55l-.81,.77c-.52-.65-1.1-1.21-1.71-1.62l.77-.7Zm1.4-9.18c.43,.41,.92,1.04,1.28,1.71l-.99,.59c-.38-.72-.77-1.3-1.21-1.76l.92-.54Z"/>
  <path class="cls-1" d="M590.46,5.89c1.17,.92,1.31,1.1,1.31,1.3s-.09,.31-.61,.52c-1.17,2.61-2.43,4.46-3.85,6.16,.68,.43,1.66,1.13,2.32,1.64l-.85,1.03c-1.87-1.62-4.25-3.04-6.27-4.1l.74-.86c1.06,.52,2.05,1.08,3.06,1.69,1.37-1.64,2.59-3.48,3.58-5.87l-6.18,.14c-1.01,1.69-2.27,3.21-4.07,4.84-.27-.34-.59-.67-.9-.85,2.11-1.75,3.98-4.38,5.02-6.82,.18-.43,.41-.9,.54-1.39,1.4,.43,1.66,.59,1.66,.83,0,.2-.16,.27-.68,.31-.2,.47-.65,1.44-1.01,2l5.51-.14,.45-.41h.22Z"/>
  <path class="cls-1" d="M596.73,5.29c.56,.04,1.04,.07,1.6,.07,.61,0,1.33-.04,2.11-.09,.2-.79,.36-1.58,.49-2.38-.4-.22-.5-.34-.5-.49,0-.11,.11-.18,.25-.18,.23,0,.49,.04,1.73,.27-.18,.88-.38,1.78-.61,2.68,.92-.09,1.84-.2,2.66-.32l.09,1.15c-.94,.13-2.02,.25-3.06,.32-.88,3.11-2.05,6.23-3.51,9.31l-1.21-.56c1.42-2.88,2.59-5.76,3.38-8.66-.72,.05-1.37,.07-1.87,.07s-.97,0-1.46-.04l-.09-1.17Zm11.18,3.08c-.45,.54-.65,1.04-.65,1.67,0,.7,.16,1.26,.59,3.13,1.35,.5,2.77,1.33,3.92,2.16l-.7,1.13c-1.1-.86-2.07-1.51-3.08-1.94-.02,1.84-1.3,2.74-3.12,2.74-1.94,0-3.26-.83-3.26-2.09,0-1.37,1.13-2.47,3.28-2.47,.59,0,1.1,.07,1.6,.16-.29-1.37-.45-2.2-.45-2.9,0-.81,.22-1.44,.74-2.09l1.12,.49Zm-3.2,5.44c-1.39,0-1.94,.63-1.94,1.26s.74,1.08,2.02,1.08,1.96-.58,1.96-1.51c0-.13,0-.4-.04-.52-.68-.18-1.17-.31-2-.31Zm2.21-8.91c1.57,.38,3.15,.99,4.72,1.82l-.59,1.08c-1.51-.83-3.1-1.46-4.61-1.87l.49-1.03Z"/>
  <path class="cls-1" d="M14.07,74.7l.43-.34h.22c.79,.77,1.15,1.24,1.15,1.44s-.2,.31-.5,.43c-2.41,5.76-5.17,8.75-10.23,10.75-.16-.29-.41-.67-.77-1.03,5.1-2.02,7.74-5.08,9.61-10.14l-5.4,.02c-1.17,1.78-2.48,3.17-4.05,4.54-.31-.34-.63-.58-.99-.81,2.32-1.96,3.96-3.94,4.92-6.32-.32-.29-.43-.43-.43-.56,0-.11,.11-.18,.18-.18,.25,0,.58,.11,1.85,.7-.25,.54-.52,1.04-.79,1.51l4.81-.02Z"/>
  <path class="cls-1" d="M23.94,78.66l.07,2.74h-1.44l.07-2.74v-4.7c-.52-.36-.59-.43-.59-.59,0-.07,.09-.13,.31-.13,.31,0,.86,.13,1.71,.34l-.13,.86v4.21Zm6.91,1.31c0,4.09-2.23,6.59-7.22,7.06-.14-.4-.32-.79-.56-1.17,4.54-.41,6.45-2.34,6.45-5.89v-6.27c-.52-.36-.59-.43-.59-.59,0-.07,.09-.13,.31-.13,.31,0,.9,.13,1.75,.34l-.13,.86v5.78Z"/>
  <path class="cls-1" d="M44.3,83.61h3.65l2.74-.07v1.31l-2.74-.07h-8.41l-2.74,.07v-1.31l2.74,.07h3.42v-6.88h-2.27l-2.74,.05v-1.31l2.74,.09h6.19l2.74-.09v1.31l-2.74-.05h-2.59v6.88Z"/>
  <path class="cls-1" d="M65.5,74.56c-1.15,1.22-2.38,2.3-3.67,3.3,.38,.09,.79,.22,1.17,.32l-.07,1.17v4.93l.07,2.75h-1.49l.07-2.74v-5.76l-.29-.29c-1.89,1.35-3.94,2.5-6.23,3.51-.22-.34-.5-.68-.81-.97,4.07-1.71,7.8-4.25,10.44-7.47-.16-.25-.29-.49-.29-.58,0-.13,.11-.2,.23-.2,.16,0,.45,.18,1.73,1.12l-.86,.9Z"/>
  <path class="cls-1" d="M79.34,79.72c0,3.87-1.75,5.91-5.33,7.26-.2-.4-.5-.76-.79-1.06,3.17-1.13,4.72-2.97,4.72-6.18v-.65h-4.05l-2.74,.05v-1.28l2.74,.07h8.21l2.74-.07v1.28l-2.74-.05h-2.75v.63Zm-3.48-5.78h4.41l2.74-.07v1.3l-2.74-.05h-4.41l-2.74,.05v-1.3l2.74,.07Z"/>
  <path class="cls-1" d="M98.32,77.2c-.95,1.03-1.94,1.91-3.01,2.68,.32,.09,.56,.14,.85,.23l-.07,.92v4l.05,2.29h-1.33l.05-2.27v-4.57l-.16-.14c-1.51,1.04-3.19,1.93-5.15,2.77-.2-.32-.4-.58-.74-.88,3.42-1.49,6.36-3.29,8.61-6.01-.14-.23-.23-.41-.23-.5,0-.14,.07-.22,.22-.22s.54,.2,1.64,1.01l-.72,.7Z"/>
  <path class="cls-1" d="M117.04,75.8c-.2,5.96-4.14,10.19-9.6,11.09-.16-.4-.38-.77-.67-1.13,4.93-.79,8.75-4.54,8.82-9.9h-7.35l-2.72,.07v-1.31l2.72,.07h6.1l2.61-.07,.11,.09-.04,1.1Zm-.41-3.58c1.03,.81,1.71,1.49,2.48,2.57l-.81,.7c-.7-1.03-1.42-1.84-2.47-2.67l.79-.61Zm1.87-1.26c1.01,.83,1.55,1.33,2.34,2.41l-.77,.68c-.72-1.01-1.28-1.62-2.32-2.45l.76-.65Z"/>
  <path class="cls-1" d="M123.98,86.96c-.23-1.89-.32-3.44-.32-5.46s.29-4.54,.94-7.83c-.38-.2-.54-.36-.54-.5,0-.13,.13-.18,.36-.18,.25,0,.59,.05,1.71,.32-.88,2.92-1.21,5.78-1.21,8.28,0,1.95,.09,3.39,.41,5.26l-1.35,.11Zm5.73-5.15c-.34,.56-.5,1.04-.5,1.75,0,.76,.94,1.33,3.85,1.33,1.26,0,2.97-.16,4.27-.4l.09,1.33c-1.17,.18-2.86,.31-4.29,.31-3.62,0-5.19-.86-5.19-2.5,0-.72,.18-1.42,.72-2.39l1.04,.58Zm-.92-6.23c1.64-.25,3.42-.38,5.01-.38,1.13,0,2,.04,2.88,.13l-.02,1.19c-.95-.07-1.78-.11-3.06-.11-1.53,0-3.21,.13-4.74,.38l-.07-1.21Z"/>
  <path class="cls-1" d="M143.77,76.34h-.45l-2.16,.07v-1.12l2.16,.07h.45v-2.47c0-.52-.04-.95-.13-1.39,1.58,.09,1.84,.22,1.84,.4,0,.14-.13,.27-.58,.38v3.06l1.78-.05v1.12l-1.78-.05v3.17c.67-.16,1.39-.38,2.14-.59,0,.32,0,.65,.02,.95-.68,.22-1.42,.45-2.16,.67v2.16l.07,3.22c0,1.44-.18,1.78-2.27,1.78h-.49c-.09-.41-.31-.92-.5-1.26,.68,.09,1.12,.11,1.51,.11,.45,0,.54-.16,.54-.58v-5.1c-.54,.16-1.08,.31-1.6,.45-.07,.52-.13,.67-.36,.67-.18,0-.32-.31-.76-1.62,.5-.07,.81-.13,1.22-.22,.49-.11,.97-.22,1.49-.34v-3.49Zm3.64,6.48c.02,.49-.11,.59-.31,.59-.16,0-.4-.36-.92-1.55,.27-.04,.92-.23,1.12-.31,.63-.25,1.58-.67,2.41-1.1,.04-1.71,.02-4.03,0-7,0-.45-.02-1.12-.14-1.73,1.51,.14,1.85,.25,1.85,.49,0,.18-.14,.25-.58,.36-.02,5.26,0,8.52-.16,10.12-.31,2.77-1.58,4.36-4.45,5.24-.16-.36-.41-.68-.74-.95,2.7-.74,3.87-2.02,4.11-4.43,.04-.27,.05-.59,.07-.96-.7,.4-1.51,.83-2.27,1.22Zm.52-7.96c.54,.85,1.04,1.78,1.46,2.77l-1.1,.58c-.29-.86-.77-2.05-1.31-2.88l.95-.47Zm6.27,5.11c1.13,.79,2.21,1.69,3.13,2.59l-.92,.92c-.76-.85-1.78-1.84-2.9-2.68v5.29c0,.43,.07,.5,1.19,.5,1.62,0,1.71-.09,1.76-2.03,.47,.27,.86,.45,1.15,.52-.07,2.27-.52,2.59-2.86,2.59-2.14,0-2.34-.23-2.34-1.48v-13.07c0-.52-.04-.95-.13-1.39,1.58,.07,1.76,.2,1.76,.38s-.16,.27-.54,.4v8.08l.68-.63Zm.63-1.69c-.25-.22-.61-.49-.88-.67,.49-.52,1.15-1.39,1.51-1.94,.2-.29,.31-.49,.43-.81,1.22,.79,1.39,.95,1.39,1.13s-.23,.23-.65,.18c-.52,.67-1.17,1.48-1.8,2.11Z"/>
  <path class="cls-1" d="M166.35,81.85v1.67h1.31l2.7-.07v1.08l-2.7-.07h-1.31v.74l.07,2.88h-1.21l.07-2.88v-.74h-1.51l-2.7,.07v-1.08l2.7,.07h1.51v-1.67h-1.21l-2.07,.07-.09-.13,.07-2.03v-1.91l-.07-2.09,.07-.07,2.09,.07h3.42l2.09-.07,.07,.07-.07,2.09v1.91l.07,2.05-.07,.11-2.09-.07h-1.15Zm-4.02-9.98c.58,.81,1.1,1.76,1.46,2.61l-1.12,.47c-.36-.97-.85-1.94-1.37-2.7l1.03-.38Zm2.95,6.46v-1.69h-2.25v1.69h2.25Zm-2.25,2.63h2.25v-1.75h-2.25v1.75Zm2.16-9.31c.58,.88,.97,1.82,1.28,2.74l-1.1,.36c-.31-1.01-.67-1.87-1.19-2.81l1.01-.29Zm3.35,4.99h-2.2v1.69h2.2v-1.69Zm0,4.32v-1.75h-2.2v1.75h2.2Zm1.51-8.59c0,.2-.14,.23-.65,.29-.32,.77-.65,1.49-1.17,2.32-.23-.2-.65-.36-.92-.43,.38-.68,.7-1.42,.88-2.02,.13-.4,.16-.58,.22-.9,1.37,.4,1.64,.58,1.64,.74Zm3.26,4.88c.07,1.8,.18,3.64,.61,5.4,.56-.77,1.06-1.69,1.55-2.81,.18-.4,.31-.88,.34-1.21,1.37,.54,1.58,.68,1.58,.86,0,.22-.16,.25-.61,.25-.88,1.78-1.67,3.1-2.52,4.11,.18,.5,.38,.95,.61,1.39,.67,1.26,1.1,1.53,1.39,1.53s.47-.67,.49-2.18c.36,.22,.79,.43,1.04,.52-.18,2.58-.79,2.99-1.51,2.99-.41,0-1.31-.47-2.14-1.94-.25-.45-.49-.92-.68-1.44-1.1,1.04-2.4,1.78-4.16,2.56-.27-.36-.54-.63-.88-.94,2.03-.68,3.49-1.48,4.68-2.7-.61-2.03-.79-4.2-.86-6.32l-2.05,.18-.07-1.13,2.09-.05c-.02-.76-.04-1.55-.04-2.41,0-1.39-.05-1.91-.14-2.34,1.6,.13,1.84,.25,1.84,.45,0,.16-.2,.27-.59,.43v1.4c0,.86,0,1.67,.02,2.41l1.85-.13,2.52-.23,.05,1.13-2.52,.09-1.87,.13Zm2.09-4.61c.67,.36,1.28,.81,1.87,1.37l-.79,.79c-.54-.54-1.21-1.1-1.84-1.48l.76-.68Z"/>
  <path class="cls-1" d="M194.25,83.88c-2.16,1.98-5.01,3.21-7.22,3.21-2.56,0-3.92-.95-3.92-3.82,0-2.47,.07-6.21,.16-10.01-.43-.16-.54-.29-.54-.43,0-.13,.14-.22,.41-.22,.22,0,.72,.02,1.51,.09-.2,4.32-.29,7.27-.29,10.43,0,1.98,.54,2.63,2.57,2.63,2.25,0,4.77-1.22,6.68-3.12,.22,.49,.43,.92,.63,1.24Z"/>
  <path class="cls-1" d="M209.96,75.1c-2.07,.18-3.38,.52-4.63,1.4-1.66,1.15-2.65,2.86-2.65,4.93,0,3.38,3.17,4.09,5.96,4.09,.22,0,.45,0,.67-.02l-.04,1.41h-.29c-3.6,0-7.51-1.03-7.51-5.38,0-2.2,1.03-4.03,2.52-5.28,.38-.25,.76-.49,1.21-.72l-1.46,.29c-2.21,.32-4.27,.59-6.99,.97l-.22-1.24c4.93-.54,8.9-1.1,13.22-1.75l.13,.07,.14,1.13-.07,.09Z"/>
  <path class="cls-1" d="M225.95,74.57c-1.4,.49-2.75,.86-4.07,1.15,.38,.77,.81,1.51,1.28,2.21,1.35-.36,2.75-.86,4.14-1.53l.49,.96c-1.35,.61-2.68,1.1-3.98,1.46,.61,.83,1.53,1.85,2.41,2.5l.07,.16-.18,.7-.14,.09c-1.24,0-2.59,.02-3.84,.05l-.04-.88c.72-.07,1.46-.16,2.18-.23-.54-.61-1.17-1.37-1.67-2.09-1.82,.43-3.53,.61-4.97,.61-.5,0-1.49-.09-2.32-.31l.4-.92c.65,.09,1.49,.2,2.12,.2,1.15,0,2.59-.14,4.16-.49-.45-.74-.86-1.51-1.26-2.29-1.66,.31-3.29,.47-4.97,.5l-.09-1.06c1.58,0,3.08-.14,4.59-.41-.31-.65-.54-1.3-.77-1.93-.5-.05-.63-.16-.63-.31,0-.13,.2-.22,.4-.25,.25-.05,.52-.09,1.37-.18,.22,.94,.43,1.53,.81,2.43,1.31-.29,2.67-.68,4.12-1.19l.4,1.03Zm-8.82,8.39c.22,2.7,3.11,2.79,5.35,2.79,.79,0,1.51-.04,2.56-.11l-.02,1.24c-.92,.09-1.71,.11-2.56,.11-2.88,0-6.27-.49-6.37-3.96l1.04-.07Z"/>
  <path class="cls-1" d="M233.05,75.24c1.91-.16,3.85-.29,5.82-.34v-1.89c-.47-.13-.63-.27-.63-.43,0-.14,.16-.2,.38-.2s.54,0,1.53,.04c-.04,.88-.05,1.69-.07,2.43,.97-.02,1.93-.04,2.88-.04,.68,0,1.55,.02,2.23,.04l.04,1.08c-.68-.02-1.57-.04-2.25-.04-.9,0-1.89,.02-2.92,.04-.02,.5-.02,.95-.02,1.35s0,.9,.02,1.46c1.28-.11,2.67-.31,4.21-.56l.25,1.08c-1.49,.27-2.99,.47-4.43,.59,.04,1.17,.09,2.45,.13,3.53,1.67,.67,3.46,1.55,5.17,2.47l-.7,1.13c-1.42-.88-2.99-1.66-4.43-2.34-.18,1.84-1.48,2.52-3.12,2.52-2.47,0-3.73-1.1-3.73-2.23,0-1.03,1.64-2.3,3.73-2.3,.38,0,1.24,.16,1.87,.36-.04-.97-.07-2.03-.11-3.06-.72,.05-1.44,.07-2.12,.07-1.55,0-2.48-.4-3.15-.79l.68-.85c.63,.36,1.28,.54,2.47,.54,.67,0,1.37-.02,2.11-.07-.02-.54-.02-1.04-.02-1.48v-1.39c-1.91,.05-3.91,.16-5.74,.32l-.07-1.04Zm3.96,8.46c-1.35,0-2.41,.67-2.41,1.24,0,.52,.92,1.1,2.54,1.1,1.26,0,1.87-.76,1.87-1.85-.72-.29-1.49-.49-2-.49Z"/>
  <path class="cls-1" d="M262.89,83.88c-2.16,1.98-5.01,3.21-7.22,3.21-2.56,0-3.92-.95-3.92-3.82,0-2.47,.07-6.21,.16-10.01-.43-.16-.54-.29-.54-.43,0-.13,.14-.22,.41-.22,.22,0,.72,.02,1.51,.09-.2,4.32-.29,7.27-.29,10.43,0,1.98,.54,2.63,2.57,2.63,2.25,0,4.77-1.22,6.68-3.12,.22,.49,.43,.92,.63,1.24Z"/>
  <path class="cls-1" d="M267.01,75.85c1.28-.02,2.5-.09,3.73-.22,.18-.9,.36-1.8,.5-2.7-.45-.16-.58-.31-.58-.43s.14-.2,.29-.2c.31,0,.97,.05,1.73,.13-.2,1.03-.4,2.03-.63,3.06,.85-.11,1.67-.23,2.54-.38l.16,1.19c-1.01,.14-1.98,.29-2.97,.4-.79,3.44-1.78,6.9-3.06,10.33l-1.22-.41c1.26-3.28,2.23-6.52,2.97-9.79-1.13,.11-2.27,.18-3.44,.22l-.02-1.19Zm7.96,6.86c-.05,.41-.11,.74-.11,1.12,0,1.22,.61,1.71,2.97,1.71,1.19,0,2.27-.07,3.49-.2l.09,1.28c-1.26,.09-2.32,.16-3.58,.16-3.13,0-4.14-.94-4.14-2.68,0-.52,.05-.99,.16-1.57l1.12,.18Zm.85-6.3c1.8,0,3.62,.07,5.42,.38l-.14,1.22c-1.8-.31-3.53-.41-5.33-.45l.05-1.15Z"/>
  <path class="cls-1" d="M288.45,87.99c-1.39,0-2.48-1.12-2.48-2.49s1.1-2.45,2.48-2.45,2.48,1.08,2.48,2.45-1.1,2.49-2.48,2.49Zm0-.81c.9,0,1.66-.77,1.66-1.67s-.76-1.64-1.66-1.64-1.66,.74-1.66,1.64,.76,1.67,1.66,1.67Z"/>
  <path class="cls-1" d="M15.13,142.32l.07,.07-.07,2.27v5.17l.07,2.25-.09,.09-2.25-.07h-.59v3.83c0,.52,.09,.67,2.21,.67s2.23-.13,2.27-2.09c.5,.13,.85,.27,1.19,.38-.05,2.45-.5,2.83-3.42,2.83-3.15,0-3.42-.34-3.42-1.51v-4.1h-2.47c-.14,3.96-2.38,5.29-6.39,5.83-.13-.31-.4-.81-.7-1.13,3.51-.34,5.73-1.12,5.83-4.7h-.36l-2.27,.07-.07-.09,.07-2.25v-5.17l-.07-2.27,.07-.07,2.27,.07h5.85l2.27-.07Zm-9.24,1.08v1.91H13.96v-1.91H5.89Zm0,4.75H13.96v-1.89H5.89v1.89Zm0,2.93H13.96v-1.98H5.89v1.98Z"/>
  <path class="cls-1" d="M21.78,145.85c1.28-.02,2.5-.09,3.73-.22,.18-.9,.36-1.8,.5-2.7-.45-.16-.58-.31-.58-.43s.14-.2,.29-.2c.31,0,.97,.05,1.73,.13-.2,1.03-.4,2.03-.63,3.06,.85-.11,1.67-.23,2.54-.38l.16,1.19c-1.01,.14-1.98,.29-2.97,.4-.79,3.44-1.78,6.9-3.06,10.33l-1.22-.41c1.26-3.28,2.23-6.52,2.97-9.79-1.13,.11-2.27,.18-3.44,.22l-.02-1.19Zm7.96,6.86c-.05,.41-.11,.74-.11,1.12,0,1.22,.61,1.71,2.97,1.71,1.19,0,2.27-.07,3.49-.2l.09,1.28c-1.26,.09-2.32,.16-3.58,.16-3.13,0-4.14-.94-4.14-2.68,0-.52,.05-.99,.16-1.57l1.12,.18Zm.85-6.3c1.8,0,3.62,.07,5.42,.38l-.14,1.22c-1.8-.31-3.53-.41-5.33-.45l.05-1.15Z"/>
  <path class="cls-1" d="M47.71,143.89c0-.61-.05-1.21-.14-1.64,1.8,.07,2.02,.22,2.02,.43s-.2,.32-.59,.47c0,1.37-.02,2.27-.05,2.94,.34,1.89,.95,3.75,1.98,5.37,.9,1.44,2.14,2.63,3.55,3.57,.83,.56,1.71,.99,2.61,1.42-.32,.23-.65,.74-.95,1.13-3.67-1.53-6.55-4.84-7.65-8.91-.97,4.2-3.46,7.11-7.08,9-.29-.38-.58-.7-1.01-1.04,3.89-1.76,6.41-4.79,7.13-9.27,.13-.79,.2-1.64,.2-2.56v-.9Z"/>
  <path class="cls-1" d="M60.38,144.83c.74,.04,1.44,.05,2.12,.05,.74,0,1.44-.02,2.16-.05,.34-.61,.65-1.28,.95-2-.29-.13-.47-.27-.47-.43,0-.09,.11-.14,.32-.14,.16,0,1.12,.14,1.64,.25-.4,.86-.76,1.6-1.1,2.23,1.48-.11,3.02-.29,4.83-.52l.14,1.12c-2.02,.25-3.83,.43-5.62,.54-.72,1.17-1.37,1.98-2.16,2.67l.05,.05c.77-.41,1.57-.56,2.25-.56,1.35,0,2.11,.83,2.25,2.23,1.67-.65,3.15-1.13,4.68-1.69-.04-.16-.05-.29-.05-.4,0-.22,.09-.29,.2-.29s.16,.05,.25,.14c.38,.45,.7,.99,.9,1.49-2.03,.59-4.12,1.26-5.89,1.89,.05,.9,.09,1.98,.11,2.97l-1.24,.02c0-.86-.02-1.8-.05-2.54-.25,.09-.5,.2-.74,.29-1.35,.54-2.61,1.37-2.61,2.36,0,1.15,.85,1.48,2.77,1.48,2.65,0,4.54-.2,5.76-.34l.04,1.26c-1.37,.13-3.02,.23-5.67,.23s-4.07-.77-4.07-2.57c0-1.58,1.64-2.63,2.92-3.19,.52-.23,1.03-.45,1.51-.65-.14-1.24-.36-1.75-1.57-1.75-1.28,0-2.34,.68-3.94,1.94l-.18-.05-.61-.85,.02-.13c1.51-1.21,2.72-2.45,3.71-3.98-.58,.02-1.13,.04-1.71,.04-.63,0-1.26-.02-1.89-.04l-.02-1.1Z"/>
  <path class="cls-1" d="M82.85,143.3l2.16-.07v1.08l-2.16-.07h-.94c.29,.7,.5,1.42,.7,2.2l-1.15,.36c-.11-.85-.34-1.75-.67-2.56h-1.24c-.49,.61-1.03,1.17-1.69,1.73-.2-.27-.49-.58-.76-.74,1.06-.85,1.87-1.75,2.48-2.9,.11-.22,.2-.49,.25-.72,1.3,.31,1.53,.45,1.53,.63,0,.13-.09,.25-.67,.27-.14,.27-.31,.54-.47,.79h2.61Zm3.24,8.7c1.58,2.93,3.89,4.11,7.36,4.79-.31,.36-.56,.68-.76,1.12-3.33-.76-5.71-2.25-7.31-5.1-.9,2.84-3.44,4.54-7.02,5.15-.22-.38-.43-.67-.86-1.01,3.91-.52,6.32-2.18,7.02-4.95h-4.36l-2.7,.07v-1.13l2.7,.07h4.54c.13-.85,.13-1.71,.13-2.57-1.76,.2-3.56,.34-5.56,.45-.09-.34-.27-.72-.56-1.06,4.29-.13,7.81-.59,10.3-1.06,.38-.07,.72-.18,1.1-.34,.97,.7,1.21,.97,1.21,1.13s-.05,.25-.27,.25c-.16,0-.41-.04-.77-.14-1.48,.25-2.88,.47-4.27,.63-.02,.92-.05,1.82-.18,2.72h4.95l2.7-.07v1.13l-2.7-.07h-4.68Zm3.78-7.76c.23,.54,.38,.99,.58,1.64l-1.13,.36c-.13-.67-.29-1.24-.58-2h-2c-.34,.59-.72,1.13-1.15,1.67-.29-.23-.63-.41-.97-.54,.81-.88,1.53-2.18,1.94-3.12,.09-.22,.14-.45,.18-.68,1.31,.36,1.49,.5,1.49,.65,0,.18-.04,.25-.61,.29-.13,.27-.25,.54-.38,.79h4.32l2.16-.07v1.08l-2.16-.07h-1.69Z"/>
  <path class="cls-1" d="M105.52,147.62v1.06l-2.16-.07h-4.12v2.9c0,2.77-.32,4.29-1.31,6-.29-.32-.56-.54-.9-.74,.86-1.55,1.13-2.74,1.13-5.15v-1.84l-.07-2.09,.07-.07,1.66,.05c-.13-.76-.32-1.49-.54-2.18l1.01-.22c.22,.74,.41,1.58,.54,2.41h1.53c.18-.59,.31-1.22,.38-1.84,.04-.2,.05-.4,.05-.61,1.37,.34,1.53,.47,1.53,.61,0,.13-.09,.22-.58,.25-.13,.54-.23,1.06-.4,1.58l2.18-.07Zm-2.45-3.6l2.16-.07v1.04l-2.16-.07h-3.17l-2.16,.07v-1.04l2.16,.07h1.06v-.94c0-.52-.04-.96-.13-1.39,1.55,.13,1.76,.22,1.76,.4,0,.16-.09,.23-.54,.38v1.55h1.01Zm2.52,10.8c0,.11-.09,.18-.32,.18-.11,0-.23-.02-.38-.04-1.49,1.04-3.04,1.82-5.22,2.32-.16-.34-.36-.63-.63-.9,2.2-.45,3.91-1.3,4.81-1.96,.25-.18,.47-.38,.65-.59,.92,.63,1.1,.85,1.1,.99Zm-.67-2.52c0,.16-.2,.23-.7,.18-1.1,.79-2.3,1.35-3.96,1.75-.16-.34-.36-.63-.65-.9,1.6-.34,2.72-.81,3.56-1.37,.23-.16,.45-.34,.65-.58,.88,.58,1.1,.76,1.1,.92Zm-.43-2.34c0,.16-.18,.22-.67,.16-.94,.58-2.09,1.03-3.37,1.33-.16-.34-.38-.65-.65-.92,1.3-.27,2.21-.56,2.92-.97,.23-.14,.45-.29,.67-.52,.95,.63,1.1,.77,1.1,.92Zm.45,7.96c-.22-.36-.45-.65-.76-.88,1.33-.52,2.14-.99,2.97-1.71,.25-.23,.38-.38,.52-.56,.99,.59,1.17,.76,1.17,.94s-.18,.23-.72,.2c-.9,.79-1.87,1.42-3.19,2.02Zm5.87-12.64l2.09-.07,.07,.07-.07,2.27v4.61l.07,2.25-.09,.09-2.07-.07h-2.32l-2.09,.07-.07-.09,.07-2.25v-4.61l-.07-2.27,.07-.07,2.09,.07h.04c.16-.65,.29-1.3,.38-1.96h-.97l-2.7,.07v-1.08l2.7,.07h3.22l2.7-.07v1.08l-2.7-.07h-1.13c-.13,.67-.27,1.31-.43,1.96h1.22Zm-3.37,.94v1.73h4.39v-1.73h-4.39Zm0,4.45h4.39v-1.78h-4.39v1.78Zm0,2.81h4.39v-1.87h-4.39v1.87Zm5.69,4.32c-.92-.9-2-1.71-3.24-2.32l.83-.7c1.17,.61,2.27,1.35,3.24,2.18l-.83,.85Z"/>
  <path class="cls-1" d="M118.45,156.96c-.23-1.89-.32-3.44-.32-5.46s.29-4.54,.94-7.83c-.38-.2-.54-.36-.54-.5,0-.13,.13-.18,.36-.18,.25,0,.59,.05,1.71,.32-.88,2.92-1.21,5.78-1.21,8.28,0,1.95,.09,3.39,.41,5.26l-1.35,.11Zm5.73-5.15c-.34,.56-.5,1.04-.5,1.75,0,.76,.94,1.33,3.85,1.33,1.26,0,2.97-.16,4.27-.4l.09,1.33c-1.17,.18-2.86,.31-4.29,.31-3.62,0-5.19-.86-5.19-2.5,0-.72,.18-1.42,.72-2.39l1.04,.58Zm-.92-6.23c1.64-.25,3.42-.38,5.01-.38,1.13,0,2,.04,2.88,.13l-.02,1.19c-.95-.07-1.78-.11-3.06-.11-1.53,0-3.21,.13-4.74,.38l-.07-1.21Z"/>
  <path class="cls-1" d="M149.71,145.1c-2.07,.18-3.38,.52-4.63,1.4-1.66,1.15-2.65,2.86-2.65,4.93,0,3.38,3.17,4.09,5.96,4.09,.22,0,.45,0,.67-.02l-.04,1.41h-.29c-3.6,0-7.51-1.03-7.51-5.38,0-2.2,1.03-4.03,2.52-5.28,.38-.25,.76-.49,1.21-.72l-1.46,.29c-2.21,.32-4.27,.59-6.99,.97l-.22-1.24c4.93-.54,8.89-1.1,13.22-1.75l.13,.07,.14,1.13-.07,.09Zm-2.09,2.39c1.03,.81,1.71,1.49,2.48,2.57l-.81,.7c-.7-1.03-1.42-1.84-2.47-2.66l.79-.61Zm1.87-1.26c1.01,.83,1.55,1.33,2.34,2.41l-.77,.68c-.72-1.01-1.28-1.62-2.32-2.45l.76-.65Z"/>
  <path class="cls-1" d="M166.91,144.57c-1.4,.49-2.75,.86-4.07,1.15,.38,.77,.81,1.51,1.28,2.21,1.35-.36,2.75-.86,4.14-1.53l.49,.96c-1.35,.61-2.68,1.1-3.98,1.46,.61,.83,1.53,1.85,2.41,2.5l.07,.16-.18,.7-.14,.09c-1.24,0-2.59,.02-3.84,.05l-.04-.88c.72-.07,1.46-.16,2.18-.23-.54-.61-1.17-1.37-1.67-2.09-1.82,.43-3.53,.61-4.97,.61-.5,0-1.49-.09-2.32-.31l.4-.92c.65,.09,1.49,.2,2.12,.2,1.15,0,2.59-.14,4.16-.49-.45-.74-.86-1.51-1.26-2.29-1.66,.31-3.29,.47-4.97,.5l-.09-1.06c1.58,0,3.08-.14,4.59-.41-.31-.65-.54-1.3-.77-1.93-.5-.05-.63-.16-.63-.31,0-.13,.2-.22,.4-.25,.25-.05,.52-.09,1.37-.18,.22,.94,.43,1.53,.81,2.43,1.31-.29,2.67-.68,4.12-1.19l.4,1.03Zm-8.82,8.39c.22,2.7,3.11,2.79,5.35,2.79,.79,0,1.51-.04,2.56-.11l-.02,1.24c-.92,.09-1.71,.11-2.56,.11-2.88,0-6.27-.49-6.37-3.96l1.04-.07Z"/>
  <path class="cls-1" d="M177.45,149.08c1.35-.61,2.39-.83,3.48-.83,2.74,0,4.84,1.48,4.84,4.07,0,2.83-2.36,4.84-6.39,4.84-2.48,0-3.8-1.15-3.8-2.59,0-1.28,1.08-2.05,2.32-2.05,1.48,0,2.72,1.13,3.22,2.56l-1.04,.61c-.56-1.42-1.31-2.09-2.14-2.09-.61,0-1.24,.45-1.24,.94,0,.95,1.01,1.49,2.57,1.49,3.02,0,5.13-1.35,5.13-3.8,0-1.39-1.06-2.94-3.71-2.94-2.25,0-4.23,.96-6.32,3.17l-.16,.02-.79-.72v-.14c3.1-3.12,4.99-4.97,7.49-7.31-1.85,.25-3.75,.41-6.14,.47l-.05-1.21c2.25-.04,4.95-.22,7.11-.52l.4-.32h.16c.92,.76,1.06,1.04,1.06,1.19,0,.22-.18,.27-.77,.47-1.62,1.46-2.83,2.63-4.25,3.87l-1.03,.74,.05,.09Z"/>
  <path class="cls-1" d="M191.71,149.06c.25,.76,.74,1.15,3.02,1.22,.07-1.17,.18-2.34,.29-3.51h-.49c-1.17,0-2.32,.02-3.44,.02l.02-1.04c1.39-.05,2.7-.05,4-.05,.07-.76,.14-1.6,.22-2.58-.36-.13-.59-.31-.59-.45,0-.11,.11-.18,.32-.18,.49,0,1.03,.02,1.57,.05-.13,1.21-.22,2.23-.31,3.15h3.51l-.04,1.15c-1.21-.04-2.39-.05-3.58-.07-.13,1.17-.22,2.34-.29,3.51,1.26-.04,2.47-.16,3.48-.34l.13,1.15c-.97,.16-2.16,.29-3.67,.32-.04,.61-.05,1.1-.05,1.94,0,1.96,.63,2.63,2.92,2.63,2.72,0,4.63-1.08,4.63-2.47,0-1.15-.77-2.18-2.92-3.46,.34-.25,.59-.58,.76-.83,2.94,1.75,3.49,2.93,3.49,4.38,0,1.89-1.94,3.53-5.73,3.53-3.37,0-4.34-1.1-4.34-3.66,0-.9,.04-1.49,.05-2.07-2.68-.07-3.26-.58-3.87-1.82l.92-.54Z"/>
  <path class="cls-1" d="M222.52,150.21c0-2.88-2.2-5.13-5.74-5.13s-6.27,2.81-6.27,6.03c0,2.07,.63,3.13,1.46,3.13,.56,0,1.26-.68,2.12-2.41,.86-1.71,1.58-3.98,1.71-5.38-.23-.2-.43-.36-.43-.5,0-.11,.09-.18,.31-.18,.23,0,.94,.18,1.51,.38-.43,2.39-1.01,4.46-2.02,6.37-1.19,2.3-2.16,3.1-3.2,3.1-1.48,0-2.72-1.6-2.72-4.46,0-4.05,3.38-7.17,7.58-7.17,4.47,0,7.09,2.88,7.09,6.37,0,3.26-2.34,5.82-6.79,6.41-.27-.41-.47-.76-.79-1.15,3.84-.36,6.18-2.27,6.18-5.4Z"/>
  <path class="cls-1" d="M228.07,146.57c3.94-.94,6.79-1.42,8.88-1.42,3.8,0,5.49,1.76,5.49,4.63,0,3.85-3.08,5.83-9.72,6.64-.16-.45-.32-.81-.56-1.19,6.73-.72,8.91-2.63,8.91-5.56,0-2.11-1.26-3.33-4.25-3.33-1.93,0-4.45,.47-8.44,1.51l-.31-1.28Zm11.97-4.34c1.03,.81,1.71,1.49,2.48,2.58l-.81,.7c-.7-1.03-1.42-1.84-2.47-2.67l.79-.61Zm1.87-1.26c1.01,.83,1.55,1.33,2.34,2.41l-.77,.68c-.72-1.01-1.28-1.62-2.32-2.45l.76-.65Z"/>
  <path class="cls-1" d="M255.88,157.39c-2.27-2.61-4.23-4.41-7.06-6.61-.34-.25-.47-.49-.47-.85,0-.34,.16-.61,.58-1.03,2.07-2.02,4.07-4.14,5.6-6.14-.18-.29-.25-.41-.25-.54,0-.11,.09-.2,.2-.2,.16,0,.36,.09,1.64,.99-2.21,2.56-3.93,4.38-6.09,6.48-.14,.14-.25,.25-.25,.38,0,.14,.11,.23,.29,.38,2.47,1.89,4.52,3.64,6.84,6.1l-1.03,1.03Z"/>
  <path class="cls-1" d="M265.89,143.22c-.45,1.84-.83,4.21-.83,5.6,0,.86,.04,1.6,.14,1.87,.05,.13,.11,.2,.18,.2s.16-.07,.25-.22c.36-.52,.76-1.28,1.22-2.65,.27,.34,.52,.59,.83,.86-.32,1.01-.76,1.98-1.28,2.84-.36,.61-.65,.83-1.01,.83-.59,0-1.57-.68-1.57-3.51,0-1.39,.23-3.44,.67-5.49-.27-.2-.45-.38-.45-.49s.09-.16,.22-.16c.2,0,.83,.11,1.62,.31Zm4.72-.2c0-.13,.13-.18,.31-.18,.5-.02,1.01-.02,1.62-.02,.18,2.72,.29,5.02,.29,6.79,0,5.4-2.18,7.08-7.38,7.65-.13-.34-.32-.85-.56-1.22,4.66-.36,6.63-1.73,6.63-6.18,0-2.27-.07-3.6-.29-6.41-.41-.11-.61-.29-.61-.43Z"/>
  <path class="cls-1" d="M279.47,144.83c.74,.04,1.44,.05,2.12,.05,.74,0,1.44-.02,2.16-.05,.34-.61,.65-1.28,.95-2-.29-.13-.47-.27-.47-.43,0-.09,.11-.14,.32-.14,.16,0,1.12,.14,1.64,.25-.4,.86-.76,1.6-1.1,2.23,1.48-.11,3.02-.29,4.83-.52l.14,1.12c-2.02,.25-3.83,.43-5.62,.54-.72,1.17-1.37,1.98-2.16,2.67l.05,.05c.77-.41,1.57-.56,2.25-.56,1.35,0,2.11,.83,2.25,2.23,1.67-.65,3.15-1.13,4.68-1.69-.04-.16-.05-.29-.05-.4,0-.22,.09-.29,.2-.29s.16,.05,.25,.14c.38,.45,.7,.99,.9,1.49-2.03,.59-4.12,1.26-5.89,1.89,.05,.9,.09,1.98,.11,2.97l-1.24,.02c0-.86-.02-1.8-.05-2.54-.25,.09-.5,.2-.74,.29-1.35,.54-2.61,1.37-2.61,2.36,0,1.15,.85,1.48,2.77,1.48,2.65,0,4.54-.2,5.76-.34l.04,1.26c-1.37,.13-3.02,.23-5.67,.23s-4.07-.77-4.07-2.57c0-1.58,1.64-2.63,2.92-3.19,.52-.23,1.03-.45,1.51-.65-.14-1.24-.36-1.75-1.57-1.75-1.28,0-2.34,.68-3.94,1.94l-.18-.05-.61-.85,.02-.13c1.51-1.21,2.72-2.45,3.71-3.98-.58,.02-1.13,.04-1.71,.04-.63,0-1.26-.02-1.89-.04l-.02-1.1Z"/>
  <path class="cls-1" d="M299.33,156.62v1.17h-1.26l.07-3.06v-9.29l-.07-2.63,.07-.07,2.63,.07h6.59l2.63-.07,.07,.07-.07,2.63v9.29l.07,2.99h-1.28v-1.1h-9.45Zm9.45-12.77h-9.45v3.13h9.45v-3.13Zm0,4.14h-9.45v3.31h9.45v-3.31Zm0,4.32h-9.45v3.28h9.45v-3.28Z"/>
  <path class="cls-1" d="M317.31,146.34h-.45l-2.16,.07v-1.12l2.16,.07h.45v-2.47c0-.52-.04-.95-.13-1.39,1.58,.09,1.84,.22,1.84,.4,0,.14-.13,.27-.58,.38v3.08h.25l2.16-.07v1.12l-2.16-.07h-.25v3.21c.76-.2,1.53-.43,2.48-.7,0,.32,0,.65,.02,.95-.81,.25-1.66,.5-2.5,.76v2.16l.07,3.22c0,1.44-.18,1.78-2.27,1.78h-.49c-.09-.41-.31-.92-.5-1.26,.68,.09,1.12,.11,1.51,.11,.45,0,.54-.16,.54-.58v-5.1c-.56,.16-1.1,.31-1.6,.45-.07,.52-.13,.67-.36,.67-.18,0-.32-.31-.76-1.62,.5-.07,.81-.13,1.22-.22,.52-.11,1.01-.23,1.49-.34v-3.49Zm5.67,.31c0,.54,.16,.67,3.51,.67,3.55,0,3.6-.07,3.66-1.93,.32,.2,.74,.34,1.08,.43-.09,2.25-.43,2.52-4.68,2.52s-4.68-.2-4.68-1.24v-4.45c0-.38-.04-.72-.11-1.04,1.55,.13,1.82,.25,1.82,.45,0,.16-.09,.25-.59,.38v1.98c1.93-.34,4.18-.86,5.58-1.33,.23-.07,.54-.22,.79-.4,.97,.83,1.06,1.03,1.06,1.19,0,.11-.07,.18-.27,.18-.14,0-.38-.04-.72-.13-1.82,.5-4.29,1.03-6.45,1.35v1.37Zm.2,10.3v1.08h-1.19l.07-2.63v-3.29l-.05-2.09,.07-.07,2.09,.07h3.73l2.12-.07,.07,.07-.05,2.09v3.28l.07,2.56h-1.21v-.99h-5.73Zm5.73-6h-5.73v2h5.73v-2Zm0,2.9h-5.73v2.16h5.73v-2.16Z"/>
  <path class="cls-1" d="M347.84,153.88c-2.16,1.98-5.01,3.21-7.22,3.21-2.56,0-3.92-.95-3.92-3.82,0-2.47,.07-6.21,.16-10.01-.43-.16-.54-.29-.54-.43,0-.13,.14-.22,.41-.22,.22,0,.72,.02,1.51,.09-.2,4.32-.29,7.27-.29,10.43,0,1.98,.54,2.63,2.57,2.63,2.25,0,4.77-1.22,6.68-3.12,.22,.49,.43,.92,.63,1.24Z"/>
  <path class="cls-1" d="M363.54,145.1c-2.07,.18-3.38,.52-4.63,1.4-1.66,1.15-2.65,2.86-2.65,4.93,0,3.38,3.17,4.09,5.96,4.09,.22,0,.45,0,.67-.02l-.04,1.41h-.29c-3.6,0-7.51-1.03-7.51-5.38,0-2.2,1.03-4.03,2.52-5.28,.38-.25,.76-.49,1.21-.72l-1.46,.29c-2.21,.32-4.27,.59-6.99,.97l-.22-1.24c4.93-.54,8.9-1.1,13.22-1.75l.13,.07,.14,1.13-.07,.09Z"/>
  <path class="cls-1" d="M372.21,158.13c-.95-1.53-2.07-2.88-3.46-4.05l.99-.81c1.42,1.12,2.59,2.43,3.6,3.91l-1.13,.95Z"/>
  <path class="cls-1" d="M397.25,153.05c1.82,1.73,4.66,2.81,7.58,3.22-.36,.4-.56,.79-.68,1.19-2.86-.7-5.64-1.87-7.36-3.66l.13,4.38h-1.24l.13-4.29c-1.62,1.6-4.27,2.75-7.08,3.62-.16-.32-.4-.65-.74-.97,2.88-.68,5.51-1.8,7.26-3.49h-3.89l-2.7,.07v-1.12l2.7,.07h4.39v-.34c0-.49-.05-.95-.14-1.35,1.62,.09,1.84,.2,1.84,.36s-.13,.25-.59,.38v.95h4.59l2.7-.07v1.12l-2.7-.07h-4.18Zm-7.78-4.48c.79-.31,1.87-.77,3.04-1.42,0,.38,.02,.77,.07,1.15-1.03,.61-2,1.06-3.01,1.53,.02,.49-.11,.59-.31,.59-.16,0-.4-.36-.92-1.55,.27-.04,.92-.23,1.12-.31Zm.13-6.25c.92,.4,1.85,.9,2.75,1.5l-.58,1.1c-.76-.56-1.82-1.24-2.74-1.67l.56-.92Zm3.8,7.62l-.07-.07,.05-1.73v-3.06l-.05-1.73,.07-.07,1.57,.07h.59c.13-.45,.25-.92,.32-1.24,.05-.25,.09-.43,.09-.72,1.51,.38,1.69,.5,1.69,.67,0,.18-.23,.25-.67,.31-.13,.32-.25,.67-.38,.99h1.26l1.58-.07,.07,.07-.05,1.73v3.04l.05,1.73-.07,.07-1.58-.05h-2.92l-1.57,.07Zm5.02-5.71h-4v1.84h4v-1.84Zm0,4.72v-2h-4v2h4Zm2.38-3.73c-.23-.31-.47-.54-.76-.76,.77-.52,1.4-1.04,1.91-1.57,.27-.27,.43-.45,.59-.76,1.19,.92,1.26,1.06,1.26,1.22,0,.13-.09,.2-.27,.2-.11,0-.23-.04-.41-.09-.7,.63-1.49,1.22-2.32,1.75Zm.11,1.76c1.13,.59,2.16,1.17,3.21,1.96l-.83,.99c-.88-.77-1.85-1.44-3.1-2.14l.72-.81Z"/>
  <path class="cls-1" d="M420.98,153.88c-2.16,1.98-5.01,3.21-7.22,3.21-2.56,0-3.92-.95-3.92-3.82,0-2.47,.07-6.21,.16-10.01-.43-.16-.54-.29-.54-.43,0-.13,.14-.22,.41-.22,.22,0,.72,.02,1.51,.09-.2,4.32-.29,7.27-.29,10.43,0,1.98,.54,2.63,2.57,2.63,2.25,0,4.77-1.22,6.68-3.12,.22,.49,.43,.92,.63,1.24Z"/>
  <path class="cls-1" d="M425.94,146.41c1.93-.02,3.94-.2,5.96-.5-.36-.76-.72-1.6-1.06-2.59-.49-.04-.65-.13-.65-.25,0-.11,.09-.2,.25-.25,.22-.07,.52-.14,1.48-.32,.38,1.22,.77,2.29,1.21,3.21,1.57-.29,3.12-.65,4.61-1.1l.23,1.21c-1.4,.4-2.83,.72-4.29,.99,.86,1.51,1.89,2.66,3.22,3.76l.05,.13-.36,1.06-.11,.05c-1.46-.16-2.84-.25-4.27-.29l.04-.92c.94-.02,2.02-.05,2.83-.09-.97-1.03-1.84-2.09-2.63-3.51-2.12,.34-4.27,.56-6.3,.65l-.22-1.22Zm1.82,6.05c.22,3.02,3.04,3.31,5.69,3.31,.65,0,1.53-.05,2.59-.14v1.24c-.97,.09-1.55,.14-2.45,.14-3.38,0-6.81-.67-6.9-4.41l1.06-.14Z"/>
  <path class="cls-1" d="M444.17,149.06c.25,.76,.74,1.15,3.02,1.22,.07-1.17,.18-2.34,.29-3.51h-.49c-1.17,0-2.32,.02-3.44,.02l.02-1.04c1.39-.05,2.7-.05,4-.05,.07-.76,.14-1.6,.22-2.58-.36-.13-.59-.31-.59-.45,0-.11,.11-.18,.32-.18,.49,0,1.03,.02,1.57,.05-.13,1.21-.22,2.23-.31,3.15h3.51l-.04,1.15c-1.21-.04-2.4-.05-3.58-.07-.13,1.17-.22,2.34-.29,3.51,1.26-.04,2.47-.16,3.48-.34l.13,1.15c-.97,.16-2.16,.29-3.67,.32-.04,.61-.05,1.1-.05,1.94,0,1.96,.63,2.63,2.92,2.63,2.72,0,4.63-1.08,4.63-2.47,0-1.15-.77-2.18-2.92-3.46,.34-.25,.59-.58,.76-.83,2.94,1.75,3.49,2.93,3.49,4.38,0,1.89-1.94,3.53-5.73,3.53-3.37,0-4.34-1.1-4.34-3.66,0-.9,.04-1.49,.05-2.07-2.68-.07-3.26-.58-3.87-1.82l.92-.54Z"/>
  <path class="cls-1" d="M470.29,153.2c1.64,1.93,4.14,3.12,7.18,3.6-.34,.41-.59,.76-.81,1.15-3.01-.54-5.64-2.16-7.4-4.52-1.03,2.81-3.69,4-7.24,4.56-.22-.38-.45-.68-.77-1.01,3.66-.4,5.98-1.53,6.86-3.78h-3.69l-2.7,.07v-1.12l2.7,.07h3.96c.05-.29,.09-.59,.11-.92,.02-.27,.02-.47-.07-.9,1.67,.14,1.85,.22,1.85,.43,0,.16-.2,.29-.59,.41-.04,.32-.07,.65-.13,.97h4.47l2.7-.07v1.12l-2.7-.07h-3.73Zm-.54-6.66h2.75l2.7-.07v1.12l-2.7-.07h-2.75v1.66h4.7l2.7-.07v1.12l-2.7-.07h-10.44l-2.7,.07v-1.12l2.7,.07h4.57v-1.66h-2.63l-2.7,.07v-1.12l2.7,.07h2.63v-1.66h-3.8l-2.7,.07v-1.12l2.7,.07h1.6c-.31-.59-.68-1.15-1.21-1.78l1.01-.43c.56,.59,1.13,1.44,1.51,2.21h3.15c.25-.58,.47-1.08,.61-1.51,.11-.31,.16-.56,.18-.77,1.4,.34,1.64,.45,1.64,.63,0,.16-.07,.23-.61,.34-.22,.43-.45,.9-.68,1.31h1.69l2.7-.07v1.12l-2.7-.07h-3.93v1.66Z"/>
  <path class="cls-1" d="M493.9,153.88c-2.16,1.98-5.01,3.21-7.22,3.21-2.56,0-3.92-.95-3.92-3.82,0-2.47,.07-6.21,.16-10.01-.43-.16-.54-.29-.54-.43,0-.13,.14-.22,.41-.22,.22,0,.72,.02,1.51,.09-.2,4.32-.29,7.27-.29,10.43,0,1.98,.54,2.63,2.57,2.63,2.25,0,4.77-1.22,6.68-3.12,.22,.49,.43,.92,.63,1.24Z"/>
  <path class="cls-1" d="M498.87,146.41c1.93-.02,3.94-.2,5.96-.5-.36-.76-.72-1.6-1.06-2.59-.49-.04-.65-.13-.65-.25,0-.11,.09-.2,.25-.25,.22-.07,.52-.14,1.48-.32,.38,1.22,.77,2.29,1.21,3.21,1.57-.29,3.12-.65,4.61-1.1l.23,1.21c-1.4,.4-2.83,.72-4.29,.99,.86,1.51,1.89,2.66,3.22,3.76l.05,.13-.36,1.06-.11,.05c-1.46-.16-2.84-.25-4.27-.29l.04-.92c.94-.02,2.02-.05,2.83-.09-.97-1.03-1.84-2.09-2.63-3.51-2.12,.34-4.27,.56-6.3,.65l-.22-1.22Zm1.82,6.05c.22,3.02,3.04,3.31,5.69,3.31,.65,0,1.53-.05,2.59-.14v1.24c-.97,.09-1.55,.14-2.45,.14-3.38,0-6.81-.67-6.9-4.41l1.06-.14Z"/>
  <path class="cls-1" d="M517.09,149.06c.25,.76,.74,1.15,3.02,1.22,.07-1.17,.18-2.34,.29-3.51h-.49c-1.17,0-2.32,.02-3.44,.02l.02-1.04c1.39-.05,2.7-.05,4-.05,.07-.76,.14-1.6,.22-2.58-.36-.13-.59-.31-.59-.45,0-.11,.11-.18,.32-.18,.49,0,1.03,.02,1.57,.05-.13,1.21-.22,2.23-.31,3.15h3.51l-.04,1.15c-1.21-.04-2.4-.05-3.58-.07-.13,1.17-.22,2.34-.29,3.51,1.26-.04,2.47-.16,3.48-.34l.13,1.15c-.97,.16-2.16,.29-3.67,.32-.04,.61-.05,1.1-.05,1.94,0,1.96,.63,2.63,2.92,2.63,2.72,0,4.63-1.08,4.63-2.47,0-1.15-.77-2.18-2.92-3.46,.34-.25,.59-.58,.76-.83,2.94,1.75,3.49,2.93,3.49,4.38,0,1.89-1.94,3.53-5.73,3.53-3.37,0-4.34-1.1-4.34-3.66,0-.9,.04-1.49,.05-2.07-2.68-.07-3.26-.58-3.87-1.82l.92-.54Z"/>
  <path class="cls-1" d="M540.36,153.14c.45-.38,.85-.77,1.22-1.17,1.33-1.4,2.92-3.44,4.68-7.8,.23-.58,.38-1.17,.45-1.69,1.67,.61,1.73,.74,1.73,.95,0,.18-.31,.27-.7,.27-1.94,5.1-3.82,7.58-5.29,9.09-.61,.63-1.28,1.26-2.09,1.85v.32c0,.63,.13,.85,2.59,.85,2.74,0,2.88-.23,2.92-3.01,.4,.2,.92,.4,1.28,.49-.16,3.17-.49,3.64-4.14,3.64-3.37,0-3.8-.18-3.83-1.49-1.13,.68-2.5,1.33-4.25,1.91-.2-.43-.4-.7-.74-1.1,2.11-.49,3.71-1.3,4.99-2.18v-6.63c0-.67-.04-1.06-.13-1.44,1.67,.13,1.96,.27,1.96,.47s-.2,.34-.65,.43v6.23Zm-2.93-5.06c-.43,2.25-1.06,4.29-1.87,6.03l-1.1-.59c.85-1.75,1.51-3.75,1.82-5.85l1.15,.41Zm3.82-5.98c1.01,.7,2,1.6,2.75,2.5l-1.01,.85c-.74-.94-1.62-1.89-2.59-2.63l.85-.72Zm6.59,6c1.48,1.84,2.07,3.19,2.88,5.02l-1.19,.72c-.79-1.96-1.35-3.22-2.67-5.08l.97-.67Z"/>
  <path class="cls-1" d="M556.46,147.96c.94,.31,1.69,.67,2.38,1.06,.29-.41,.54-.88,.76-1.35-.81-.45-1.62-.81-2.38-1.06l.5-.79c.88,.25,1.6,.54,2.25,.9,.22-.63,.38-1.3,.49-2h-2.97c-.72,1.53-1.55,2.79-2.54,3.89-.2-.27-.63-.56-.92-.7,1.33-1.48,2.3-3.04,3.01-5.08,.14-.4,.22-.72,.25-1.12,1.42,.41,1.67,.54,1.67,.76,0,.18-.16,.31-.68,.31-.13,.36-.27,.72-.41,1.06h2.66l.38-.36h.22c.7,.59,.95,.81,.95,.99,0,.16-.11,.25-.56,.41-.67,3.66-2.39,6.66-6.63,8.43-.11-.31-.38-.68-.68-.95,1.69-.56,2.99-1.4,3.96-2.49-.77-.45-1.57-.85-2.29-1.12l.58-.79Zm1.19,6.84c-.65,1.35-1.19,2.27-1.96,3.17l-1.1-.59c.77-.77,1.44-1.82,1.98-3.01l1.08,.43Zm2.95-.36c.47,1.04,.7,1.96,.9,3.01l-1.19,.34c-.16-1.03-.43-2.14-.81-3.01l1.1-.34Zm5.8-8c.68,3.44,2.63,4.93,4.5,5.89-.29,.2-.59,.59-.9,1.03-1.64-.97-3.6-2.95-4.19-5.67-.59,3.08-2.79,4.93-5.2,5.76-.18-.32-.43-.72-.74-.97,2.39-.65,4.61-2.47,5.06-5.53,.02-.18,.05-.34,.07-.5h-1.01l-2.16,.07v-1.08l2.16,.07h1.1c.04-.59,.04-1.19,.04-1.87,0-.63-.04-1.3-.16-1.91,1.53,.07,1.85,.16,1.85,.4,0,.18-.14,.25-.58,.45-.02,1.04-.05,2.05-.11,2.94h2.2l2.16-.07v1.08l-2.16-.07h-1.93Zm-2.02,7.92c.49,.79,.94,1.73,1.31,2.79l-1.13,.49c-.32-1.1-.72-1.96-1.22-2.88l1.04-.4Zm3.71-.32c.97,.94,1.57,1.71,2.34,2.81l-1.01,.79c-.67-1.1-1.17-1.95-2.25-3.01l.92-.59Zm.4-11.52c.58,.41,1.08,.86,1.58,1.39l-.83,.79c-.49-.56-1.06-1.1-1.55-1.48l.79-.7Z"/>
  <path class="cls-1" d="M575.56,144.27c-.09,1.84-.34,4.02-.61,5.46l-1.04-.23c.31-1.64,.52-3.53,.59-5.37l1.06,.14Zm1.89,11.22l.07,2.7h-1.26l.07-2.7v-12.62c0-.52-.05-.95-.14-1.39,1.57,.09,1.91,.25,1.91,.45s-.2,.29-.65,.4v13.16Zm.86-11.27c.56,.52,1.13,1.21,1.51,1.78l-.9,.63c-.41-.72-.9-1.33-1.39-1.85l.77-.56Zm6.43,1.71v-2.79c0-.52-.05-.99-.14-1.42,1.69,.05,1.91,.18,1.91,.38,0,.16-.2,.27-.59,.43v3.4h1.42l2.7-.07v1.12l-2.7-.07h-1.42v3.76h.99l2.7-.07v1.15l-2.7-.07h-.99v4.41h2.03l2.7-.07v1.15l-2.7-.07h-6.12l-2.7,.07v-1.15l2.7,.07h2.92v-4.41h-.88l-2.7,.07v-1.15l2.7,.07h.88v-3.76h-3.15c-.45,1.39-.99,2.68-1.64,3.93-.31-.22-.67-.4-1.01-.5,1.1-2.02,1.87-4.34,2.3-6.5,.07-.4,.13-.74,.14-1.12,1.4,.4,1.73,.54,1.73,.76,0,.18-.18,.29-.7,.32-.16,.74-.34,1.46-.54,2.14h2.86Z"/>
  <path class="cls-1" d="M595.29,149.06c.25,.76,.74,1.15,3.02,1.22,.07-1.17,.18-2.34,.29-3.51h-.49c-1.17,0-2.32,.02-3.44,.02l.02-1.04c1.39-.05,2.7-.05,4-.05,.07-.76,.14-1.6,.22-2.58-.36-.13-.59-.31-.59-.45,0-.11,.11-.18,.32-.18,.49,0,1.03,.02,1.57,.05-.13,1.21-.22,2.23-.31,3.15h3.51l-.04,1.15c-1.21-.04-2.39-.05-3.58-.07-.13,1.17-.22,2.34-.29,3.51,1.26-.04,2.47-.16,3.48-.34l.13,1.15c-.97,.16-2.16,.29-3.67,.32-.04,.61-.05,1.1-.05,1.94,0,1.96,.63,2.63,2.92,2.63,2.72,0,4.63-1.08,4.63-2.47,0-1.15-.77-2.18-2.92-3.46,.34-.25,.59-.58,.76-.83,2.94,1.75,3.49,2.93,3.49,4.38,0,1.89-1.94,3.53-5.73,3.53-3.37,0-4.34-1.1-4.34-3.66,0-.9,.04-1.49,.05-2.07-2.68-.07-3.26-.58-3.87-1.82l.92-.54Z"/>
  <path class="cls-1" d="M616.33,158.13c-.95-1.53-2.07-2.88-3.46-4.05l.99-.81c1.42,1.12,2.59,2.43,3.6,3.91l-1.13,.95Z"/>
  <path class="cls-1" d="M6.22,213.1c.94,1.58,1.87,3.35,2.77,5.24,1.76-.97,3.15-1.66,4.68-2.47-.07-.29-.09-.4-.09-.49,0-.2,.11-.29,.23-.29,.11,0,.23,.07,.36,.23,.27,.34,.59,.79,.94,1.39-2.05,.9-4.05,1.76-6.32,3.08-2.18,1.26-3.29,2.32-3.29,3.73s1.01,1.96,4.43,1.96c1.67,0,3.78-.18,5.53-.38l.11,1.3c-1.82,.2-3.83,.31-5.89,.31-3.83,0-5.38-1.1-5.38-3.22,0-1.55,.94-2.99,3.62-4.54-.97-2.11-1.84-3.73-2.79-5.33l1.1-.52Z"/>
  <path class="cls-1" d="M23.2,221.27c-.45,.61-.74,1.33-.74,1.85,0,1.22,.92,1.93,4.97,1.93,2.14,0,3.67-.11,5.46-.4l.05,1.33c-1.76,.2-3.4,.32-5.44,.32-4.56,0-6.28-1.01-6.28-3.15,0-.79,.38-1.78,.9-2.52l1.08,.63Zm-.36-6.9c.58-.02,1.15-.04,1.73-.04,1.89,0,4.65,.16,6.9,.5l-.13,1.22c-2.2-.32-4.84-.5-6.82-.52-.59,0-1.17,.02-1.76,.05l.09-1.22Z"/>
  <path class="cls-1" d="M40.93,213.1c.94,1.58,1.87,3.35,2.77,5.24,1.76-.97,3.15-1.66,4.68-2.47-.07-.29-.09-.4-.09-.49,0-.2,.11-.29,.23-.29,.11,0,.23,.07,.36,.23,.27,.34,.59,.79,.94,1.39-2.05,.9-4.05,1.76-6.32,3.08-2.18,1.26-3.29,2.32-3.29,3.73s1.01,1.96,4.43,1.96c1.67,0,3.78-.18,5.53-.38l.11,1.3c-1.82,.2-3.83,.31-5.89,.31-3.83,0-5.38-1.1-5.38-3.22,0-1.55,.94-2.99,3.62-4.54-.97-2.11-1.84-3.73-2.79-5.33l1.1-.52Z"/>
  <path class="cls-1" d="M55.39,226.17c2.14-5.01,4.21-9.29,6.09-13.02-.29-.29-.4-.41-.4-.56,0-.11,.09-.16,.22-.16,.22,0,.47,.09,1.67,.72-1.62,3.03-2.56,4.9-3.58,6.91l-.47,.74,.07,.04c1.04-1.39,2.11-2.07,3.08-2.07,1.4,0,1.94,.92,1.94,3.22,0,3.26,.36,3.8,1.46,3.8,1.66,0,3.71-1.78,4.2-5.73,.34,.23,.83,.47,1.21,.63-.56,3.82-2.72,6.36-5.47,6.36-1.76,0-2.61-.79-2.61-3.96,0-2.27-.11-3.26-.94-3.26s-2.09,.94-3.19,2.39c-.68,.92-1.12,2.09-2.07,4.41l-.16,.11-1.03-.41-.02-.16Z"/>
  <path class="cls-1" d="M83.63,222.26c1.6,2.75,3.85,3.76,7.2,4.5-.31,.36-.56,.68-.76,1.12-3.31-.83-5.65-2.23-7.26-5-.31,.95-.81,1.76-1.46,2.43-1.46,1.53-3.1,2.18-5.62,2.63-.22-.38-.43-.67-.86-1.01,2.83-.38,4.48-1.13,5.64-2.38,.59-.65,1.04-1.37,1.3-2.29h-4.27l-2.7,.07v-1.1l2.7,.07h4.45c.04-.27,.05-.58,.05-.88,0-.61-.05-1.22-.14-1.66,1.75,.07,1.93,.22,1.93,.4s-.2,.29-.59,.43c0,.65-.02,1.21-.07,1.71h4.99l2.7-.07v1.1l-2.7-.07h-4.52Zm-1.46-9.24c0-.52-.04-.95-.13-1.39,1.64,.09,1.89,.22,1.89,.4,0,.14-.13,.27-.58,.38v1.22h4.41l2.63-.07,.07,.07-.07,1.69,.07,2.05h-1.21v-2.75h-4.54v2.52c0,.58,.2,.61,1.17,.61,1.55,0,1.67-.16,1.67-1.35,.31,.2,.77,.36,1.12,.45-.07,1.69-.85,1.87-2.83,1.87-1.76,0-2.23-.09-2.23-1.3v-2.81h-2.92c.94,.22,1.28,.38,1.28,.56,0,.22-.11,.27-.63,.34-.38,2.47-1.87,3.35-4.38,3.96-.16-.32-.43-.7-.74-.97,2.7-.43,3.82-1.24,4.03-3.89h-3.85v2.75h-1.22l.07-2.05-.07-1.69,.07-.07,2.63,.07h4.27v-.61Z"/>
  <path class="cls-1" d="M105.87,214.57c-1.4,.49-2.75,.86-4.07,1.15,.38,.77,.81,1.51,1.28,2.21,1.35-.36,2.75-.86,4.14-1.53l.49,.96c-1.35,.61-2.68,1.1-3.98,1.46,.61,.83,1.53,1.85,2.41,2.5l.07,.16-.18,.7-.14,.09c-1.24,0-2.59,.02-3.84,.05l-.04-.88c.72-.07,1.46-.16,2.18-.23-.54-.61-1.17-1.37-1.67-2.09-1.82,.43-3.53,.61-4.97,.61-.5,0-1.49-.09-2.32-.31l.4-.92c.65,.09,1.49,.2,2.12,.2,1.15,0,2.59-.14,4.16-.49-.45-.74-.86-1.51-1.26-2.29-1.66,.31-3.29,.47-4.97,.5l-.09-1.06c1.58,0,3.08-.14,4.59-.41-.31-.65-.54-1.3-.77-1.93-.5-.05-.63-.16-.63-.31,0-.13,.2-.22,.4-.25,.25-.05,.52-.09,1.37-.18,.22,.94,.43,1.53,.81,2.43,1.31-.29,2.67-.68,4.12-1.19l.4,1.03Zm-8.82,8.39c.22,2.7,3.11,2.79,5.35,2.79,.79,0,1.51-.04,2.56-.11l-.02,1.24c-.92,.09-1.71,.11-2.56,.11-2.88,0-6.27-.49-6.37-3.96l1.04-.07Z"/>
  <path class="cls-1" d="M111.73,215.85v-1.1l2.16,.07h2.11l2.16-.07v1.1l-2.16-.07h-2.11l-2.16,.07Zm2.12,10.98v1.12h-1.13l.07-2.16v-2.09l-.07-1.37,.09-.07,1.71,.07h1.42l1.71-.07,.09,.07-.05,1.37v1.78l.09,2.16h-1.13v-.81h-2.79Zm-1.01-13.5v-1.1l1.62,.07h1.53l1.62-.07v1.1l-1.62-.07h-1.53l-1.62,.07Zm0,5.02v-1.1l1.62,.07h1.53l1.62-.07v1.1l-1.62-.07h-1.53l-1.62,.07Zm0,2.5v-1.1l1.62,.07h1.53l1.62-.07v1.1l-1.62-.07h-1.53l-1.62,.07Zm3.8,2.36h-2.79v2.74h2.79v-2.74Zm6.18-10.17c0-.52-.05-.99-.14-1.42,1.64,.05,1.85,.18,1.85,.38,0,.16-.18,.31-.58,.43v2.16h1.82l2.7-.07v1.12l-2.7-.07h-1.82v2.95h.99l2.7-.07v1.12l-2.7-.07h-3.08l-2.7,.07v-1.12l2.7,.07h.95v-2.95h-1.44l-2.7,.07v-1.12l2.7,.07h1.44v-1.55Zm-1.96,13.74v1.1h-1.19l.07-2.63v-1.53l-.07-2.09,.07-.07,2.09,.07h3.1l2.09-.07,.07,.07-.07,2.09v1.48l.07,2.63h-1.19v-1.04h-5.04Zm5.04-4.23h-5.04v3.31h5.04v-3.31Z"/>
  <path class="cls-1" d="M138.66,224.03c-.41-.29-.77-.58-1.12-.88-.59,.65-1.17,1.15-1.69,1.51-.99,.7-1.67,.97-2.14,.97-1.17,0-1.87-1.35-1.87-2.92,0-2.16,1.13-3.84,2.75-4.95-.22-1.01-.32-2.14-.38-3.4-.4-.11-.56-.22-.56-.38,0-.09,.07-.16,.29-.18,.43-.02,.95-.02,1.44-.02,.02,1.31,.11,2.41,.27,3.35,1.42-.72,3.06-1.08,4.57-1.08h.31c.29-1.03,.43-1.69,.54-2.39-.34-.22-.47-.36-.47-.49s.11-.2,.25-.2c.25,0,.7,.09,1.58,.31-.16,1.01-.34,1.71-.72,2.95,3.56,.68,4.57,3.19,4.57,4.99,0,2.99-2.54,5.53-7.18,5.69-.13-.38-.31-.79-.5-1.17h.34c3.24,0,6-1.71,6-4.7,0-1.71-1.42-3.51-3.62-3.76-.81,1.93-1.89,3.62-2.97,4.93,.32,.27,.67,.54,1.03,.81l-.72,1.01Zm-5.67-1.55c0,1.13,.41,1.84,.83,1.84,.45,0,.63-.13,1.03-.4,.56-.38,1.21-.94,1.85-1.62-.85-1.01-1.46-2.16-1.84-3.42-1.19,1.06-1.87,2.41-1.87,3.6Zm4.52-1.1c1.04-1.26,2-2.79,2.56-4.3h-.31c-1.51,0-2.85,.41-3.91,1.06,.27,1.21,.85,2.32,1.66,3.24Z"/>
  <path class="cls-1" d="M163.23,215.1c-2.07,.18-3.38,.52-4.63,1.4-1.66,1.15-2.65,2.86-2.65,4.93,0,3.38,3.17,4.09,5.96,4.09,.22,0,.45,0,.67-.02l-.04,1.41h-.29c-3.6,0-7.51-1.03-7.51-5.38,0-2.2,1.03-4.03,2.52-5.28,.38-.25,.76-.49,1.21-.72l-1.46,.29c-2.21,.32-4.27,.59-6.99,.97l-.22-1.24c4.93-.54,8.9-1.1,13.22-1.75l.13,.07,.14,1.13-.07,.09Z"/>
  <path class="cls-1" d="M176.24,216.61c1.21-1.15,2.3-2.39,3.28-3.73,.25-.34,.43-.68,.58-1.04,1.19,.59,1.48,.83,1.48,1.03,0,.18-.23,.23-.76,.23-.94,1.24-1.96,2.41-3.1,3.51h3.02l2.7-.07v1.12l-2.7-.07h-4.07c-.86,.77-1.78,1.49-2.74,2.18,1.62-.13,3.39-.36,4.88-.65,.38-.07,.72-.18,1.06-.36,.97,.7,1.17,.94,1.17,1.1,0,.2-.07,.27-.31,.27-.16,0-.4-.04-.76-.11-2.2,.38-4.48,.61-6.9,.76-.07,.49-.16,.97-.25,1.46h6.45l2.09-.07,.07,.07-.09,.94c-.13,1.24-.31,2.27-.56,3.13-.38,1.28-1.03,1.69-2.4,1.69h-1.33c-.11-.45-.23-.81-.52-1.3,.58,.09,1.12,.13,1.69,.13,.99,0,1.21-.16,1.42-.81,.23-.7,.4-1.73,.49-2.84h-7.47c-.13,.61-.23,1.22-.36,1.84l-1.17-.09c.31-1.24,.54-2.5,.74-3.76-1.35,.85-2.77,1.6-4.25,2.3-.23-.38-.52-.63-.9-.83,3.19-1.3,6-2.99,8.41-5.04h-5.13l-2.7,.07v-1.12l2.7,.07h3.21v-2.09h-1.69l-2.7,.07v-1.1l2.7,.07h1.69v-.63c0-.52-.05-.99-.14-1.42,1.69,.11,1.87,.23,1.87,.43,0,.16-.16,.29-.59,.4v1.22h.83l2.7-.07v1.1l-2.7-.07h-.83v2.09h1.89Z"/>
  <path class="cls-1" d="M197.07,216.01c.79,.79,.94,1.01,.94,1.13,0,.14-.14,.25-.77,.45-1.33,1.01-2.2,1.76-3.51,3.03,1.22,0,1.93,.61,1.93,1.98v1.31c0,1.53,.29,1.64,1.96,1.64,1.12,0,2.36-.22,3.78-.68l.49,1.24c-1.51,.41-3.13,.68-4.34,.68-2.43,0-3.1-.49-3.1-2.14v-1.67c0-1.06-.32-1.51-.83-1.51-.56,0-1.35,.54-2.81,1.95-1.01,.97-1.8,1.82-2.92,3.08l-.2,.05-.95-.56-.05-.18c1.85-1.98,3.08-3.13,4.97-4.9,1.62-1.51,2.65-2.43,3.75-3.22l-.02-.09c-1.6,.32-4.03,.59-6.84,.7l-.04-1.28c2.83-.04,5.31-.23,7.96-.63l.41-.38h.2Zm-6.75-3.22c2.57,0,5.02,.22,7.24,.56l-.14,1.17c-2.63-.38-4.59-.56-7.17-.56l.07-1.17Z"/>
  <path class="cls-1" d="M206.33,215.24c1.91-.16,3.85-.29,5.82-.34v-1.89c-.47-.13-.63-.27-.63-.43,0-.14,.16-.2,.38-.2s.54,0,1.53,.04c-.04,.88-.05,1.69-.07,2.43,.97-.02,1.93-.04,2.88-.04,.68,0,1.55,.02,2.23,.04l.04,1.08c-.68-.02-1.57-.04-2.25-.04-.9,0-1.89,.02-2.92,.04-.02,.5-.02,.95-.02,1.35s0,.9,.02,1.46c1.28-.11,2.67-.31,4.21-.56l.25,1.08c-1.49,.27-2.99,.47-4.43,.59,.04,1.17,.09,2.45,.13,3.53,1.67,.67,3.46,1.55,5.17,2.47l-.7,1.13c-1.42-.88-2.99-1.66-4.43-2.34-.18,1.84-1.48,2.52-3.12,2.52-2.47,0-3.73-1.1-3.73-2.23,0-1.03,1.64-2.3,3.73-2.3,.38,0,1.24,.16,1.87,.36-.04-.97-.07-2.03-.11-3.06-.72,.05-1.44,.07-2.12,.07-1.55,0-2.48-.4-3.15-.79l.68-.85c.63,.36,1.28,.54,2.47,.54,.67,0,1.37-.02,2.11-.07-.02-.54-.02-1.04-.02-1.48v-1.39c-1.91,.05-3.91,.16-5.74,.32l-.07-1.04Zm3.96,8.46c-1.35,0-2.41,.67-2.41,1.24,0,.52,.92,1.1,2.54,1.1,1.26,0,1.87-.76,1.87-1.85-.72-.29-1.49-.49-2-.49Z"/>
  <path class="cls-1" d="M232.55,215.1h.65c1.64,0,3.29,0,4.93,.05l-.02,1.17c-2.02-.13-3.46-.14-4.88-.14h-.68v3.26c.27,.74,.38,1.37,.38,2.14,0,3.03-1.39,5.06-5.67,5.67-.13-.36-.32-.72-.59-1.12,3.62-.36,4.99-2.27,5.08-3.76-.36,.56-1.08,.95-2.3,.95-1.53,0-2.25-.74-2.25-2.09,0-1.75,1.6-3.48,2.97-3.48,.45,0,.92,.13,1.24,.56-.02-.7-.02-1.4-.04-2.11-1.91,.04-4.29,.16-7.56,.4l-.05-1.15c3.31-.18,5.73-.29,7.6-.34,0-.72-.02-1.44-.02-2.16-.45-.16-.61-.27-.61-.41,0-.13,.11-.23,.32-.23,.4,0,1.04,.02,1.57,.04l-.05,1.12v1.64Zm-4.29,6.01c0,.81,.36,1.13,1.48,1.13s1.73-.79,1.78-1.78c-.23-1.24-.95-1.62-1.42-1.62-.68,0-1.84,1.04-1.84,2.27Z"/>
  <path class="cls-1" d="M245.06,227.99c-1.39,0-2.48-1.12-2.48-2.49s1.1-2.45,2.48-2.45,2.48,1.08,2.48,2.45-1.1,2.49-2.48,2.49Zm0-.81c.9,0,1.66-.77,1.66-1.67s-.76-1.64-1.66-1.64-1.66,.74-1.66,1.64,.76,1.67,1.66,1.67Z"/>
</svg>