<?xml version="1.0" encoding="UTF-8"?>
<svg id="_テキスト" data-name="テキスト" xmlns="http://www.w3.org/2000/svg" viewBox="0 0 294 320">
  <defs>
    <style>
      .cls-1 {
        fill: #444;
      }
    </style>
  </defs>
  <path class="cls-1" d="m7.18,3.24v.66H2.75v10.7h-.72V3.24h5.14Z"/>
  <path class="cls-1" d="m10.62,6.49c1.59-.14,3.21-.24,4.84-.29v-1.58c-.39-.11-.52-.22-.52-.36,0-.12.13-.17.31-.17s.45,0,1.27.03c-.03.74-.04,1.41-.06,2.03.81-.02,1.6-.03,2.4-.03.57,0,1.29.01,1.86.03l.03.9c-.57-.01-1.31-.03-1.88-.03-.75,0-1.58.02-2.43.03-.01.42-.01.79-.01,1.12s0,.75.01,1.21c1.06-.09,2.22-.25,3.51-.46l.21.9c-1.25.22-2.49.39-3.69.5.03.97.07,2.04.1,2.94,1.4.55,2.88,1.29,4.3,2.05l-.58.95c-1.19-.74-2.49-1.38-3.69-1.95-.15,1.53-1.23,2.1-2.59,2.1-2.06,0-3.1-.91-3.1-1.86,0-.86,1.36-1.92,3.1-1.92.31,0,1.03.13,1.56.3-.03-.81-.06-1.7-.09-2.55-.6.04-1.2.06-1.77.06-1.29,0-2.07-.33-2.62-.66l.57-.71c.52.3,1.06.45,2.05.45.56,0,1.14-.01,1.76-.06-.02-.45-.02-.87-.02-1.23v-1.16c-1.59.04-3.25.13-4.78.27l-.06-.87Zm3.3,7.05c-1.12,0-2.01.56-2.01,1.04,0,.44.77.92,2.12.92,1.05,0,1.56-.63,1.56-1.54-.6-.24-1.25-.41-1.67-.41Z"/>
  <path class="cls-1" d="m31.54,6.49h.54c2.07,0,2.97,0,4.11.04l-.02.97c-1.68-.11-2.88-.12-4.06-.12h-.57v2.71c.23.62.31,1.14.31,1.79,0,2.52-1.15,4.21-4.72,4.72-.1-.3-.27-.6-.5-.93,3.01-.3,4.15-1.89,4.23-3.13-.3.46-.9.79-1.92.79-1.27,0-1.88-.62-1.88-1.74,0-1.46,1.33-2.89,2.47-2.89.38,0,.77.1,1.04.46-.02-.58-.02-1.17-.03-1.75-1.59.03-3.57.13-6.3.33l-.04-.96c2.76-.15,4.77-.24,6.33-.29,0-.6-.02-1.2-.02-1.8-.38-.13-.51-.23-.51-.35,0-.1.09-.19.27-.19.33,0,.87.01,1.3.03l-.04.93v1.37Zm-3.57,5.01c0,.67.3.94,1.23.94s1.44-.66,1.48-1.48c-.19-1.04-.79-1.35-1.19-1.35-.57,0-1.53.87-1.53,1.89Zm5.79-8.05c.81.73,1.33,1.33,1.92,2.28l-.72.54c-.52-.9-1.08-1.62-1.89-2.37l.69-.45Zm1.92-.56c.8.75,1.22,1.2,1.8,2.15l-.68.52c-.54-.88-.97-1.42-1.78-2.17l.66-.5Z"/>
  <path class="cls-1" d="m40.14,16.51c-.45-1.49-.63-3.02-.63-4.58,0-2.47.31-4.72.88-6.97-.3-.2-.39-.3-.39-.41,0-.09.09-.12.21-.12.19,0,.52.08,1.32.32-.67,2.42-1,4.98-1,6.97,0,1.68.24,3.08.62,4.54l-1.01.24Zm2.75-9.13c.88.04,1.93.06,2.82.06.46,0,.98-.01,1.53-.03-.01-.75-.01-1.51-.03-2.26-.36-.1-.52-.21-.52-.36,0-.11.13-.17.34-.17s.69.01,1.25.04c-.02.45-.02.85-.02,1.25,0,.52,0,1,.02,1.44.76-.04,1.62-.11,2.53-.21l.02.96c-.92.08-1.74.13-2.55.2.01,1.48.06,3.52.15,5.19.79.45,1.77,1,2.64,1.6l-.65.92c-.71-.54-1.44-1.03-2.16-1.47-.45,1.05-1.36,1.62-2.7,1.62-1.59,0-2.64-.75-2.64-1.72s1.33-1.89,2.43-1.89c.63,0,1.38.14,2.04.44-.06-1.21-.1-3.15-.15-4.63-.69.03-1.37.04-2.08.04-.6,0-1.35,0-2.25-.03v-.97Zm2.42,6.03c-.71,0-1.43.53-1.43.98,0,.39.56.85,1.4.85,1.11,0,1.77-.39,2.01-1.23-.6-.38-1.35-.6-1.98-.6Z"/>
  <path class="cls-1" d="m55.38,16.15v.96h-1.03l.06-2.25v-7.39l-.06-2.19.06-.06,2.19.06h1.53c.17-.34.32-.7.45-1.11.12-.36.18-.57.22-.87,1.26.27,1.49.39,1.49.53,0,.17-.12.22-.57.27-.17.38-.38.81-.58,1.18h3.21l2.19-.06.06.06-.06,2.19v7.36l.06,2.25h-1.04v-.93h-8.17Zm8.17-10.03h-8.17v2.4h8.17v-2.4Zm0,3.24h-8.17v2.47h8.17v-2.47Zm0,3.32h-8.17v2.62h8.17v-2.62Z"/>
  <path class="cls-1" d="m71.62,4.42c1.23.29,1.47.39,1.47.57,0,.12-.13.24-.58.28-.97,2.52-2.55,4.63-4.28,5.9-.17-.25-.43-.51-.72-.72,1.73-1.21,3.13-3.16,3.86-5.11.12-.33.21-.65.25-.92Zm2.46,6.28c-.17,3.41-1.43,5.42-5.37,6.18-.12-.29-.39-.63-.58-.84,3.33-.52,4.75-2.02,4.92-5.34h-.58l-2.25.06v-.99l2.25.06h4.54l1.74-.06.06.06-.06,1.83c-.04,1.53-.09,2.58-.22,3.25-.27,1.4-1.07,1.79-2.34,1.79h-.81c-.08-.36-.23-.72-.42-1,.57.06.81.08,1.2.08,1.09,0,1.35-.46,1.49-1.67.1-.9.13-2.28.13-3.41h-3.69Zm2.61-7.05c1.09,2.88,2.66,4.9,4.86,6.4-.27.2-.54.48-.79.81-2.13-1.57-3.78-3.79-4.96-6.91l.9-.3Z"/>
  <path class="cls-1" d="m94.19,6.37c-1.73.15-2.82.43-3.86,1.17-1.38.96-2.21,2.38-2.21,4.11,0,2.82,2.64,3.41,4.96,3.41.18,0,.38,0,.56-.02l-.03,1.17h-.24c-3,0-6.25-.85-6.25-4.48,0-1.83.86-3.36,2.1-4.39.31-.21.63-.41,1-.6l-1.21.24c-1.85.27-3.56.5-5.82.81l-.18-1.03c4.11-.45,7.41-.92,11.01-1.46l.1.06.12.95-.06.08Zm-1.74,1.99c.85.68,1.42,1.25,2.07,2.15l-.67.58c-.58-.86-1.18-1.53-2.05-2.22l.66-.51Zm1.56-1.05c.84.69,1.29,1.11,1.95,2.01l-.65.57c-.6-.84-1.06-1.35-1.93-2.04l.63-.54Z"/>
  <path class="cls-1" d="m98.17,9.37c.96-.38,2.02-.77,3.13-1.16-.29-.9-.58-1.84-.92-2.83-.39-.01-.56-.08-.56-.21,0-.08.12-.15.24-.2.34-.12.75-.21,1.23-.31.33,1.03.66,2.1.99,3.19,2.06-.69,4.12-1.25,5.36-1.25,1.63,0,3.18.83,3.18,2.78,0,1.54-1.29,2.83-3.3,2.83-.99,0-1.82-.2-2.64-.69.18-.34.28-.52.4-.9.77.45,1.5.58,2.13.58,1.31,0,2.34-.74,2.34-1.88,0-1.35-1.06-1.8-2.08-1.8s-3.06.52-5.11,1.21c.72,2.44,1.44,4.99,2.14,7.62l-1.06.3c-.72-2.81-1.32-5.08-2.07-7.56-1.02.39-1.88.75-2.98,1.25l-.42-.99Zm6.88-5.36c.72.51,1.29,1.04,1.86,1.67l-.76.65c-.62-.72-1.23-1.29-1.89-1.75l.8-.56Z"/>
  <path class="cls-1" d="m114.19,9.77c2.98-.71,4.58-.96,5.98-.96,2.43,0,3.75,1.09,3.75,3.13,0,1.67-.92,2.85-2.65,3.57-1.16.46-2.16.66-3.96.92-.11-.3-.25-.62-.45-.9,1.74-.22,2.73-.4,3.81-.83,1.46-.57,2.16-1.5,2.16-2.83,0-1.44-.88-2.15-2.73-2.15-1.29,0-2.7.25-5.69,1.04l-.22-.99Z"/>
  <path class="cls-1" d="m137.47,6.37c-1.73.15-2.82.43-3.86,1.17-1.38.96-2.21,2.38-2.21,4.11,0,2.82,2.64,3.41,4.96,3.41.18,0,.38,0,.56-.02l-.03,1.17h-.24c-3,0-6.25-.85-6.25-4.48,0-1.83.86-3.36,2.1-4.39.31-.21.63-.41,1-.6l-1.21.24c-1.85.27-3.56.5-5.82.81l-.18-1.03c4.11-.45,7.41-.92,11.01-1.46l.1.06.12.95-.06.08Z"/>
  <path class="cls-1" d="m141.57,4.89c1.62,0,3.24-.04,4.86-.13-.21,2.14-.58,4.12-.84,5.04,1.29.1,2.52.31,3.76.66.03-.54.06-1.15.06-1.71,0-.4-.02-.73-.03-1.02-.24-.09-.45-.2-.45-.34,0-.09.09-.17.29-.17.27,0,.74.03,1.21.08.02.34.03.75.03,1.14,0,1.05-.03,1.75-.08,2.34.79.25,1.61.55,2.46.92l-.39.99c-.74-.35-1.47-.65-2.17-.89-.5,3.12-2.34,4.21-4.91,4.8-.15-.25-.29-.48-.54-.79,2.97-.6,4.09-2.08,4.42-4.35-1.5-.45-2.85-.71-3.96-.81-.63,1.86-1.51,3.12-2.07,3.73-.42.46-.93.78-1.58.78-.71,0-1.58-.65-1.58-1.91,0-2.31,2.16-3.54,4.35-3.54h.12c.35-1.09.63-2.74.74-4-.96.05-2.24.09-3.71.11v-.92Zm-.54,8.22c0,.74.41,1.02.62,1.02.29,0,.55-.09.88-.46.62-.69,1.17-1.54,1.72-3.03-1.6.01-3.22.94-3.22,2.47Z"/>
  <path class="cls-1" d="m159.26,9.69c1.12-.51,1.99-.69,2.89-.69,2.28,0,4.04,1.23,4.04,3.39,0,2.35-1.96,4.03-5.33,4.03-2.07,0-3.17-.96-3.17-2.16,0-1.07.9-1.71,1.94-1.71,1.23,0,2.26.94,2.68,2.13l-.87.51c-.46-1.18-1.09-1.74-1.79-1.74-.51,0-1.04.38-1.04.78,0,.79.84,1.25,2.15,1.25,2.52,0,4.27-1.12,4.27-3.17,0-1.16-.88-2.45-3.09-2.45-1.88,0-3.52.79-5.26,2.64h-.13s-.66-.58-.66-.58v-.12c2.58-2.59,4.16-4.14,6.24-6.09-1.54.21-3.12.34-5.12.39l-.04-1c1.88-.03,4.12-.18,5.92-.43l.33-.27h.13c.76.63.88.87.88.99,0,.18-.15.22-.64.39-1.35,1.21-2.36,2.19-3.54,3.23l-.85.61.04.08Z"/>
  <path class="cls-1" d="m169.82,17.33v-.66h4.42V5.98h.72v11.35h-5.15Z"/>
  <path class="cls-1" d="m186.88,6.15c.62.03,1.2.04,1.77.04.62,0,1.2-.01,1.8-.04.29-.51.54-1.06.79-1.67-.24-.1-.39-.22-.39-.36,0-.08.09-.12.27-.12.13,0,.93.12,1.36.21-.33.72-.63,1.33-.92,1.86,1.23-.09,2.52-.24,4.02-.43l.12.93c-1.68.21-3.2.36-4.68.45-.6.97-1.14,1.65-1.8,2.22l.04.04c.65-.34,1.31-.46,1.88-.46,1.12,0,1.75.69,1.88,1.86,1.4-.54,2.62-.95,3.9-1.41-.03-.13-.04-.24-.04-.33,0-.18.07-.24.17-.24s.13.04.21.12c.31.38.58.83.75,1.25-1.7.5-3.44,1.05-4.91,1.58.04.75.08,1.65.09,2.47h-1.04c0-.71-.01-1.49-.04-2.1-.21.08-.42.17-.61.24-1.12.45-2.18,1.14-2.18,1.96,0,.96.71,1.23,2.31,1.23,2.21,0,3.78-.17,4.8-.29l.03,1.05c-1.14.11-2.52.2-4.73.2s-3.39-.64-3.39-2.14c0-1.32,1.37-2.19,2.43-2.66.44-.2.86-.38,1.26-.54-.12-1.04-.3-1.46-1.31-1.46-1.06,0-1.95.57-3.28,1.62l-.15-.04-.51-.71v-.1c1.27-1,2.28-2.04,3.1-3.32-.48.02-.95.03-1.42.03-.53,0-1.05-.01-1.58-.03v-.92Z"/>
  <path class="cls-1" d="m203.74,11.06c-.74,1.37-1.68,2.45-2.78,3.45-.21-.25-.46-.46-.76-.66,1.2-1.04,2.02-2.05,2.59-3.24-.18-.19-.31-.36-.31-.45,0-.11.09-.15.18-.15.1,0,.41.1,1.37.63l-.29.42Zm6.1-3.67l2.28-.06v1.08l-2.28-.05h-2.82v5.19c0,.57.03.99.03,1.35,0,.92-.46,1.37-1.27,1.37-.56,0-1.31-.15-2.19-.45.06-.33.08-.67.08-.97.81.25,1.42.38,1.86.38.3,0,.43-.14.43-.63v-6.23h-3.03l-2.28.05v-1.08l2.28.06h3.03v-2.26c-.39-.25-.46-.34-.46-.45,0-.09.08-.13.25-.13s.67.09,1.38.27l-.11.72v1.86h2.82Zm-.13,2.68c1.02,1,1.92,2.19,2.73,3.56l-.87.66c-.82-1.44-1.69-2.64-2.68-3.58l.83-.63Zm3.73-5.08c0,.92-.75,1.65-1.65,1.65s-1.63-.73-1.63-1.65.73-1.64,1.63-1.64,1.65.74,1.65,1.64Zm-2.64,0c0,.55.45,1,.99,1s1.02-.45,1.02-1-.46-1-1.02-1-.99.46-.99,1Z"/>
  <path class="cls-1" d="m218.3,9.34l.06,2.28h-1.2l.06-2.28v-3.92c-.44-.3-.5-.36-.5-.5,0-.06.08-.1.25-.1.25,0,.72.1,1.42.28l-.1.72v3.51Zm5.76,1.09c0,3.41-1.86,5.49-6.01,5.88-.12-.33-.27-.66-.47-.97,3.78-.35,5.37-1.95,5.37-4.91v-5.22c-.43-.3-.5-.36-.5-.5,0-.06.08-.1.25-.1.26,0,.75.1,1.46.28l-.1.72v4.81Z"/>
  <path class="cls-1" d="m229.05,8.48c1.56.35,2.66.67,4.02,1.23l-.41.94c-1.29-.51-2.43-.87-3.96-1.21l.34-.96Zm.62,7.53c-.33-.92-.46-1.25-.46-1.4,0-.12.08-.19.18-.19.09,0,.24.1.5.33,4.25-.56,7.11-3.03,8.98-8.03.32.39.58.65.86.87-1.82,4.79-4.74,7.35-9.21,8.23l-.84.18Zm.24-10.8c1.59.38,2.89.79,4.15,1.46l-.48.96c-1.14-.63-2.42-1.07-4.02-1.42l.34-.99Z"/>
  <path class="cls-1" d="m242.54,11.03v-1.21l2.28.08h6.63l2.28-.08v1.21l-2.28-.06h-6.63l-2.28.06Z"/>
  <path class="cls-1" d="m257.47,16.25c-.2-1.57-.27-2.86-.27-4.54s.24-3.78.78-6.53c-.32-.17-.45-.3-.45-.42,0-.1.11-.15.3-.15.21,0,.5.04,1.42.27-.73,2.43-1,4.81-1,6.9,0,1.62.08,2.82.35,4.38l-1.12.09Zm4.77-4.29c-.29.46-.42.87-.42,1.46,0,.63.78,1.11,3.21,1.11,1.05,0,2.47-.13,3.55-.33l.08,1.11c-.98.15-2.38.25-3.57.25-3.01,0-4.32-.72-4.32-2.08,0-.6.15-1.18.6-2l.87.48Zm-.76-5.19c1.36-.21,2.85-.31,4.17-.31.95,0,1.67.03,2.4.1v.99c-.81-.06-1.5-.09-2.57-.09-1.27,0-2.67.1-3.94.31l-.06-1Z"/>
  <path class="cls-1" d="m274.42,17.23c-.8-1.28-1.73-2.4-2.88-3.38l.82-.67c1.19.93,2.16,2.02,3,3.25l-.94.79Z"/>
  <path class="cls-1" d="m.85,67.03v-.91l1.86.06h1.62l1.79-.06v.91l-1.79-.06h-1.62l-1.86.06Zm1.67,9.15v.93h-.95l.06-1.8v-1.74l-.06-1.14.08-.06,1.27.06h1.38l1.27-.06.08.06-.04,1.14v1.46l.07,1.8h-.94v-.64h-2.22Zm-.84-11.25v-.92l1.35.06h1.17l1.35-.06v.92l-1.35-.06h-1.17l-1.35.06Zm0,4.18v-.92l1.35.06h1.17l1.35-.06v.92l-1.35-.06h-1.17l-1.35.06Zm0,2.08v-.92l1.35.06h1.17l1.35-.06v.92l-1.35-.06h-1.17l-1.35.06Zm3.06,1.96h-2.22v2.28h2.22v-2.28Zm4.26.75c.69-.1,1.42-.24,2.07-.38-.03.27-.06.53-.06.79-1.33.3-2.73.56-3.96.78,0,.27-.09.45-.23.45-.2,0-.31-.17-.73-1.29.4-.01.72-.03,1.06-.08.27-.03.58-.08.91-.13v-3.48h-.34l-1.35.06v-.9l1.35.06h1.54l1.35-.06v.9l-1.35-.06h-.27v3.33Zm1.84-7.57c-.01-.62-.01-1.23-.01-1.82,0-.33-.02-.67-.08-1.02,1.37.12,1.54.22,1.54.38,0,.18-.13.22-.54.33,0,.72,0,1.44.02,2.13h.71l2.25-.06v.93l-2.25-.06h-.69c.04,1.53.12,2.79.17,3.25.17,1.75.51,3.34,1.09,4.61.33.71.5.9.66.9.24,0,.3-.71.4-1.89.29.22.62.34.84.43-.12,2.12-.58,2.57-1.24,2.57-.47,0-1-.51-1.5-1.59s-.96-2.76-1.19-5.21c-.06-.69-.12-1.83-.15-3.08h-2.1l-2.25.06v-.93l2.25.06h2.07Zm2.16-2.59c.46.3.99.72,1.4,1.14l-.63.65c-.38-.44-.85-.89-1.29-1.22l.52-.57Z"/>
  <path class="cls-1" d="m19.01,70.28c-.51.63-1.06,1.23-1.63,1.75-.21-.25-.51-.49-.73-.61,1.18-1.14,2.19-2.34,2.8-3.33.19-.33.4-.78.46-1.09,1.12.42,1.4.57,1.4.73,0,.21-.15.25-.69.25-.29.51-.63,1.02-.99,1.53.67.08.75.17.75.3s-.17.23-.5.36v7.02h-.99l.06-2.25v-2.65l.06-2.01Zm.84-6.55c1.08.47,1.26.6,1.26.79,0,.18-.21.2-.63.15-.83.84-1.86,1.63-2.98,2.26-.17-.27-.41-.54-.63-.71,1.05-.55,1.98-1.24,2.54-1.83.25-.27.36-.45.45-.68Zm8.01,9.58l.06,2.38c0,1.19-.27,1.49-1.62,1.49h-1.03c-.06-.29-.21-.77-.42-1.05.57.07,1.29.09,1.62.09s.42-.13.42-.48v-6.49h-2.82l-2.25.06v-.96l2.25.06h4.25l2.25-.06v.96l-2.25-.06h-.45v4.06Zm-5.05-8.01v-.95l2.25.06h2.38l2.25-.06v.95l-2.25-.06h-2.38l-2.25.06Z"/>
  <path class="cls-1" d="m37.48,66.76c-.68-.72-1.31-1.26-2-1.72-.76,1.29-1.56,2.26-2.52,3.13-.18-.27-.39-.46-.66-.65,1.06-.87,1.98-2.11,2.59-3.42.14-.28.21-.51.24-.79,1.2.29,1.38.41,1.38.56s-.14.25-.54.25c-.04.08-.09.17-.12.24.79.47,1.58,1.07,2.25,1.71l-.63.69Zm-2.49,1.75h-.21l-1.2.06v-.87l1.2.06h1.62l1.2-.06v.87l-1.2-.06h-.54v1.7h.54l1.5-.06v.87l-1.5-.06h-.54v4.09c.75-.15,1.5-.32,2.16-.5-.02.24-.02.52-.02.78-1.21.34-2.97.7-4.5,1.03-.04.3-.12.41-.25.41-.18,0-.31-.13-.75-1.25.41-.01.69-.04,1.02-.09.44-.06.93-.13,1.47-.22v-4.26h-.75l-1.5.06v-.87l1.5.06h.75v-1.7Zm-1.38,3.51c.31.58.6,1.38.74,1.96l-.77.33c-.15-.63-.42-1.41-.72-1.98l.75-.32Zm4.54.33c0,.12-.1.2-.46.27-.15.53-.31,1.02-.57,1.59-.26-.12-.47-.2-.72-.26.24-.52.39-1.05.51-1.6.04-.21.07-.36.09-.53,1.08.3,1.15.41,1.15.53Zm2.04-5.96l-1.71.04v-.87l1.71.04v-1.19c0-.34-.03-.67-.12-1.04,1.46.14,1.58.23,1.58.39,0,.12-.17.24-.54.31v1.52h2v-1.19c0-.34-.03-.67-.12-1.04,1.46.14,1.58.23,1.58.39,0,.12-.17.24-.54.31v1.52h.12l1.8-.04v.87l-1.8-.04h-.12v2.36h.52l1.8-.04v.9l-1.8-.04h-4.74l-1.8.04v-.9l1.8.04h.39v-2.36Zm-.1,10.08v.75h-.96l.06-2.34v-2.27l-.04-1.74.06-.06,1.74.06h2.45l1.74-.06.06.06-.04,1.74v2.25l.06,2.31h-.97v-.71h-4.14Zm4.14-4.81h-4.14v1.62h4.14v-1.62Zm0,2.37h-4.14v1.67h4.14v-1.67Zm-1.12-5.28v-2.36h-2v2.36h2Z"/>
  <path class="cls-1" d="m48.14,67v-.92l1.86.06h1.63l1.79-.06v.92l-1.79-.06h-1.63l-1.86.06Zm1.67,9.15v.93h-.95l.06-1.8v-1.74l-.06-1.14.08-.06,1.28.06h1.38l1.27-.06.08.06-.04,1.14v1.46l.08,1.8h-.95v-.64h-2.22Zm-.84-11.25v-.91l1.35.06h1.17l1.35-.06v.91l-1.35-.06h-1.17l-1.35.06Zm0,4.19v-.92l1.35.06h1.17l1.35-.06v.92l-1.35-.06h-1.17l-1.35.06Zm0,2.08v-.92l1.35.06h1.17l1.35-.06v.92l-1.35-.06h-1.17l-1.35.06Zm3.06,1.96h-2.22v2.28h2.22v-2.28Zm2.01,3.88c-.19-.21-.5-.44-.78-.57.9-.57,1.72-1.27,2.29-2.04.18-.22.34-.48.43-.75,1,.41,1.2.54,1.2.69,0,.17-.23.24-.63.21-.65.93-1.58,1.75-2.52,2.46Zm8.12-4.84v.92l-2.25-.06h-4.25l-2.25.06v-.92l2.25.06h4.17v-1.65h-3.48l-2.19.06-.06-.06.06-1.74v-2.46c0-.43-.03-.79-.1-1.16,1.32.11,1.44.18,1.44.33,0,.17-.08.23-.45.35v3.88h3.5l2.19-.08.06.06-.06,1.29v1.16l1.42-.04Zm-5.82-3.81l-.06-.04.06-1.3v-1.58l-.06-1.29.06-.06,1.59.06h1.33l1.59-.06.06.06-.06,1.29v1.58l.06,1.29-.06.06-1.59-.06h-1.33l-1.59.06Zm3.65-.81v-2.64h-2.78v2.64h2.78Zm-.5,6.12c1.06.81,1.84,1.65,2.59,2.58l-.81.63c-.75-1.02-1.47-1.88-2.48-2.7l.69-.51Z"/>
  <path class="cls-1" d="m64.45,66.15c.62.03,1.2.04,1.77.04.62,0,1.2-.01,1.8-.04.29-.51.54-1.06.79-1.67-.24-.1-.39-.22-.39-.36,0-.08.09-.12.27-.12.13,0,.93.12,1.37.21-.33.72-.63,1.33-.92,1.86,1.23-.09,2.52-.24,4.02-.43l.12.93c-1.68.21-3.19.36-4.68.45-.6.97-1.14,1.65-1.8,2.22l.04.04c.64-.34,1.3-.46,1.88-.46,1.12,0,1.75.69,1.88,1.86,1.39-.54,2.62-.95,3.9-1.41-.03-.13-.04-.24-.04-.33,0-.18.08-.24.17-.24s.13.04.21.12c.32.38.58.83.75,1.25-1.7.5-3.43,1.05-4.9,1.58.04.75.07,1.65.09,2.47h-1.04c0-.71-.01-1.49-.04-2.1-.21.08-.42.17-.62.24-1.12.45-2.17,1.14-2.17,1.96,0,.96.71,1.23,2.31,1.23,2.21,0,3.78-.17,4.8-.29l.03,1.05c-1.14.11-2.52.2-4.72.2s-3.39-.64-3.39-2.14c0-1.32,1.36-2.19,2.43-2.66.43-.2.85-.38,1.26-.54-.12-1.04-.3-1.46-1.3-1.46-1.07,0-1.95.57-3.29,1.62l-.15-.04-.51-.71.02-.1c1.26-1,2.26-2.04,3.09-3.32-.48.02-.95.03-1.43.03-.52,0-1.05-.01-1.57-.03l-.02-.92Z"/>
  <path class="cls-1" d="m87.42,68.05l1.74-.06.06.06-.06,1.74v1.21l.06,1.74-.06.06-1.74-.06h-2.78v1.19h2.78l2.25-.06v.89l-2.25-.06h-2.78v1.21h4.25l2.25-.06v.9l-2.25-.06h-9.27l-2.25.06v-.9l2.25.06h4.09v-1.21h-2.55l-2.25.06v-.89l2.25.06h2.55v-1.19h-2.7l-1.68.06-.08-.08.06-1.72v-1.21l-.06-1.74.06-.06,1.74.06h2.66v-1.14h-3.95l-2.25.06v-.9l2.25.06h3.95v-1.2c-1.7.11-3.39.17-5.14.21-.09-.29-.24-.52-.48-.81,3.76-.02,7.11-.23,9.64-.56.32-.04.6-.13.88-.27.81.58,1.04.81,1.04.97,0,.11-.06.15-.22.15-.14,0-.35-.03-.65-.12-1.41.15-2.77.27-4.14.36v1.26h4.14l2.25-.06v.9l-2.25-.06h-4.14v1.14h2.78Zm-3.71.73h-3.48v1.22h3.48v-1.22Zm-3.48,1.94v1.29h3.48v-1.29h-3.48Zm4.41-.72h3.6v-1.22h-3.6v1.22Zm0,2.01h3.6v-1.29h-3.6v1.29Z"/>
  <path class="cls-1" d="m97.17,65.1l-.04,1.75c.24-.01.39-.01.66-.01l.15.08.22.28.02.15c-.45.64-.78,1.12-1.14,1.77l-.03.45c2.54-2.54,4.29-3.52,5.37-3.52,1.41,0,2.55,1.25,2.55,4.51,0,1.38-.09,2.46-.33,3.3.66.54.98.81,1.54,1.38l-.67.86c-.51-.58-.78-.84-1.29-1.32-.64.83-1.51,1.18-2.52,1.18-1.46,0-2.42-.69-2.42-1.72,0-.86,1.16-1.82,2.26-1.82.75,0,1.53.3,2.19.8.13-.65.15-1.37.15-2.28,0-2.75-.55-3.95-1.48-3.95s-3.03,1.41-5.38,3.83v2.68c0,.89,0,1.89.01,2.92h-1v-3.97l.08-.94-.51.79c-.5.6-1.04,1.35-1.53,1.96h-.13l-.63-.6v-.15c.96-1.1,1.93-2.42,2.8-3.76v-1.89c-.81.11-1.65.25-2.47.45l-.15-.92c.92-.17,1.75-.3,2.67-.43l.04-2.31c-.34-.13-.48-.24-.48-.36,0-.11.12-.17.27-.17.21,0,.55.01,1.33.09l-.11.88Zm4.26,8.21c-.54,0-1.29.54-1.29.94,0,.5.63.81,1.5.81.66,0,1.2-.24,1.69-.92-.57-.5-1.38-.84-1.9-.84Z"/>
  <path class="cls-1" d="m108.6,66.54c.47.03.87.06,1.33.06.51,0,1.11-.03,1.75-.08.17-.66.3-1.32.41-1.98-.33-.18-.42-.29-.42-.41,0-.09.09-.15.21-.15.2,0,.41.03,1.44.22-.15.73-.32,1.48-.51,2.23.77-.07,1.53-.17,2.22-.27l.07.96c-.78.1-1.68.21-2.55.27-.73,2.6-1.71,5.19-2.92,7.75l-1-.46c1.18-2.4,2.16-4.8,2.82-7.21-.6.04-1.14.06-1.56.06s-.81,0-1.21-.03l-.08-.97Zm9.32,2.56c-.38.45-.54.87-.54,1.39,0,.58.13,1.05.49,2.61,1.12.42,2.31,1.11,3.27,1.8l-.58.95c-.92-.72-1.73-1.26-2.57-1.62-.01,1.53-1.08,2.28-2.59,2.28-1.62,0-2.71-.69-2.71-1.74,0-1.14.95-2.05,2.73-2.05.49,0,.91.06,1.33.13-.24-1.14-.38-1.83-.38-2.42,0-.67.18-1.2.61-1.74l.93.41Zm-2.67,4.53c-1.16,0-1.62.52-1.62,1.05s.62.9,1.68.9,1.63-.48,1.63-1.26c0-.1,0-.33-.03-.43-.57-.15-.97-.25-1.66-.25Zm1.84-7.42c1.3.31,2.62.82,3.93,1.51l-.5.9c-1.26-.69-2.58-1.22-3.84-1.56l.41-.85Z"/>
  <path class="cls-1" d="m123.95,67.66c1.29-.15,2.46-.27,3.4-.36.27-.86.5-1.71.71-2.57-.3-.12-.42-.22-.42-.34,0-.09.1-.15.24-.15.25,0,.55.06,1.35.24-.24.9-.51,1.82-.79,2.73.41-.03.72-.04.93-.04,1.61,0,2.29.54,2.29,2.62,0,1.57-.3,3.46-.81,4.87-.42,1.16-1.02,1.64-1.74,1.64-.63,0-1.65-.53-2.37-1.16.18-.27.32-.53.45-.84.67.58,1.41.9,1.79.9s.69-.36.92-1.05c.46-1.38.73-3.12.73-4.35,0-1.42-.28-1.71-1.39-1.71-.25,0-.64.01-1.12.06-.92,2.62-2.08,5.28-3.46,7.88l-.92-.45c1.42-2.52,2.5-4.93,3.32-7.32-.84.08-1.85.21-2.97.36l-.12-.96Zm9.46-.98c1.52,1.62,2.46,3.27,3.08,4.95l-1,.58c-.51-1.79-1.63-3.65-2.96-4.96l.88-.57Zm.3-2.4c.85.67,1.42,1.25,2.07,2.14l-.67.58c-.58-.85-1.18-1.53-2.05-2.22l.66-.51Zm1.56-1.05c.84.69,1.29,1.11,1.95,2.01l-.65.57c-.6-.84-1.06-1.35-1.93-2.04l.63-.54Z"/>
  <path class="cls-1" d="m141.58,66.93c-.31,1.51-.51,3.33-.62,4.62,1.19-1.08,2.75-1.98,4.86-1.98,2.34,0,3.83,1.17,3.83,2.96,0,2.52-3,3.87-6.63,3.87-.6,0-1.14,0-1.8-.06-.06-.31-.15-.63-.27-.99.43.04.81.07,1.49.07,3.25-.01,6.03-.82,6.03-3.1,0-.75-.73-1.82-2.8-1.82-1.46,0-2.58.53-3.79,1.49-.36.3-.6.51-.79.81l-.15.11-.92-.12-.07-.12c.09-2.34.25-3.78.58-5.83l1.06.11Zm.83-2.62c1.47.36,2.85.84,4.12,1.44l-.5.93c-1.33-.67-2.58-1.12-4.04-1.5l.41-.87Z"/>
  <path class="cls-1" d="m154.83,69.76c-.34,1.47-.86,2.76-1.8,4.27-.15-.27-.33-.51-.55-.72,1-1.51,1.84-3.66,2.16-5.82h-.3l-1.62.06v-.9l1.62.06h.42v-2.14c0-.44-.04-.83-.12-1.19,1.33.09,1.47.2,1.47.34,0,.17-.14.26-.5.33v2.66h.39l1.38-.06v.9l-1.38-.06h-.39v2.37l.48-.34c.5.53.87,1.02,1.21,1.62l-.67.53c-.29-.56-.63-1.1-1.02-1.58v2.26l.06,4.86h-.97l.13-7.45Zm2.96,4.98c1.02-.36,1.92-.78,2.88-1.33-.03.3-.03.67-.02.92-.88.54-1.8,1-2.79,1.44-.02.38-.09.49-.26.49s-.36-.24-.79-1.26c.39-.08.81-.19.98-.25Zm4.51-8.95c.29-.48.55-1,.76-1.47.15-.33.25-.64.3-.85,1.02.34,1.25.5,1.25.64s-.12.2-.48.21c-.24.47-.56.98-.87,1.47h.72l2.25-.06v.86l-2.25-.06h-1.71v1.23h1.08l2.1-.06v.87l-2.1-.06h-1.08v1.36h1.89l2.25-.06v.88l-2.25-.06h-1.89v.61c.3.66.69,1.26,1.14,1.83.39-.34.73-.72,1.02-1.12.17-.22.27-.38.39-.64.92.52,1.05.66,1.05.81s-.18.18-.54.17c-.48.54-.89.95-1.4,1.38.72.74,1.59,1.33,2.61,1.86-.3.21-.51.46-.69.79-1.81-1.14-2.85-2.26-3.63-3.78l.09,3.25c0,1-.39,1.29-1.74,1.29h-.42c-.06-.34-.21-.73-.38-1.02.57.06.88.08,1.23.08.29,0,.36-.06.36-.48v-5.02h-1.7l-2.25.06v-.88l2.25.06h1.7v-1.36h-1.07l-2.1.06v-.87l2.1.06h1.07v-1.23h-1.41l-2.25.06v-.86l2.25.06h2.34Zm-3.46,5.52c.5.31,1.02.78,1.46,1.29l-.67.64c-.44-.54-.92-1-1.43-1.35l.65-.58Zm1.17-7.65c.36.34.76.87,1.06,1.42l-.82.5c-.32-.6-.65-1.08-1-1.47l.76-.45Z"/>
  <path class="cls-1" d="m178.48,67.03c.97.77,1.09.92,1.09,1.08s-.08.25-.51.44c-.97,2.17-2.03,3.72-3.21,5.13.57.36,1.38.94,1.93,1.36l-.71.86c-1.56-1.35-3.54-2.54-5.22-3.42l.62-.72c.88.43,1.71.9,2.55,1.41,1.14-1.36,2.16-2.89,2.99-4.89l-5.15.12c-.84,1.41-1.89,2.67-3.39,4.04-.22-.29-.5-.55-.75-.71,1.75-1.46,3.32-3.64,4.19-5.68.15-.36.34-.75.45-1.16,1.17.36,1.38.5,1.38.69,0,.17-.13.22-.57.25-.17.39-.54,1.2-.84,1.67l4.59-.12.38-.35h.18Z"/>
  <path class="cls-1" d="m182.83,66.54c.46.03.87.06,1.33.06.51,0,1.11-.03,1.75-.08.17-.66.3-1.32.41-1.98-.33-.18-.42-.29-.42-.41,0-.09.09-.15.21-.15.19,0,.4.03,1.44.22-.15.73-.31,1.48-.51,2.23.76-.07,1.53-.17,2.22-.27l.08.96c-.78.1-1.68.21-2.55.27-.74,2.6-1.71,5.19-2.92,7.75l-1-.46c1.18-2.4,2.16-4.8,2.82-7.21-.6.04-1.14.06-1.56.06s-.81,0-1.21-.03l-.08-.97Zm9.31,2.56c-.38.45-.54.87-.54,1.39,0,.58.13,1.05.5,2.61,1.12.42,2.31,1.11,3.27,1.8l-.58.95c-.92-.72-1.72-1.26-2.56-1.62-.02,1.53-1.08,2.28-2.59,2.28-1.62,0-2.71-.69-2.71-1.74,0-1.14.94-2.05,2.73-2.05.5,0,.92.06,1.33.13-.24-1.14-.38-1.83-.38-2.42,0-.67.18-1.2.62-1.74l.93.41Zm-2.67,4.53c-1.16,0-1.62.52-1.62,1.05s.62.9,1.68.9,1.63-.48,1.63-1.26c0-.1,0-.33-.03-.43-.57-.15-.97-.25-1.67-.25Zm1.84-7.42c1.31.31,2.62.82,3.93,1.51l-.49.9c-1.26-.69-2.58-1.22-3.84-1.56l.4-.85Z"/>
  <path class="cls-1" d="m11.32,126.04l.36-.29h.18c.66.64.96,1.04.96,1.2s-.17.25-.42.36c-2.01,4.8-4.3,7.29-8.52,8.96-.14-.24-.35-.55-.65-.86,4.24-1.68,6.45-4.23,8.01-8.44h-4.5c-.98,1.5-2.07,2.66-3.38,3.79-.25-.29-.52-.48-.82-.67,1.94-1.63,3.3-3.29,4.09-5.26-.27-.24-.36-.36-.36-.47,0-.09.09-.15.15-.15.21,0,.48.09,1.54.58-.21.45-.44.87-.66,1.26h4Z"/>
  <path class="cls-1" d="m18.67,129.34l.06,2.28h-1.2l.06-2.28v-3.92c-.44-.3-.5-.36-.5-.5,0-.06.08-.1.26-.1.25,0,.72.1,1.42.28l-.1.72v3.51Zm5.76,1.09c0,3.41-1.86,5.49-6.01,5.88-.12-.33-.27-.66-.47-.97,3.78-.35,5.37-1.95,5.37-4.91v-5.22c-.44-.3-.5-.36-.5-.5,0-.06.08-.1.25-.1.26,0,.75.1,1.46.28l-.1.72v4.81Z"/>
  <path class="cls-1" d="m34.77,133.47h3.04l2.28-.06v1.09l-2.28-.06h-7l-2.28.06v-1.09l2.28.06h2.85v-5.73h-1.89l-2.28.04v-1.09l2.28.08h5.16l2.28-.08v1.09l-2.28-.04h-2.16v5.73Z"/>
  <path class="cls-1" d="m51.56,125.92c-.96,1.02-1.98,1.92-3.06,2.75.31.07.66.18.97.27l-.06.97v4.11l.06,2.29h-1.25l.06-2.28v-4.8l-.24-.24c-1.58,1.12-3.29,2.08-5.19,2.92-.18-.29-.42-.57-.67-.81,3.39-1.42,6.49-3.54,8.7-6.22-.13-.21-.24-.41-.24-.48,0-.11.09-.17.2-.17.13,0,.38.15,1.44.93l-.72.75Z"/>
  <path class="cls-1" d="m62.23,130.23c0,3.22-1.45,4.92-4.44,6.04-.17-.33-.42-.63-.66-.88,2.64-.95,3.93-2.48,3.93-5.15v-.54h-3.37l-2.28.05v-1.07l2.28.06h6.84l2.28-.06v1.07l-2.28-.05h-2.29v.53Zm-2.89-4.81h3.67l2.28-.06v1.08l-2.28-.04h-3.67l-2.28.04v-1.08l2.28.06Z"/>
  <path class="cls-1" d="m77.17,128.13c-.79.85-1.62,1.59-2.5,2.23.27.08.46.12.71.2l-.06.76v3.33l.04,1.91h-1.11l.04-1.89v-3.81l-.14-.12c-1.26.87-2.65,1.61-4.29,2.31-.17-.27-.33-.48-.62-.74,2.85-1.25,5.29-2.75,7.17-5.01-.12-.2-.2-.34-.2-.42,0-.12.06-.18.18-.18s.45.16,1.37.84l-.6.58Z"/>
  <path class="cls-1" d="m91.9,126.96c-.17,4.96-3.45,8.49-8,9.24-.13-.33-.32-.64-.55-.95,4.11-.66,7.29-3.78,7.35-8.25h-6.12l-2.26.06v-1.09l2.26.06h5.08l2.17-.06.09.08-.03.92Zm-.35-2.99c.86.67,1.42,1.25,2.07,2.15l-.67.58c-.58-.86-1.19-1.53-2.06-2.22l.66-.51Zm1.56-1.05c.84.69,1.29,1.11,1.95,2.01l-.64.57c-.6-.84-1.07-1.35-1.93-2.04l.63-.54Z"/>
  <path class="cls-1" d="m96.81,136.25c-.2-1.57-.27-2.86-.27-4.54s.24-3.78.78-6.53c-.32-.17-.45-.3-.45-.42,0-.1.11-.15.3-.15.21,0,.5.04,1.42.27-.73,2.43-1,4.81-1,6.9,0,1.62.08,2.82.35,4.38l-1.12.09Zm4.77-4.29c-.29.46-.42.87-.42,1.46,0,.63.78,1.11,3.21,1.11,1.05,0,2.47-.13,3.55-.33l.08,1.11c-.98.15-2.38.25-3.57.25-3.01,0-4.32-.72-4.32-2.08,0-.6.15-1.18.6-2l.87.48Zm-.76-5.19c1.36-.21,2.85-.31,4.17-.31.95,0,1.67.03,2.4.1v.99c-.81-.06-1.5-.09-2.57-.09-1.27,0-2.67.1-3.94.31l-.06-1Z"/>
  <path class="cls-1" d="m112.41,127.4h-.38l-1.8.06v-.93l1.8.06h.38v-2.05c0-.44-.03-.79-.1-1.16,1.32.08,1.53.18,1.53.33,0,.12-.11.22-.48.32v2.55l1.49-.04v.93l-1.49-.04v2.64c.55-.13,1.16-.31,1.79-.5,0,.27,0,.54.01.79-.57.18-1.18.38-1.8.56v1.8l.06,2.68c0,1.2-.15,1.49-1.89,1.49h-.4c-.08-.35-.26-.77-.42-1.05.57.08.93.09,1.26.09.38,0,.45-.14.45-.48v-4.25c-.45.14-.9.25-1.33.38-.06.44-.1.56-.3.56-.15,0-.27-.25-.63-1.35.42-.06.67-.1,1.02-.18.4-.09.81-.18,1.24-.29v-2.91Zm3.03,5.4c.01.41-.09.5-.25.5-.13,0-.33-.3-.76-1.29.22-.03.76-.2.93-.25.52-.21,1.32-.56,2.01-.92.03-1.42.01-3.36,0-5.83,0-.38-.01-.93-.12-1.44,1.26.12,1.54.21,1.54.41,0,.15-.12.21-.48.3-.02,4.38,0,7.09-.14,8.43-.25,2.31-1.32,3.63-3.7,4.37-.14-.3-.35-.57-.62-.79,2.25-.62,3.22-1.68,3.42-3.69.03-.22.04-.49.06-.79-.58.33-1.26.69-1.89,1.02Zm.43-6.63c.45.71.87,1.49,1.22,2.31l-.92.48c-.24-.72-.65-1.71-1.1-2.4l.79-.39Zm5.22,4.26c.94.66,1.84,1.41,2.61,2.16l-.76.76c-.63-.71-1.49-1.53-2.42-2.23v4.41c0,.36.06.42.99.42,1.35,0,1.42-.08,1.47-1.69.39.22.72.38.96.43-.06,1.89-.44,2.16-2.38,2.16-1.79,0-1.95-.2-1.95-1.23v-10.89c0-.43-.03-.79-.11-1.15,1.32.06,1.47.17,1.47.31s-.14.23-.45.33v6.74l.57-.53Zm.52-1.41c-.21-.18-.51-.4-.74-.55.41-.43.96-1.16,1.26-1.62.17-.24.25-.41.36-.67,1.02.66,1.16.79,1.16.95s-.2.19-.54.15c-.43.56-.97,1.23-1.5,1.75Z"/>
  <path class="cls-1" d="m130.35,131.99v1.4h1.1l2.25-.06v.9l-2.25-.06h-1.1v.61l.06,2.4h-1l.06-2.4v-.61h-1.26l-2.25.06v-.9l2.25.06h1.26v-1.4h-1l-1.72.06-.08-.11.06-1.69v-1.59l-.06-1.74.06-.06,1.74.06h2.85l1.74-.06.06.06-.06,1.74v1.59l.06,1.71-.06.09-1.74-.06h-.96Zm-3.34-8.31c.48.67.92,1.47,1.21,2.17l-.93.39c-.3-.81-.71-1.62-1.14-2.25l.85-.32Zm2.46,5.38v-1.41h-1.88v1.41h1.88Zm-1.88,2.19h1.88v-1.46h-1.88v1.46Zm1.8-7.75c.48.74.81,1.51,1.07,2.28l-.92.3c-.25-.84-.55-1.56-.99-2.34l.84-.24Zm2.79,4.16h-1.83v1.41h1.83v-1.41Zm0,3.6v-1.46h-1.83v1.46h1.83Zm1.26-7.16c0,.17-.12.2-.54.24-.27.65-.54,1.25-.98,1.93-.19-.16-.54-.3-.76-.36.31-.57.58-1.19.74-1.68.1-.33.13-.48.18-.75,1.14.33,1.37.48,1.37.61Zm2.71,4.07c.06,1.5.15,3.03.51,4.5.46-.65.88-1.41,1.29-2.34.15-.33.25-.74.29-1.01,1.14.45,1.32.57,1.32.72,0,.18-.13.21-.51.21-.74,1.48-1.39,2.58-2.1,3.42.15.42.31.79.51,1.15.55,1.05.92,1.28,1.16,1.28s.39-.55.4-1.82c.3.18.66.36.87.44-.15,2.14-.66,2.49-1.26,2.49-.34,0-1.09-.39-1.79-1.62-.21-.38-.41-.77-.57-1.2-.91.87-1.99,1.48-3.46,2.13-.22-.3-.45-.53-.73-.78,1.69-.57,2.91-1.23,3.9-2.25-.51-1.69-.66-3.49-.72-5.26l-1.71.15-.06-.95,1.74-.04c-.01-.63-.03-1.29-.03-2.01,0-1.16-.05-1.59-.12-1.95,1.33.11,1.53.21,1.53.38,0,.13-.17.23-.5.36v1.17c0,.72,0,1.39.02,2.01l1.54-.11,2.1-.19.04.94-2.1.08-1.56.11Zm1.74-3.84c.56.3,1.07.67,1.56,1.14l-.66.66c-.45-.45-1-.92-1.53-1.23l.63-.57Z"/>
  <path class="cls-1" d="m152.72,133.69c-1.8,1.65-4.17,2.67-6.01,2.67-2.13,0-3.27-.79-3.27-3.18,0-2.05.06-5.17.13-8.34-.36-.13-.45-.24-.45-.36,0-.1.12-.18.35-.18.18,0,.6.01,1.26.08-.17,3.6-.24,6.06-.24,8.68,0,1.65.45,2.19,2.15,2.19,1.87,0,3.97-1.02,5.56-2.59.18.41.36.77.52,1.04Z"/>
  <path class="cls-1" d="m164.94,126.37c-1.72.15-2.82.43-3.85,1.17-1.38.96-2.21,2.38-2.21,4.11,0,2.82,2.64,3.41,4.96,3.41.18,0,.38,0,.55-.02l-.03,1.17h-.24c-3,0-6.25-.85-6.25-4.48,0-1.83.85-3.36,2.1-4.39.32-.21.63-.41,1-.6l-1.21.24c-1.84.27-3.55.5-5.82.81l-.18-1.03c4.11-.45,7.41-.92,11.01-1.46l.11.06.12.95-.06.08Z"/>
  <path class="cls-1" d="m177.39,125.94c-1.17.41-2.29.72-3.39.96.32.65.67,1.26,1.07,1.84,1.12-.3,2.29-.72,3.45-1.27l.41.79c-1.12.51-2.24.92-3.32,1.21.51.69,1.28,1.54,2.01,2.08l.06.13-.15.58-.12.08c-1.04,0-2.16.01-3.2.04l-.03-.73c.6-.06,1.21-.14,1.82-.2-.45-.51-.98-1.14-1.4-1.74-1.51.36-2.94.51-4.14.51-.42,0-1.25-.07-1.93-.25l.33-.76c.54.08,1.25.17,1.77.17.96,0,2.16-.12,3.46-.41-.38-.62-.72-1.26-1.05-1.9-1.38.25-2.75.39-4.14.42l-.08-.89c1.32,0,2.56-.12,3.83-.34-.25-.54-.45-1.08-.65-1.6-.42-.04-.52-.14-.52-.25,0-.11.17-.18.33-.21.21-.05.43-.08,1.14-.15.18.78.36,1.27.67,2.02,1.09-.24,2.22-.57,3.43-.99l.33.85Zm-7.35,6.99c.18,2.25,2.59,2.32,4.46,2.32.66,0,1.26-.03,2.13-.09v1.04c-.78.08-1.44.09-2.14.09-2.4,0-5.22-.41-5.31-3.3l.87-.06Z"/>
  <path class="cls-1" d="m182.44,126.49c1.59-.14,3.21-.24,4.84-.29v-1.58c-.39-.11-.52-.22-.52-.36,0-.12.13-.17.31-.17s.45,0,1.28.03c-.03.74-.04,1.41-.06,2.03.81-.02,1.61-.03,2.4-.03.57,0,1.29.01,1.86.03l.03.9c-.57-.01-1.3-.03-1.88-.03-.75,0-1.58.02-2.43.03-.01.42-.01.79-.01,1.12s0,.75.01,1.21c1.06-.09,2.22-.25,3.51-.46l.21.9c-1.25.22-2.49.39-3.69.5.03.97.07,2.04.1,2.94,1.4.55,2.88,1.29,4.3,2.05l-.58.95c-1.18-.74-2.49-1.38-3.69-1.95-.15,1.53-1.23,2.1-2.59,2.1-2.06,0-3.11-.91-3.11-1.86,0-.86,1.37-1.92,3.11-1.92.31,0,1.03.13,1.56.3-.03-.81-.06-1.7-.09-2.55-.6.04-1.2.06-1.77.06-1.29,0-2.07-.33-2.62-.66l.57-.71c.53.3,1.07.45,2.05.45.56,0,1.14-.01,1.76-.06-.02-.45-.02-.87-.02-1.23v-1.16c-1.59.04-3.25.13-4.78.27l-.06-.87Zm3.3,7.05c-1.12,0-2.01.56-2.01,1.04,0,.44.76.92,2.12.92,1.05,0,1.56-.63,1.56-1.54-.6-.24-1.25-.41-1.67-.41Z"/>
  <path class="cls-1" d="m206.43,133.69c-1.8,1.65-4.17,2.67-6.01,2.67-2.13,0-3.27-.79-3.27-3.18,0-2.05.06-5.17.13-8.34-.36-.13-.45-.24-.45-.36,0-.1.12-.18.35-.18.18,0,.6.01,1.26.08-.17,3.6-.24,6.06-.24,8.68,0,1.65.45,2.19,2.15,2.19,1.87,0,3.97-1.02,5.56-2.59.18.41.36.77.52,1.04Z"/>
  <path class="cls-1" d="m208.99,127c1.06-.02,2.08-.08,3.1-.18.15-.75.3-1.5.42-2.25-.38-.14-.48-.26-.48-.36s.12-.17.24-.17c.25,0,.81.04,1.44.1-.17.86-.33,1.7-.53,2.55.71-.09,1.4-.2,2.12-.32l.13.99c-.84.12-1.65.24-2.47.33-.66,2.86-1.49,5.74-2.55,8.61l-1.02-.34c1.05-2.73,1.86-5.43,2.47-8.16-.95.09-1.89.15-2.87.18v-.99Zm6.63,5.71c-.04.34-.09.61-.09.93,0,1.02.51,1.42,2.47,1.42.99,0,1.89-.06,2.91-.17l.07,1.07c-1.05.07-1.93.13-2.98.13-2.61,0-3.45-.78-3.45-2.24,0-.43.04-.82.13-1.3l.93.15Zm.71-5.25c1.5,0,3.01.06,4.51.31l-.12,1.02c-1.5-.25-2.94-.34-4.44-.38l.05-.96Z"/>
  <path class="cls-1" d="m225.96,137.11c-1.16,0-2.07-.93-2.07-2.07s.91-2.04,2.07-2.04,2.07.9,2.07,2.04-.92,2.07-2.07,2.07Zm0-.67c.75,0,1.38-.65,1.38-1.4s-.63-1.36-1.38-1.36-1.38.61-1.38,1.36.63,1.4,1.38,1.4Z"/>
  <path class="cls-1" d="m12.2,184.06l.06.06-.06,1.89v4.3l.06,1.88-.08.08-1.88-.06h-.49v3.2c0,.43.07.55,1.84.55s1.86-.1,1.89-1.74c.42.1.71.22.99.31-.04,2.04-.42,2.36-2.85,2.36-2.62,0-2.85-.29-2.85-1.26v-3.42h-2.06c-.12,3.3-1.98,4.41-5.32,4.86-.1-.25-.33-.67-.58-.95,2.92-.29,4.77-.93,4.86-3.92h-.3l-1.89.06-.06-.08.06-1.88v-4.3l-.06-1.89.06-.06,1.89.06h4.87l1.89-.06Zm-7.69.9v1.59h6.72v-1.59h-6.72Zm0,3.96h6.72v-1.58h-6.72v1.58Zm0,2.44h6.72v-1.65h-6.72v1.65Z"/>
  <path class="cls-1" d="m16.87,187c1.06-.02,2.08-.08,3.1-.18.15-.75.3-1.5.42-2.25-.38-.14-.48-.26-.48-.36s.12-.17.24-.17c.25,0,.81.04,1.44.1-.17.86-.33,1.7-.53,2.55.71-.09,1.4-.2,2.12-.32l.13.99c-.84.12-1.65.24-2.47.33-.66,2.86-1.49,5.74-2.55,8.61l-1.02-.34c1.05-2.73,1.86-5.43,2.47-8.16-.94.09-1.89.15-2.86.18l-.02-.99Zm6.63,5.71c-.04.34-.09.61-.09.93,0,1.02.51,1.42,2.47,1.42.99,0,1.89-.06,2.91-.17l.07,1.07c-1.05.07-1.94.13-2.98.13-2.61,0-3.45-.78-3.45-2.24,0-.43.04-.82.13-1.3l.93.15Zm.71-5.25c1.5,0,3.01.06,4.51.31l-.12,1.02c-1.5-.25-2.94-.34-4.44-.38l.05-.96Z"/>
  <path class="cls-1" d="m37.59,185.37c0-.51-.04-1.01-.12-1.37,1.5.06,1.68.18,1.68.36s-.17.27-.5.39c0,1.14-.01,1.89-.04,2.44.29,1.58.79,3.12,1.65,4.47.75,1.2,1.79,2.19,2.96,2.97.69.46,1.42.82,2.17,1.18-.27.2-.54.62-.79.95-3.06-1.28-5.46-4.04-6.37-7.42-.81,3.5-2.88,5.92-5.9,7.5-.24-.31-.48-.58-.84-.87,3.24-1.47,5.34-3.99,5.94-7.72.1-.66.16-1.37.16-2.13v-.75Z"/>
  <path class="cls-1" d="m47.28,186.15c.62.03,1.2.04,1.77.04.62,0,1.2-.01,1.8-.04.29-.51.54-1.06.79-1.67-.24-.1-.39-.22-.39-.36,0-.08.09-.12.27-.12.13,0,.93.12,1.36.21-.33.72-.63,1.33-.92,1.86,1.23-.09,2.52-.24,4.02-.43l.12.93c-1.68.21-3.2.36-4.68.45-.6.97-1.14,1.65-1.8,2.22l.04.04c.65-.34,1.31-.46,1.88-.46,1.12,0,1.75.69,1.88,1.86,1.4-.54,2.62-.95,3.9-1.41-.03-.13-.04-.24-.04-.33,0-.18.07-.24.17-.24s.13.04.21.12c.31.38.58.83.75,1.25-1.7.5-3.44,1.05-4.91,1.58.04.75.08,1.65.09,2.47h-1.04c0-.71-.01-1.49-.04-2.1-.21.08-.42.17-.61.24-1.12.45-2.18,1.14-2.18,1.96,0,.96.71,1.23,2.31,1.23,2.21,0,3.78-.17,4.8-.29l.03,1.05c-1.14.11-2.52.2-4.73.2s-3.39-.64-3.39-2.14c0-1.32,1.37-2.19,2.43-2.66.44-.2.86-.38,1.26-.54-.12-1.04-.3-1.46-1.31-1.46-1.06,0-1.95.57-3.28,1.62l-.15-.04-.51-.71v-.1c1.27-1,2.28-2.04,3.1-3.32-.48.02-.95.03-1.42.03-.53,0-1.05-.01-1.58-.03v-.92Z"/>
  <path class="cls-1" d="m65.12,184.87l1.8-.06v.9l-1.8-.06h-.78c.24.58.42,1.19.58,1.83l-.96.3c-.09-.7-.29-1.45-.55-2.13h-1.04c-.41.51-.85.98-1.41,1.44-.17-.23-.4-.48-.63-.62.88-.71,1.56-1.46,2.07-2.42.09-.18.17-.4.21-.6,1.08.25,1.27.38,1.27.53,0,.1-.07.21-.55.22-.12.22-.25.45-.39.66h2.17Zm2.7,7.24c1.32,2.45,3.24,3.42,6.13,3.99-.26.3-.47.57-.63.93-2.77-.63-4.75-1.88-6.09-4.25-.75,2.37-2.87,3.78-5.85,4.29-.18-.31-.36-.55-.72-.84,3.25-.43,5.26-1.81,5.85-4.12h-3.63l-2.25.06v-.95l2.25.06h3.78c.1-.71.1-1.43.1-2.15-1.47.17-2.97.29-4.63.38-.07-.29-.22-.6-.46-.88,3.57-.11,6.51-.5,8.58-.88.31-.06.6-.15.92-.29.81.58,1,.81,1,.95s-.04.21-.23.21c-.13,0-.34-.03-.64-.12-1.23.21-2.4.39-3.55.52-.02.77-.04,1.52-.15,2.27h4.12l2.25-.06v.95l-2.25-.06h-3.9Zm3.15-6.46c.2.45.32.83.48,1.37l-.94.3c-.11-.55-.24-1.04-.48-1.67h-1.67c-.28.5-.6.95-.96,1.4-.24-.2-.52-.34-.81-.45.67-.74,1.28-1.81,1.62-2.59.08-.18.12-.38.15-.57,1.1.3,1.25.42,1.25.54,0,.15-.03.21-.51.24-.1.22-.21.45-.31.66h3.6l1.8-.06v.9l-1.8-.06h-1.41Z"/>
  <path class="cls-1" d="m83.13,188.47v.88l-1.8-.06h-3.44v2.42c0,2.31-.27,3.57-1.09,4.99-.24-.27-.46-.45-.75-.61.72-1.29.95-2.28.95-4.29v-1.53l-.06-1.74.06-.06,1.38.04c-.11-.63-.27-1.25-.45-1.81l.84-.18c.18.62.35,1.32.45,2.01h1.28c.15-.49.25-1.02.31-1.53.03-.17.04-.33.04-.51,1.14.28,1.28.39,1.28.51,0,.1-.08.18-.48.21-.1.45-.19.88-.33,1.32l1.82-.06Zm-2.04-3l1.8-.06v.87l-1.8-.06h-2.64l-1.8.06v-.87l1.8.06h.88v-.78c0-.43-.03-.79-.11-1.15,1.29.1,1.47.18,1.47.33,0,.13-.08.19-.45.31v1.29h.84Zm2.1,9c0,.09-.07.15-.27.15-.09,0-.2-.01-.32-.03-1.25.87-2.53,1.51-4.35,1.93-.13-.29-.3-.53-.53-.75,1.83-.38,3.25-1.08,4-1.63.21-.15.39-.32.54-.5.77.53.92.71.92.83Zm-.55-2.1c0,.14-.17.2-.58.15-.92.66-1.92,1.12-3.3,1.46-.13-.29-.3-.53-.54-.75,1.33-.29,2.26-.67,2.97-1.14.2-.14.38-.29.54-.48.74.48.92.63.92.76Zm-.36-1.95c0,.13-.15.18-.55.13-.78.48-1.74.85-2.8,1.11-.13-.29-.32-.54-.54-.77,1.08-.22,1.84-.46,2.43-.81.2-.12.38-.24.55-.44.8.53.92.65.92.77Zm.38,6.63c-.18-.3-.38-.54-.63-.74,1.11-.44,1.79-.83,2.48-1.42.21-.2.31-.32.43-.46.83.49.97.63.97.78s-.15.2-.6.17c-.75.66-1.56,1.19-2.66,1.68Zm4.89-10.53l1.74-.06.06.06-.06,1.89v3.84l.06,1.87-.08.08-1.72-.06h-1.94l-1.74.06-.06-.08.06-1.87v-3.84l-.06-1.89.06-.06,1.74.06h.03c.13-.54.24-1.08.31-1.63h-.81l-2.25.06v-.9l2.25.06h2.68l2.25-.06v.9l-2.25-.06h-.94c-.11.55-.23,1.09-.36,1.63h1.02Zm-2.81.78v1.44h3.66v-1.44h-3.66Zm0,3.71h3.66v-1.49h-3.66v1.49Zm0,2.34h3.66v-1.56h-3.66v1.56Zm4.74,3.6c-.76-.75-1.67-1.42-2.7-1.93l.69-.58c.97.51,1.89,1.12,2.7,1.81l-.69.71Z"/>
  <path class="cls-1" d="m93.02,196.25c-.2-1.57-.27-2.86-.27-4.54s.24-3.78.78-6.53c-.31-.17-.45-.3-.45-.42,0-.1.1-.15.3-.15.21,0,.5.04,1.42.27-.74,2.43-1,4.81-1,6.9,0,1.62.08,2.82.34,4.38l-1.12.09Zm4.77-4.29c-.28.46-.42.87-.42,1.46,0,.63.78,1.11,3.21,1.11,1.05,0,2.48-.13,3.55-.33l.08,1.11c-.97.15-2.38.25-3.57.25-3.02,0-4.32-.72-4.32-2.08,0-.6.15-1.18.6-2l.87.48Zm-.76-5.19c1.37-.21,2.85-.31,4.17-.31.95,0,1.67.03,2.4.1v.99c-.81-.06-1.5-.09-2.56-.09-1.28,0-2.67.1-3.95.31l-.06-1Z"/>
  <path class="cls-1" d="m118.19,186.37c-1.72.15-2.82.43-3.85,1.17-1.38.96-2.21,2.38-2.21,4.11,0,2.82,2.64,3.41,4.96,3.41.18,0,.38,0,.55-.02l-.03,1.17h-.24c-3,0-6.25-.85-6.25-4.48,0-1.83.85-3.36,2.1-4.39.32-.21.63-.41,1-.6l-1.21.24c-1.84.27-3.55.5-5.82.81l-.18-1.03c4.11-.45,7.41-.92,11.01-1.46l.11.06.12.95-.06.08Zm-1.74,1.99c.86.68,1.42,1.25,2.07,2.15l-.67.58c-.58-.86-1.19-1.53-2.05-2.22l.66-.51Zm1.56-1.05c.84.69,1.29,1.11,1.95,2.01l-.64.57c-.6-.84-1.07-1.35-1.93-2.04l.63-.54Z"/>
  <path class="cls-1" d="m131.64,185.94c-1.17.41-2.29.72-3.39.96.32.65.67,1.26,1.07,1.84,1.12-.3,2.29-.72,3.45-1.27l.41.79c-1.12.51-2.24.92-3.32,1.21.51.69,1.28,1.54,2.01,2.08l.06.13-.15.58-.12.08c-1.04,0-2.16.01-3.2.04l-.03-.73c.6-.06,1.21-.14,1.82-.2-.45-.51-.98-1.14-1.4-1.74-1.51.36-2.94.51-4.14.51-.42,0-1.25-.07-1.93-.25l.33-.76c.54.08,1.25.17,1.77.17.96,0,2.16-.12,3.46-.41-.38-.62-.72-1.26-1.05-1.9-1.38.25-2.75.39-4.14.42l-.08-.89c1.32,0,2.56-.12,3.83-.34-.25-.54-.45-1.08-.65-1.6-.42-.04-.52-.14-.52-.25,0-.11.17-.18.33-.21.21-.05.43-.08,1.14-.15.18.78.36,1.27.67,2.02,1.09-.24,2.22-.57,3.43-.99l.33.85Zm-7.35,6.99c.18,2.25,2.59,2.32,4.46,2.32.66,0,1.26-.03,2.13-.09v1.04c-.78.08-1.44.09-2.14.09-2.4,0-5.22-.41-5.31-3.3l.87-.06Z"/>
  <path class="cls-1" d="m139.56,189.69c1.12-.51,2-.69,2.89-.69,2.28,0,4.04,1.23,4.04,3.39,0,2.35-1.96,4.03-5.32,4.03-2.07,0-3.17-.96-3.17-2.16,0-1.07.9-1.71,1.93-1.71,1.23,0,2.26.94,2.68,2.13l-.87.51c-.47-1.18-1.1-1.74-1.79-1.74-.51,0-1.04.38-1.04.78,0,.79.84,1.25,2.14,1.25,2.52,0,4.28-1.12,4.28-3.17,0-1.16-.88-2.45-3.09-2.45-1.88,0-3.53.79-5.26,2.64h-.14s-.66-.58-.66-.58v-.12c2.58-2.59,4.15-4.14,6.24-6.09-1.54.21-3.12.34-5.11.39l-.05-1c1.88-.03,4.12-.18,5.92-.43l.33-.27h.14c.76.63.88.87.88.99,0,.18-.15.22-.65.39-1.35,1.21-2.35,2.19-3.54,3.23l-.85.61.04.08Z"/>
  <path class="cls-1" d="m150.56,189.67c.21.63.62.96,2.52,1.02.06-.97.15-1.95.24-2.92h-.4c-.98,0-1.94.01-2.87.01v-.87c1.17-.05,2.26-.05,3.34-.05.06-.63.12-1.33.18-2.14-.3-.1-.49-.25-.49-.38,0-.09.09-.15.27-.15.41,0,.85.01,1.3.04-.1,1-.18,1.86-.25,2.62h2.92l-.03.96c-1-.03-1.99-.05-2.98-.06-.11.97-.18,1.95-.24,2.92,1.05-.03,2.05-.13,2.9-.29l.1.96c-.81.14-1.8.24-3.06.27-.03.51-.04.92-.04,1.62,0,1.63.52,2.19,2.43,2.19,2.26,0,3.85-.9,3.85-2.05,0-.96-.64-1.82-2.43-2.88.29-.21.5-.48.63-.69,2.45,1.46,2.91,2.45,2.91,3.65,0,1.57-1.62,2.94-4.77,2.94-2.81,0-3.62-.92-3.62-3.04,0-.75.03-1.25.04-1.72-2.23-.06-2.71-.48-3.22-1.52l.76-.45Z"/>
  <path class="cls-1" d="m175.35,190.63c0-2.4-1.83-4.28-4.78-4.28s-5.22,2.34-5.22,5.03c0,1.72.53,2.61,1.22,2.61.46,0,1.05-.57,1.77-2.01.72-1.42,1.32-3.31,1.42-4.48-.2-.17-.36-.3-.36-.42,0-.09.07-.15.25-.15.19,0,.78.15,1.26.31-.36,2-.84,3.72-1.68,5.31-.99,1.92-1.8,2.58-2.67,2.58-1.23,0-2.27-1.33-2.27-3.72,0-3.37,2.82-5.97,6.32-5.97,3.72,0,5.91,2.4,5.91,5.31,0,2.71-1.95,4.84-5.65,5.34-.23-.35-.39-.63-.66-.96,3.19-.3,5.14-1.89,5.14-4.5Z"/>
  <path class="cls-1" d="m179.11,187.6c3.29-.78,5.65-1.18,7.39-1.18,3.17,0,4.58,1.47,4.58,3.85,0,3.21-2.57,4.86-8.1,5.54-.14-.38-.27-.67-.47-.99,5.61-.6,7.42-2.19,7.42-4.63,0-1.75-1.05-2.78-3.54-2.78-1.6,0-3.7.39-7.03,1.26l-.25-1.07Zm9.97-3.61c.85.67,1.42,1.24,2.07,2.14l-.67.58c-.58-.86-1.18-1.53-2.05-2.22l.66-.51Zm1.56-1.05c.84.69,1.29,1.11,1.95,2.01l-.65.57c-.6-.84-1.06-1.35-1.93-2.04l.63-.54Z"/>
  <path class="cls-1" d="m201.41,196.61c-1.89-2.17-3.53-3.67-5.88-5.5-.29-.21-.39-.41-.39-.71s.13-.51.48-.85c1.73-1.68,3.39-3.45,4.67-5.12-.15-.24-.21-.34-.21-.45,0-.09.08-.17.17-.17.13,0,.3.07,1.37.82-1.85,2.13-3.27,3.65-5.07,5.4-.12.12-.21.21-.21.31,0,.12.09.2.24.32,2.05,1.58,3.76,3.03,5.7,5.08l-.85.85Z"/>
  <path class="cls-1" d="m208.88,184.81c-.38,1.53-.69,3.51-.69,4.67,0,.72.03,1.33.12,1.56.04.11.09.17.15.17s.13-.06.21-.18c.3-.43.63-1.06,1.02-2.21.22.29.43.5.69.72-.27.84-.63,1.65-1.07,2.37-.3.51-.54.69-.84.69-.5,0-1.3-.57-1.3-2.92,0-1.16.19-2.87.55-4.58-.22-.17-.38-.31-.38-.41s.08-.13.18-.13c.17,0,.69.09,1.35.25Zm3.93-.17c0-.1.1-.15.25-.15.42-.02.84-.02,1.35-.02.15,2.27.24,4.19.24,5.66,0,4.5-1.82,5.89-6.15,6.38-.11-.29-.27-.71-.47-1.02,3.89-.3,5.52-1.44,5.52-5.14,0-1.89-.06-3-.24-5.34-.34-.09-.51-.24-.51-.36Z"/>
  <path class="cls-1" d="m219.32,186.15c.62.03,1.2.04,1.77.04.62,0,1.2-.01,1.8-.04.29-.51.54-1.06.79-1.67-.24-.1-.39-.22-.39-.36,0-.08.09-.12.27-.12.13,0,.93.12,1.36.21-.33.72-.63,1.33-.92,1.86,1.23-.09,2.52-.24,4.02-.43l.12.93c-1.68.21-3.2.36-4.68.45-.6.97-1.14,1.65-1.8,2.22l.04.04c.65-.34,1.31-.46,1.88-.46,1.12,0,1.75.69,1.88,1.86,1.4-.54,2.62-.95,3.9-1.41-.03-.13-.04-.24-.04-.33,0-.18.07-.24.17-.24s.13.04.21.12c.31.38.58.83.75,1.25-1.7.5-3.44,1.05-4.91,1.58.04.75.08,1.65.09,2.47h-1.04c0-.71-.01-1.49-.04-2.1-.21.08-.42.17-.61.24-1.12.45-2.18,1.14-2.18,1.96,0,.96.71,1.23,2.31,1.23,2.21,0,3.78-.17,4.8-.29l.03,1.05c-1.14.11-2.52.2-4.73.2s-3.39-.64-3.39-2.14c0-1.32,1.37-2.19,2.43-2.66.44-.2.86-.38,1.26-.54-.12-1.04-.3-1.46-1.31-1.46-1.06,0-1.95.57-3.28,1.62l-.15-.04-.51-.71v-.1c1.27-1,2.28-2.04,3.1-3.32-.48.02-.95.03-1.42.03-.53,0-1.05-.01-1.58-.03v-.92Z"/>
  <path class="cls-1" d="m234.99,195.97v.97h-1.05l.06-2.55v-7.74l-.06-2.19.06-.06,2.19.06h5.49l2.19-.06.06.06-.06,2.19v7.74l.06,2.49h-1.07v-.92h-7.88Zm7.88-10.63h-7.88v2.61h7.88v-2.61Zm0,3.45h-7.88v2.76h7.88v-2.76Zm0,3.6h-7.88v2.73h7.88v-2.73Z"/>
  <path class="cls-1" d="m249.1,187.4h-.38l-1.8.06v-.93l1.8.06h.38v-2.05c0-.44-.03-.79-.1-1.16,1.32.08,1.53.18,1.53.33,0,.12-.1.22-.48.32v2.56h.21l1.8-.06v.93l-1.8-.06h-.21v2.67c.63-.17,1.27-.36,2.07-.58,0,.27,0,.54.02.79-.67.21-1.38.42-2.08.63v1.8l.06,2.68c0,1.2-.15,1.49-1.89,1.49h-.41c-.07-.35-.25-.77-.42-1.05.57.08.93.09,1.26.09.38,0,.45-.14.45-.48v-4.25c-.46.14-.92.25-1.33.38-.06.44-.1.56-.3.56-.15,0-.27-.25-.63-1.35.42-.06.67-.1,1.02-.18.44-.09.84-.2,1.25-.29v-2.91Zm4.72.26c0,.45.14.55,2.93.55,2.95,0,3-.06,3.04-1.61.27.17.62.29.9.36-.08,1.88-.36,2.1-3.9,2.1s-3.9-.17-3.9-1.03v-3.71c0-.32-.03-.6-.09-.87,1.29.1,1.51.21,1.51.38,0,.13-.08.21-.5.31v1.65c1.61-.29,3.48-.72,4.65-1.11.2-.06.45-.18.66-.33.81.69.88.86.88.99,0,.09-.06.15-.23.15-.12,0-.31-.03-.6-.11-1.51.42-3.57.86-5.37,1.12v1.14Zm.17,8.58v.9h-.99l.06-2.19v-2.75l-.04-1.74.06-.06,1.74.06h3.11l1.77-.06.06.06-.04,1.74v2.73l.06,2.13h-1v-.83h-4.77Zm4.77-5h-4.77v1.67h4.77v-1.67Zm0,2.42h-4.77v1.8h4.77v-1.8Z"/>
  <path class="cls-1" d="m273.65,193.69c-1.8,1.65-4.17,2.67-6.01,2.67-2.13,0-3.27-.79-3.27-3.18,0-2.05.06-5.17.13-8.34-.36-.13-.45-.24-.45-.36,0-.1.12-.18.35-.18.18,0,.6.01,1.26.08-.17,3.6-.24,6.06-.24,8.68,0,1.65.45,2.19,2.15,2.19,1.87,0,3.97-1.02,5.56-2.59.18.41.36.77.52,1.04Z"/>
  <path class="cls-1" d="m285.87,186.37c-1.73.15-2.82.43-3.86,1.17-1.38.96-2.21,2.38-2.21,4.11,0,2.82,2.64,3.41,4.96,3.41.18,0,.38,0,.56-.02l-.03,1.17h-.24c-3,0-6.25-.85-6.25-4.48,0-1.83.86-3.36,2.1-4.39.31-.21.63-.41,1-.6l-1.21.24c-1.85.27-3.56.5-5.82.81l-.18-1.03c4.11-.45,7.41-.92,11.01-1.46l.1.06.12.95-.06.08Z"/>
  <path class="cls-1" d="m292.2,197.23c-.79-1.28-1.72-2.4-2.88-3.38l.83-.67c1.18.93,2.16,2.02,3,3.25l-.95.79Z"/>
  <path class="cls-1" d="m8.57,253c1.51,1.44,3.88,2.34,6.31,2.69-.3.33-.46.66-.57.99-2.38-.58-4.69-1.56-6.13-3.04l.1,3.64h-1.03l.1-3.57c-1.35,1.33-3.56,2.29-5.9,3.02-.13-.27-.33-.54-.61-.81,2.4-.57,4.59-1.5,6.04-2.91h-3.24l-2.25.06v-.93l2.25.06h3.66v-.29c0-.4-.05-.79-.12-1.12,1.35.08,1.53.17,1.53.3s-.1.21-.5.32v.79h3.83l2.25-.06v.93l-2.25-.06h-3.48Zm-6.48-3.73c.66-.25,1.56-.64,2.54-1.18,0,.31.02.64.06.96-.85.51-1.67.88-2.5,1.27.01.41-.09.5-.26.5-.13,0-.33-.3-.76-1.29.23-.03.76-.2.93-.25Zm.1-5.21c.77.33,1.54.75,2.29,1.25l-.48.92c-.63-.46-1.51-1.04-2.28-1.39l.46-.77Zm3.17,6.34l-.06-.06.04-1.44v-2.55l-.04-1.44.06-.06,1.31.06h.49c.1-.38.21-.77.27-1.04.04-.21.08-.36.08-.6,1.26.31,1.41.42,1.41.55,0,.15-.19.21-.55.25-.1.27-.21.55-.31.83h1.05l1.32-.06.06.06-.04,1.44v2.54l.04,1.44-.06.06-1.32-.04h-2.43l-1.31.06Zm4.19-4.75h-3.33v1.53h3.33v-1.53Zm0,3.93v-1.67h-3.33v1.67h3.33Zm1.98-3.11c-.19-.25-.39-.45-.63-.63.65-.43,1.17-.87,1.59-1.3.23-.23.36-.38.5-.63.99.76,1.05.88,1.05,1.02,0,.11-.08.17-.23.17-.09,0-.2-.03-.35-.08-.58.53-1.24,1.02-1.94,1.46Zm.09,1.47c.94.5,1.8.98,2.67,1.64l-.69.82c-.74-.64-1.54-1.2-2.58-1.78l.6-.68Z"/>
  <path class="cls-1" d="m27.47,253.69c-1.8,1.65-4.17,2.67-6.01,2.67-2.13,0-3.27-.79-3.27-3.18,0-2.05.06-5.17.14-8.34-.36-.13-.45-.24-.45-.36,0-.1.12-.18.35-.18.18,0,.6.01,1.26.08-.17,3.6-.24,6.06-.24,8.68,0,1.65.45,2.19,2.14,2.19,1.88,0,3.98-1.02,5.56-2.59.18.41.36.77.52,1.04Z"/>
  <path class="cls-1" d="m30.73,247.47c1.6-.01,3.28-.17,4.96-.42-.3-.63-.6-1.33-.89-2.16-.4-.03-.54-.1-.54-.21,0-.09.08-.17.21-.21.18-.06.43-.12,1.23-.27.32,1.02.65,1.9,1.01,2.67,1.3-.24,2.59-.54,3.84-.91l.2,1c-1.17.33-2.36.6-3.57.82.72,1.26,1.57,2.22,2.69,3.14l.04.1-.3.88-.09.04c-1.21-.13-2.37-.21-3.55-.24l.03-.77c.78-.01,1.68-.04,2.35-.08-.81-.85-1.53-1.74-2.19-2.92-1.77.29-3.55.47-5.25.54l-.18-1.02Zm1.51,5.04c.18,2.52,2.54,2.76,4.74,2.76.54,0,1.27-.04,2.16-.12v1.04c-.81.07-1.29.12-2.04.12-2.82,0-5.67-.56-5.74-3.68l.88-.12Z"/>
  <path class="cls-1" d="m45.05,249.67c.21.63.62.96,2.52,1.02.06-.97.15-1.95.24-2.92h-.4c-.98,0-1.94.01-2.87.01v-.87c1.17-.05,2.26-.05,3.34-.05.06-.63.12-1.33.18-2.14-.3-.1-.49-.25-.49-.38,0-.09.09-.15.27-.15.41,0,.85.01,1.3.04-.1,1-.18,1.86-.25,2.62h2.92l-.03.96c-1-.03-1.99-.05-2.98-.06-.11.97-.18,1.95-.24,2.92,1.05-.03,2.05-.13,2.9-.29l.1.96c-.81.14-1.8.24-3.06.27-.03.51-.04.92-.04,1.62,0,1.63.52,2.19,2.43,2.19,2.26,0,3.85-.9,3.85-2.05,0-.96-.64-1.82-2.43-2.88.29-.21.5-.48.63-.69,2.45,1.46,2.91,2.45,2.91,3.65,0,1.57-1.62,2.94-4.77,2.94-2.81,0-3.62-.92-3.62-3.04,0-.75.03-1.25.04-1.72-2.23-.06-2.71-.48-3.22-1.52l.76-.45Z"/>
  <path class="cls-1" d="m65.93,253.12c1.37,1.61,3.45,2.6,5.99,3-.29.34-.5.63-.68.96-2.5-.45-4.69-1.8-6.16-3.76-.86,2.34-3.08,3.33-6.03,3.79-.18-.32-.38-.57-.64-.84,3.04-.33,4.98-1.28,5.71-3.15h-3.08l-2.25.06v-.93l2.25.06h3.3c.04-.24.08-.5.09-.76.02-.23.02-.39-.06-.75,1.39.12,1.54.18,1.54.36,0,.14-.17.24-.5.35-.03.27-.06.54-.11.81h3.72l2.25-.06v.93l-2.25-.06h-3.11Zm-.45-5.55h2.29l2.25-.06v.93l-2.25-.06h-2.29v1.38h3.92l2.25-.06v.93l-2.25-.06h-8.7l-2.25.06v-.93l2.25.06h3.81v-1.38h-2.19l-2.25.06v-.93l2.25.06h2.19v-1.38h-3.17l-2.25.06v-.93l2.25.06h1.33c-.25-.5-.57-.96-1-1.49l.84-.36c.46.5.95,1.2,1.26,1.84h2.62c.21-.48.39-.9.51-1.26.09-.25.13-.46.15-.65,1.17.29,1.37.38,1.37.53,0,.13-.06.2-.51.29-.18.36-.38.75-.57,1.09h1.41l2.25-.06v.93l-2.25-.06h-3.27v1.38Z"/>
  <path class="cls-1" d="m84.73,253.69c-1.8,1.65-4.17,2.67-6.01,2.67-2.13,0-3.27-.79-3.27-3.18,0-2.05.06-5.17.14-8.34-.36-.13-.45-.24-.45-.36,0-.1.12-.18.34-.18.18,0,.6.01,1.26.08-.17,3.6-.24,6.06-.24,8.68,0,1.65.45,2.19,2.14,2.19,1.88,0,3.97-1.02,5.56-2.59.18.41.36.77.53,1.04Z"/>
  <path class="cls-1" d="m87.99,247.47c1.6-.01,3.28-.17,4.96-.42-.3-.63-.6-1.33-.89-2.16-.4-.03-.54-.1-.54-.21,0-.09.08-.17.21-.21.18-.06.43-.12,1.23-.27.32,1.02.64,1.9,1,2.67,1.3-.24,2.59-.54,3.84-.91l.2,1c-1.17.33-2.36.6-3.57.82.72,1.26,1.58,2.22,2.69,3.14l.04.1-.3.88-.09.04c-1.21-.13-2.37-.21-3.55-.24l.03-.77c.78-.01,1.68-.04,2.35-.08-.81-.85-1.53-1.74-2.19-2.92-1.77.29-3.55.47-5.25.54l-.18-1.02Zm1.51,5.04c.18,2.52,2.54,2.76,4.74,2.76.54,0,1.27-.04,2.16-.12v1.04c-.81.07-1.29.12-2.04.12-2.82,0-5.67-.56-5.74-3.68l.88-.12Z"/>
  <path class="cls-1" d="m102.31,249.67c.21.63.62.96,2.52,1.02.06-.97.15-1.95.24-2.92h-.4c-.98,0-1.94.01-2.87.01v-.87c1.17-.05,2.26-.05,3.34-.05.06-.63.12-1.33.18-2.14-.3-.1-.49-.25-.49-.38,0-.09.09-.15.27-.15.41,0,.85.01,1.3.04-.1,1-.18,1.86-.25,2.62h2.92l-.03.96c-1-.03-1.99-.05-2.98-.06-.11.97-.18,1.95-.24,2.92,1.05-.03,2.05-.13,2.9-.29l.1.96c-.81.14-1.8.24-3.06.27-.03.51-.04.92-.04,1.62,0,1.63.52,2.19,2.43,2.19,2.26,0,3.85-.9,3.85-2.05,0-.96-.64-1.82-2.43-2.88.29-.21.5-.48.63-.69,2.45,1.46,2.91,2.45,2.91,3.65,0,1.57-1.62,2.94-4.77,2.94-2.81,0-3.62-.92-3.62-3.04,0-.75.03-1.25.04-1.72-2.23-.06-2.71-.48-3.22-1.52l.76-.45Z"/>
  <path class="cls-1" d="m120.82,253.07c.38-.31.71-.64,1.02-.97,1.11-1.17,2.43-2.87,3.9-6.5.19-.48.31-.97.38-1.41,1.39.51,1.44.61,1.44.79,0,.15-.25.22-.58.22-1.62,4.25-3.18,6.31-4.41,7.57-.51.53-1.07,1.05-1.74,1.54v.27c0,.53.1.71,2.16.71,2.28,0,2.4-.2,2.43-2.5.33.17.76.33,1.06.41-.13,2.64-.4,3.03-3.45,3.03-2.8,0-3.17-.15-3.2-1.25-.94.57-2.08,1.11-3.54,1.59-.17-.36-.33-.58-.61-.92,1.75-.4,3.09-1.08,4.15-1.81v-5.52c0-.56-.03-.88-.1-1.2,1.39.1,1.63.22,1.63.39s-.17.29-.54.36v5.19Zm-2.45-4.21c-.36,1.88-.88,3.57-1.56,5.03l-.92-.5c.71-1.46,1.26-3.12,1.51-4.88l.96.34Zm3.18-4.98c.84.58,1.66,1.33,2.29,2.08l-.84.71c-.61-.78-1.35-1.58-2.16-2.19l.71-.6Zm5.49,5c1.23,1.53,1.72,2.65,2.4,4.18l-.99.6c-.66-1.63-1.12-2.68-2.22-4.23l.81-.55Z"/>
  <path class="cls-1" d="m133.34,248.76c.78.25,1.41.55,1.98.88.24-.34.45-.74.63-1.12-.67-.38-1.35-.67-1.98-.88l.42-.66c.73.21,1.33.45,1.88.75.18-.53.31-1.08.4-1.67h-2.47c-.6,1.28-1.29,2.33-2.12,3.24-.17-.23-.52-.46-.76-.58,1.11-1.23,1.92-2.54,2.5-4.23.12-.33.18-.6.21-.93,1.18.34,1.4.45,1.4.63,0,.15-.14.25-.57.25-.11.3-.23.6-.34.88h2.22l.31-.3h.18c.58.5.79.67.79.83,0,.13-.09.21-.46.34-.56,3.04-2,5.55-5.52,7.02-.09-.26-.31-.57-.57-.8,1.41-.46,2.49-1.17,3.3-2.07-.65-.38-1.31-.71-1.91-.93l.48-.66Zm.99,5.7c-.54,1.12-.99,1.89-1.63,2.64l-.92-.5c.65-.65,1.2-1.52,1.65-2.5l.9.36Zm2.46-.3c.39.87.58,1.63.75,2.5l-.99.29c-.13-.85-.36-1.79-.67-2.5l.92-.29Zm4.83-6.66c.57,2.86,2.19,4.11,3.75,4.9-.24.17-.5.5-.75.86-1.37-.81-3-2.46-3.5-4.73-.5,2.57-2.33,4.11-4.33,4.8-.15-.27-.36-.6-.62-.81,2-.54,3.84-2.05,4.21-4.6.02-.15.05-.29.06-.42h-.84l-1.8.06v-.9l1.8.06h.92c.03-.5.03-.99.03-1.56,0-.53-.03-1.08-.13-1.59,1.28.06,1.54.14,1.54.33,0,.15-.12.21-.48.38-.02.87-.04,1.71-.09,2.45h1.83l1.8-.06v.9l-1.8-.06h-1.6Zm-1.68,6.6c.4.66.78,1.44,1.09,2.32l-.95.41c-.27-.92-.6-1.63-1.02-2.4l.87-.33Zm3.09-.27c.81.78,1.3,1.42,1.95,2.34l-.84.66c-.55-.92-.97-1.62-1.88-2.5l.77-.5Zm.33-9.6c.48.35.9.72,1.32,1.16l-.69.66c-.41-.46-.88-.92-1.29-1.23l.66-.58Z"/>
  <path class="cls-1" d="m148.38,245.68c-.08,1.53-.29,3.34-.51,4.54l-.87-.2c.25-1.36.43-2.94.5-4.47l.88.12Zm1.58,9.34l.06,2.25h-1.05l.06-2.25v-10.51c0-.43-.05-.79-.12-1.16,1.3.08,1.59.21,1.59.38s-.17.24-.54.33v10.96Zm.72-9.39c.46.43.95,1,1.26,1.49l-.75.52c-.34-.6-.75-1.11-1.15-1.54l.64-.46Zm5.35,1.42v-2.33c0-.43-.04-.82-.12-1.18,1.41.04,1.59.15,1.59.32,0,.13-.17.22-.5.36v2.83h1.18l2.25-.06v.93l-2.25-.06h-1.18v3.13h.83l2.25-.06v.96l-2.25-.06h-.83v3.67h1.69l2.25-.06v.96l-2.25-.06h-5.1l-2.25.06v-.96l2.25.06h2.43v-3.67h-.73l-2.25.06v-.96l2.25.06h.73v-3.13h-2.62c-.38,1.15-.83,2.23-1.37,3.27-.25-.18-.55-.33-.84-.42.92-1.68,1.56-3.62,1.92-5.42.06-.33.1-.62.12-.93,1.17.33,1.44.45,1.44.63,0,.15-.15.24-.58.27-.13.62-.29,1.22-.45,1.79h2.38Z"/>
  <path class="cls-1" d="m163.94,249.67c.21.63.61.96,2.52,1.02.06-.97.15-1.95.24-2.92h-.41c-.97,0-1.93.01-2.87.01l.02-.87c1.15-.05,2.25-.05,3.33-.05.06-.63.12-1.33.18-2.14-.3-.1-.5-.25-.5-.38,0-.09.09-.15.27-.15.41,0,.86.01,1.31.04-.11,1-.18,1.86-.25,2.62h2.92l-.03.96c-1-.03-2-.05-2.99-.06-.1.97-.18,1.95-.24,2.92,1.05-.03,2.05-.13,2.89-.29l.11.96c-.81.14-1.8.24-3.06.27-.03.51-.04.92-.04,1.62,0,1.63.53,2.19,2.43,2.19,2.27,0,3.86-.9,3.86-2.05,0-.96-.65-1.82-2.43-2.88.28-.21.49-.48.63-.69,2.44,1.46,2.91,2.45,2.91,3.65,0,1.57-1.62,2.94-4.77,2.94-2.8,0-3.62-.92-3.62-3.04,0-.75.03-1.25.05-1.72-2.24-.06-2.71-.48-3.23-1.52l.77-.45Z"/>
  <path class="cls-1" d="m180.57,257.23c-.79-1.28-1.72-2.4-2.88-3.38l.83-.67c1.18.93,2.16,2.02,3,3.25l-.95.79Z"/>
  <path class="cls-1" d="m4.78,304.71c.78,1.32,1.56,2.79,2.31,4.36,1.47-.81,2.62-1.38,3.9-2.05-.06-.24-.08-.33-.08-.41,0-.17.09-.24.19-.24.09,0,.2.06.3.19.22.29.49.66.78,1.16-1.71.75-3.38,1.47-5.26,2.56-1.81,1.05-2.75,1.94-2.75,3.11s.84,1.63,3.69,1.63c1.4,0,3.15-.15,4.6-.32l.09,1.08c-1.52.17-3.19.25-4.9.25-3.19,0-4.48-.91-4.48-2.68,0-1.29.78-2.49,3.02-3.78-.81-1.75-1.53-3.11-2.33-4.44l.92-.43Z"/>
  <path class="cls-1" d="m18.06,311.52c-.38.51-.61,1.11-.61,1.54,0,1.02.76,1.6,4.14,1.6,1.79,0,3.06-.09,4.54-.33l.04,1.11c-1.47.17-2.83.27-4.53.27-3.79,0-5.23-.84-5.23-2.62,0-.66.31-1.49.75-2.1l.9.53Zm-.3-5.75c.48-.01.96-.03,1.44-.03,1.57,0,3.87.13,5.74.42l-.1,1.02c-1.83-.27-4.03-.42-5.68-.43-.5,0-.98.01-1.47.04l.08-1.02Z"/>
  <path class="cls-1" d="m31.96,304.71c.78,1.32,1.56,2.79,2.31,4.36,1.47-.81,2.62-1.38,3.9-2.05-.06-.24-.08-.33-.08-.41,0-.17.09-.24.19-.24.09,0,.2.06.3.19.22.29.49.66.78,1.16-1.71.75-3.38,1.47-5.26,2.56-1.81,1.05-2.75,1.94-2.75,3.11s.84,1.63,3.69,1.63c1.4,0,3.15-.15,4.6-.32l.09,1.08c-1.52.17-3.19.25-4.9.25-3.19,0-4.48-.91-4.48-2.68,0-1.29.78-2.49,3.02-3.78-.81-1.75-1.53-3.11-2.33-4.44l.92-.43Z"/>
  <path class="cls-1" d="m43.13,315.6c1.79-4.17,3.51-7.74,5.07-10.84-.24-.24-.33-.34-.33-.46,0-.09.07-.14.18-.14.18,0,.39.08,1.39.6-1.35,2.52-2.13,4.08-2.98,5.76l-.39.62.06.03c.87-1.15,1.75-1.72,2.56-1.72,1.17,0,1.62.76,1.62,2.68,0,2.71.3,3.17,1.21,3.17,1.38,0,3.09-1.48,3.5-4.77.29.19.69.39,1,.52-.46,3.18-2.26,5.29-4.56,5.29-1.47,0-2.17-.66-2.17-3.3,0-1.89-.09-2.71-.78-2.71s-1.74.78-2.66,2c-.57.76-.93,1.74-1.72,3.67l-.13.09-.86-.34v-.13Z"/>
  <path class="cls-1" d="m65.77,312.34c1.33,2.29,3.21,3.13,6,3.75-.26.3-.47.57-.63.93-2.76-.69-4.71-1.86-6.04-4.17-.26.79-.68,1.47-1.22,2.02-1.21,1.28-2.58,1.82-4.68,2.19-.18-.32-.36-.55-.72-.84,2.36-.32,3.74-.95,4.7-1.98.49-.54.87-1.14,1.08-1.9h-3.55l-2.25.06v-.92l2.25.06h3.71c.03-.23.04-.48.04-.74,0-.51-.04-1.02-.12-1.38,1.46.06,1.61.18,1.61.33s-.17.24-.5.36c0,.54-.02,1.01-.06,1.43h4.16l2.25-.06v.92l-2.25-.06h-3.76Zm-1.21-7.7c0-.43-.03-.79-.11-1.15,1.37.07,1.58.18,1.58.33,0,.12-.11.22-.48.31v1.02h3.67l2.19-.06.06.06-.06,1.41.06,1.71h-1v-2.29h-3.78v2.1c0,.48.17.51.97.51,1.29,0,1.39-.13,1.39-1.12.26.17.65.3.93.38-.06,1.41-.71,1.56-2.36,1.56-1.47,0-1.86-.08-1.86-1.08v-2.34h-2.43c.78.18,1.06.32,1.06.46,0,.18-.09.23-.53.29-.31,2.05-1.56,2.79-3.64,3.3-.13-.27-.36-.58-.62-.81,2.25-.36,3.18-1.04,3.36-3.24h-3.21v2.29h-1.02l.06-1.71-.06-1.41.06-.06,2.19.06h3.56v-.51Z"/>
  <path class="cls-1" d="m83.43,305.94c-1.17.41-2.29.72-3.39.96.32.65.67,1.26,1.07,1.84,1.12-.3,2.29-.72,3.45-1.27l.41.79c-1.12.51-2.24.92-3.32,1.21.51.69,1.28,1.54,2.01,2.08l.06.13-.15.58-.12.08c-1.04,0-2.16.01-3.2.04l-.03-.73c.6-.06,1.21-.14,1.82-.2-.45-.51-.98-1.14-1.4-1.74-1.51.36-2.94.51-4.14.51-.42,0-1.25-.07-1.93-.25l.33-.76c.54.08,1.25.17,1.77.17.96,0,2.16-.12,3.46-.41-.38-.62-.72-1.26-1.05-1.9-1.38.25-2.75.39-4.14.42l-.08-.89c1.32,0,2.56-.12,3.83-.34-.25-.54-.45-1.08-.65-1.6-.42-.04-.52-.14-.52-.25,0-.11.17-.18.33-.21.21-.05.43-.08,1.14-.15.18.78.36,1.27.67,2.02,1.09-.24,2.22-.57,3.43-.99l.33.85Zm-7.35,6.99c.18,2.25,2.59,2.32,4.46,2.32.66,0,1.26-.03,2.13-.09v1.04c-.78.08-1.44.09-2.14.09-2.4,0-5.22-.41-5.31-3.3l.87-.06Z"/>
  <path class="cls-1" d="m87.44,307v-.92l1.8.06h1.75l1.8-.06v.92l-1.8-.06h-1.75l-1.8.06Zm1.77,9.15v.93h-.95l.06-1.8v-1.74l-.06-1.14.08-.06,1.42.06h1.18l1.42-.06.08.06-.04,1.14v1.49l.08,1.8h-.95v-.67h-2.32Zm-.84-11.25v-.91l1.35.06h1.27l1.35-.06v.91l-1.35-.06h-1.27l-1.35.06Zm0,4.19v-.92l1.35.06h1.27l1.35-.06v.92l-1.35-.06h-1.27l-1.35.06Zm0,2.08v-.92l1.35.06h1.27l1.35-.06v.92l-1.35-.06h-1.27l-1.35.06Zm3.17,1.96h-2.32v2.28h2.32v-2.28Zm5.14-8.47c0-.44-.04-.83-.12-1.19,1.36.04,1.54.15,1.54.32,0,.13-.15.25-.48.36v1.8h1.51l2.25-.06v.93l-2.25-.06h-1.51v2.46h.83l2.25-.06v.93l-2.25-.06h-2.57l-2.25.06v-.93l2.25.06h.79v-2.46h-1.2l-2.25.06v-.93l2.25.06h1.2v-1.29Zm-1.63,11.44v.92h-.99l.06-2.19v-1.27l-.06-1.74.06-.06,1.74.06h2.58l1.74-.06.06.06-.06,1.74v1.23l.06,2.19h-.99v-.87h-4.2Zm4.2-3.53h-4.2v2.76h4.2v-2.76Z"/>
  <path class="cls-1" d="m109,313.81c-.34-.24-.64-.48-.93-.74-.5.54-.97.96-1.41,1.26-.82.58-1.39.81-1.78.81-.98,0-1.56-1.12-1.56-2.43,0-1.8.95-3.2,2.29-4.12-.18-.84-.27-1.79-.31-2.83-.33-.09-.47-.18-.47-.32,0-.07.06-.13.24-.15.36-.02.79-.02,1.2-.02.01,1.1.09,2.01.22,2.79,1.19-.6,2.55-.9,3.81-.9h.25c.24-.86.36-1.41.45-2-.29-.18-.39-.3-.39-.41s.09-.17.21-.17c.21,0,.58.08,1.32.25-.13.84-.29,1.42-.6,2.46,2.97.57,3.81,2.66,3.81,4.16,0,2.49-2.12,4.6-5.99,4.74-.1-.31-.25-.66-.42-.97h.29c2.7,0,5-1.42,5-3.92,0-1.42-1.19-2.92-3.01-3.13-.68,1.61-1.58,3.01-2.48,4.11.27.22.56.45.86.67l-.6.84Zm-4.72-1.29c0,.95.34,1.53.69,1.53.38,0,.52-.11.85-.33.46-.32,1-.78,1.54-1.35-.71-.84-1.21-1.8-1.53-2.85-.99.88-1.56,2.01-1.56,3Zm3.76-.92c.87-1.05,1.67-2.33,2.13-3.58h-.25c-1.26,0-2.37.34-3.25.88.23,1,.71,1.94,1.38,2.7Z"/>
  <path class="cls-1" d="m128.6,306.37c-1.73.15-2.82.43-3.86,1.17-1.38.96-2.21,2.38-2.21,4.11,0,2.82,2.64,3.41,4.96,3.41.18,0,.38,0,.56-.02l-.03,1.17h-.24c-3,0-6.25-.85-6.25-4.48,0-1.83.86-3.36,2.1-4.39.31-.21.63-.41,1-.6l-1.21.24c-1.85.27-3.56.5-5.82.81l-.18-1.03c4.11-.45,7.41-.92,11.01-1.46l.1.06.12.95-.06.08Z"/>
  <path class="cls-1" d="m138.56,307.63c1-.96,1.92-2,2.73-3.11.21-.28.36-.57.48-.87.99.49,1.23.69,1.23.85,0,.15-.2.2-.63.2-.78,1.04-1.63,2.01-2.58,2.92h2.52l2.25-.06v.93l-2.25-.06h-3.39c-.72.65-1.49,1.25-2.28,1.82,1.35-.11,2.82-.3,4.07-.54.31-.06.6-.15.88-.3.81.58.97.78.97.92,0,.16-.06.22-.25.22-.13,0-.33-.03-.63-.09-1.83.31-3.73.51-5.74.63-.06.41-.14.81-.21,1.21h5.37l1.74-.06.06.06-.08.78c-.1,1.03-.25,1.89-.46,2.61-.31,1.07-.85,1.41-1.99,1.41h-1.11c-.09-.38-.2-.67-.43-1.08.48.08.93.11,1.41.11.83,0,1-.14,1.19-.68.19-.58.33-1.44.4-2.37h-6.22c-.1.51-.19,1.02-.3,1.53l-.97-.08c.25-1.03.45-2.08.61-3.13-1.12.71-2.31,1.33-3.54,1.92-.2-.31-.44-.52-.75-.69,2.65-1.08,4.99-2.49,7-4.2h-4.27l-2.25.06v-.93l2.25.06h2.67v-1.74h-1.41l-2.25.06v-.92l2.25.06h1.41v-.52c0-.44-.04-.83-.12-1.19,1.41.09,1.56.2,1.56.36,0,.13-.14.24-.5.33v1.02h.69l2.25-.06v.92l-2.25-.06h-.69v1.74h1.57Z"/>
  <path class="cls-1" d="m155.04,307.14c.66.66.78.84.78.95,0,.12-.12.21-.65.38-1.11.84-1.83,1.47-2.92,2.52,1.02,0,1.61.51,1.61,1.65v1.1c0,1.27.24,1.36,1.63,1.36.93,0,1.96-.18,3.15-.57l.41,1.04c-1.26.34-2.61.57-3.62.57-2.02,0-2.58-.4-2.58-1.79v-1.39c0-.88-.27-1.26-.69-1.26-.46,0-1.12.45-2.34,1.62-.84.81-1.5,1.51-2.43,2.56l-.17.04-.79-.46-.04-.15c1.54-1.65,2.56-2.61,4.14-4.08,1.35-1.26,2.21-2.03,3.12-2.69l-.02-.07c-1.33.27-3.36.49-5.7.58l-.03-1.07c2.35-.03,4.42-.2,6.63-.52l.34-.32h.17Zm-5.62-2.68c2.15,0,4.18.18,6.03.46l-.12.97c-2.19-.31-3.83-.46-5.97-.46l.06-.97Z"/>
  <path class="cls-1" d="m161.88,306.49c1.59-.14,3.21-.24,4.84-.29v-1.58c-.39-.11-.52-.22-.52-.36,0-.12.13-.17.31-.17s.45,0,1.28.03c-.03.74-.04,1.41-.06,2.03.81-.02,1.61-.03,2.4-.03.57,0,1.29.01,1.86.03l.03.9c-.57-.01-1.3-.03-1.88-.03-.75,0-1.58.02-2.43.03-.01.42-.01.79-.01,1.12s0,.75.01,1.21c1.06-.09,2.22-.25,3.51-.46l.21.9c-1.25.22-2.49.39-3.69.5.03.97.07,2.04.1,2.94,1.4.55,2.88,1.29,4.3,2.05l-.58.95c-1.18-.74-2.49-1.38-3.69-1.95-.15,1.53-1.23,2.1-2.59,2.1-2.06,0-3.11-.91-3.11-1.86,0-.86,1.37-1.92,3.11-1.92.31,0,1.03.13,1.56.3-.03-.81-.06-1.7-.09-2.55-.6.04-1.2.06-1.77.06-1.29,0-2.07-.33-2.62-.66l.57-.71c.53.3,1.07.45,2.05.45.56,0,1.14-.01,1.76-.06-.02-.45-.02-.87-.02-1.23v-1.16c-1.59.04-3.25.13-4.78.27l-.06-.87Zm3.3,7.05c-1.12,0-2.01.56-2.01,1.04,0,.44.76.92,2.12.92,1.05,0,1.56-.63,1.56-1.54-.6-.24-1.25-.41-1.67-.41Z"/>
  <path class="cls-1" d="m182.85,306.37h.54c1.37,0,2.75,0,4.11.04v.97c-1.69-.1-2.89-.12-4.08-.12h-.57v2.71c.22.62.32,1.14.32,1.79,0,2.52-1.16,4.21-4.73,4.72-.1-.3-.27-.6-.49-.93,3.01-.3,4.15-1.89,4.23-3.13-.3.46-.9.79-1.92.79-1.28,0-1.88-.62-1.88-1.74,0-1.46,1.33-2.89,2.47-2.89.38,0,.77.1,1.04.46-.01-.58-.01-1.17-.03-1.75-1.59.03-3.57.13-6.3.33l-.04-.96c2.76-.15,4.77-.24,6.33-.29,0-.6-.01-1.2-.01-1.8-.38-.13-.51-.23-.51-.34,0-.11.09-.2.27-.2.33,0,.87.01,1.3.03l-.04.93v1.37Zm-3.57,5.01c0,.67.3.94,1.23.94s1.44-.66,1.49-1.48c-.2-1.04-.79-1.35-1.19-1.35-.57,0-1.53.87-1.53,1.89Z"/>
  <path class="cls-1" d="m192.37,317.11c-1.16,0-2.07-.93-2.07-2.07s.91-2.04,2.07-2.04,2.07.9,2.07,2.04-.92,2.07-2.07,2.07Zm0-.67c.75,0,1.38-.65,1.38-1.4s-.63-1.36-1.38-1.36-1.38.61-1.38,1.36.63,1.4,1.38,1.4Z"/>
</svg>