<?xml version="1.0" encoding="UTF-8"?>
<svg xmlns="http://www.w3.org/2000/svg" viewBox="0 0 630 454">
  <defs>
    <style>
      .cls-1 {
        fill: #444;
      }

      .cls-2 {
        mix-blend-mode: overlay;
      }

      .cls-3 {
        opacity: .9;
      }

      .cls-4 {
        isolation: isolate;
      }
    </style>
  </defs>
  <g class="cls-4">
    <g id="top_仮_" data-name="top(仮)">
      <g class="cls-2">
        <g class="cls-3">
          <path class="cls-1" d="M1.81,423.3H14.31c2.72,0,4.76,.68,6.12,2.04,1.36,1.36,2.03,3.29,2.03,5.8s-.74,4.6-2.22,6.05c-1.48,1.45-3.73,2.18-6.76,2.18h-4.12v9.48H1.81v-25.55Zm7.55,10.89h1.84c1.45,0,2.47-.26,3.05-.79,.59-.53,.88-1.21,.88-2.03s-.25-1.48-.76-2.04-1.47-.84-2.87-.84h-2.14v5.7Z"/>
          <path class="cls-1" d="M46.36,436.1c0-4.17,1.11-7.42,3.32-9.74s5.3-3.49,9.25-3.49,7.17,1.14,9.36,3.42c2.19,2.28,3.29,5.48,3.29,9.6,0,2.99-.48,5.44-1.44,7.35-.96,1.91-2.34,3.4-4.15,4.46-1.81,1.06-4.07,1.59-6.77,1.59s-5.02-.46-6.81-1.38c-1.8-.92-3.26-2.37-4.38-4.36s-1.68-4.47-1.68-7.46Zm7.52,.04c0,2.58,.46,4.43,1.37,5.56,.91,1.13,2.16,1.69,3.73,1.69s2.87-.55,3.75-1.66c.89-1.1,1.33-3.08,1.33-5.94,0-2.41-.46-4.16-1.39-5.27-.92-1.11-2.18-1.67-3.76-1.67s-2.73,.56-3.65,1.69-1.38,2.99-1.38,5.6Z"/>
          <path class="cls-1" d="M97.65,448.86v-25.55h12.53c2.32,0,4.1,.21,5.33,.63,1.23,.42,2.22,1.19,2.97,2.33,.75,1.13,1.13,2.51,1.13,4.14,0,1.42-.29,2.64-.86,3.67-.58,1.03-1.37,1.86-2.38,2.5-.64,.41-1.52,.74-2.64,1.01,.9,.31,1.55,.63,1.96,.94,.28,.21,.68,.66,1.2,1.34,.53,.69,.88,1.21,1.05,1.59l3.64,7.41h-8.5l-4.02-7.81c-.51-1.01-.96-1.67-1.36-1.97-.54-.39-1.16-.59-1.84-.59h-.66v10.37h-7.55Zm7.55-15.2h3.17c.34,0,1.01-.12,1.99-.35,.5-.1,.9-.37,1.22-.8,.31-.43,.47-.92,.47-1.48,0-.82-.25-1.46-.75-1.9s-1.43-.66-2.81-.66h-3.3v5.19Z"/>
          <path class="cls-1" d="M144.37,423.3h22.86v6.31h-7.67v19.24h-7.52v-19.24h-7.67v-6.31Z"/>
          <path class="cls-1" d="M192.34,423.3h18.59v5.49h-11.04v4.46h9.43v5.16h-9.43v10.44h-7.55v-25.55Z"/>
          <path class="cls-1" d="M235.19,436.1c0-4.17,1.11-7.42,3.32-9.74s5.3-3.49,9.25-3.49,7.17,1.14,9.36,3.42c2.19,2.28,3.29,5.48,3.29,9.6,0,2.99-.48,5.44-1.44,7.35-.96,1.91-2.34,3.4-4.15,4.46-1.81,1.06-4.07,1.59-6.77,1.59s-5.02-.46-6.81-1.38c-1.8-.92-3.26-2.37-4.38-4.36s-1.68-4.47-1.68-7.46Zm7.52,.04c0,2.58,.46,4.43,1.37,5.56,.91,1.13,2.16,1.69,3.73,1.69s2.87-.55,3.75-1.66c.89-1.1,1.33-3.08,1.33-5.94,0-2.41-.46-4.16-1.39-5.27-.92-1.11-2.18-1.67-3.76-1.67s-2.73,.56-3.65,1.69-1.38,2.99-1.38,5.6Z"/>
          <path class="cls-1" d="M286.43,423.3h7.52v19.26h11.74v6.29h-19.26v-25.55Z"/>
          <path class="cls-1" d="M330.93,423.3h7.54v25.55h-7.54v-25.55Z"/>
          <path class="cls-1" d="M364.66,436.1c0-4.17,1.11-7.42,3.32-9.74s5.3-3.49,9.25-3.49,7.17,1.14,9.36,3.42c2.19,2.28,3.29,5.48,3.29,9.6,0,2.99-.48,5.44-1.44,7.35-.96,1.91-2.34,3.4-4.15,4.46-1.81,1.06-4.07,1.59-6.77,1.59s-5.02-.46-6.81-1.38c-1.8-.92-3.26-2.37-4.38-4.36s-1.68-4.47-1.68-7.46Zm7.52,.04c0,2.58,.46,4.43,1.37,5.56,.91,1.13,2.16,1.69,3.73,1.69s2.87-.55,3.75-1.66c.89-1.1,1.33-3.08,1.33-5.94,0-2.41-.46-4.16-1.39-5.27-.92-1.11-2.18-1.67-3.76-1.67s-2.73,.56-3.65,1.69-1.38,2.99-1.38,5.6Z"/>
        </g>
        <g>
          <path class="cls-1" d="M.29,4.71H39.67V55.27L80.91,4.71h52.36l-46.5,50.5,48.58,83.29h-48.49l-26.87-55.02-20.34,22.37v32.65H.29V4.71Z"/>
          <path class="cls-1" d="M149.92,4.71h35.37V29.99h-35.37V4.71Zm0,36.87h35.37v96.92h-35.37V41.58Z"/>
          <path class="cls-1" d="M202.63,111.57l35.11-3.47c1.45,4.38,3.48,7.51,6.08,9.4,2.61,1.89,6.08,2.83,10.43,2.83,4.75,0,8.43-1.06,11.04-3.19,2.03-1.58,3.04-3.55,3.04-5.92,0-2.67-1.33-4.74-4-6.2-1.91-1.03-6.98-2.31-15.21-3.83-12.29-2.25-20.82-4.33-25.6-6.24-4.78-1.91-8.81-5.15-12.08-9.71-3.27-4.56-4.91-9.75-4.91-15.59,0-6.38,1.77-11.88,5.3-16.5,3.53-4.62,8.4-8.07,14.6-10.35,6.2-2.28,14.51-3.42,24.94-3.42,11.01,0,19.13,.88,24.38,2.65,5.24,1.77,9.62,4.5,13.12,8.21,3.5,3.71,6.42,8.73,8.73,15.06l-33.55,3.47c-.87-3.1-2.32-5.38-4.35-6.84-2.78-1.95-6.14-2.92-10.08-2.92s-6.91,.74-8.73,2.23c-1.83,1.49-2.74,3.3-2.74,5.42,0,2.37,1.16,4.16,3.48,5.38,2.32,1.21,7.36,2.31,15.12,3.28,11.76,1.4,20.51,3.34,26.25,5.83,5.74,2.49,10.12,6.05,13.17,10.67,3.04,4.62,4.56,9.7,4.56,15.23s-1.61,11.03-4.82,16.32c-3.21,5.29-8.29,9.5-15.21,12.63-6.92,3.13-16.36,4.69-28.29,4.69-16.86,0-28.87-2.52-36.03-7.57-7.16-5.05-11.75-12.23-13.78-21.54Z"/>
          <path class="cls-1" d="M319.94,4.71h35.37V53.99c4.81-5.23,9.59-8.97,14.34-11.23,4.75-2.25,10.37-3.38,16.86-3.38,9.62,0,17.19,3.07,22.73,9.22,5.53,6.15,8.3,15.58,8.3,28.29v61.6h-35.55v-53.3c0-6.08-1.07-10.39-3.22-12.91-2.14-2.52-5.16-3.79-9.04-3.79-4.29,0-7.77,1.7-10.43,5.11-2.67,3.41-4,9.52-4,18.34v46.54h-35.37V4.71Z"/>
          <path class="cls-1" d="M441.06,4.71h35.37V29.99h-35.37V4.71Zm0,36.87h35.37v96.92h-35.37V41.58Z"/>
          <path class="cls-1" d="M.29,214.71H39.67v46.82h43.02v-46.82h39.55v133.79h-39.55v-54.12H39.67v54.12H.29V214.71Z"/>
          <path class="cls-1" d="M177.64,282.97l-33.81-3.74c1.27-6.21,3.11-11.09,5.52-14.65,2.4-3.56,5.87-6.65,10.39-9.26,3.24-1.89,7.71-3.35,13.38-4.38,5.68-1.03,11.82-1.55,18.43-1.55,10.6,0,19.12,.62,25.55,1.87,6.43,1.25,11.79,3.85,16.08,7.8,3.01,2.74,5.39,6.62,7.13,11.64s2.61,9.81,2.61,14.37v42.8c0,4.56,.27,8.14,.83,10.72s1.75,5.89,3.61,9.9h-33.2c-1.33-2.49-2.2-4.39-2.61-5.7-.41-1.31-.81-3.36-1.22-6.16-4.64,4.69-9.24,8.03-13.82,10.04-6.26,2.68-13.53,4.02-21.82,4.02-11.01,0-19.37-2.68-25.07-8.03-5.71-5.35-8.56-11.96-8.56-19.8,0-7.36,2.06-13.42,6.17-18.16,4.11-4.75,11.7-8.27,22.77-10.59,13.27-2.8,21.87-4.76,25.81-5.89,3.94-1.12,8.11-2.6,12.52-4.43,0-4.56-.9-7.76-2.69-9.58-1.8-1.83-4.95-2.74-9.47-2.74-5.79,0-10.14,.97-13.04,2.92-2.26,1.52-4.08,4.38-5.48,8.58Zm30.68,19.53c-4.87,1.83-9.94,3.44-15.21,4.84-7.19,2.01-11.73,3.99-13.65,5.93-1.97,2.01-2.96,4.29-2.96,6.84,0,2.92,.97,5.31,2.91,7.16,1.94,1.86,4.79,2.78,8.56,2.78s7.6-1,11-3.01c3.39-2.01,5.79-4.46,7.21-7.35s2.13-6.65,2.13-11.27v-5.93Z"/>
          <path class="cls-1" d="M266.58,251.58h33.11v15.88c3.19-6.87,6.47-11.6,9.87-14.19,3.39-2.58,7.57-3.88,12.56-3.88s10.92,1.7,17.12,5.11l-10.95,26.47c-4.17-1.83-7.47-2.74-9.91-2.74-4.64,0-8.23,2.01-10.78,6.02-3.65,5.66-5.48,16.24-5.48,31.76v32.49h-35.55v-96.92Z"/>
          <path class="cls-1" d="M448.58,348.49h-33.03v-15.7c-4.93,6.45-9.89,11.04-14.91,13.78-5.01,2.74-11.17,4.11-18.47,4.11-9.73,0-17.37-3.06-22.9-9.17s-8.3-15.53-8.3-28.25v-61.69h35.55v53.3c0,6.08,1.07,10.4,3.22,12.96,2.14,2.55,5.16,3.83,9.04,3.83,4.23,0,7.69-1.7,10.39-5.11,2.7-3.41,4.04-9.52,4.04-18.34v-46.63h35.37v96.92Z"/>
          <path class="cls-1" d="M470.87,214.71h36.16v69.06l26.42-32.19h43.54l-33.11,33.95,35.03,62.97h-39.86l-18.7-38.85-13.33,13.66v25.19h-36.16V214.71Z"/>
          <path class="cls-1" d="M594.33,214.71h35.37v25.28h-35.37v-25.28Zm0,36.87h35.37v96.92h-35.37v-96.92Z"/>
        </g>
      </g>
    </g>
  </g>
</svg>