<?xml version="1.0" encoding="UTF-8"?>
<svg id="_テキスト" data-name="テキスト" xmlns="http://www.w3.org/2000/svg" viewBox="0 0 618 20">
  <defs>
    <style>
      .cls-1 {
        fill: #444;
      }
    </style>
  </defs>
  <path class="cls-1" d="m14.84,2.74l.07.07-.07,2.27v5.17l.07,2.25-.09.09-2.25-.07h-.59v3.83c0,.52.09.67,2.21.67s2.23-.13,2.27-2.09c.5.13.85.27,1.19.38-.05,2.45-.5,2.83-3.42,2.83-3.15,0-3.42-.34-3.42-1.51v-4.1h-2.47c-.14,3.96-2.38,5.29-6.39,5.83-.13-.31-.4-.81-.7-1.13,3.51-.34,5.73-1.12,5.83-4.7h-.36l-2.27.07-.07-.09.07-2.25v-5.17l-.07-2.27.07-.07,2.27.07h5.85l2.27-.07Zm-9.24,1.08v1.91h8.07v-1.91H5.6Zm0,4.75h8.07v-1.89H5.6v1.89Zm0,2.93h8.07v-1.98H5.6v1.98Z"/>
  <path class="cls-1" d="m21.49,6.27c1.28-.02,2.5-.09,3.73-.22.18-.9.36-1.8.5-2.7-.45-.16-.58-.31-.58-.43s.14-.2.29-.2c.31,0,.97.05,1.73.13-.2,1.03-.4,2.03-.63,3.06.85-.11,1.67-.23,2.54-.38l.16,1.19c-1.01.14-1.98.29-2.97.4-.79,3.44-1.78,6.9-3.06,10.33l-1.22-.41c1.26-3.28,2.23-6.52,2.97-9.79-1.13.11-2.27.18-3.44.22l-.02-1.19Zm7.96,6.86c-.05.41-.11.74-.11,1.12,0,1.22.61,1.71,2.97,1.71,1.19,0,2.27-.07,3.49-.2l.09,1.28c-1.26.09-2.32.16-3.58.16-3.13,0-4.14-.94-4.14-2.68,0-.52.05-.99.16-1.57l1.12.18Zm.85-6.3c1.8,0,3.62.07,5.42.38l-.14,1.22c-1.8-.31-3.53-.41-5.33-.45l.05-1.15Z"/>
  <path class="cls-1" d="m47.42,4.31c0-.61-.05-1.21-.14-1.64,1.8.07,2.02.22,2.02.43s-.2.32-.59.47c0,1.37-.02,2.27-.05,2.94.34,1.89.95,3.75,1.98,5.37.9,1.44,2.14,2.63,3.55,3.57.83.56,1.71.99,2.61,1.42-.32.23-.65.74-.95,1.13-3.67-1.53-6.55-4.84-7.65-8.91-.97,4.2-3.46,7.11-7.08,9-.29-.38-.58-.7-1.01-1.04,3.89-1.76,6.41-4.79,7.13-9.27.13-.79.2-1.64.2-2.56v-.9Z"/>
  <path class="cls-1" d="m60.09,5.25c.74.04,1.44.05,2.12.05.74,0,1.44-.02,2.16-.05.34-.61.65-1.28.95-2-.29-.13-.47-.27-.47-.43,0-.09.11-.14.32-.14.16,0,1.12.14,1.64.25-.4.86-.76,1.6-1.1,2.23,1.48-.11,3.02-.29,4.83-.52l.14,1.12c-2.02.25-3.83.43-5.62.54-.72,1.17-1.37,1.98-2.16,2.67l.05.05c.77-.41,1.57-.56,2.25-.56,1.35,0,2.11.83,2.25,2.23,1.67-.65,3.15-1.13,4.68-1.69-.04-.16-.05-.29-.05-.4,0-.22.09-.29.2-.29s.16.05.25.14c.38.45.7.99.9,1.49-2.03.59-4.12,1.26-5.89,1.89.05.9.09,1.98.11,2.97l-1.24.02c0-.86-.02-1.8-.05-2.54-.25.09-.5.2-.74.29-1.35.54-2.61,1.37-2.61,2.36,0,1.15.85,1.48,2.77,1.48,2.65,0,4.54-.2,5.76-.34l.04,1.26c-1.37.13-3.02.23-5.67.23s-4.07-.77-4.07-2.57c0-1.58,1.64-2.63,2.92-3.19.52-.23,1.03-.45,1.51-.65-.14-1.24-.36-1.75-1.57-1.75-1.28,0-2.34.68-3.94,1.94l-.18-.05-.61-.85.02-.13c1.51-1.21,2.72-2.45,3.71-3.98-.58.02-1.13.04-1.71.04-.63,0-1.26-.02-1.89-.04l-.02-1.1Z"/>
  <path class="cls-1" d="m82.56,3.72l2.16-.07v1.08l-2.16-.07h-.94c.29.7.5,1.42.7,2.2l-1.15.36c-.11-.85-.34-1.75-.67-2.56h-1.24c-.49.61-1.03,1.17-1.69,1.73-.2-.27-.49-.58-.76-.74,1.06-.85,1.87-1.75,2.48-2.9.11-.22.2-.49.25-.72,1.3.31,1.53.45,1.53.63,0,.13-.09.25-.67.27-.14.27-.31.54-.47.79h2.61Zm3.24,8.7c1.58,2.93,3.89,4.11,7.36,4.79-.31.36-.56.68-.76,1.12-3.33-.76-5.71-2.25-7.31-5.1-.9,2.84-3.44,4.54-7.02,5.15-.22-.38-.43-.67-.86-1.01,3.91-.52,6.32-2.18,7.02-4.95h-4.36l-2.7.07v-1.13l2.7.07h4.54c.13-.85.13-1.71.13-2.57-1.76.2-3.56.34-5.56.45-.09-.34-.27-.72-.56-1.06,4.29-.13,7.81-.59,10.3-1.06.38-.07.72-.18,1.1-.34.97.7,1.21.97,1.21,1.13s-.05.25-.27.25c-.16,0-.41-.04-.77-.14-1.48.25-2.88.47-4.27.63-.02.92-.05,1.82-.18,2.72h4.95l2.7-.07v1.13l-2.7-.07h-4.68Zm3.78-7.76c.23.54.38.99.58,1.64l-1.13.36c-.13-.67-.29-1.24-.58-2h-2c-.34.59-.72,1.13-1.15,1.67-.29-.23-.63-.41-.97-.54.81-.88,1.53-2.18,1.94-3.12.09-.22.14-.45.18-.68,1.31.36,1.49.5,1.49.65,0,.18-.04.25-.61.29-.13.27-.25.54-.38.79h4.32l2.16-.07v1.08l-2.16-.07h-1.69Z"/>
  <path class="cls-1" d="m105.23,8.04v1.06l-2.16-.07h-4.12v2.9c0,2.77-.32,4.29-1.31,6-.29-.32-.56-.54-.9-.74.86-1.55,1.13-2.74,1.13-5.15v-1.84l-.07-2.09.07-.07,1.66.05c-.13-.76-.32-1.49-.54-2.18l1.01-.22c.22.74.41,1.58.54,2.41h1.53c.18-.59.31-1.22.38-1.84.04-.2.05-.4.05-.61,1.37.34,1.53.47,1.53.61,0,.13-.09.22-.58.25-.13.54-.23,1.06-.4,1.58l2.18-.07Zm-2.45-3.6l2.16-.07v1.04l-2.16-.07h-3.17l-2.16.07v-1.04l2.16.07h1.06v-.94c0-.52-.04-.96-.13-1.39,1.55.13,1.76.22,1.76.4,0,.16-.09.23-.54.38v1.55h1.01Zm2.52,10.8c0,.11-.09.18-.32.18-.11,0-.23-.02-.38-.04-1.49,1.04-3.04,1.82-5.22,2.32-.16-.34-.36-.63-.63-.9,2.2-.45,3.91-1.3,4.81-1.96.25-.18.47-.38.65-.59.92.63,1.1.85,1.1.99Zm-.67-2.52c0,.16-.2.23-.7.18-1.1.79-2.3,1.35-3.96,1.75-.16-.34-.36-.63-.65-.9,1.6-.34,2.72-.81,3.56-1.37.23-.16.45-.34.65-.58.88.58,1.1.76,1.1.92Zm-.43-2.34c0,.16-.18.22-.67.16-.94.58-2.09,1.03-3.37,1.33-.16-.34-.38-.65-.65-.92,1.3-.27,2.21-.56,2.92-.97.23-.14.45-.29.67-.52.95.63,1.1.77,1.1.92Zm.45,7.96c-.22-.36-.45-.65-.76-.88,1.33-.52,2.14-.99,2.97-1.71.25-.23.38-.38.52-.56.99.59,1.17.76,1.17.94s-.18.23-.72.2c-.9.79-1.87,1.42-3.19,2.02Zm5.87-12.64l2.09-.07.07.07-.07,2.27v4.61l.07,2.25-.09.09-2.07-.07h-2.32l-2.09.07-.07-.09.07-2.25v-4.61l-.07-2.27.07-.07,2.09.07h.04c.16-.65.29-1.3.38-1.96h-.97l-2.7.07v-1.08l2.7.07h3.22l2.7-.07v1.08l-2.7-.07h-1.13c-.13.67-.27,1.31-.43,1.96h1.22Zm-3.37.94v1.73h4.39v-1.73h-4.39Zm0,4.45h4.39v-1.78h-4.39v1.78Zm0,2.81h4.39v-1.87h-4.39v1.87Zm5.69,4.32c-.92-.9-2-1.71-3.24-2.32l.83-.7c1.17.61,2.27,1.35,3.24,2.18l-.83.85Z"/>
  <path class="cls-1" d="m118.16,17.38c-.23-1.89-.32-3.44-.32-5.46s.29-4.54.94-7.83c-.38-.2-.54-.36-.54-.5,0-.13.13-.18.36-.18.25,0,.59.05,1.71.32-.88,2.92-1.21,5.78-1.21,8.28,0,1.95.09,3.39.41,5.26l-1.35.11Zm5.73-5.15c-.34.56-.5,1.04-.5,1.75,0,.76.94,1.33,3.85,1.33,1.26,0,2.97-.16,4.27-.4l.09,1.33c-1.17.18-2.86.31-4.29.31-3.62,0-5.19-.86-5.19-2.5,0-.72.18-1.42.72-2.39l1.04.58Zm-.92-6.23c1.64-.25,3.42-.38,5.01-.38,1.13,0,2,.04,2.88.13l-.02,1.19c-.95-.07-1.78-.11-3.06-.11-1.53,0-3.21.13-4.74.38l-.07-1.21Z"/>
  <path class="cls-1" d="m149.42,5.52c-2.07.18-3.38.52-4.63,1.4-1.66,1.15-2.65,2.86-2.65,4.93,0,3.38,3.17,4.09,5.96,4.09.22,0,.45,0,.67-.02l-.04,1.41h-.29c-3.6,0-7.51-1.03-7.51-5.38,0-2.2,1.03-4.03,2.52-5.28.38-.25.76-.49,1.21-.72l-1.46.29c-2.21.32-4.27.59-6.99.97l-.22-1.24c4.93-.54,8.89-1.1,13.22-1.75l.13.07.14,1.13-.07.09Zm-2.09,2.39c1.03.81,1.71,1.49,2.48,2.57l-.81.7c-.7-1.03-1.42-1.84-2.47-2.66l.79-.61Zm1.87-1.26c1.01.83,1.55,1.33,2.34,2.41l-.77.68c-.72-1.01-1.28-1.62-2.32-2.45l.76-.65Z"/>
  <path class="cls-1" d="m166.62,4.99c-1.4.49-2.75.86-4.07,1.15.38.77.81,1.51,1.28,2.21,1.35-.36,2.75-.86,4.14-1.53l.49.96c-1.35.61-2.68,1.1-3.98,1.46.61.83,1.53,1.85,2.41,2.5l.07.16-.18.7-.14.09c-1.24,0-2.59.02-3.84.05l-.04-.88c.72-.07,1.46-.16,2.18-.23-.54-.61-1.17-1.37-1.67-2.09-1.82.43-3.53.61-4.97.61-.5,0-1.49-.09-2.32-.31l.4-.92c.65.09,1.49.2,2.12.2,1.15,0,2.59-.14,4.16-.49-.45-.74-.86-1.51-1.26-2.29-1.66.31-3.29.47-4.97.5l-.09-1.06c1.58,0,3.08-.14,4.59-.41-.31-.65-.54-1.3-.77-1.93-.5-.05-.63-.16-.63-.31,0-.13.2-.22.4-.25.25-.05.52-.09,1.37-.18.22.94.43,1.53.81,2.43,1.31-.29,2.67-.68,4.12-1.19l.4,1.03Zm-8.82,8.39c.22,2.7,3.11,2.79,5.35,2.79.79,0,1.51-.04,2.56-.11l-.02,1.24c-.92.09-1.71.11-2.56.11-2.88,0-6.27-.49-6.37-3.96l1.04-.07Z"/>
  <path class="cls-1" d="m177.16,9.5c1.35-.61,2.39-.83,3.48-.83,2.74,0,4.84,1.48,4.84,4.07,0,2.83-2.36,4.84-6.39,4.84-2.48,0-3.8-1.15-3.8-2.59,0-1.28,1.08-2.05,2.32-2.05,1.48,0,2.72,1.13,3.22,2.56l-1.04.61c-.56-1.42-1.31-2.09-2.14-2.09-.61,0-1.24.45-1.24.94,0,.95,1.01,1.49,2.57,1.49,3.02,0,5.13-1.35,5.13-3.8,0-1.39-1.06-2.94-3.71-2.94-2.25,0-4.23.96-6.32,3.17l-.16.02-.79-.72v-.14c3.1-3.12,4.99-4.97,7.49-7.31-1.85.25-3.75.41-6.14.47l-.05-1.21c2.25-.04,4.95-.22,7.11-.52l.4-.32h.16c.92.76,1.06,1.04,1.06,1.19,0,.22-.18.27-.77.47-1.62,1.46-2.83,2.63-4.25,3.87l-1.03.74.05.09Z"/>
  <path class="cls-1" d="m191.41,9.48c.25.76.74,1.15,3.02,1.22.07-1.17.18-2.34.29-3.51h-.49c-1.17,0-2.32.02-3.44.02l.02-1.04c1.39-.05,2.7-.05,4-.05.07-.76.14-1.6.22-2.58-.36-.13-.59-.31-.59-.45,0-.11.11-.18.32-.18.49,0,1.03.02,1.57.05-.13,1.21-.22,2.23-.31,3.15h3.51l-.04,1.15c-1.21-.04-2.39-.05-3.58-.07-.13,1.17-.22,2.34-.29,3.51,1.26-.04,2.47-.16,3.48-.34l.13,1.15c-.97.16-2.16.29-3.67.32-.04.61-.05,1.1-.05,1.94,0,1.96.63,2.63,2.92,2.63,2.72,0,4.63-1.08,4.63-2.47,0-1.15-.77-2.18-2.92-3.46.34-.25.59-.58.76-.83,2.94,1.75,3.49,2.93,3.49,4.38,0,1.89-1.94,3.53-5.73,3.53-3.37,0-4.34-1.1-4.34-3.66,0-.9.04-1.49.05-2.07-2.68-.07-3.26-.58-3.87-1.82l.92-.54Z"/>
  <path class="cls-1" d="m222.22,10.63c0-2.88-2.2-5.13-5.74-5.13s-6.27,2.81-6.27,6.03c0,2.07.63,3.13,1.46,3.13.56,0,1.26-.68,2.12-2.41.86-1.71,1.58-3.98,1.71-5.38-.23-.2-.43-.36-.43-.5,0-.11.09-.18.31-.18.23,0,.94.18,1.51.38-.43,2.39-1.01,4.46-2.02,6.37-1.19,2.3-2.16,3.1-3.2,3.1-1.48,0-2.72-1.6-2.72-4.46,0-4.05,3.38-7.17,7.58-7.17,4.47,0,7.09,2.88,7.09,6.37,0,3.26-2.34,5.82-6.79,6.41-.27-.41-.47-.76-.79-1.15,3.84-.36,6.18-2.27,6.18-5.4Z"/>
  <path class="cls-1" d="m227.78,6.99c3.94-.94,6.79-1.42,8.88-1.42,3.8,0,5.49,1.76,5.49,4.63,0,3.85-3.08,5.83-9.72,6.64-.16-.45-.32-.81-.56-1.19,6.73-.72,8.91-2.63,8.91-5.56,0-2.11-1.26-3.33-4.25-3.33-1.93,0-4.45.47-8.44,1.51l-.31-1.28Zm11.97-4.34c1.03.81,1.71,1.49,2.48,2.58l-.81.7c-.7-1.03-1.42-1.84-2.47-2.67l.79-.61Zm1.87-1.26c1.01.83,1.55,1.33,2.34,2.41l-.77.68c-.72-1.01-1.28-1.62-2.32-2.45l.76-.65Z"/>
  <path class="cls-1" d="m255.59,17.81c-2.27-2.61-4.23-4.41-7.06-6.61-.34-.25-.47-.49-.47-.85,0-.34.16-.61.58-1.03,2.07-2.02,4.07-4.14,5.6-6.14-.18-.29-.25-.41-.25-.54,0-.11.09-.2.2-.2.16,0,.36.09,1.64.99-2.21,2.56-3.93,4.38-6.09,6.48-.14.14-.25.25-.25.38,0,.14.11.23.29.38,2.47,1.89,4.52,3.64,6.84,6.1l-1.03,1.03Z"/>
  <path class="cls-1" d="m265.6,3.64c-.45,1.84-.83,4.21-.83,5.6,0,.86.04,1.6.14,1.87.05.13.11.2.18.2s.16-.07.25-.22c.36-.52.76-1.28,1.22-2.65.27.34.52.59.83.86-.32,1.01-.76,1.98-1.28,2.84-.36.61-.65.83-1.01.83-.59,0-1.57-.68-1.57-3.51,0-1.39.23-3.44.67-5.49-.27-.2-.45-.38-.45-.49s.09-.16.22-.16c.2,0,.83.11,1.62.31Zm4.72-.2c0-.13.13-.18.31-.18.5-.02,1.01-.02,1.62-.02.18,2.72.29,5.02.29,6.79,0,5.4-2.18,7.08-7.38,7.65-.13-.34-.32-.85-.56-1.22,4.66-.36,6.63-1.73,6.63-6.18,0-2.27-.07-3.6-.29-6.41-.41-.11-.61-.29-.61-.43Z"/>
  <path class="cls-1" d="m279.18,5.25c.74.04,1.44.05,2.12.05.74,0,1.44-.02,2.16-.05.34-.61.65-1.28.95-2-.29-.13-.47-.27-.47-.43,0-.09.11-.14.32-.14.16,0,1.12.14,1.64.25-.4.86-.76,1.6-1.1,2.23,1.48-.11,3.02-.29,4.83-.52l.14,1.12c-2.02.25-3.83.43-5.62.54-.72,1.17-1.37,1.98-2.16,2.67l.05.05c.77-.41,1.57-.56,2.25-.56,1.35,0,2.11.83,2.25,2.23,1.67-.65,3.15-1.13,4.68-1.69-.04-.16-.05-.29-.05-.4,0-.22.09-.29.2-.29s.16.05.25.14c.38.45.7.99.9,1.49-2.03.59-4.12,1.26-5.89,1.89.05.9.09,1.98.11,2.97l-1.24.02c0-.86-.02-1.8-.05-2.54-.25.09-.5.2-.74.29-1.35.54-2.61,1.37-2.61,2.36,0,1.15.85,1.48,2.77,1.48,2.65,0,4.54-.2,5.76-.34l.04,1.26c-1.37.13-3.02.23-5.67.23s-4.07-.77-4.07-2.57c0-1.58,1.64-2.63,2.92-3.19.52-.23,1.03-.45,1.51-.65-.14-1.24-.36-1.75-1.57-1.75-1.28,0-2.34.68-3.94,1.94l-.18-.05-.61-.85.02-.13c1.51-1.21,2.72-2.45,3.71-3.98-.58.02-1.13.04-1.71.04-.63,0-1.26-.02-1.89-.04l-.02-1.1Z"/>
  <path class="cls-1" d="m299.04,17.04v1.17h-1.26l.07-3.06V5.86l-.07-2.63.07-.07,2.63.07h6.59l2.63-.07.07.07-.07,2.63v9.29l.07,2.99h-1.28v-1.1h-9.45Zm9.45-12.77h-9.45v3.13h9.45v-3.13Zm0,4.14h-9.45v3.31h9.45v-3.31Zm0,4.32h-9.45v3.28h9.45v-3.28Z"/>
  <path class="cls-1" d="m317.02,6.76h-.45l-2.16.07v-1.12l2.16.07h.45v-2.47c0-.52-.04-.95-.13-1.39,1.58.09,1.84.22,1.84.4,0,.14-.13.27-.58.38v3.08h.25l2.16-.07v1.12l-2.16-.07h-.25v3.21c.76-.2,1.53-.43,2.48-.7,0,.32,0,.65.02.95-.81.25-1.66.5-2.5.76v2.16l.07,3.22c0,1.44-.18,1.78-2.27,1.78h-.49c-.09-.41-.31-.92-.5-1.26.68.09,1.12.11,1.51.11.45,0,.54-.16.54-.58v-5.1c-.56.16-1.1.31-1.6.45-.07.52-.13.67-.36.67-.18,0-.32-.31-.76-1.62.5-.07.81-.13,1.22-.22.52-.11,1.01-.23,1.49-.34v-3.49Zm5.67.31c0,.54.16.67,3.51.67,3.55,0,3.6-.07,3.66-1.93.32.2.74.34,1.08.43-.09,2.25-.43,2.52-4.68,2.52s-4.68-.2-4.68-1.24V3.07c0-.38-.04-.72-.11-1.04,1.55.13,1.82.25,1.82.45,0,.16-.09.25-.59.38v1.98c1.93-.34,4.18-.86,5.58-1.33.23-.07.54-.22.79-.4.97.83,1.06,1.03,1.06,1.19,0,.11-.07.18-.27.18-.14,0-.38-.04-.72-.13-1.82.5-4.29,1.03-6.45,1.35v1.37Zm.2,10.3v1.08h-1.19l.07-2.63v-3.29l-.05-2.09.07-.07,2.09.07h3.73l2.12-.07.07.07-.05,2.09v3.28l.07,2.56h-1.21v-.99h-5.73Zm5.73-6h-5.73v2h5.73v-2Zm0,2.9h-5.73v2.16h5.73v-2.16Z"/>
  <path class="cls-1" d="m347.54,14.3c-2.16,1.98-5.01,3.21-7.22,3.21-2.56,0-3.92-.95-3.92-3.82,0-2.47.07-6.21.16-10.01-.43-.16-.54-.29-.54-.43,0-.13.14-.22.41-.22.22,0,.72.02,1.51.09-.2,4.32-.29,7.27-.29,10.43,0,1.98.54,2.63,2.57,2.63,2.25,0,4.77-1.22,6.68-3.12.22.49.43.92.63,1.24Z"/>
  <path class="cls-1" d="m363.25,5.52c-2.07.18-3.38.52-4.63,1.4-1.66,1.15-2.65,2.86-2.65,4.93,0,3.38,3.17,4.09,5.96,4.09.22,0,.45,0,.67-.02l-.04,1.41h-.29c-3.6,0-7.51-1.03-7.51-5.38,0-2.2,1.03-4.03,2.52-5.28.38-.25.76-.49,1.21-.72l-1.46.29c-2.21.32-4.27.59-6.99.97l-.22-1.24c4.93-.54,8.9-1.1,13.22-1.75l.13.07.14,1.13-.07.09Z"/>
  <path class="cls-1" d="m371.92,18.55c-.95-1.53-2.07-2.88-3.46-4.05l.99-.81c1.42,1.12,2.59,2.43,3.6,3.91l-1.13.95Z"/>
  <path class="cls-1" d="m396.96,13.48c1.82,1.73,4.66,2.81,7.58,3.22-.36.4-.56.79-.68,1.19-2.86-.7-5.64-1.87-7.36-3.66l.13,4.38h-1.24l.13-4.29c-1.62,1.6-4.27,2.75-7.08,3.62-.16-.32-.4-.65-.74-.97,2.88-.68,5.51-1.8,7.26-3.49h-3.89l-2.7.07v-1.12l2.7.07h4.39v-.34c0-.49-.05-.95-.14-1.35,1.62.09,1.84.2,1.84.36s-.13.25-.59.38v.95h4.59l2.7-.07v1.12l-2.7-.07h-4.18Zm-7.78-4.48c.79-.31,1.87-.77,3.04-1.42,0,.38.02.77.07,1.15-1.03.61-2,1.06-3.01,1.53.02.49-.11.59-.31.59-.16,0-.4-.36-.92-1.55.27-.04.92-.23,1.12-.31Zm.13-6.25c.92.4,1.85.9,2.75,1.5l-.58,1.1c-.76-.56-1.82-1.24-2.74-1.67l.56-.92Zm3.8,7.62l-.07-.07.05-1.73v-3.06l-.05-1.73.07-.07,1.57.07h.59c.13-.45.25-.92.32-1.24.05-.25.09-.43.09-.72,1.51.38,1.69.5,1.69.67,0,.18-.23.25-.67.31-.13.32-.25.67-.38.99h1.26l1.58-.07.07.07-.05,1.73v3.04l.05,1.73-.07.07-1.58-.05h-2.92l-1.57.07Zm5.02-5.71h-4v1.84h4v-1.84Zm0,4.72v-2h-4v2h4Zm2.38-3.73c-.23-.31-.47-.54-.76-.76.77-.52,1.4-1.04,1.91-1.57.27-.27.43-.45.59-.76,1.19.92,1.26,1.06,1.26,1.22,0,.13-.09.2-.27.2-.11,0-.23-.04-.41-.09-.7.63-1.49,1.22-2.32,1.75Zm.11,1.76c1.13.59,2.16,1.17,3.21,1.96l-.83.99c-.88-.77-1.85-1.44-3.1-2.14l.72-.81Z"/>
  <path class="cls-1" d="m420.69,14.3c-2.16,1.98-5.01,3.21-7.22,3.21-2.56,0-3.92-.95-3.92-3.82,0-2.47.07-6.21.16-10.01-.43-.16-.54-.29-.54-.43,0-.13.14-.22.41-.22.22,0,.72.02,1.51.09-.2,4.32-.29,7.27-.29,10.43,0,1.98.54,2.63,2.57,2.63,2.25,0,4.77-1.22,6.68-3.12.22.49.43.92.63,1.24Z"/>
  <path class="cls-1" d="m425.65,6.83c1.93-.02,3.94-.2,5.96-.5-.36-.76-.72-1.6-1.06-2.59-.49-.04-.65-.13-.65-.25,0-.11.09-.2.25-.25.22-.07.52-.14,1.48-.32.38,1.22.77,2.29,1.21,3.21,1.57-.29,3.12-.65,4.61-1.1l.23,1.21c-1.4.4-2.83.72-4.29.99.86,1.51,1.89,2.66,3.22,3.76l.05.13-.36,1.06-.11.05c-1.46-.16-2.84-.25-4.27-.29l.04-.92c.94-.02,2.02-.05,2.83-.09-.97-1.03-1.84-2.09-2.63-3.51-2.12.34-4.27.56-6.3.65l-.22-1.22Zm1.82,6.05c.22,3.02,3.04,3.31,5.69,3.31.65,0,1.53-.05,2.59-.14v1.24c-.97.09-1.55.14-2.45.14-3.38,0-6.81-.67-6.9-4.41l1.06-.14Z"/>
  <path class="cls-1" d="m443.88,9.48c.25.76.74,1.15,3.02,1.22.07-1.17.18-2.34.29-3.51h-.49c-1.17,0-2.32.02-3.44.02l.02-1.04c1.39-.05,2.7-.05,4-.05.07-.76.14-1.6.22-2.58-.36-.13-.59-.31-.59-.45,0-.11.11-.18.32-.18.49,0,1.03.02,1.57.05-.13,1.21-.22,2.23-.31,3.15h3.51l-.04,1.15c-1.21-.04-2.4-.05-3.58-.07-.13,1.17-.22,2.34-.29,3.51,1.26-.04,2.47-.16,3.48-.34l.13,1.15c-.97.16-2.16.29-3.67.32-.04.61-.05,1.1-.05,1.94,0,1.96.63,2.63,2.92,2.63,2.72,0,4.63-1.08,4.63-2.47,0-1.15-.77-2.18-2.92-3.46.34-.25.59-.58.76-.83,2.94,1.75,3.49,2.93,3.49,4.38,0,1.89-1.94,3.53-5.73,3.53-3.37,0-4.34-1.1-4.34-3.66,0-.9.04-1.49.05-2.07-2.68-.07-3.26-.58-3.87-1.82l.92-.54Z"/>
  <path class="cls-1" d="m470,13.62c1.64,1.93,4.14,3.12,7.18,3.6-.34.41-.59.76-.81,1.15-3.01-.54-5.64-2.16-7.4-4.52-1.03,2.81-3.69,4-7.24,4.56-.22-.38-.45-.68-.77-1.01,3.66-.4,5.98-1.53,6.86-3.78h-3.69l-2.7.07v-1.12l2.7.07h3.96c.05-.29.09-.59.11-.92.02-.27.02-.47-.07-.9,1.67.14,1.85.22,1.85.43,0,.16-.2.29-.59.41-.04.32-.07.65-.13.97h4.47l2.7-.07v1.12l-2.7-.07h-3.73Zm-.54-6.66h2.75l2.7-.07v1.12l-2.7-.07h-2.75v1.66h4.7l2.7-.07v1.12l-2.7-.07h-10.44l-2.7.07v-1.12l2.7.07h4.57v-1.66h-2.63l-2.7.07v-1.12l2.7.07h2.63v-1.66h-3.8l-2.7.07v-1.12l2.7.07h1.6c-.31-.59-.68-1.15-1.21-1.78l1.01-.43c.56.59,1.13,1.44,1.51,2.21h3.15c.25-.58.47-1.08.61-1.51.11-.31.16-.56.18-.77,1.4.34,1.64.45,1.64.63,0,.16-.07.23-.61.34-.22.43-.45.9-.68,1.31h1.69l2.7-.07v1.12l-2.7-.07h-3.93v1.66Z"/>
  <path class="cls-1" d="m493.61,14.3c-2.16,1.98-5.01,3.21-7.22,3.21-2.56,0-3.92-.95-3.92-3.82,0-2.47.07-6.21.16-10.01-.43-.16-.54-.29-.54-.43,0-.13.14-.22.41-.22.22,0,.72.02,1.51.09-.2,4.32-.29,7.27-.29,10.43,0,1.98.54,2.63,2.57,2.63,2.25,0,4.77-1.22,6.68-3.12.22.49.43.92.63,1.24Z"/>
  <path class="cls-1" d="m498.58,6.83c1.93-.02,3.94-.2,5.96-.5-.36-.76-.72-1.6-1.06-2.59-.49-.04-.65-.13-.65-.25,0-.11.09-.2.25-.25.22-.07.52-.14,1.48-.32.38,1.22.77,2.29,1.21,3.21,1.57-.29,3.12-.65,4.61-1.1l.23,1.21c-1.4.4-2.83.72-4.29.99.86,1.51,1.89,2.66,3.22,3.76l.05.13-.36,1.06-.11.05c-1.46-.16-2.84-.25-4.27-.29l.04-.92c.94-.02,2.02-.05,2.83-.09-.97-1.03-1.84-2.09-2.63-3.51-2.12.34-4.27.56-6.3.65l-.22-1.22Zm1.82,6.05c.22,3.02,3.04,3.31,5.69,3.31.65,0,1.53-.05,2.59-.14v1.24c-.97.09-1.55.14-2.45.14-3.38,0-6.81-.67-6.9-4.41l1.06-.14Z"/>
  <path class="cls-1" d="m516.8,9.48c.25.76.74,1.15,3.02,1.22.07-1.17.18-2.34.29-3.51h-.49c-1.17,0-2.32.02-3.44.02l.02-1.04c1.39-.05,2.7-.05,4-.05.07-.76.14-1.6.22-2.58-.36-.13-.59-.31-.59-.45,0-.11.11-.18.32-.18.49,0,1.03.02,1.57.05-.13,1.21-.22,2.23-.31,3.15h3.51l-.04,1.15c-1.21-.04-2.4-.05-3.58-.07-.13,1.17-.22,2.34-.29,3.51,1.26-.04,2.47-.16,3.48-.34l.13,1.15c-.97.16-2.16.29-3.67.32-.04.61-.05,1.1-.05,1.94,0,1.96.63,2.63,2.92,2.63,2.72,0,4.63-1.08,4.63-2.47,0-1.15-.77-2.18-2.92-3.46.34-.25.59-.58.76-.83,2.94,1.75,3.49,2.93,3.49,4.38,0,1.89-1.94,3.53-5.73,3.53-3.37,0-4.34-1.1-4.34-3.66,0-.9.04-1.49.05-2.07-2.68-.07-3.26-.58-3.87-1.82l.92-.54Z"/>
  <path class="cls-1" d="m540.07,13.56c.45-.38.85-.77,1.22-1.17,1.33-1.4,2.92-3.44,4.68-7.8.23-.58.38-1.17.45-1.69,1.67.61,1.73.74,1.73.95,0,.18-.31.27-.7.27-1.94,5.1-3.82,7.58-5.29,9.09-.61.63-1.28,1.26-2.09,1.85v.32c0,.63.13.85,2.59.85,2.74,0,2.88-.23,2.92-3.01.4.2.92.4,1.28.49-.16,3.17-.49,3.64-4.14,3.64-3.37,0-3.8-.18-3.83-1.49-1.13.68-2.5,1.33-4.25,1.91-.2-.43-.4-.7-.74-1.1,2.11-.49,3.71-1.3,4.99-2.18v-6.63c0-.67-.04-1.06-.13-1.44,1.67.13,1.96.27,1.96.47s-.2.34-.65.43v6.23Zm-2.93-5.06c-.43,2.25-1.06,4.29-1.87,6.03l-1.1-.59c.85-1.75,1.51-3.75,1.82-5.85l1.15.41Zm3.82-5.98c1.01.7,2,1.6,2.75,2.5l-1.01.85c-.74-.94-1.62-1.89-2.59-2.63l.85-.72Zm6.59,6c1.48,1.84,2.07,3.19,2.88,5.02l-1.19.72c-.79-1.96-1.35-3.22-2.67-5.08l.97-.67Z"/>
  <path class="cls-1" d="m556.17,8.38c.94.31,1.69.67,2.38,1.06.29-.41.54-.88.76-1.35-.81-.45-1.62-.81-2.38-1.06l.5-.79c.88.25,1.6.54,2.25.9.22-.63.38-1.3.49-2h-2.97c-.72,1.53-1.55,2.79-2.54,3.89-.2-.27-.63-.56-.92-.7,1.33-1.48,2.3-3.04,3.01-5.08.14-.4.22-.72.25-1.12,1.42.41,1.67.54,1.67.76,0,.18-.16.31-.68.31-.13.36-.27.72-.41,1.06h2.66l.38-.36h.22c.7.59.95.81.95.99,0,.16-.11.25-.56.41-.67,3.66-2.39,6.66-6.63,8.43-.11-.31-.38-.68-.68-.95,1.69-.56,2.99-1.4,3.96-2.49-.77-.45-1.57-.85-2.29-1.12l.58-.79Zm1.19,6.84c-.65,1.35-1.19,2.27-1.96,3.17l-1.1-.59c.77-.77,1.44-1.82,1.98-3.01l1.08.43Zm2.95-.36c.47,1.04.7,1.96.9,3.01l-1.19.34c-.16-1.03-.43-2.14-.81-3.01l1.1-.34Zm5.8-8c.68,3.44,2.63,4.93,4.5,5.89-.29.2-.59.59-.9,1.03-1.64-.97-3.6-2.95-4.19-5.67-.59,3.08-2.79,4.93-5.2,5.76-.18-.32-.43-.72-.74-.97,2.39-.65,4.61-2.47,5.06-5.53.02-.18.05-.34.07-.5h-1.01l-2.16.07v-1.08l2.16.07h1.1c.04-.59.04-1.19.04-1.87,0-.63-.04-1.3-.16-1.91,1.53.07,1.85.16,1.85.4,0,.18-.14.25-.58.45-.02,1.04-.05,2.05-.11,2.94h2.2l2.16-.07v1.08l-2.16-.07h-1.93Zm-2.02,7.92c.49.79.94,1.73,1.31,2.79l-1.13.49c-.32-1.1-.72-1.96-1.22-2.88l1.04-.4Zm3.71-.32c.97.94,1.57,1.71,2.34,2.81l-1.01.79c-.67-1.1-1.17-1.95-2.25-3.01l.92-.59Zm.4-11.52c.58.41,1.08.86,1.58,1.39l-.83.79c-.49-.56-1.06-1.1-1.55-1.48l.79-.7Z"/>
  <path class="cls-1" d="m575.27,4.69c-.09,1.84-.34,4.02-.61,5.46l-1.04-.23c.31-1.64.52-3.53.59-5.37l1.06.14Zm1.89,11.22l.07,2.7h-1.26l.07-2.7V3.28c0-.52-.05-.95-.14-1.39,1.57.09,1.91.25,1.91.45s-.2.29-.65.4v13.16Zm.86-11.27c.56.52,1.13,1.21,1.51,1.78l-.9.63c-.41-.72-.9-1.33-1.39-1.85l.77-.56Zm6.43,1.71v-2.79c0-.52-.05-.99-.14-1.42,1.69.05,1.91.18,1.91.38,0,.16-.2.27-.59.43v3.4h1.42l2.7-.07v1.12l-2.7-.07h-1.42v3.76h.99l2.7-.07v1.15l-2.7-.07h-.99v4.41h2.03l2.7-.07v1.15l-2.7-.07h-6.12l-2.7.07v-1.15l2.7.07h2.92v-4.41h-.88l-2.7.07v-1.15l2.7.07h.88v-3.76h-3.15c-.45,1.39-.99,2.68-1.64,3.93-.31-.22-.67-.4-1.01-.5,1.1-2.02,1.87-4.34,2.3-6.5.07-.4.13-.74.14-1.12,1.4.4,1.73.54,1.73.76,0,.18-.18.29-.7.32-.16.74-.34,1.46-.54,2.14h2.86Z"/>
  <path class="cls-1" d="m595,9.48c.25.76.74,1.15,3.02,1.22.07-1.17.18-2.34.29-3.51h-.49c-1.17,0-2.32.02-3.44.02l.02-1.04c1.39-.05,2.7-.05,4-.05.07-.76.14-1.6.22-2.58-.36-.13-.59-.31-.59-.45,0-.11.11-.18.32-.18.49,0,1.03.02,1.57.05-.13,1.21-.22,2.23-.31,3.15h3.51l-.04,1.15c-1.21-.04-2.39-.05-3.58-.07-.13,1.17-.22,2.34-.29,3.51,1.26-.04,2.47-.16,3.48-.34l.13,1.15c-.97.16-2.16.29-3.67.32-.04.61-.05,1.1-.05,1.94,0,1.96.63,2.63,2.92,2.63,2.72,0,4.63-1.08,4.63-2.47,0-1.15-.77-2.18-2.92-3.46.34-.25.59-.58.76-.83,2.94,1.75,3.49,2.93,3.49,4.38,0,1.89-1.94,3.53-5.73,3.53-3.37,0-4.34-1.1-4.34-3.66,0-.9.04-1.49.05-2.07-2.68-.07-3.26-.58-3.87-1.82l.92-.54Z"/>
  <path class="cls-1" d="m616.04,18.55c-.95-1.53-2.07-2.88-3.46-4.05l.99-.81c1.42,1.12,2.59,2.43,3.6,3.91l-1.13.95Z"/>
</svg>