<?xml version="1.0" encoding="UTF-8"?>
<svg id="_テキスト" data-name="テキスト" xmlns="http://www.w3.org/2000/svg" viewBox="0 0 618 20">
  <defs>
    <style>
      .cls-1 {
        fill: #444;
      }
    </style>
  </defs>
  <path class="cls-1" d="m13.78,5.17l.43-.34h.22c.79.77,1.15,1.24,1.15,1.44s-.2.31-.5.43c-2.41,5.76-5.17,8.75-10.23,10.75-.16-.29-.41-.67-.77-1.03,5.1-2.02,7.74-5.08,9.61-10.14l-5.4.02c-1.17,1.78-2.48,3.17-4.05,4.54-.31-.34-.63-.58-.99-.81,2.32-1.96,3.96-3.94,4.92-6.32-.32-.29-.43-.43-.43-.56,0-.11.11-.18.18-.18.25,0,.58.11,1.85.7-.25.54-.52,1.04-.79,1.51l4.81-.02Z"/>
  <path class="cls-1" d="m23.65,9.13l.07,2.74h-1.44l.07-2.74v-4.7c-.52-.36-.59-.43-.59-.59,0-.07.09-.13.31-.13.31,0,.86.13,1.71.34l-.13.86v4.21Zm6.91,1.31c0,4.09-2.23,6.59-7.22,7.06-.14-.4-.32-.79-.56-1.17,4.54-.41,6.45-2.34,6.45-5.89v-6.27c-.52-.36-.59-.43-.59-.59,0-.07.09-.13.31-.13.31,0,.9.13,1.75.34l-.13.86v5.78Z"/>
  <path class="cls-1" d="m44,14.08h3.65l2.74-.07v1.31l-2.74-.07h-8.41l-2.74.07v-1.31l2.74.07h3.42v-6.88h-2.27l-2.74.05v-1.31l2.74.09h6.19l2.74-.09v1.31l-2.74-.05h-2.59v6.88Z"/>
  <path class="cls-1" d="m65.21,5.02c-1.15,1.22-2.38,2.3-3.67,3.3.38.09.79.22,1.17.32l-.07,1.17v4.93l.07,2.75h-1.49l.07-2.74v-5.76l-.29-.29c-1.89,1.35-3.94,2.5-6.23,3.51-.22-.34-.5-.68-.81-.97,4.07-1.71,7.8-4.25,10.44-7.47-.16-.25-.29-.49-.29-.58,0-.13.11-.2.23-.2.16,0,.45.18,1.73,1.12l-.86.9Z"/>
  <path class="cls-1" d="m79.05,10.19c0,3.87-1.75,5.91-5.33,7.26-.2-.4-.5-.76-.79-1.06,3.17-1.13,4.72-2.97,4.72-6.18v-.65h-4.05l-2.74.05v-1.28l2.74.07h8.21l2.74-.07v1.28l-2.74-.05h-2.75v.63Zm-3.48-5.78h4.41l2.74-.07v1.3l-2.74-.05h-4.41l-2.74.05v-1.3l2.74.07Z"/>
  <path class="cls-1" d="m98.03,7.67c-.95,1.03-1.94,1.91-3.01,2.68.32.09.56.14.85.23l-.07.92v4l.05,2.29h-1.33l.05-2.27v-4.57l-.16-.14c-1.51,1.04-3.19,1.93-5.15,2.77-.2-.32-.4-.58-.74-.88,3.42-1.49,6.36-3.29,8.61-6.01-.14-.23-.23-.41-.23-.5,0-.14.07-.22.22-.22s.54.2,1.64,1.01l-.72.7Z"/>
  <path class="cls-1" d="m116.75,6.26c-.2,5.96-4.14,10.19-9.6,11.09-.16-.4-.38-.77-.67-1.13,4.93-.79,8.75-4.54,8.82-9.9h-7.35l-2.72.07v-1.31l2.72.07h6.1l2.61-.07.11.09-.04,1.1Zm-.41-3.58c1.03.81,1.71,1.49,2.48,2.57l-.81.7c-.7-1.03-1.42-1.84-2.47-2.67l.79-.61Zm1.87-1.26c1.01.83,1.55,1.33,2.34,2.41l-.77.68c-.72-1.01-1.28-1.62-2.32-2.45l.76-.65Z"/>
  <path class="cls-1" d="m123.69,17.43c-.23-1.89-.32-3.44-.32-5.46s.29-4.54.94-7.83c-.38-.2-.54-.36-.54-.5,0-.13.13-.18.36-.18.25,0,.59.05,1.71.32-.88,2.92-1.21,5.78-1.21,8.28,0,1.95.09,3.39.41,5.26l-1.35.11Zm5.73-5.15c-.34.56-.5,1.04-.5,1.75,0,.76.94,1.33,3.85,1.33,1.26,0,2.97-.16,4.27-.4l.09,1.33c-1.17.18-2.86.31-4.29.31-3.62,0-5.19-.86-5.19-2.5,0-.72.18-1.42.72-2.39l1.04.58Zm-.92-6.23c1.64-.25,3.42-.38,5.01-.38,1.13,0,2,.04,2.88.13l-.02,1.19c-.95-.07-1.78-.11-3.06-.11-1.53,0-3.21.13-4.74.38l-.07-1.21Z"/>
  <path class="cls-1" d="m143.47,6.8h-.45l-2.16.07v-1.12l2.16.07h.45v-2.47c0-.52-.04-.95-.13-1.39,1.58.09,1.84.22,1.84.4,0,.14-.13.27-.58.38v3.06l1.78-.05v1.12l-1.78-.05v3.17c.67-.16,1.39-.38,2.14-.59,0,.32,0,.65.02.95-.68.22-1.42.45-2.16.67v2.16l.07,3.22c0,1.44-.18,1.78-2.27,1.78h-.49c-.09-.41-.31-.92-.5-1.26.68.09,1.12.11,1.51.11.45,0,.54-.16.54-.58v-5.1c-.54.16-1.08.31-1.6.45-.07.52-.13.67-.36.67-.18,0-.32-.31-.76-1.62.5-.07.81-.13,1.22-.22.49-.11.97-.22,1.49-.34v-3.49Zm3.64,6.48c.02.49-.11.59-.31.59-.16,0-.4-.36-.92-1.55.27-.04.92-.23,1.12-.31.63-.25,1.58-.67,2.41-1.1.04-1.71.02-4.03,0-7,0-.45-.02-1.12-.14-1.73,1.51.14,1.85.25,1.85.49,0,.18-.14.25-.58.36-.02,5.26,0,8.52-.16,10.12-.31,2.77-1.58,4.36-4.45,5.24-.16-.36-.41-.68-.74-.95,2.7-.74,3.87-2.02,4.11-4.43.04-.27.05-.59.07-.96-.7.4-1.51.83-2.27,1.22Zm.52-7.96c.54.85,1.04,1.78,1.46,2.77l-1.1.58c-.29-.86-.77-2.05-1.31-2.88l.95-.47Zm6.27,5.11c1.13.79,2.21,1.69,3.13,2.59l-.92.92c-.76-.85-1.78-1.84-2.9-2.68v5.29c0,.43.07.5,1.19.5,1.62,0,1.71-.09,1.76-2.03.47.27.86.45,1.15.52-.07,2.27-.52,2.59-2.86,2.59-2.14,0-2.34-.23-2.34-1.48V3.6c0-.52-.04-.95-.13-1.39,1.58.07,1.76.2,1.76.38s-.16.27-.54.4v8.08l.68-.63Zm.63-1.69c-.25-.22-.61-.49-.88-.67.49-.52,1.15-1.39,1.51-1.94.2-.29.31-.49.43-.81,1.22.79,1.39.95,1.39,1.13s-.23.23-.65.18c-.52.67-1.17,1.48-1.8,2.11Z"/>
  <path class="cls-1" d="m166.06,12.31v1.67h1.31l2.7-.07v1.08l-2.7-.07h-1.31v.74l.07,2.88h-1.21l.07-2.88v-.74h-1.51l-2.7.07v-1.08l2.7.07h1.51v-1.67h-1.21l-2.07.07-.09-.13.07-2.03v-1.91l-.07-2.09.07-.07,2.09.07h3.42l2.09-.07.07.07-.07,2.09v1.91l.07,2.05-.07.11-2.09-.07h-1.15Zm-4.02-9.98c.58.81,1.1,1.76,1.46,2.61l-1.12.47c-.36-.97-.85-1.94-1.37-2.7l1.03-.38Zm2.95,6.46v-1.69h-2.25v1.69h2.25Zm-2.25,2.63h2.25v-1.75h-2.25v1.75Zm2.16-9.31c.58.88.97,1.82,1.28,2.74l-1.1.36c-.31-1.01-.67-1.87-1.19-2.81l1.01-.29Zm3.35,4.99h-2.2v1.69h2.2v-1.69Zm0,4.32v-1.75h-2.2v1.75h2.2Zm1.51-8.59c0,.2-.14.23-.65.29-.32.77-.65,1.49-1.17,2.32-.23-.2-.65-.36-.92-.43.38-.68.7-1.42.88-2.02.13-.4.16-.58.22-.9,1.37.4,1.64.58,1.64.74Zm3.26,4.88c.07,1.8.18,3.64.61,5.4.56-.77,1.06-1.69,1.55-2.81.18-.4.31-.88.34-1.21,1.37.54,1.58.68,1.58.86,0,.22-.16.25-.61.25-.88,1.78-1.67,3.1-2.52,4.11.18.5.38.95.61,1.39.67,1.26,1.1,1.53,1.39,1.53s.47-.67.49-2.18c.36.22.79.43,1.04.52-.18,2.58-.79,2.99-1.51,2.99-.41,0-1.31-.47-2.14-1.94-.25-.45-.49-.92-.68-1.44-1.1,1.04-2.4,1.78-4.16,2.56-.27-.36-.54-.63-.88-.94,2.03-.68,3.49-1.48,4.68-2.7-.61-2.03-.79-4.2-.86-6.32l-2.05.18-.07-1.13,2.09-.05c-.02-.76-.04-1.55-.04-2.41,0-1.39-.05-1.91-.14-2.34,1.6.13,1.84.25,1.84.45,0,.16-.2.27-.59.43v1.4c0,.86,0,1.67.02,2.41l1.85-.13,2.52-.23.05,1.13-2.52.09-1.87.13Zm2.09-4.61c.67.36,1.28.81,1.87,1.37l-.79.79c-.54-.54-1.21-1.1-1.84-1.48l.76-.68Z"/>
  <path class="cls-1" d="m193.96,14.35c-2.16,1.98-5.01,3.21-7.22,3.21-2.56,0-3.92-.95-3.92-3.82,0-2.47.07-6.21.16-10.01-.43-.16-.54-.29-.54-.43,0-.13.14-.22.41-.22.22,0,.72.02,1.51.09-.2,4.32-.29,7.27-.29,10.43,0,1.98.54,2.63,2.57,2.63,2.25,0,4.77-1.22,6.68-3.12.22.49.43.92.63,1.24Z"/>
  <path class="cls-1" d="m209.67,5.56c-2.07.18-3.38.52-4.63,1.4-1.66,1.15-2.65,2.86-2.65,4.93,0,3.38,3.17,4.09,5.96,4.09.22,0,.45,0,.67-.02l-.04,1.41h-.29c-3.6,0-7.51-1.03-7.51-5.38,0-2.2,1.03-4.03,2.52-5.28.38-.25.76-.49,1.21-.72l-1.46.29c-2.21.32-4.27.59-6.99.97l-.22-1.24c4.93-.54,8.9-1.1,13.22-1.75l.13.07.14,1.13-.07.09Z"/>
  <path class="cls-1" d="m225.66,5.04c-1.4.49-2.75.86-4.07,1.15.38.77.81,1.51,1.28,2.21,1.35-.36,2.75-.86,4.14-1.53l.49.96c-1.35.61-2.68,1.1-3.98,1.46.61.83,1.53,1.85,2.41,2.5l.07.16-.18.7-.14.09c-1.24,0-2.59.02-3.84.05l-.04-.88c.72-.07,1.46-.16,2.18-.23-.54-.61-1.17-1.37-1.67-2.09-1.82.43-3.53.61-4.97.61-.5,0-1.49-.09-2.32-.31l.4-.92c.65.09,1.49.2,2.12.2,1.15,0,2.59-.14,4.16-.49-.45-.74-.86-1.51-1.26-2.29-1.66.31-3.29.47-4.97.5l-.09-1.06c1.58,0,3.08-.14,4.59-.41-.31-.65-.54-1.3-.77-1.93-.5-.05-.63-.16-.63-.31,0-.13.2-.22.4-.25.25-.05.52-.09,1.37-.18.22.94.43,1.53.81,2.43,1.31-.29,2.67-.68,4.12-1.19l.4,1.03Zm-8.82,8.39c.22,2.7,3.11,2.79,5.35,2.79.79,0,1.51-.04,2.56-.11l-.02,1.24c-.92.09-1.71.11-2.56.11-2.88,0-6.27-.49-6.37-3.96l1.04-.07Z"/>
  <path class="cls-1" d="m232.75,5.71c1.91-.16,3.85-.29,5.82-.34v-1.89c-.47-.13-.63-.27-.63-.43,0-.14.16-.2.38-.2s.54,0,1.53.04c-.04.88-.05,1.69-.07,2.43.97-.02,1.93-.04,2.88-.04.68,0,1.55.02,2.23.04l.04,1.08c-.68-.02-1.57-.04-2.25-.04-.9,0-1.89.02-2.92.04-.02.5-.02.95-.02,1.35s0,.9.02,1.46c1.28-.11,2.67-.31,4.21-.56l.25,1.08c-1.49.27-2.99.47-4.43.59.04,1.17.09,2.45.13,3.53,1.67.67,3.46,1.55,5.17,2.47l-.7,1.13c-1.42-.88-2.99-1.66-4.43-2.34-.18,1.84-1.48,2.52-3.12,2.52-2.47,0-3.73-1.1-3.73-2.23,0-1.03,1.64-2.3,3.73-2.3.38,0,1.24.16,1.87.36-.04-.97-.07-2.03-.11-3.06-.72.05-1.44.07-2.12.07-1.55,0-2.48-.4-3.15-.79l.68-.85c.63.36,1.28.54,2.47.54.67,0,1.37-.02,2.11-.07-.02-.54-.02-1.04-.02-1.48v-1.39c-1.91.05-3.91.16-5.74.32l-.07-1.04Zm3.96,8.46c-1.35,0-2.41.67-2.41,1.24,0,.52.92,1.1,2.54,1.1,1.26,0,1.87-.76,1.87-1.85-.72-.29-1.49-.49-2-.49Z"/>
  <path class="cls-1" d="m262.6,14.35c-2.16,1.98-5.01,3.21-7.22,3.21-2.56,0-3.92-.95-3.92-3.82,0-2.47.07-6.21.16-10.01-.43-.16-.54-.29-.54-.43,0-.13.14-.22.41-.22.22,0,.72.02,1.51.09-.2,4.32-.29,7.27-.29,10.43,0,1.98.54,2.63,2.57,2.63,2.25,0,4.77-1.22,6.68-3.12.22.49.43.92.63,1.24Z"/>
  <path class="cls-1" d="m266.72,6.32c1.28-.02,2.5-.09,3.73-.22.18-.9.36-1.8.5-2.7-.45-.16-.58-.31-.58-.43s.14-.2.29-.2c.31,0,.97.05,1.73.13-.2,1.03-.4,2.03-.63,3.06.85-.11,1.67-.23,2.54-.38l.16,1.19c-1.01.14-1.98.29-2.97.4-.79,3.44-1.78,6.9-3.06,10.33l-1.22-.41c1.26-3.28,2.23-6.52,2.97-9.79-1.13.11-2.27.18-3.44.22l-.02-1.19Zm7.96,6.86c-.05.41-.11.74-.11,1.12,0,1.22.61,1.71,2.97,1.71,1.19,0,2.27-.07,3.49-.2l.09,1.28c-1.26.09-2.32.16-3.58.16-3.13,0-4.14-.94-4.14-2.68,0-.52.05-.99.16-1.57l1.12.18Zm.85-6.3c1.8,0,3.62.07,5.42.38l-.14,1.22c-1.8-.31-3.53-.41-5.33-.45l.05-1.15Z"/>
  <path class="cls-1" d="m288.16,18.45c-1.39,0-2.48-1.12-2.48-2.49s1.1-2.45,2.48-2.45,2.48,1.08,2.48,2.45-1.1,2.49-2.48,2.49Zm0-.81c.9,0,1.66-.77,1.66-1.67s-.76-1.64-1.66-1.64-1.66.74-1.66,1.64.76,1.67,1.66,1.67Z"/>
</svg>