<?xml version="1.0" encoding="UTF-8"?>
<svg id="_テキスト" data-name="テキスト" xmlns="http://www.w3.org/2000/svg" viewBox="0 0 618 20">
  <defs>
    <style>
      .cls-1 {
        fill: #444;
      }
    </style>
  </defs>
  <path class="cls-1" d="m5.93,3.35c.94,1.58,1.87,3.35,2.77,5.24,1.76-.97,3.15-1.66,4.68-2.47-.07-.29-.09-.4-.09-.49,0-.2.11-.29.23-.29.11,0,.23.07.36.23.27.34.59.79.94,1.39-2.05.9-4.05,1.76-6.32,3.08-2.18,1.26-3.29,2.32-3.29,3.73s1.01,1.96,4.43,1.96c1.67,0,3.78-.18,5.53-.38l.11,1.3c-1.82.2-3.83.31-5.89.31-3.83,0-5.38-1.1-5.38-3.22,0-1.55.94-2.99,3.62-4.54-.97-2.11-1.84-3.73-2.79-5.33l1.1-.52Z"/>
  <path class="cls-1" d="m22.91,11.52c-.45.61-.74,1.33-.74,1.85,0,1.22.92,1.93,4.97,1.93,2.14,0,3.67-.11,5.46-.4l.05,1.33c-1.76.2-3.4.32-5.44.32-4.56,0-6.28-1.01-6.28-3.15,0-.79.38-1.78.9-2.52l1.08.63Zm-.36-6.9c.58-.02,1.15-.04,1.73-.04,1.89,0,4.65.16,6.9.5l-.13,1.22c-2.2-.32-4.84-.5-6.82-.52-.59,0-1.17.02-1.76.05l.09-1.22Z"/>
  <path class="cls-1" d="m40.64,3.35c.94,1.58,1.87,3.35,2.77,5.24,1.76-.97,3.15-1.66,4.68-2.47-.07-.29-.09-.4-.09-.49,0-.2.11-.29.23-.29.11,0,.23.07.36.23.27.34.59.79.94,1.39-2.05.9-4.05,1.76-6.32,3.08-2.18,1.26-3.29,2.32-3.29,3.73s1.01,1.96,4.43,1.96c1.67,0,3.78-.18,5.53-.38l.11,1.3c-1.82.2-3.83.31-5.89.31-3.83,0-5.38-1.1-5.38-3.22,0-1.55.94-2.99,3.62-4.54-.97-2.11-1.84-3.73-2.79-5.33l1.1-.52Z"/>
  <path class="cls-1" d="m55.1,16.42c2.14-5.01,4.21-9.29,6.09-13.02-.29-.29-.4-.41-.4-.56,0-.11.09-.16.22-.16.22,0,.47.09,1.67.72-1.62,3.03-2.56,4.9-3.58,6.91l-.47.74.07.04c1.04-1.39,2.11-2.07,3.08-2.07,1.4,0,1.94.92,1.94,3.22,0,3.26.36,3.8,1.46,3.8,1.66,0,3.71-1.78,4.2-5.73.34.23.83.47,1.21.63-.56,3.82-2.72,6.36-5.47,6.36-1.76,0-2.61-.79-2.61-3.96,0-2.27-.11-3.26-.94-3.26s-2.09.94-3.19,2.39c-.68.92-1.12,2.09-2.07,4.41l-.16.11-1.03-.41-.02-.16Z"/>
  <path class="cls-1" d="m83.33,12.51c1.6,2.75,3.85,3.76,7.2,4.5-.31.36-.56.68-.76,1.12-3.31-.83-5.65-2.23-7.26-5-.31.95-.81,1.76-1.46,2.43-1.46,1.53-3.1,2.18-5.62,2.63-.22-.38-.43-.67-.86-1.01,2.83-.38,4.48-1.13,5.64-2.38.59-.65,1.04-1.37,1.3-2.29h-4.27l-2.7.07v-1.1l2.7.07h4.45c.04-.27.05-.58.05-.88,0-.61-.05-1.22-.14-1.66,1.75.07,1.93.22,1.93.4s-.2.29-.59.43c0,.65-.02,1.21-.07,1.71h4.99l2.7-.07v1.1l-2.7-.07h-4.52Zm-1.46-9.24c0-.52-.04-.95-.13-1.39,1.64.09,1.89.22,1.89.4,0,.14-.13.27-.58.38v1.22h4.41l2.63-.07.07.07-.07,1.69.07,2.05h-1.21v-2.75h-4.54v2.52c0,.58.2.61,1.17.61,1.55,0,1.67-.16,1.67-1.35.31.2.77.36,1.12.45-.07,1.69-.85,1.87-2.83,1.87-1.76,0-2.23-.09-2.23-1.3v-2.81h-2.92c.94.22,1.28.38,1.28.56,0,.22-.11.27-.63.34-.38,2.47-1.87,3.35-4.38,3.96-.16-.32-.43-.7-.74-.97,2.7-.43,3.82-1.24,4.03-3.89h-3.85v2.75h-1.22l.07-2.05-.07-1.69.07-.07,2.63.07h4.27v-.61Z"/>
  <path class="cls-1" d="m105.58,4.82c-1.4.49-2.75.86-4.07,1.15.38.77.81,1.51,1.28,2.21,1.35-.36,2.75-.86,4.14-1.53l.49.96c-1.35.61-2.68,1.1-3.98,1.46.61.83,1.53,1.85,2.41,2.5l.07.16-.18.7-.14.09c-1.24,0-2.59.02-3.84.05l-.04-.88c.72-.07,1.46-.16,2.18-.23-.54-.61-1.17-1.37-1.67-2.09-1.82.43-3.53.61-4.97.61-.5,0-1.49-.09-2.32-.31l.4-.92c.65.09,1.49.2,2.12.2,1.15,0,2.59-.14,4.16-.49-.45-.74-.86-1.51-1.26-2.29-1.66.31-3.29.47-4.97.5l-.09-1.06c1.58,0,3.08-.14,4.59-.41-.31-.65-.54-1.3-.77-1.93-.5-.05-.63-.16-.63-.31,0-.13.2-.22.4-.25.25-.05.52-.09,1.37-.18.22.94.43,1.53.81,2.43,1.31-.29,2.67-.68,4.12-1.19l.4,1.03Zm-8.82,8.39c.22,2.7,3.11,2.79,5.35,2.79.79,0,1.51-.04,2.56-.11l-.02,1.24c-.92.09-1.71.11-2.56.11-2.88,0-6.27-.49-6.37-3.96l1.04-.07Z"/>
  <path class="cls-1" d="m111.44,6.1v-1.1l2.16.07h2.11l2.16-.07v1.1l-2.16-.07h-2.11l-2.16.07Zm2.12,10.98v1.12h-1.13l.07-2.16v-2.09l-.07-1.37.09-.07,1.71.07h1.42l1.71-.07.09.07-.05,1.37v1.78l.09,2.16h-1.13v-.81h-2.79Zm-1.01-13.5v-1.1l1.62.07h1.53l1.62-.07v1.1l-1.62-.07h-1.53l-1.62.07Zm0,5.02v-1.1l1.62.07h1.53l1.62-.07v1.1l-1.62-.07h-1.53l-1.62.07Zm0,2.5v-1.1l1.62.07h1.53l1.62-.07v1.1l-1.62-.07h-1.53l-1.62.07Zm3.8,2.36h-2.79v2.74h2.79v-2.74Zm6.18-10.17c0-.52-.05-.99-.14-1.42,1.64.05,1.85.18,1.85.38,0,.16-.18.31-.58.43v2.16h1.82l2.7-.07v1.12l-2.7-.07h-1.82v2.95h.99l2.7-.07v1.12l-2.7-.07h-3.08l-2.7.07v-1.12l2.7.07h.95v-2.95h-1.44l-2.7.07v-1.12l2.7.07h1.44v-1.55Zm-1.96,13.74v1.1h-1.19l.07-2.63v-1.53l-.07-2.09.07-.07,2.09.07h3.1l2.09-.07.07.07-.07,2.09v1.48l.07,2.63h-1.19v-1.04h-5.04Zm5.04-4.23h-5.04v3.31h5.04v-3.31Z"/>
  <path class="cls-1" d="m138.37,14.28c-.41-.29-.77-.58-1.12-.88-.59.65-1.17,1.15-1.69,1.51-.99.7-1.67.97-2.14.97-1.17,0-1.87-1.35-1.87-2.92,0-2.16,1.13-3.84,2.75-4.95-.22-1.01-.32-2.14-.38-3.4-.4-.11-.56-.22-.56-.38,0-.09.07-.16.29-.18.43-.02.95-.02,1.44-.02.02,1.31.11,2.41.27,3.35,1.42-.72,3.06-1.08,4.57-1.08h.31c.29-1.03.43-1.69.54-2.39-.34-.22-.47-.36-.47-.49s.11-.2.25-.2c.25,0,.7.09,1.58.31-.16,1.01-.34,1.71-.72,2.95,3.56.68,4.57,3.19,4.57,4.99,0,2.99-2.54,5.53-7.18,5.69-.13-.38-.31-.79-.5-1.17h.34c3.24,0,6-1.71,6-4.7,0-1.71-1.42-3.51-3.62-3.76-.81,1.93-1.89,3.62-2.97,4.93.32.27.67.54,1.03.81l-.72,1.01Zm-5.67-1.55c0,1.13.41,1.84.83,1.84.45,0,.63-.13,1.03-.4.56-.38,1.21-.94,1.85-1.62-.85-1.01-1.46-2.16-1.84-3.42-1.19,1.06-1.87,2.41-1.87,3.6Zm4.52-1.1c1.04-1.26,2-2.79,2.56-4.3h-.31c-1.51,0-2.85.41-3.91,1.06.27,1.21.85,2.32,1.66,3.24Z"/>
  <path class="cls-1" d="m162.94,5.35c-2.07.18-3.38.52-4.63,1.4-1.66,1.15-2.65,2.86-2.65,4.93,0,3.38,3.17,4.09,5.96,4.09.22,0,.45,0,.67-.02l-.04,1.41h-.29c-3.6,0-7.51-1.03-7.51-5.38,0-2.2,1.03-4.03,2.52-5.28.38-.25.76-.49,1.21-.72l-1.46.29c-2.21.32-4.27.59-6.99.97l-.22-1.24c4.93-.54,8.9-1.1,13.22-1.75l.13.07.14,1.13-.07.09Z"/>
  <path class="cls-1" d="m175.95,6.86c1.21-1.15,2.3-2.39,3.28-3.73.25-.34.43-.68.58-1.04,1.19.59,1.48.83,1.48,1.03,0,.18-.23.23-.76.23-.94,1.24-1.96,2.41-3.1,3.51h3.02l2.7-.07v1.12l-2.7-.07h-4.07c-.86.77-1.78,1.49-2.74,2.18,1.62-.13,3.39-.36,4.88-.65.38-.07.72-.18,1.06-.36.97.7,1.17.94,1.17,1.1,0,.2-.07.27-.31.27-.16,0-.4-.04-.76-.11-2.2.38-4.48.61-6.9.76-.07.49-.16.97-.25,1.46h6.45l2.09-.07.07.07-.09.94c-.13,1.24-.31,2.27-.56,3.13-.38,1.28-1.03,1.69-2.4,1.69h-1.33c-.11-.45-.23-.81-.52-1.3.58.09,1.12.13,1.69.13.99,0,1.21-.16,1.42-.81.23-.7.4-1.73.49-2.84h-7.47c-.13.61-.23,1.22-.36,1.84l-1.17-.09c.31-1.24.54-2.5.74-3.76-1.35.85-2.77,1.6-4.25,2.3-.23-.38-.52-.63-.9-.83,3.19-1.3,6-2.99,8.41-5.04h-5.13l-2.7.07v-1.12l2.7.07h3.21v-2.09h-1.69l-2.7.07v-1.1l2.7.07h1.69v-.63c0-.52-.05-.99-.14-1.42,1.69.11,1.87.23,1.87.43,0,.16-.16.29-.59.4v1.22h.83l2.7-.07v1.1l-2.7-.07h-.83v2.09h1.89Z"/>
  <path class="cls-1" d="m196.77,6.26c.79.79.94,1.01.94,1.13,0,.14-.14.25-.77.45-1.33,1.01-2.2,1.76-3.51,3.03,1.22,0,1.93.61,1.93,1.98v1.31c0,1.53.29,1.64,1.96,1.64,1.12,0,2.36-.22,3.78-.68l.49,1.24c-1.51.41-3.13.68-4.34.68-2.43,0-3.1-.49-3.1-2.14v-1.67c0-1.06-.32-1.51-.83-1.51-.56,0-1.35.54-2.81,1.95-1.01.97-1.8,1.82-2.92,3.08l-.2.05-.95-.56-.05-.18c1.85-1.98,3.08-3.13,4.97-4.9,1.62-1.51,2.65-2.43,3.75-3.22l-.02-.09c-1.6.32-4.03.59-6.84.7l-.04-1.28c2.83-.04,5.31-.23,7.96-.63l.41-.38h.2Zm-6.75-3.22c2.57,0,5.02.22,7.24.56l-.14,1.17c-2.63-.38-4.59-.56-7.17-.56l.07-1.17Z"/>
  <path class="cls-1" d="m206.04,5.49c1.91-.16,3.85-.29,5.82-.34v-1.89c-.47-.13-.63-.27-.63-.43,0-.14.16-.2.38-.2s.54,0,1.53.04c-.04.88-.05,1.69-.07,2.43.97-.02,1.93-.04,2.88-.04.68,0,1.55.02,2.23.04l.04,1.08c-.68-.02-1.57-.04-2.25-.04-.9,0-1.89.02-2.92.04-.02.5-.02.95-.02,1.35s0,.9.02,1.46c1.28-.11,2.67-.31,4.21-.56l.25,1.08c-1.49.27-2.99.47-4.43.59.04,1.17.09,2.45.13,3.53,1.67.67,3.46,1.55,5.17,2.47l-.7,1.13c-1.42-.88-2.99-1.66-4.43-2.34-.18,1.84-1.48,2.52-3.12,2.52-2.47,0-3.73-1.1-3.73-2.23,0-1.03,1.64-2.3,3.73-2.3.38,0,1.24.16,1.87.36-.04-.97-.07-2.03-.11-3.06-.72.05-1.44.07-2.12.07-1.55,0-2.48-.4-3.15-.79l.68-.85c.63.36,1.28.54,2.47.54.67,0,1.37-.02,2.11-.07-.02-.54-.02-1.04-.02-1.48v-1.39c-1.91.05-3.91.16-5.74.32l-.07-1.04Zm3.96,8.46c-1.35,0-2.41.67-2.41,1.24,0,.52.92,1.1,2.54,1.1,1.26,0,1.87-.76,1.87-1.85-.72-.29-1.49-.49-2-.49Z"/>
  <path class="cls-1" d="m232.26,5.35h.65c1.64,0,3.29,0,4.93.05l-.02,1.17c-2.02-.13-3.46-.14-4.88-.14h-.68v3.26c.27.74.38,1.37.38,2.14,0,3.03-1.39,5.06-5.67,5.67-.13-.36-.32-.72-.59-1.12,3.62-.36,4.99-2.27,5.08-3.76-.36.56-1.08.95-2.3.95-1.53,0-2.25-.74-2.25-2.09,0-1.75,1.6-3.48,2.97-3.48.45,0,.92.13,1.24.56-.02-.7-.02-1.4-.04-2.11-1.91.04-4.29.16-7.56.4l-.05-1.15c3.31-.18,5.73-.29,7.6-.34,0-.72-.02-1.44-.02-2.16-.45-.16-.61-.27-.61-.41,0-.13.11-.23.32-.23.4,0,1.04.02,1.57.04l-.05,1.12v1.64Zm-4.29,6.01c0,.81.36,1.13,1.48,1.13s1.73-.79,1.78-1.78c-.23-1.24-.95-1.62-1.42-1.62-.68,0-1.84,1.04-1.84,2.27Z"/>
  <path class="cls-1" d="m244.76,18.24c-1.39,0-2.48-1.12-2.48-2.49s1.1-2.45,2.48-2.45,2.48,1.08,2.48,2.45-1.1,2.49-2.48,2.49Zm0-.81c.9,0,1.66-.77,1.66-1.67s-.76-1.64-1.66-1.64-1.66.74-1.66,1.64.76,1.67,1.66,1.67Z"/>
</svg>