<?xml version="1.0" encoding="UTF-8"?>
<svg id="_テキスト" data-name="テキスト" xmlns="http://www.w3.org/2000/svg" viewBox="0 0 618 20">
  <defs>
    <style>
      .cls-1 {
        fill: #444;
      }
    </style>
  </defs>
  <path class="cls-1" d="m8.81,1.74v.79H3.5v12.84h-.86V1.74h6.18Z"/>
  <path class="cls-1" d="m14.01,5.65c1.91-.16,3.85-.29,5.82-.34v-1.89c-.47-.13-.63-.27-.63-.43,0-.14.16-.2.38-.2s.54,0,1.53.04c-.04.88-.05,1.69-.07,2.43.97-.02,1.93-.04,2.88-.04.68,0,1.55.02,2.23.04l.04,1.08c-.68-.02-1.57-.04-2.25-.04-.9,0-1.89.02-2.92.04-.02.5-.02.95-.02,1.35s0,.9.02,1.46c1.28-.11,2.67-.31,4.21-.56l.25,1.08c-1.49.27-2.99.47-4.43.59.04,1.17.09,2.45.13,3.53,1.67.67,3.46,1.55,5.17,2.47l-.7,1.13c-1.42-.88-2.99-1.66-4.43-2.34-.18,1.84-1.48,2.52-3.12,2.52-2.47,0-3.73-1.1-3.73-2.23,0-1.03,1.64-2.3,3.73-2.3.38,0,1.24.16,1.87.36-.04-.97-.07-2.03-.11-3.06-.72.05-1.44.07-2.12.07-1.55,0-2.48-.4-3.15-.79l.68-.85c.63.36,1.28.54,2.47.54.67,0,1.37-.02,2.11-.07-.02-.54-.02-1.04-.02-1.48v-1.39c-1.91.05-3.91.16-5.74.32l-.07-1.04Zm3.96,8.46c-1.35,0-2.41.67-2.41,1.24,0,.52.92,1.1,2.54,1.1,1.26,0,1.87-.76,1.87-1.85-.72-.29-1.49-.49-2-.49Z"/>
  <path class="cls-1" d="m40.18,5.65h.65c2.48,0,3.56,0,4.93.05l-.02,1.17c-2.02-.13-3.46-.14-4.88-.14h-.68v3.26c.27.74.38,1.37.38,2.14,0,3.02-1.39,5.06-5.67,5.67-.13-.36-.32-.72-.59-1.12,3.62-.36,4.99-2.27,5.08-3.76-.36.56-1.08.95-2.3.95-1.53,0-2.25-.74-2.25-2.09,0-1.75,1.6-3.47,2.97-3.47.45,0,.92.13,1.24.56-.02-.7-.02-1.4-.04-2.11-1.91.04-4.29.16-7.56.4l-.05-1.15c3.31-.18,5.73-.29,7.6-.34,0-.72-.02-1.44-.02-2.16-.45-.16-.61-.27-.61-.41,0-.13.11-.23.32-.23.4,0,1.04.02,1.57.04l-.05,1.12v1.64Zm-4.29,6.01c0,.81.36,1.13,1.48,1.13s1.73-.79,1.78-1.78c-.23-1.24-.95-1.62-1.42-1.62-.68,0-1.84,1.04-1.84,2.27Zm6.95-9.67c.97.88,1.6,1.6,2.3,2.74l-.86.65c-.63-1.08-1.3-1.95-2.27-2.85l.83-.54Zm2.3-.67c.95.9,1.46,1.44,2.16,2.58l-.81.63c-.65-1.06-1.17-1.71-2.14-2.61l.79-.59Z"/>
  <path class="cls-1" d="m51.54,17.68c-.54-1.78-.76-3.62-.76-5.49,0-2.97.38-5.67,1.06-8.37-.36-.23-.47-.36-.47-.49,0-.11.11-.14.25-.14.23,0,.63.09,1.58.38-.81,2.9-1.21,5.98-1.21,8.37,0,2.02.29,3.69.74,5.46l-1.21.29Zm3.29-10.96c1.06.05,2.32.07,3.39.07.56,0,1.17-.02,1.84-.04-.02-.9-.02-1.82-.04-2.72-.43-.13-.63-.25-.63-.43,0-.13.16-.2.41-.2s.83.02,1.49.05c-.02.54-.02,1.03-.02,1.49,0,.63,0,1.21.02,1.73.92-.05,1.94-.13,3.04-.25l.02,1.15c-1.1.09-2.09.16-3.06.23.02,1.78.07,4.23.18,6.23.95.54,2.12,1.21,3.17,1.93l-.77,1.1c-.85-.65-1.73-1.24-2.59-1.76-.54,1.26-1.64,1.94-3.24,1.94-1.91,0-3.17-.9-3.17-2.07s1.6-2.27,2.92-2.27c.76,0,1.66.16,2.45.52-.07-1.46-.13-3.78-.18-5.56-.83.04-1.64.05-2.5.05-.72,0-1.62,0-2.7-.04l-.02-1.17Zm2.9,7.24c-.85,0-1.71.63-1.71,1.17,0,.47.67,1.03,1.67,1.03,1.33,0,2.12-.47,2.41-1.48-.72-.45-1.62-.72-2.38-.72Z"/>
  <path class="cls-1" d="m70.89,17.25v1.15h-1.24l.07-2.7V6.82l-.07-2.63.07-.07,2.63.07h1.84c.2-.41.38-.85.54-1.33.14-.43.22-.68.27-1.04,1.51.32,1.78.47,1.78.63,0,.2-.14.27-.68.32-.2.45-.45.97-.7,1.42h3.85l2.63-.07.07.07-.07,2.63v8.84l.07,2.7h-1.24v-1.12h-9.81Zm9.81-12.05h-9.81v2.88h9.81v-2.88Zm0,3.89h-9.81v2.97h9.81v-2.97Zm0,3.98h-9.81v3.15h9.81v-3.15Z"/>
  <path class="cls-1" d="m91.43,3.17c1.48.34,1.76.47,1.76.68,0,.14-.16.29-.7.34-1.17,3.02-3.06,5.56-5.13,7.08-.2-.31-.52-.61-.86-.86,2.07-1.46,3.76-3.8,4.63-6.14.14-.4.25-.77.31-1.1Zm2.95,7.54c-.2,4.09-1.71,6.5-6.45,7.42-.14-.34-.47-.76-.7-1.01,4-.63,5.71-2.43,5.91-6.41h-.7l-2.7.07v-1.19l2.7.07h5.46l2.09-.07.07.07-.07,2.2c-.05,1.84-.11,3.1-.27,3.91-.32,1.67-1.28,2.14-2.81,2.14h-.97c-.09-.43-.27-.86-.5-1.21.68.07.97.09,1.44.09,1.31,0,1.62-.56,1.78-2,.13-1.08.16-2.74.16-4.09h-4.43Zm3.13-8.46c1.31,3.46,3.19,5.89,5.83,7.69-.32.23-.65.58-.95.97-2.56-1.89-4.54-4.56-5.96-8.3l1.08-.36Z"/>
  <path class="cls-1" d="m119.57,5.51c-2.07.18-3.38.52-4.63,1.4-1.66,1.15-2.65,2.86-2.65,4.93,0,3.38,3.17,4.09,5.96,4.09.22,0,.45,0,.67-.02l-.04,1.41h-.29c-3.6,0-7.51-1.03-7.51-5.38,0-2.2,1.03-4.03,2.52-5.28.38-.25.76-.49,1.21-.72l-1.46.29c-2.21.32-4.27.59-6.99.97l-.22-1.24c4.93-.54,8.9-1.1,13.22-1.75l.13.07.14,1.13-.07.09Zm-2.09,2.39c1.03.81,1.71,1.49,2.48,2.57l-.81.7c-.7-1.03-1.42-1.84-2.47-2.66l.79-.61Zm1.87-1.26c1.01.83,1.55,1.33,2.34,2.41l-.77.68c-.72-1.01-1.28-1.62-2.32-2.45l.76-.65Z"/>
  <path class="cls-1" d="m125.4,9.11c1.15-.45,2.43-.92,3.76-1.39-.34-1.08-.7-2.21-1.1-3.4-.47-.02-.67-.09-.67-.25,0-.09.14-.18.29-.23.41-.14.9-.25,1.48-.38.4,1.24.79,2.52,1.19,3.83,2.47-.83,4.95-1.49,6.43-1.49,1.96,0,3.82.99,3.82,3.33,0,1.86-1.55,3.4-3.96,3.4-1.19,0-2.18-.23-3.17-.83.22-.41.34-.63.49-1.08.92.54,1.8.7,2.56.7,1.57,0,2.81-.88,2.81-2.25,0-1.62-1.28-2.16-2.5-2.16s-3.67.63-6.14,1.46c.86,2.93,1.73,6,2.57,9.15l-1.28.36c-.86-3.37-1.58-6.1-2.48-9.07-1.22.47-2.25.9-3.58,1.49l-.5-1.19Zm8.26-6.43c.86.61,1.55,1.24,2.23,2l-.92.77c-.74-.86-1.48-1.55-2.27-2.11l.95-.67Z"/>
  <path class="cls-1" d="m145.69,9.6c3.58-.85,5.49-1.15,7.18-1.15,2.92,0,4.5,1.31,4.5,3.76,0,2-1.1,3.42-3.19,4.29-1.39.56-2.59.79-4.75,1.1-.13-.36-.31-.74-.54-1.08,2.09-.27,3.28-.49,4.57-.99,1.75-.68,2.59-1.8,2.59-3.4,0-1.73-1.06-2.57-3.28-2.57-1.55,0-3.24.31-6.82,1.24l-.27-1.19Z"/>
  <path class="cls-1" d="m174.68,5.51c-2.07.18-3.38.52-4.63,1.4-1.66,1.15-2.65,2.86-2.65,4.93,0,3.38,3.17,4.09,5.96,4.09.22,0,.45,0,.67-.02l-.04,1.41h-.29c-3.6,0-7.51-1.03-7.51-5.38,0-2.2,1.03-4.03,2.52-5.28.38-.25.76-.49,1.21-.72l-1.46.29c-2.21.32-4.27.59-6.99.97l-.22-1.24c4.93-.54,8.89-1.1,13.22-1.75l.13.07.14,1.13-.07.09Z"/>
  <path class="cls-1" d="m180.63,3.73c1.94,0,3.89-.05,5.83-.16-.25,2.58-.7,4.95-1.01,6.05,1.55.13,3.02.38,4.52.79.04-.65.07-1.39.07-2.05,0-.49-.02-.88-.04-1.22-.29-.11-.54-.23-.54-.41,0-.11.11-.2.34-.2.32,0,.88.04,1.46.09.02.41.04.9.04,1.37,0,1.26-.04,2.11-.09,2.81.95.31,1.93.67,2.95,1.1l-.47,1.19c-.88-.41-1.76-.77-2.61-1.06-.59,3.75-2.81,5.06-5.89,5.76-.18-.31-.34-.58-.65-.95,3.56-.72,4.92-2.5,5.31-5.22-1.8-.54-3.42-.85-4.75-.97-.76,2.23-1.82,3.75-2.48,4.48-.5.56-1.12.94-1.89.94-.85,0-1.89-.77-1.89-2.29,0-2.77,2.59-4.25,5.22-4.25h.14c.41-1.31.76-3.29.88-4.81-1.15.05-2.68.11-4.45.13l-.02-1.1Zm-.65,9.87c0,.88.49,1.22.74,1.22.34,0,.67-.11,1.06-.56.74-.83,1.4-1.85,2.07-3.64-1.93.02-3.87,1.13-3.87,2.97Z"/>
  <path class="cls-1" d="m202.93,9.49c1.35-.61,2.39-.83,3.48-.83,2.74,0,4.84,1.48,4.84,4.07,0,2.83-2.36,4.84-6.39,4.84-2.48,0-3.8-1.15-3.8-2.59,0-1.28,1.08-2.05,2.32-2.05,1.48,0,2.72,1.13,3.22,2.56l-1.04.61c-.56-1.42-1.31-2.09-2.14-2.09-.61,0-1.24.45-1.24.94,0,.95,1.01,1.49,2.57,1.49,3.02,0,5.13-1.35,5.13-3.8,0-1.39-1.06-2.94-3.71-2.94-2.25,0-4.23.96-6.32,3.17l-.16.02-.79-.72v-.14c3.1-3.12,4.99-4.97,7.49-7.31-1.85.25-3.75.41-6.14.47l-.05-1.21c2.25-.04,4.95-.22,7.11-.52l.4-.32h.16c.92.76,1.06,1.04,1.06,1.19,0,.22-.18.27-.77.47-1.62,1.46-2.83,2.63-4.25,3.87l-1.03.74.05.09Z"/>
  <path class="cls-1" d="m216.68,18.67v-.79h5.31V5.04h.86v13.63h-6.18Z"/>
  <path class="cls-1" d="m238.23,5.24c.74.04,1.44.05,2.12.05.74,0,1.44-.02,2.16-.05.34-.61.65-1.28.95-2-.29-.13-.47-.27-.47-.43,0-.09.11-.14.32-.14.16,0,1.12.14,1.64.25-.4.86-.76,1.6-1.1,2.23,1.48-.11,3.02-.29,4.83-.52l.14,1.12c-2.02.25-3.83.43-5.62.54-.72,1.17-1.37,1.98-2.16,2.67l.05.05c.77-.41,1.57-.56,2.25-.56,1.35,0,2.11.83,2.25,2.23,1.67-.65,3.15-1.13,4.68-1.69-.04-.16-.05-.29-.05-.4,0-.22.09-.29.2-.29s.16.05.25.14c.38.45.7.99.9,1.49-2.03.59-4.12,1.26-5.89,1.89.05.9.09,1.98.11,2.97l-1.24.02c0-.86-.02-1.8-.05-2.54-.25.09-.5.2-.74.29-1.35.54-2.61,1.37-2.61,2.36,0,1.15.85,1.48,2.77,1.48,2.65,0,4.54-.2,5.76-.34l.04,1.26c-1.37.13-3.02.23-5.67.23s-4.07-.77-4.07-2.57c0-1.58,1.64-2.63,2.92-3.19.52-.23,1.03-.45,1.51-.65-.14-1.24-.36-1.75-1.57-1.75-1.28,0-2.34.68-3.94,1.94l-.18-.05-.61-.85.02-.13c1.51-1.21,2.72-2.45,3.71-3.98-.58.02-1.13.04-1.71.04-.63,0-1.26-.02-1.89-.04l-.02-1.1Z"/>
  <path class="cls-1" d="m259.52,11.14c-.88,1.64-2.02,2.93-3.33,4.14-.25-.31-.56-.56-.92-.79,1.44-1.24,2.43-2.47,3.12-3.89-.22-.23-.38-.43-.38-.54,0-.13.11-.18.22-.18.13,0,.49.13,1.64.76l-.34.5Zm7.33-4.41l2.74-.07v1.3l-2.74-.05h-3.39v6.23c0,.68.04,1.19.04,1.62,0,1.1-.56,1.64-1.53,1.64-.67,0-1.57-.18-2.63-.54.07-.4.09-.81.09-1.17.97.31,1.71.45,2.23.45.36,0,.52-.16.52-.76v-7.47h-3.64l-2.74.05v-1.3l2.74.07h3.64v-2.72c-.47-.31-.56-.41-.56-.54,0-.11.09-.16.31-.16s.81.11,1.66.32l-.13.86v2.23h3.39Zm-.16,3.22c1.22,1.21,2.3,2.63,3.28,4.27l-1.04.79c-.99-1.73-2.03-3.17-3.22-4.3l.99-.76Zm4.48-6.1c0,1.1-.9,1.98-1.98,1.98s-1.96-.88-1.96-1.98.88-1.96,1.96-1.96,1.98.88,1.98,1.96Zm-3.17,0c0,.67.54,1.21,1.19,1.21s1.22-.54,1.22-1.21-.56-1.21-1.22-1.21-1.19.56-1.19,1.21Z"/>
  <path class="cls-1" d="m278.03,9.07l.07,2.74h-1.44l.07-2.74v-4.7c-.52-.36-.59-.43-.59-.59,0-.07.09-.13.31-.13.31,0,.86.13,1.71.34l-.13.86v4.21Zm6.91,1.31c0,4.09-2.23,6.59-7.22,7.06-.14-.4-.32-.79-.56-1.17,4.54-.41,6.45-2.34,6.45-5.89v-6.27c-.52-.36-.59-.43-.59-.59,0-.07.09-.13.31-.13.31,0,.9.13,1.75.34l-.13.86v5.78Z"/>
  <path class="cls-1" d="m291.98,8.05c1.87.41,3.19.81,4.83,1.48l-.49,1.13c-1.55-.61-2.92-1.04-4.75-1.46l.41-1.15Zm.74,9.04c-.4-1.1-.56-1.49-.56-1.67,0-.14.09-.23.22-.23.11,0,.29.13.59.4,5.1-.67,8.53-3.64,10.79-9.63.38.47.7.77,1.03,1.04-2.18,5.74-5.69,8.82-11.06,9.89l-1.01.22Zm.29-12.96c1.91.45,3.48.95,4.99,1.75l-.58,1.15c-1.37-.76-2.9-1.28-4.83-1.71l.41-1.19Z"/>
  <path class="cls-1" d="m309.22,11.11v-1.46l2.74.09h7.96l2.74-.09v1.46l-2.74-.07h-7.96l-2.74.07Z"/>
  <path class="cls-1" d="m328.19,17.37c-.23-1.89-.32-3.44-.32-5.46s.29-4.54.94-7.83c-.38-.2-.54-.36-.54-.5,0-.13.13-.18.36-.18.25,0,.59.05,1.71.32-.88,2.92-1.21,5.78-1.21,8.28,0,1.95.09,3.39.41,5.26l-1.35.11Zm5.73-5.15c-.34.56-.5,1.04-.5,1.75,0,.76.94,1.33,3.85,1.33,1.26,0,2.97-.16,4.27-.4l.09,1.33c-1.17.18-2.86.31-4.29.31-3.62,0-5.19-.86-5.19-2.5,0-.72.18-1.42.72-2.39l1.04.58Zm-.92-6.23c1.64-.25,3.42-.38,5.01-.38,1.13,0,2,.04,2.88.13l-.02,1.19c-.95-.07-1.78-.11-3.06-.11-1.53,0-3.21.13-4.74.38l-.07-1.21Z"/>
  <path class="cls-1" d="m349.61,18.54c-.95-1.53-2.07-2.88-3.46-4.05l.99-.81c1.42,1.12,2.59,2.43,3.6,3.91l-1.13.95Z"/>
  <path class="cls-1" d="m365.37,6.3v-1.1l2.23.07h1.94l2.14-.07v1.1l-2.14-.07h-1.94l-2.23.07Zm2,10.98v1.12h-1.13l.07-2.16v-2.09l-.07-1.37.09-.07,1.53.07h1.66l1.53-.07.09.07-.05,1.37v1.75l.09,2.16h-1.13v-.77h-2.67Zm-1.01-13.5v-1.1l1.62.07h1.4l1.62-.07v1.1l-1.62-.07h-1.4l-1.62.07Zm0,5.02v-1.1l1.62.07h1.4l1.62-.07v1.1l-1.62-.07h-1.4l-1.62.07Zm0,2.5v-1.1l1.62.07h1.4l1.62-.07v1.1l-1.62-.07h-1.4l-1.62.07Zm3.67,2.36h-2.67v2.74h2.67v-2.74Zm5.11.9c.83-.13,1.71-.29,2.48-.45-.04.32-.07.63-.07.95-1.6.36-3.28.67-4.75.94,0,.32-.11.54-.27.54-.23,0-.38-.2-.88-1.55.49-.02.86-.04,1.28-.09.32-.04.7-.09,1.1-.16v-4.18h-.41l-1.62.07v-1.08l1.62.07h1.85l1.62-.07v1.08l-1.62-.07h-.32v4Zm2.21-9.09c-.02-.74-.02-1.48-.02-2.18,0-.4-.02-.81-.09-1.22,1.64.14,1.85.27,1.85.45,0,.22-.16.27-.65.4,0,.86,0,1.73.02,2.56h.85l2.7-.07v1.12l-2.7-.07h-.83c.05,1.84.14,3.35.2,3.91.2,2.11.61,4.02,1.31,5.53.4.85.59,1.08.79,1.08.29,0,.36-.85.49-2.27.34.27.74.41,1.01.52-.14,2.54-.7,3.08-1.49,3.08-.56,0-1.21-.61-1.8-1.91-.59-1.3-1.15-3.31-1.42-6.25-.07-.83-.14-2.2-.18-3.69h-2.52l-2.7.07v-1.12l2.7.07h2.48Zm2.59-3.12c.56.36,1.19.86,1.67,1.37l-.76.77c-.45-.52-1.03-1.06-1.55-1.46l.63-.68Z"/>
  <path class="cls-1" d="m388.23,10.21c-.61.76-1.28,1.48-1.96,2.11-.25-.31-.61-.59-.88-.74,1.42-1.37,2.63-2.81,3.37-4,.23-.4.49-.94.56-1.31,1.35.5,1.67.68,1.67.88,0,.25-.18.31-.83.31-.34.61-.76,1.22-1.19,1.84.81.09.9.2.9.36s-.2.27-.59.43v8.43h-1.19l.07-2.7v-3.19l.07-2.41Zm1.01-7.87c1.3.56,1.51.72,1.51.95,0,.22-.25.23-.76.18-.99,1.01-2.23,1.96-3.58,2.72-.2-.32-.49-.65-.76-.85,1.26-.67,2.38-1.5,3.04-2.2.31-.32.43-.54.54-.81Zm9.62,11.5l.07,2.86c0,1.42-.32,1.78-1.94,1.78h-1.24c-.07-.34-.25-.92-.5-1.26.68.09,1.55.11,1.94.11s.5-.16.5-.58v-7.8h-3.39l-2.7.07v-1.15l2.7.07h5.1l2.7-.07v1.15l-2.7-.07h-.54v4.88Zm-6.07-9.61v-1.13l2.7.07h2.86l2.7-.07v1.13l-2.7-.07h-2.86l-2.7.07Z"/>
  <path class="cls-1" d="m411.46,5.98c-.81-.86-1.57-1.51-2.39-2.07-.92,1.55-1.87,2.72-3.02,3.76-.22-.32-.47-.56-.79-.77,1.28-1.04,2.38-2.54,3.12-4.11.16-.34.25-.61.29-.95,1.44.34,1.66.49,1.66.67s-.16.31-.65.31c-.05.09-.11.2-.14.29.95.56,1.89,1.28,2.7,2.05l-.76.83Zm-2.99,2.11h-.25l-1.44.07v-1.04l1.44.07h1.94l1.44-.07v1.04l-1.44-.07h-.65v2.04h.65l1.8-.07v1.04l-1.8-.07h-.65v4.92c.9-.18,1.8-.38,2.59-.59-.02.29-.02.63-.02.94-1.46.41-3.56.85-5.4,1.24-.05.36-.14.49-.31.49-.22,0-.38-.16-.9-1.49.49-.02.83-.05,1.22-.11.52-.07,1.12-.16,1.76-.27v-5.11h-.9l-1.8.07v-1.04l1.8.07h.9v-2.04Zm-1.66,4.21c.38.7.72,1.66.88,2.36l-.92.4c-.18-.76-.5-1.69-.86-2.38l.9-.38Zm5.46.4c0,.14-.13.23-.56.32-.18.63-.38,1.22-.68,1.91-.31-.14-.56-.23-.86-.31.29-.63.47-1.26.61-1.93.05-.25.09-.43.11-.63,1.3.36,1.39.49,1.39.63Zm2.45-7.15l-2.05.05v-1.04l2.05.05v-1.42c0-.41-.04-.81-.14-1.24,1.75.16,1.89.27,1.89.47,0,.14-.2.29-.65.38v1.82h2.39v-1.42c0-.41-.04-.81-.14-1.24,1.75.16,1.89.27,1.89.47,0,.14-.2.29-.65.38v1.82h.14l2.16-.05v1.04l-2.16-.05h-.14v2.83h.63l2.16-.05v1.08l-2.16-.05h-5.69l-2.16.05v-1.08l2.16.05h.47v-2.83Zm-.13,12.1v.9h-1.15l.07-2.81v-2.72l-.05-2.09.07-.07,2.09.07h2.94l2.09-.07.07.07-.05,2.09v2.7l.07,2.77h-1.17v-.85h-4.97Zm4.97-5.78h-4.97v1.94h4.97v-1.94Zm0,2.84h-4.97v2h4.97v-2Zm-1.35-6.34v-2.83h-2.39v2.83h2.39Z"/>
  <path class="cls-1" d="m425.31,6.26v-1.1l2.23.07h1.96l2.14-.07v1.1l-2.14-.07h-1.96l-2.23.07Zm2,10.98v1.12h-1.13l.07-2.16v-2.09l-.07-1.37.09-.07,1.53.07h1.66l1.53-.07.09.07-.05,1.37v1.75l.09,2.16h-1.13v-.77h-2.66Zm-1.01-13.5v-1.1l1.62.07h1.4l1.62-.07v1.1l-1.62-.07h-1.4l-1.62.07Zm0,5.02v-1.1l1.62.07h1.4l1.62-.07v1.1l-1.62-.07h-1.4l-1.62.07Zm0,2.5v-1.1l1.62.07h1.4l1.62-.07v1.1l-1.62-.07h-1.4l-1.62.07Zm3.67,2.36h-2.66v2.74h2.66v-2.74Zm2.41,4.66c-.23-.25-.59-.52-.94-.68,1.08-.68,2.07-1.53,2.75-2.45.22-.27.41-.58.52-.9,1.21.49,1.44.65,1.44.83,0,.2-.27.29-.76.25-.77,1.12-1.89,2.11-3.02,2.95Zm9.74-5.82v1.1l-2.7-.07h-5.1l-2.7.07v-1.1l2.7.07h5.01v-1.98h-4.18l-2.63.07-.07-.07.07-2.09v-2.95c0-.52-.04-.95-.13-1.39,1.58.13,1.73.22,1.73.4,0,.2-.09.27-.54.41v4.66h4.2l2.63-.09.07.07-.07,1.55v1.39l1.71-.05Zm-6.99-4.57l-.07-.05.07-1.57v-1.89l-.07-1.55.07-.07,1.91.07h1.6l1.91-.07.07.07-.07,1.55v1.89l.07,1.55-.07.07-1.91-.07h-1.6l-1.91.07Zm4.38-.97v-3.17h-3.33v3.17h3.33Zm-.59,7.35c1.28.97,2.21,1.98,3.12,3.1l-.97.76c-.9-1.22-1.76-2.25-2.97-3.24l.83-.61Z"/>
  <path class="cls-1" d="m445.93,5.24c.74.04,1.44.05,2.12.05.74,0,1.44-.02,2.16-.05.34-.61.65-1.28.95-2-.29-.13-.47-.27-.47-.43,0-.09.11-.14.32-.14.16,0,1.12.14,1.64.25-.4.86-.76,1.6-1.1,2.23,1.48-.11,3.02-.29,4.83-.52l.14,1.12c-2.02.25-3.83.43-5.62.54-.72,1.17-1.37,1.98-2.16,2.67l.05.05c.77-.41,1.57-.56,2.25-.56,1.35,0,2.11.83,2.25,2.23,1.67-.65,3.15-1.13,4.68-1.69-.04-.16-.05-.29-.05-.4,0-.22.09-.29.2-.29s.16.05.25.14c.38.45.7.99.9,1.49-2.03.59-4.12,1.26-5.89,1.89.05.9.09,1.98.11,2.97l-1.24.02c0-.86-.02-1.8-.05-2.54-.25.09-.5.2-.74.29-1.35.54-2.61,1.37-2.61,2.36,0,1.15.85,1.48,2.77,1.48,2.65,0,4.54-.2,5.76-.34l.04,1.26c-1.37.13-3.02.23-5.67.23s-4.07-.77-4.07-2.57c0-1.58,1.64-2.63,2.92-3.19.52-.23,1.03-.45,1.51-.65-.14-1.24-.36-1.75-1.57-1.75-1.28,0-2.34.68-3.94,1.94l-.18-.05-.61-.85.02-.13c1.51-1.21,2.72-2.45,3.71-3.98-.58.02-1.13.04-1.71.04-.63,0-1.26-.02-1.89-.04l-.02-1.1Z"/>
  <path class="cls-1" d="m474.55,7.52l2.09-.07.07.07-.07,2.09v1.46l.07,2.09-.07.07-2.09-.07h-3.33v1.42h3.33l2.7-.07v1.06l-2.7-.07h-3.33v1.46h5.1l2.7-.07v1.08l-2.7-.07h-11.13l-2.7.07v-1.08l2.7.07h4.92v-1.46h-3.06l-2.7.07v-1.06l2.7.07h3.06v-1.42h-3.24l-2.02.07-.09-.09.07-2.07v-1.46l-.07-2.09.07-.07,2.09.07h3.19v-1.37h-4.74l-2.7.07v-1.08l2.7.07h4.74v-1.44c-2.03.13-4.07.2-6.18.25-.11-.34-.29-.63-.58-.97,4.52-.02,8.53-.27,11.58-.67.38-.05.72-.16,1.06-.32.97.7,1.24.97,1.24,1.17,0,.13-.07.18-.27.18-.16,0-.41-.04-.77-.14-1.69.18-3.33.32-4.97.43v1.51h4.97l2.7-.07v1.08l-2.7-.07h-4.97v1.37h3.33Zm-4.45.88h-4.18v1.46h4.18v-1.46Zm-4.18,2.32v1.55h4.18v-1.55h-4.18Zm5.29-.86h4.32v-1.46h-4.32v1.46Zm0,2.41h4.32v-1.55h-4.32v1.55Z"/>
  <path class="cls-1" d="m487.32,3.98l-.05,2.11c.29-.02.47-.02.79-.02l.18.09.27.34.02.18c-.54.77-.94,1.35-1.37,2.12l-.04.54c3.04-3.04,5.15-4.23,6.45-4.23,1.69,0,3.06,1.49,3.06,5.42,0,1.66-.11,2.95-.4,3.96.79.65,1.17.97,1.85,1.66l-.81,1.03c-.61-.7-.94-1.01-1.55-1.58-.77.99-1.82,1.42-3.02,1.42-1.75,0-2.9-.83-2.9-2.07,0-1.03,1.39-2.18,2.72-2.18.9,0,1.84.36,2.63.95.16-.77.18-1.64.18-2.74,0-3.29-.67-4.74-1.78-4.74s-3.64,1.69-6.46,4.59v3.22c0,1.06,0,2.27.02,3.51h-1.21v-4.77l.09-1.13-.61.95c-.59.72-1.24,1.62-1.84,2.36h-.16l-.76-.72.02-.18c1.13-1.31,2.3-2.9,3.35-4.52l.02-2.27c-.99.13-2,.31-2.99.54l-.18-1.1c1.1-.2,2.11-.36,3.2-.52l.05-2.77c-.41-.16-.58-.29-.58-.43,0-.13.14-.2.32-.2.25,0,.67.02,1.6.11l-.13,1.06Zm5.11,9.85c-.65,0-1.55.65-1.55,1.13,0,.59.76.97,1.8.97.79,0,1.44-.29,2.03-1.1-.68-.59-1.66-1.01-2.29-1.01Z"/>
  <path class="cls-1" d="m502.09,5.71c.56.04,1.04.07,1.6.07.61,0,1.33-.04,2.11-.09.2-.79.36-1.58.49-2.38-.4-.22-.5-.34-.5-.49,0-.11.11-.18.25-.18.23,0,.49.04,1.73.27-.18.88-.38,1.78-.61,2.68.92-.09,1.84-.2,2.66-.32l.09,1.15c-.94.13-2.02.25-3.06.32-.88,3.11-2.05,6.23-3.51,9.31l-1.21-.56c1.42-2.88,2.59-5.76,3.38-8.66-.72.05-1.37.07-1.87.07s-.97,0-1.46-.04l-.09-1.17Zm11.18,3.08c-.45.54-.65,1.04-.65,1.67,0,.7.16,1.26.59,3.13,1.35.5,2.77,1.33,3.92,2.16l-.7,1.13c-1.1-.86-2.07-1.51-3.08-1.94-.02,1.84-1.3,2.74-3.12,2.74-1.94,0-3.26-.83-3.26-2.09,0-1.37,1.13-2.47,3.28-2.47.59,0,1.1.07,1.6.16-.29-1.37-.45-2.2-.45-2.9,0-.81.22-1.44.74-2.09l1.12.49Zm-3.2,5.44c-1.39,0-1.94.63-1.94,1.26s.74,1.08,2.02,1.08,1.96-.58,1.96-1.51c0-.13,0-.4-.04-.52-.68-.18-1.17-.31-2-.31Zm2.21-8.91c1.57.38,3.15.99,4.72,1.82l-.59,1.08c-1.51-.83-3.1-1.46-4.61-1.87l.49-1.03Z"/>
  <path class="cls-1" d="m521.57,7.06c1.55-.18,2.95-.32,4.09-.43.32-1.03.59-2.05.85-3.08-.36-.14-.5-.27-.5-.41,0-.11.13-.18.29-.18.31,0,.67.07,1.62.29-.29,1.08-.61,2.18-.95,3.28.49-.04.86-.05,1.12-.05,1.93,0,2.75.65,2.75,3.15,0,1.89-.36,4.16-.97,5.85-.5,1.39-1.22,1.96-2.09,1.96-.76,0-1.98-.63-2.84-1.39.22-.32.38-.63.54-1.01.81.7,1.69,1.08,2.14,1.08s.83-.43,1.1-1.26c.56-1.66.88-3.75.88-5.22,0-1.71-.34-2.05-1.67-2.05-.31,0-.77.02-1.35.07-1.1,3.15-2.5,6.34-4.16,9.45l-1.1-.54c1.71-3.02,3.01-5.92,3.98-8.79-1.01.09-2.21.25-3.57.43l-.14-1.15Zm11.36-1.17c1.82,1.94,2.95,3.92,3.69,5.94l-1.21.7c-.61-2.14-1.96-4.38-3.55-5.96l1.06-.68Zm.36-2.88c1.03.81,1.71,1.49,2.48,2.57l-.81.7c-.7-1.03-1.42-1.84-2.47-2.66l.79-.61Zm1.87-1.26c1.01.83,1.55,1.33,2.34,2.41l-.77.68c-.72-1.01-1.28-1.62-2.32-2.45l.76-.65Z"/>
  <path class="cls-1" d="m543.77,6.17c-.38,1.82-.61,4-.74,5.55,1.42-1.3,3.29-2.38,5.83-2.38,2.81,0,4.59,1.4,4.59,3.55,0,3.02-3.6,4.65-7.96,4.65-.72,0-1.37,0-2.16-.07-.07-.38-.18-.76-.32-1.19.52.05.97.09,1.78.09,3.91-.02,7.24-.99,7.24-3.73,0-.9-.88-2.18-3.37-2.18-1.75,0-3.1.63-4.56,1.78-.43.36-.72.61-.95.97l-.18.13-1.1-.14-.09-.14c.11-2.81.31-4.54.7-7l1.28.13Zm.99-3.15c1.76.43,3.42,1.01,4.95,1.73l-.59,1.12c-1.6-.81-3.1-1.35-4.84-1.8l.49-1.04Z"/>
  <path class="cls-1" d="m560.73,9.58c-.41,1.76-1.03,3.31-2.16,5.13-.18-.32-.4-.61-.67-.86,1.21-1.82,2.21-4.39,2.59-6.99h-.36l-1.94.07v-1.08l1.94.07h.5v-2.58c0-.52-.05-.99-.14-1.42,1.6.11,1.76.23,1.76.41,0,.2-.16.31-.59.4v3.19h.47l1.66-.07v1.08l-1.66-.07h-.47v2.84l.58-.41c.59.63,1.04,1.22,1.46,1.95l-.81.63c-.34-.67-.76-1.31-1.22-1.89v2.72l.07,5.83h-1.17l.16-8.95Zm3.55,5.98c1.22-.43,2.3-.94,3.46-1.6-.04.36-.04.81-.02,1.1-1.06.65-2.16,1.21-3.35,1.73-.02.45-.11.59-.31.59s-.43-.29-.95-1.51c.47-.09.97-.23,1.17-.31Zm5.42-10.75c.34-.58.67-1.21.92-1.76.18-.4.31-.77.36-1.03,1.22.41,1.49.59,1.49.77s-.14.23-.58.25c-.29.56-.67,1.17-1.04,1.76h.86l2.7-.07v1.03l-2.7-.07h-2.05v1.48h1.3l2.52-.07v1.04l-2.52-.07h-1.3v1.64h2.27l2.7-.07v1.06l-2.7-.07h-2.27v.74c.36.79.83,1.51,1.37,2.2.47-.41.88-.86,1.22-1.35.2-.27.32-.45.47-.77,1.1.63,1.26.79,1.26.97s-.22.22-.65.2c-.58.65-1.06,1.13-1.67,1.66.86.88,1.91,1.6,3.13,2.23-.36.25-.61.56-.83.96-2.18-1.37-3.42-2.72-4.36-4.54l.11,3.91c0,1.21-.47,1.55-2.09,1.55h-.5c-.07-.41-.25-.88-.45-1.22.68.07,1.06.09,1.48.09.34,0,.43-.07.43-.58v-6.03h-2.03l-2.7.07v-1.06l2.7.07h2.03v-1.64h-1.28l-2.52.07v-1.04l2.52.07h1.28v-1.48h-1.69l-2.7.07v-1.03l2.7.07h2.81Zm-4.16,6.62c.59.38,1.22.94,1.75,1.55l-.81.77c-.52-.65-1.1-1.21-1.71-1.62l.77-.7Zm1.4-9.18c.43.41.92,1.04,1.28,1.71l-.99.59c-.38-.72-.77-1.3-1.21-1.76l.92-.54Z"/>
  <path class="cls-1" d="m590.16,6.3c1.17.92,1.31,1.1,1.31,1.3s-.09.31-.61.52c-1.17,2.61-2.43,4.46-3.85,6.16.68.43,1.66,1.13,2.32,1.64l-.85,1.03c-1.87-1.62-4.25-3.04-6.27-4.1l.74-.86c1.06.52,2.05,1.08,3.06,1.69,1.37-1.64,2.59-3.48,3.58-5.87l-6.18.14c-1.01,1.69-2.27,3.21-4.07,4.84-.27-.34-.59-.67-.9-.85,2.11-1.75,3.98-4.38,5.02-6.82.18-.43.41-.9.54-1.39,1.4.43,1.66.59,1.66.83,0,.2-.16.27-.68.31-.2.47-.65,1.44-1.01,2l5.51-.14.45-.41h.22Z"/>
  <path class="cls-1" d="m596.44,5.71c.56.04,1.04.07,1.6.07.61,0,1.33-.04,2.11-.09.2-.79.36-1.58.49-2.38-.4-.22-.5-.34-.5-.49,0-.11.11-.18.25-.18.23,0,.49.04,1.73.27-.18.88-.38,1.78-.61,2.68.92-.09,1.84-.2,2.66-.32l.09,1.15c-.94.13-2.02.25-3.06.32-.88,3.11-2.05,6.23-3.51,9.31l-1.21-.56c1.42-2.88,2.59-5.76,3.38-8.66-.72.05-1.37.07-1.87.07s-.97,0-1.46-.04l-.09-1.17Zm11.18,3.08c-.45.54-.65,1.04-.65,1.67,0,.7.16,1.26.59,3.13,1.35.5,2.77,1.33,3.92,2.16l-.7,1.13c-1.1-.86-2.07-1.51-3.08-1.94-.02,1.84-1.3,2.74-3.12,2.74-1.94,0-3.26-.83-3.26-2.09,0-1.37,1.13-2.47,3.28-2.47.59,0,1.1.07,1.6.16-.29-1.37-.45-2.2-.45-2.9,0-.81.22-1.44.74-2.09l1.12.49Zm-3.2,5.44c-1.39,0-1.94.63-1.94,1.26s.74,1.08,2.02,1.08,1.96-.58,1.96-1.51c0-.13,0-.4-.04-.52-.68-.18-1.17-.31-2-.31Zm2.21-8.91c1.57.38,3.15.99,4.72,1.82l-.59,1.08c-1.51-.83-3.1-1.46-4.61-1.87l.49-1.03Z"/>
</svg>