<?xml version="1.0" standalone="no"?>
<!DOCTYPE svg PUBLIC "-//W3C//DTD SVG 20010904//EN"
 "http://www.w3.org/TR/2001/REC-SVG-20010904/DTD/svg10.dtd">
<svg version="1.0" xmlns="http://www.w3.org/2000/svg"
 width="501.000000pt" height="501.000000pt" viewBox="0 0 501.000000 501.000000"
 preserveAspectRatio="xMidYMid meet">
<metadata>
Created by potrace 1.14, written by Peter Selinger 2001-2017
</metadata>
<g transform="translate(0.000000,501.000000) scale(0.100000,-0.100000)"
fill="#000000" stroke="none">
<path d="M488 4995 c-222 -54 -398 -228 -459 -455 -16 -60 -18 -165 -19 -1490
-3 -1765 -1 -2465 6 -2510 8 -48 43 -158 63 -195 26 -49 96 -138 138 -176 54
-49 146 -103 223 -131 l65 -23 1980 -2 c1685 -2 1989 -1 2040 11 191 46 349
177 433 359 54 117 52 32 52 2135 -1 2116 2 2003 -56 2123 -41 86 -50 99 -104
161 -81 92 -185 155 -310 189 -61 17 -184 18 -2030 18 -1632 -1 -1975 -3
-2022 -14z"/>
</g>
</svg>
