<?xml version="1.0" encoding="UTF-8"?>
<svg id="_テキスト" data-name="テキスト" xmlns="http://www.w3.org/2000/svg" viewBox="0 0 294 16">
  <defs>
    <style>
      .cls-1 {
        fill: #444;
      }
    </style>
  </defs>
  <path class="cls-1" d="m.85,4.8v-.91l1.86.06h1.62l1.79-.06v.91l-1.79-.06h-1.62l-1.86.06Zm1.67,9.15v.93h-.95l.06-1.8v-1.74l-.06-1.14.08-.06,1.27.06h1.38l1.27-.06.08.06-.04,1.14v1.46l.07,1.8h-.94v-.64h-2.22ZM1.68,2.7v-.92l1.35.06h1.17l1.35-.06v.92l-1.35-.06h-1.17l-1.35.06Zm0,4.18v-.92l1.35.06h1.17l1.35-.06v.92l-1.35-.06h-1.17l-1.35.06Zm0,2.08v-.92l1.35.06h1.17l1.35-.06v.92l-1.35-.06h-1.17l-1.35.06Zm3.06,1.96h-2.22v2.28h2.22v-2.28Zm4.26.75c.69-.1,1.42-.24,2.07-.38-.03.27-.06.53-.06.79-1.33.3-2.73.56-3.96.78,0,.27-.09.45-.23.45-.2,0-.31-.17-.73-1.29.4-.01.72-.03,1.06-.08.27-.03.58-.08.91-.13v-3.48h-.34l-1.35.06v-.9l1.35.06h1.54l1.35-.06v.9l-1.35-.06h-.27v3.33Zm1.84-7.57c-.01-.62-.01-1.23-.01-1.82,0-.33-.02-.67-.08-1.02,1.37.12,1.54.22,1.54.38,0,.18-.13.22-.54.33,0,.72,0,1.44.02,2.13h.71l2.25-.06v.93l-2.25-.06h-.69c.04,1.53.12,2.79.17,3.25.17,1.75.51,3.34,1.09,4.61.33.71.5.9.66.9.24,0,.3-.71.4-1.89.29.22.62.34.84.43-.12,2.12-.58,2.57-1.24,2.57-.47,0-1-.51-1.5-1.59s-.96-2.76-1.19-5.21c-.06-.69-.12-1.83-.15-3.08h-2.1l-2.25.06v-.93l2.25.06h2.07Zm2.16-2.59c.46.3.99.72,1.4,1.14l-.63.65c-.38-.44-.85-.89-1.29-1.22l.52-.57Z"/>
  <path class="cls-1" d="m19.01,8.05c-.51.63-1.06,1.23-1.63,1.75-.21-.25-.51-.49-.73-.61,1.18-1.14,2.19-2.34,2.8-3.33.19-.33.4-.78.46-1.09,1.12.42,1.4.57,1.4.73,0,.21-.15.25-.69.25-.29.51-.63,1.02-.99,1.53.67.08.75.17.75.3s-.17.23-.5.36v7.02h-.99l.06-2.25v-2.65l.06-2.01Zm.84-6.55c1.08.47,1.26.6,1.26.79,0,.18-.21.2-.63.15-.83.84-1.86,1.63-2.98,2.26-.17-.27-.41-.54-.63-.71,1.05-.55,1.98-1.24,2.54-1.83.25-.27.36-.45.45-.68Zm8.01,9.58l.06,2.38c0,1.19-.27,1.49-1.62,1.49h-1.03c-.06-.29-.21-.77-.42-1.05.57.07,1.29.09,1.62.09s.42-.13.42-.48v-6.49h-2.82l-2.25.06v-.96l2.25.06h4.25l2.25-.06v.96l-2.25-.06h-.45v4.06Zm-5.05-8.01v-.95l2.25.06h2.38l2.25-.06v.95l-2.25-.06h-2.38l-2.25.06Z"/>
  <path class="cls-1" d="m37.48,4.53c-.68-.72-1.31-1.26-2-1.72-.76,1.29-1.56,2.26-2.52,3.13-.18-.27-.39-.46-.66-.65,1.06-.87,1.98-2.11,2.59-3.42.14-.28.21-.51.24-.79,1.2.29,1.38.41,1.38.56s-.14.25-.54.25c-.04.08-.09.17-.12.24.79.47,1.58,1.07,2.25,1.71l-.63.69Zm-2.49,1.75h-.21l-1.2.06v-.87l1.2.06h1.62l1.2-.06v.87l-1.2-.06h-.54v1.7h.54l1.5-.06v.87l-1.5-.06h-.54v4.09c.75-.15,1.5-.32,2.16-.5-.02.24-.02.52-.02.78-1.21.34-2.97.7-4.5,1.03-.04.3-.12.41-.25.41-.18,0-.31-.13-.75-1.25.41-.01.69-.04,1.02-.09.44-.06.93-.13,1.47-.22v-4.26h-.75l-1.5.06v-.87l1.5.06h.75v-1.7Zm-1.38,3.51c.31.58.6,1.38.74,1.96l-.77.33c-.15-.63-.42-1.41-.72-1.98l.75-.32Zm4.54.33c0,.12-.1.2-.46.27-.15.53-.31,1.02-.57,1.59-.26-.12-.47-.2-.72-.26.24-.52.39-1.05.51-1.6.04-.21.07-.36.09-.53,1.08.3,1.15.41,1.15.53Zm2.04-5.96l-1.71.04v-.87l1.71.04v-1.19c0-.34-.03-.67-.12-1.04,1.46.14,1.58.23,1.58.39,0,.12-.17.24-.54.31v1.52h2v-1.19c0-.34-.03-.67-.12-1.04,1.46.14,1.58.23,1.58.39,0,.12-.17.24-.54.31v1.52h.12l1.8-.04v.87l-1.8-.04h-.12v2.36h.52l1.8-.04v.9l-1.8-.04h-4.74l-1.8.04v-.9l1.8.04h.39v-2.36Zm-.1,10.08v.75h-.96l.06-2.34v-2.27l-.04-1.74.06-.06,1.74.06h2.45l1.74-.06.06.06-.04,1.74v2.25l.06,2.31h-.97v-.71h-4.14Zm4.14-4.81h-4.14v1.62h4.14v-1.62Zm0,2.37h-4.14v1.67h4.14v-1.67Zm-1.12-5.28v-2.36h-2v2.36h2Z"/>
  <path class="cls-1" d="m48.14,4.77v-.92l1.86.06h1.63l1.79-.06v.92l-1.79-.06h-1.63l-1.86.06Zm1.67,9.15v.93h-.95l.06-1.8v-1.74l-.06-1.14.08-.06,1.28.06h1.38l1.27-.06.08.06-.04,1.14v1.46l.08,1.8h-.95v-.64h-2.22Zm-.84-11.25v-.91l1.35.06h1.17l1.35-.06v.91l-1.35-.06h-1.17l-1.35.06Zm0,4.19v-.92l1.35.06h1.17l1.35-.06v.92l-1.35-.06h-1.17l-1.35.06Zm0,2.08v-.92l1.35.06h1.17l1.35-.06v.92l-1.35-.06h-1.17l-1.35.06Zm3.06,1.96h-2.22v2.28h2.22v-2.28Zm2.01,3.88c-.19-.21-.5-.44-.78-.57.9-.57,1.72-1.27,2.29-2.04.18-.22.34-.48.43-.75,1,.41,1.2.54,1.2.69,0,.17-.23.24-.63.21-.65.93-1.58,1.75-2.52,2.46Zm8.12-4.84v.92l-2.25-.06h-4.25l-2.25.06v-.92l2.25.06h4.17v-1.65h-3.48l-2.19.06-.06-.06.06-1.74v-2.46c0-.43-.03-.79-.1-1.16,1.32.11,1.44.18,1.44.33,0,.17-.08.23-.45.35v3.88h3.5l2.19-.08.06.06-.06,1.29v1.16l1.42-.04Zm-5.82-3.81l-.06-.04.06-1.3v-1.58l-.06-1.29.06-.06,1.59.06h1.33l1.59-.06.06.06-.06,1.29v1.58l.06,1.29-.06.06-1.59-.06h-1.33l-1.59.06Zm3.65-.81v-2.64h-2.78v2.64h2.78Zm-.5,6.12c1.06.81,1.84,1.65,2.59,2.58l-.81.63c-.75-1.02-1.47-1.88-2.48-2.7l.69-.51Z"/>
  <path class="cls-1" d="m64.45,3.91c.62.03,1.2.04,1.77.04.62,0,1.2-.01,1.8-.04.29-.51.54-1.06.79-1.67-.24-.1-.39-.22-.39-.36,0-.08.09-.12.27-.12.13,0,.93.12,1.37.21-.33.72-.63,1.33-.92,1.86,1.23-.09,2.52-.24,4.02-.43l.12.93c-1.68.21-3.19.36-4.68.45-.6.97-1.14,1.65-1.8,2.22l.04.04c.64-.34,1.3-.46,1.88-.46,1.12,0,1.75.69,1.88,1.86,1.39-.54,2.62-.95,3.9-1.41-.03-.13-.04-.24-.04-.33,0-.18.08-.24.17-.24s.13.04.21.12c.32.38.58.83.75,1.25-1.7.5-3.43,1.05-4.9,1.58.04.75.07,1.65.09,2.47h-1.04c0-.71-.01-1.49-.04-2.1-.21.08-.42.17-.62.24-1.12.45-2.17,1.14-2.17,1.96,0,.96.71,1.23,2.31,1.23,2.21,0,3.78-.17,4.8-.29l.03,1.05c-1.14.11-2.52.2-4.72.2s-3.39-.64-3.39-2.14c0-1.32,1.36-2.19,2.43-2.66.43-.2.85-.38,1.26-.54-.12-1.04-.3-1.46-1.3-1.46-1.07,0-1.95.57-3.29,1.62l-.15-.04-.51-.71.02-.1c1.26-1,2.26-2.04,3.09-3.32-.48.02-.95.03-1.43.03-.52,0-1.05-.01-1.57-.03l-.02-.92Z"/>
  <path class="cls-1" d="m87.42,5.82l1.74-.06.06.06-.06,1.74v1.21l.06,1.74-.06.06-1.74-.06h-2.78v1.19h2.78l2.25-.06v.89l-2.25-.06h-2.78v1.21h4.25l2.25-.06v.9l-2.25-.06h-9.27l-2.25.06v-.9l2.25.06h4.09v-1.21h-2.55l-2.25.06v-.89l2.25.06h2.55v-1.19h-2.7l-1.68.06-.08-.08.06-1.72v-1.21l-.06-1.74.06-.06,1.74.06h2.66v-1.14h-3.95l-2.25.06v-.9l2.25.06h3.95v-1.2c-1.7.11-3.39.17-5.14.21-.09-.29-.24-.52-.48-.81,3.76-.02,7.11-.23,9.64-.56.32-.04.6-.13.88-.27.81.58,1.04.81,1.04.97,0,.11-.06.15-.22.15-.14,0-.35-.03-.65-.12-1.41.15-2.77.27-4.14.36v1.26h4.14l2.25-.06v.9l-2.25-.06h-4.14v1.14h2.78Zm-3.71.73h-3.48v1.22h3.48v-1.22Zm-3.48,1.94v1.29h3.48v-1.29h-3.48Zm4.41-.72h3.6v-1.22h-3.6v1.22Zm0,2.01h3.6v-1.29h-3.6v1.29Z"/>
  <path class="cls-1" d="m97.17,2.86l-.04,1.75c.24-.01.39-.01.66-.01l.15.08.22.28.02.15c-.45.64-.78,1.12-1.14,1.77l-.03.45c2.54-2.54,4.29-3.52,5.37-3.52,1.41,0,2.55,1.25,2.55,4.51,0,1.38-.09,2.46-.33,3.3.66.54.98.81,1.54,1.38l-.67.86c-.51-.58-.78-.84-1.29-1.32-.64.83-1.51,1.18-2.52,1.18-1.46,0-2.42-.69-2.42-1.72,0-.86,1.16-1.82,2.26-1.82.75,0,1.53.3,2.19.8.13-.65.15-1.37.15-2.28,0-2.75-.55-3.95-1.48-3.95s-3.03,1.41-5.38,3.83v2.68c0,.89,0,1.89.01,2.92h-1v-3.97l.08-.94-.51.79c-.5.6-1.04,1.35-1.53,1.96h-.13l-.63-.6v-.15c.96-1.1,1.93-2.42,2.8-3.76v-1.89c-.81.11-1.65.25-2.47.45l-.15-.92c.92-.17,1.75-.3,2.67-.43l.04-2.31c-.34-.13-.48-.24-.48-.36,0-.11.12-.17.27-.17.21,0,.55.01,1.33.09l-.11.88Zm4.26,8.21c-.54,0-1.29.54-1.29.94,0,.5.63.81,1.5.81.66,0,1.2-.24,1.69-.92-.57-.5-1.38-.84-1.9-.84Z"/>
  <path class="cls-1" d="m108.6,4.3c.47.03.87.06,1.33.06.51,0,1.11-.03,1.75-.08.17-.66.3-1.32.41-1.98-.33-.18-.42-.29-.42-.41,0-.09.09-.15.21-.15.2,0,.41.03,1.44.22-.15.73-.32,1.48-.51,2.23.77-.07,1.53-.17,2.22-.27l.07.96c-.78.1-1.68.21-2.55.27-.73,2.6-1.71,5.19-2.92,7.75l-1-.46c1.18-2.4,2.16-4.8,2.82-7.21-.6.04-1.14.06-1.56.06s-.81,0-1.21-.03l-.08-.97Zm9.32,2.56c-.38.45-.54.87-.54,1.39,0,.58.13,1.05.49,2.61,1.12.42,2.31,1.11,3.27,1.8l-.58.95c-.92-.72-1.73-1.26-2.57-1.62-.01,1.53-1.08,2.28-2.59,2.28-1.62,0-2.71-.69-2.71-1.74,0-1.14.95-2.05,2.73-2.05.49,0,.91.06,1.33.13-.24-1.14-.38-1.83-.38-2.42,0-.67.18-1.2.61-1.74l.93.41Zm-2.67,4.53c-1.16,0-1.62.52-1.62,1.05s.62.9,1.68.9,1.63-.48,1.63-1.26c0-.1,0-.33-.03-.43-.57-.15-.97-.25-1.66-.25Zm1.84-7.42c1.3.31,2.62.82,3.93,1.51l-.5.9c-1.26-.69-2.58-1.22-3.84-1.56l.41-.85Z"/>
  <path class="cls-1" d="m123.95,5.43c1.29-.15,2.46-.27,3.4-.36.27-.86.5-1.71.71-2.57-.3-.12-.42-.22-.42-.34,0-.09.1-.15.24-.15.25,0,.55.06,1.35.24-.24.9-.51,1.82-.79,2.73.41-.03.72-.04.93-.04,1.61,0,2.29.54,2.29,2.62,0,1.57-.3,3.46-.81,4.87-.42,1.16-1.02,1.64-1.74,1.64-.63,0-1.65-.53-2.37-1.16.18-.27.32-.53.45-.84.67.58,1.41.9,1.79.9s.69-.36.92-1.05c.46-1.38.73-3.12.73-4.35,0-1.42-.28-1.71-1.39-1.71-.25,0-.64.01-1.12.06-.92,2.62-2.08,5.28-3.46,7.88l-.92-.45c1.42-2.52,2.5-4.93,3.32-7.32-.84.08-1.85.21-2.97.36l-.12-.96Zm9.46-.98c1.52,1.62,2.46,3.27,3.08,4.95l-1,.58c-.51-1.79-1.63-3.65-2.96-4.96l.88-.57Zm.3-2.4c.85.67,1.42,1.25,2.07,2.14l-.67.58c-.58-.85-1.18-1.53-2.05-2.22l.66-.51Zm1.56-1.05c.84.69,1.29,1.11,1.95,2.01l-.65.57c-.6-.84-1.06-1.35-1.93-2.04l.63-.54Z"/>
  <path class="cls-1" d="m141.58,4.69c-.31,1.51-.51,3.33-.62,4.62,1.19-1.08,2.75-1.98,4.86-1.98,2.34,0,3.83,1.17,3.83,2.96,0,2.52-3,3.87-6.63,3.87-.6,0-1.14,0-1.8-.06-.06-.31-.15-.63-.27-.99.43.04.81.07,1.49.07,3.25-.01,6.03-.82,6.03-3.1,0-.75-.73-1.82-2.8-1.82-1.46,0-2.58.53-3.79,1.49-.36.3-.6.51-.79.81l-.15.11-.92-.12-.07-.12c.09-2.34.25-3.78.58-5.83l1.06.11Zm.83-2.62c1.47.36,2.85.84,4.12,1.44l-.5.93c-1.33-.67-2.58-1.12-4.04-1.5l.41-.87Z"/>
  <path class="cls-1" d="m154.83,7.53c-.34,1.47-.86,2.76-1.8,4.27-.15-.27-.33-.51-.55-.72,1-1.51,1.84-3.66,2.16-5.82h-.3l-1.62.06v-.9l1.62.06h.42v-2.14c0-.44-.04-.83-.12-1.19,1.33.09,1.47.2,1.47.34,0,.17-.14.26-.5.33v2.66h.39l1.38-.06v.9l-1.38-.06h-.39v2.37l.48-.34c.5.53.87,1.02,1.21,1.62l-.67.53c-.29-.56-.63-1.1-1.02-1.58v2.26l.06,4.86h-.97l.13-7.45Zm2.96,4.98c1.02-.36,1.92-.78,2.88-1.33-.03.3-.03.67-.02.92-.88.54-1.8,1-2.79,1.44-.02.38-.09.49-.26.49s-.36-.24-.79-1.26c.39-.08.81-.19.98-.25Zm4.51-8.95c.29-.48.55-1,.76-1.47.15-.33.25-.64.3-.85,1.02.34,1.25.5,1.25.64s-.12.2-.48.21c-.24.47-.56.98-.87,1.47h.72l2.25-.06v.86l-2.25-.06h-1.71v1.23h1.08l2.1-.06v.87l-2.1-.06h-1.08v1.36h1.89l2.25-.06v.88l-2.25-.06h-1.89v.61c.3.66.69,1.26,1.14,1.83.39-.34.73-.72,1.02-1.12.17-.22.27-.38.39-.64.92.52,1.05.66,1.05.81s-.18.18-.54.17c-.48.54-.89.95-1.4,1.38.72.74,1.59,1.33,2.61,1.86-.3.21-.51.46-.69.79-1.81-1.14-2.85-2.26-3.63-3.78l.09,3.25c0,1-.39,1.29-1.74,1.29h-.42c-.06-.34-.21-.73-.38-1.02.57.06.88.08,1.23.08.29,0,.36-.06.36-.48v-5.02h-1.7l-2.25.06v-.88l2.25.06h1.7v-1.36h-1.07l-2.1.06v-.87l2.1.06h1.07v-1.23h-1.41l-2.25.06v-.86l2.25.06h2.34Zm-3.46,5.52c.5.31,1.02.78,1.46,1.29l-.67.64c-.44-.54-.92-1-1.43-1.35l.65-.58Zm1.17-7.65c.36.34.76.87,1.06,1.42l-.82.5c-.32-.6-.65-1.08-1-1.47l.76-.45Z"/>
  <path class="cls-1" d="m178.48,4.8c.97.77,1.09.92,1.09,1.08s-.08.25-.51.44c-.97,2.17-2.03,3.72-3.21,5.13.57.36,1.38.94,1.93,1.36l-.71.86c-1.56-1.35-3.54-2.54-5.22-3.42l.62-.72c.88.43,1.71.9,2.55,1.41,1.14-1.36,2.16-2.89,2.99-4.89l-5.15.12c-.84,1.41-1.89,2.67-3.39,4.04-.22-.29-.5-.55-.75-.71,1.75-1.46,3.32-3.64,4.19-5.68.15-.36.34-.75.45-1.16,1.17.36,1.38.5,1.38.69,0,.17-.13.22-.57.25-.17.39-.54,1.2-.84,1.67l4.59-.12.38-.35h.18Z"/>
  <path class="cls-1" d="m182.83,4.3c.46.03.87.06,1.33.06.51,0,1.11-.03,1.75-.08.17-.66.3-1.32.41-1.98-.33-.18-.42-.29-.42-.41,0-.09.09-.15.21-.15.19,0,.4.03,1.44.22-.15.73-.31,1.48-.51,2.23.76-.07,1.53-.17,2.22-.27l.08.96c-.78.1-1.68.21-2.55.27-.74,2.6-1.71,5.19-2.92,7.75l-1-.46c1.18-2.4,2.16-4.8,2.82-7.21-.6.04-1.14.06-1.56.06s-.81,0-1.21-.03l-.08-.97Zm9.31,2.56c-.38.45-.54.87-.54,1.39,0,.58.13,1.05.5,2.61,1.12.42,2.31,1.11,3.27,1.8l-.58.95c-.92-.72-1.72-1.26-2.56-1.62-.02,1.53-1.08,2.28-2.59,2.28-1.62,0-2.71-.69-2.71-1.74,0-1.14.94-2.05,2.73-2.05.5,0,.92.06,1.33.13-.24-1.14-.38-1.83-.38-2.42,0-.67.18-1.2.62-1.74l.93.41Zm-2.67,4.53c-1.16,0-1.62.52-1.62,1.05s.62.9,1.68.9,1.63-.48,1.63-1.26c0-.1,0-.33-.03-.43-.57-.15-.97-.25-1.67-.25Zm1.84-7.42c1.31.31,2.62.82,3.93,1.51l-.49.9c-1.26-.69-2.58-1.22-3.84-1.56l.4-.85Z"/>
</svg>