<?xml version="1.0" encoding="UTF-8"?>
<svg id="_テキスト" data-name="テキスト" xmlns="http://www.w3.org/2000/svg" viewBox="0 0 294 16">
  <defs>
    <style>
      .cls-1 {
        fill: #444;
      }
    </style>
  </defs>
  <path class="cls-1" d="m11.32,3.97l.36-.29h.18c.66.64.96,1.04.96,1.2s-.17.25-.42.36c-2.01,4.8-4.3,7.29-8.52,8.96-.14-.24-.35-.55-.65-.86,4.24-1.68,6.45-4.23,8.01-8.44h-4.5c-.98,1.5-2.07,2.66-3.38,3.79-.25-.29-.52-.48-.82-.67,1.94-1.63,3.3-3.29,4.09-5.26-.27-.24-.36-.36-.36-.47,0-.09.09-.15.15-.15.21,0,.48.09,1.54.58-.21.45-.44.87-.66,1.26h4Z"/>
  <path class="cls-1" d="m18.67,7.27l.06,2.28h-1.2l.06-2.28v-3.92c-.44-.3-.5-.36-.5-.5,0-.06.08-.1.26-.1.25,0,.72.1,1.42.28l-.1.72v3.51Zm5.76,1.09c0,3.41-1.86,5.49-6.01,5.88-.12-.33-.27-.66-.47-.97,3.78-.35,5.37-1.95,5.37-4.91V3.15c-.44-.3-.5-.36-.5-.5,0-.06.08-.1.25-.1.26,0,.75.1,1.46.28l-.1.72v4.81Z"/>
  <path class="cls-1" d="m34.77,11.4h3.04l2.28-.06v1.09l-2.28-.06h-7l-2.28.06v-1.09l2.28.06h2.85v-5.73h-1.89l-2.28.04v-1.09l2.28.08h5.16l2.28-.08v1.09l-2.28-.04h-2.16v5.73Z"/>
  <path class="cls-1" d="m51.56,3.85c-.96,1.02-1.98,1.92-3.06,2.75.31.07.66.18.97.27l-.06.97v4.11l.06,2.29h-1.25l.06-2.28v-4.8l-.24-.24c-1.58,1.12-3.29,2.08-5.19,2.92-.18-.29-.42-.57-.67-.81,3.39-1.42,6.49-3.54,8.7-6.22-.13-.21-.24-.41-.24-.48,0-.11.09-.17.2-.17.13,0,.38.15,1.44.93l-.72.75Z"/>
  <path class="cls-1" d="m62.23,8.16c0,3.22-1.45,4.92-4.44,6.04-.17-.33-.42-.63-.66-.88,2.64-.95,3.93-2.48,3.93-5.15v-.54h-3.37l-2.28.05v-1.07l2.28.06h6.84l2.28-.06v1.07l-2.28-.05h-2.29v.53Zm-2.89-4.81h3.67l2.28-.06v1.08l-2.28-.04h-3.67l-2.28.04v-1.08l2.28.06Z"/>
  <path class="cls-1" d="m77.17,6.06c-.79.85-1.62,1.59-2.5,2.23.27.08.46.12.71.2l-.06.76v3.33l.04,1.91h-1.11l.04-1.89v-3.81l-.14-.12c-1.26.87-2.65,1.61-4.29,2.31-.17-.27-.33-.48-.62-.74,2.85-1.25,5.29-2.75,7.17-5.01-.12-.2-.2-.34-.2-.42,0-.12.06-.18.18-.18s.45.16,1.37.84l-.6.58Z"/>
  <path class="cls-1" d="m91.9,4.89c-.17,4.96-3.45,8.49-8,9.24-.13-.33-.32-.64-.55-.95,4.11-.66,7.29-3.78,7.35-8.25h-6.12l-2.26.06v-1.09l2.26.06h5.08l2.17-.06.09.08-.03.92Zm-.35-2.99c.86.67,1.42,1.25,2.07,2.15l-.67.58c-.58-.86-1.19-1.53-2.06-2.22l.66-.51Zm1.56-1.05c.84.69,1.29,1.11,1.95,2.01l-.64.57c-.6-.84-1.07-1.35-1.93-2.04l.63-.54Z"/>
  <path class="cls-1" d="m96.81,14.19c-.2-1.57-.27-2.86-.27-4.54s.24-3.78.78-6.53c-.32-.17-.45-.3-.45-.42,0-.1.11-.15.3-.15.21,0,.5.04,1.42.27-.73,2.43-1,4.81-1,6.9,0,1.62.08,2.82.35,4.38l-1.12.09Zm4.77-4.29c-.29.46-.42.87-.42,1.46,0,.63.78,1.11,3.21,1.11,1.05,0,2.47-.13,3.55-.33l.08,1.11c-.98.15-2.38.25-3.57.25-3.01,0-4.32-.72-4.32-2.08,0-.6.15-1.18.6-2l.87.48Zm-.76-5.19c1.36-.21,2.85-.31,4.17-.31.95,0,1.67.03,2.4.1v.99c-.81-.06-1.5-.09-2.57-.09-1.27,0-2.67.1-3.94.31l-.06-1Z"/>
  <path class="cls-1" d="m112.41,5.34h-.38l-1.8.06v-.93l1.8.06h.38v-2.05c0-.44-.03-.79-.1-1.16,1.32.08,1.53.18,1.53.33,0,.12-.11.22-.48.32v2.55l1.49-.04v.93l-1.49-.04v2.64c.55-.13,1.16-.31,1.79-.5,0,.27,0,.54.01.79-.57.18-1.18.38-1.8.56v1.8l.06,2.68c0,1.2-.15,1.49-1.89,1.49h-.4c-.08-.35-.26-.77-.42-1.05.57.08.93.09,1.26.09.38,0,.45-.14.45-.48v-4.25c-.45.14-.9.25-1.33.38-.06.44-.1.56-.3.56-.15,0-.27-.25-.63-1.35.42-.06.67-.1,1.02-.18.4-.09.81-.18,1.24-.29v-2.91Zm3.03,5.4c.01.41-.09.5-.25.5-.13,0-.33-.3-.76-1.29.22-.03.76-.2.93-.25.52-.21,1.32-.56,2.01-.92.03-1.42.01-3.36,0-5.83,0-.38-.01-.93-.12-1.44,1.26.12,1.54.21,1.54.41,0,.15-.12.21-.48.3-.02,4.38,0,7.09-.14,8.43-.25,2.31-1.32,3.63-3.7,4.37-.14-.3-.35-.57-.62-.79,2.25-.62,3.22-1.68,3.42-3.69.03-.22.04-.49.06-.79-.58.33-1.26.69-1.89,1.02Zm.43-6.63c.45.71.87,1.49,1.22,2.31l-.92.48c-.24-.72-.65-1.71-1.1-2.4l.79-.39Zm5.22,4.26c.94.66,1.84,1.41,2.61,2.16l-.76.76c-.63-.71-1.49-1.53-2.42-2.23v4.41c0,.36.06.42.99.42,1.35,0,1.42-.08,1.47-1.69.39.22.72.38.96.43-.06,1.89-.44,2.16-2.38,2.16-1.79,0-1.95-.2-1.95-1.23V2.67c0-.43-.03-.79-.11-1.15,1.32.06,1.47.17,1.47.31s-.14.23-.45.33v6.74l.57-.53Zm.52-1.41c-.21-.18-.51-.4-.74-.55.41-.43.96-1.16,1.26-1.62.17-.24.25-.41.36-.67,1.02.66,1.16.79,1.16.95s-.2.19-.54.15c-.43.56-.97,1.23-1.5,1.75Z"/>
  <path class="cls-1" d="m130.35,9.93v1.4h1.1l2.25-.06v.9l-2.25-.06h-1.1v.61l.06,2.4h-1l.06-2.4v-.61h-1.26l-2.25.06v-.9l2.25.06h1.26v-1.4h-1l-1.72.06-.08-.11.06-1.69v-1.59l-.06-1.74.06-.06,1.74.06h2.85l1.74-.06.06.06-.06,1.74v1.59l.06,1.71-.06.09-1.74-.06h-.96Zm-3.34-8.31c.48.67.92,1.47,1.21,2.17l-.93.39c-.3-.81-.71-1.62-1.14-2.25l.85-.32Zm2.46,5.38v-1.41h-1.88v1.41h1.88Zm-1.88,2.19h1.88v-1.46h-1.88v1.46Zm1.8-7.75c.48.74.81,1.51,1.07,2.28l-.92.3c-.25-.84-.55-1.56-.99-2.34l.84-.24Zm2.79,4.16h-1.83v1.41h1.83v-1.41Zm0,3.6v-1.46h-1.83v1.46h1.83Zm1.26-7.16c0,.17-.12.2-.54.24-.27.65-.54,1.25-.98,1.93-.19-.16-.54-.3-.76-.36.31-.57.58-1.19.74-1.68.1-.33.13-.48.18-.75,1.14.33,1.37.48,1.37.61Zm2.71,4.07c.06,1.5.15,3.03.51,4.5.46-.65.88-1.41,1.29-2.34.15-.33.25-.74.29-1.01,1.14.45,1.32.57,1.32.72,0,.18-.13.21-.51.21-.74,1.48-1.39,2.58-2.1,3.42.15.42.31.79.51,1.15.55,1.05.92,1.28,1.16,1.28s.39-.55.4-1.82c.3.18.66.36.87.44-.15,2.14-.66,2.49-1.26,2.49-.34,0-1.09-.39-1.79-1.62-.21-.38-.41-.77-.57-1.2-.91.87-1.99,1.48-3.46,2.13-.22-.3-.45-.53-.73-.78,1.69-.57,2.91-1.23,3.9-2.25-.51-1.69-.66-3.49-.72-5.26l-1.71.15-.06-.95,1.74-.04c-.01-.63-.03-1.29-.03-2.01,0-1.16-.05-1.59-.12-1.95,1.33.11,1.53.21,1.53.38,0,.13-.17.23-.5.36v1.17c0,.72,0,1.39.02,2.01l1.54-.11,2.1-.19.04.94-2.1.08-1.56.11Zm1.74-3.84c.56.3,1.07.67,1.56,1.14l-.66.66c-.45-.45-1-.92-1.53-1.23l.63-.57Z"/>
  <path class="cls-1" d="m152.72,11.62c-1.8,1.65-4.17,2.67-6.01,2.67-2.13,0-3.27-.79-3.27-3.18,0-2.05.06-5.17.13-8.34-.36-.13-.45-.24-.45-.36,0-.1.12-.18.35-.18.18,0,.6.01,1.26.08-.17,3.6-.24,6.06-.24,8.68,0,1.65.45,2.19,2.15,2.19,1.87,0,3.97-1.02,5.56-2.59.18.41.36.77.52,1.04Z"/>
  <path class="cls-1" d="m164.94,4.3c-1.72.15-2.82.43-3.85,1.17-1.38.96-2.21,2.38-2.21,4.11,0,2.82,2.64,3.41,4.96,3.41.18,0,.38,0,.55-.02l-.03,1.17h-.24c-3,0-6.25-.85-6.25-4.48,0-1.83.85-3.36,2.1-4.39.32-.21.63-.41,1-.6l-1.21.24c-1.84.27-3.55.5-5.82.81l-.18-1.03c4.11-.45,7.41-.92,11.01-1.46l.11.06.12.95-.06.08Z"/>
  <path class="cls-1" d="m177.39,3.87c-1.17.41-2.29.72-3.39.96.32.65.67,1.26,1.07,1.84,1.12-.3,2.29-.72,3.45-1.27l.41.79c-1.12.51-2.24.92-3.32,1.21.51.69,1.28,1.54,2.01,2.08l.06.13-.15.58-.12.08c-1.04,0-2.16.01-3.2.04l-.03-.73c.6-.06,1.21-.14,1.82-.2-.45-.51-.98-1.14-1.4-1.74-1.51.36-2.94.51-4.14.51-.42,0-1.25-.07-1.93-.25l.33-.76c.54.08,1.25.17,1.77.17.96,0,2.16-.12,3.46-.41-.38-.62-.72-1.26-1.05-1.9-1.38.25-2.75.39-4.14.42l-.08-.89c1.32,0,2.56-.12,3.83-.34-.25-.54-.45-1.08-.65-1.6-.42-.04-.52-.14-.52-.25,0-.11.17-.18.33-.21.21-.05.43-.08,1.14-.15.18.78.36,1.27.67,2.02,1.09-.24,2.22-.57,3.43-.99l.33.85Zm-7.35,6.99c.18,2.25,2.59,2.32,4.46,2.32.66,0,1.26-.03,2.13-.09v1.04c-.78.08-1.44.09-2.14.09-2.4,0-5.22-.41-5.31-3.3l.87-.06Z"/>
  <path class="cls-1" d="m182.44,4.42c1.59-.14,3.21-.24,4.84-.29v-1.58c-.39-.11-.52-.22-.52-.36,0-.12.13-.17.31-.17s.45,0,1.28.03c-.03.74-.04,1.41-.06,2.03.81-.02,1.61-.03,2.4-.03.57,0,1.29.01,1.86.03l.03.9c-.57-.01-1.3-.03-1.88-.03-.75,0-1.58.02-2.43.03-.01.42-.01.79-.01,1.12s0,.75.01,1.21c1.06-.09,2.22-.25,3.51-.46l.21.9c-1.25.22-2.49.39-3.69.5.03.97.07,2.04.1,2.94,1.4.55,2.88,1.29,4.3,2.05l-.58.95c-1.18-.74-2.49-1.38-3.69-1.95-.15,1.53-1.23,2.1-2.59,2.1-2.06,0-3.11-.91-3.11-1.86,0-.86,1.37-1.92,3.11-1.92.31,0,1.03.13,1.56.3-.03-.81-.06-1.7-.09-2.55-.6.04-1.2.06-1.77.06-1.29,0-2.07-.33-2.62-.66l.57-.71c.53.3,1.07.45,2.05.45.56,0,1.14-.01,1.76-.06-.02-.45-.02-.87-.02-1.23v-1.16c-1.59.04-3.25.13-4.78.27l-.06-.87Zm3.3,7.05c-1.12,0-2.01.56-2.01,1.04,0,.44.76.92,2.12.92,1.05,0,1.56-.63,1.56-1.54-.6-.24-1.25-.41-1.67-.41Z"/>
  <path class="cls-1" d="m206.43,11.62c-1.8,1.65-4.17,2.67-6.01,2.67-2.13,0-3.27-.79-3.27-3.18,0-2.05.06-5.17.13-8.34-.36-.13-.45-.24-.45-.36,0-.1.12-.18.35-.18.18,0,.6.01,1.26.08-.17,3.6-.24,6.06-.24,8.68,0,1.65.45,2.19,2.15,2.19,1.87,0,3.97-1.02,5.56-2.59.18.41.36.77.52,1.04Z"/>
  <path class="cls-1" d="m208.99,4.93c1.06-.02,2.08-.08,3.1-.18.15-.75.3-1.5.42-2.25-.38-.14-.48-.26-.48-.36s.12-.17.24-.17c.25,0,.81.04,1.44.1-.17.86-.33,1.7-.53,2.55.71-.09,1.4-.2,2.12-.32l.13.99c-.84.12-1.65.24-2.47.33-.66,2.86-1.49,5.74-2.55,8.61l-1.02-.34c1.05-2.73,1.86-5.43,2.47-8.16-.95.09-1.89.15-2.87.18v-.99Zm6.63,5.71c-.04.34-.09.61-.09.93,0,1.02.51,1.42,2.47,1.42.99,0,1.89-.06,2.91-.17l.07,1.07c-1.05.07-1.93.13-2.98.13-2.61,0-3.45-.78-3.45-2.24,0-.43.04-.82.13-1.3l.93.15Zm.71-5.25c1.5,0,3.01.06,4.51.31l-.12,1.02c-1.5-.25-2.94-.34-4.44-.38l.05-.96Z"/>
  <path class="cls-1" d="m225.96,15.04c-1.16,0-2.07-.93-2.07-2.07s.91-2.04,2.07-2.04,2.07.9,2.07,2.04-.92,2.07-2.07,2.07Zm0-.67c.75,0,1.38-.65,1.38-1.4s-.63-1.36-1.38-1.36-1.38.61-1.38,1.36.63,1.4,1.38,1.4Z"/>
</svg>