<?xml version="1.0" encoding="UTF-8"?>
<svg id="_テキスト" data-name="テキスト" xmlns="http://www.w3.org/2000/svg" viewBox="0 0 294 16">
  <defs>
    <style>
      .cls-1 {
        fill: #444;
      }
    </style>
  </defs>
  <path class="cls-1" d="m7.18,1.12v.66H2.75v10.7h-.72V1.12h5.14Z"/>
  <path class="cls-1" d="m10.62,4.38c1.59-.14,3.21-.24,4.84-.29v-1.58c-.39-.11-.52-.22-.52-.36,0-.12.13-.17.31-.17s.45,0,1.27.03c-.03.74-.04,1.41-.06,2.03.81-.02,1.6-.03,2.4-.03.57,0,1.29.01,1.86.03l.03.9c-.57-.01-1.31-.03-1.88-.03-.75,0-1.58.02-2.43.03-.01.42-.01.79-.01,1.12s0,.75.01,1.21c1.06-.09,2.22-.25,3.51-.46l.21.9c-1.25.22-2.49.39-3.69.5.03.97.07,2.04.1,2.94,1.4.55,2.88,1.29,4.3,2.05l-.58.95c-1.19-.74-2.49-1.38-3.69-1.95-.15,1.53-1.23,2.1-2.59,2.1-2.06,0-3.1-.91-3.1-1.86,0-.86,1.36-1.92,3.1-1.92.31,0,1.03.13,1.56.3-.03-.81-.06-1.7-.09-2.55-.6.04-1.2.06-1.77.06-1.29,0-2.07-.33-2.62-.66l.57-.71c.52.3,1.06.45,2.05.45.56,0,1.14-.01,1.76-.06-.02-.45-.02-.87-.02-1.23v-1.16c-1.59.04-3.25.13-4.78.27l-.06-.87Zm3.3,7.05c-1.12,0-2.01.56-2.01,1.04,0,.44.77.92,2.12.92,1.05,0,1.56-.63,1.56-1.54-.6-.24-1.25-.41-1.67-.41Z"/>
  <path class="cls-1" d="m31.54,4.38h.54c2.07,0,2.97,0,4.11.04l-.02.97c-1.68-.11-2.88-.12-4.06-.12h-.57v2.71c.23.62.31,1.14.31,1.79,0,2.52-1.15,4.21-4.72,4.72-.1-.3-.27-.6-.5-.93,3.01-.3,4.15-1.89,4.23-3.13-.3.46-.9.79-1.92.79-1.27,0-1.88-.62-1.88-1.74,0-1.46,1.33-2.89,2.47-2.89.38,0,.77.1,1.04.46-.02-.58-.02-1.17-.03-1.75-1.59.03-3.57.13-6.3.33l-.04-.96c2.76-.15,4.77-.24,6.33-.29,0-.6-.02-1.2-.02-1.8-.38-.13-.51-.23-.51-.35,0-.1.09-.19.27-.19.33,0,.87.01,1.3.03l-.04.93v1.37Zm-3.57,5.01c0,.67.3.94,1.23.94s1.44-.66,1.48-1.48c-.19-1.04-.79-1.35-1.19-1.35-.57,0-1.53.87-1.53,1.89Zm5.79-8.05c.81.73,1.33,1.33,1.92,2.28l-.72.54c-.52-.9-1.08-1.62-1.89-2.37l.69-.45Zm1.92-.56c.8.75,1.22,1.2,1.8,2.15l-.68.52c-.54-.88-.97-1.42-1.78-2.17l.66-.5Z"/>
  <path class="cls-1" d="m40.14,14.4c-.45-1.49-.63-3.02-.63-4.58,0-2.47.31-4.72.88-6.97-.3-.2-.39-.3-.39-.41,0-.09.09-.12.21-.12.19,0,.52.08,1.32.32-.67,2.42-1,4.98-1,6.97,0,1.68.24,3.08.62,4.54l-1.01.24Zm2.75-9.13c.88.04,1.93.06,2.82.06.46,0,.98-.01,1.53-.03-.01-.75-.01-1.51-.03-2.26-.36-.1-.52-.21-.52-.36,0-.11.13-.17.34-.17s.69.01,1.25.04c-.02.45-.02.85-.02,1.25,0,.52,0,1,.02,1.44.76-.04,1.62-.11,2.53-.21l.02.96c-.92.08-1.74.13-2.55.2.01,1.48.06,3.52.15,5.19.79.45,1.77,1,2.64,1.6l-.65.92c-.71-.54-1.44-1.03-2.16-1.47-.45,1.05-1.36,1.62-2.7,1.62-1.59,0-2.64-.75-2.64-1.72s1.33-1.89,2.43-1.89c.63,0,1.38.14,2.04.44-.06-1.21-.1-3.15-.15-4.63-.69.03-1.37.04-2.08.04-.6,0-1.35,0-2.25-.03v-.97Zm2.42,6.03c-.71,0-1.43.53-1.43.98,0,.39.56.85,1.4.85,1.11,0,1.77-.39,2.01-1.23-.6-.38-1.35-.6-1.98-.6Z"/>
  <path class="cls-1" d="m55.38,14.04v.96h-1.03l.06-2.25v-7.39l-.06-2.19.06-.06,2.19.06h1.53c.17-.34.32-.7.45-1.11.12-.36.18-.57.22-.87,1.26.27,1.49.39,1.49.53,0,.17-.12.22-.57.27-.17.38-.38.81-.58,1.18h3.21l2.19-.06.06.06-.06,2.19v7.36l.06,2.25h-1.04v-.93h-8.17Zm8.17-10.03h-8.17v2.4h8.17v-2.4Zm0,3.24h-8.17v2.47h8.17v-2.47Zm0,3.32h-8.17v2.62h8.17v-2.62Z"/>
  <path class="cls-1" d="m71.62,2.31c1.23.29,1.47.39,1.47.57,0,.12-.13.24-.58.28-.97,2.52-2.55,4.63-4.28,5.9-.17-.25-.43-.51-.72-.72,1.73-1.21,3.13-3.16,3.86-5.11.12-.33.21-.65.25-.92Zm2.46,6.28c-.17,3.41-1.43,5.42-5.37,6.18-.12-.29-.39-.63-.58-.84,3.33-.52,4.75-2.02,4.92-5.34h-.58l-2.25.06v-.99l2.25.06h4.54l1.74-.06.06.06-.06,1.83c-.04,1.53-.09,2.58-.22,3.25-.27,1.4-1.07,1.79-2.34,1.79h-.81c-.08-.36-.23-.72-.42-1,.57.06.81.08,1.2.08,1.09,0,1.35-.46,1.49-1.67.1-.9.13-2.28.13-3.41h-3.69Zm2.61-7.05c1.09,2.88,2.66,4.9,4.86,6.4-.27.2-.54.48-.79.81-2.13-1.57-3.78-3.79-4.96-6.91l.9-.3Z"/>
  <path class="cls-1" d="m94.19,4.26c-1.73.15-2.82.43-3.86,1.17-1.38.96-2.21,2.38-2.21,4.11,0,2.82,2.64,3.41,4.96,3.41.18,0,.38,0,.56-.02l-.03,1.17h-.24c-3,0-6.25-.85-6.25-4.48,0-1.83.86-3.36,2.1-4.39.31-.21.63-.41,1-.6l-1.21.24c-1.85.27-3.56.5-5.82.81l-.18-1.03c4.11-.45,7.41-.92,11.01-1.46l.1.06.12.95-.06.08Zm-1.74,1.99c.85.68,1.42,1.25,2.07,2.15l-.67.58c-.58-.86-1.18-1.53-2.05-2.22l.66-.51Zm1.56-1.05c.84.69,1.29,1.11,1.95,2.01l-.65.57c-.6-.84-1.06-1.35-1.93-2.04l.63-.54Z"/>
  <path class="cls-1" d="m98.17,7.26c.96-.38,2.02-.77,3.13-1.16-.29-.9-.58-1.84-.92-2.83-.39-.01-.56-.08-.56-.21,0-.08.12-.15.24-.2.34-.12.75-.21,1.23-.31.33,1.03.66,2.1.99,3.19,2.06-.69,4.12-1.25,5.36-1.25,1.63,0,3.18.83,3.18,2.78,0,1.54-1.29,2.83-3.3,2.83-.99,0-1.82-.2-2.64-.69.18-.34.28-.52.4-.9.77.45,1.5.58,2.13.58,1.31,0,2.34-.74,2.34-1.88,0-1.35-1.06-1.8-2.08-1.8s-3.06.52-5.11,1.21c.72,2.44,1.44,4.99,2.14,7.62l-1.06.3c-.72-2.81-1.32-5.08-2.07-7.56-1.02.39-1.88.75-2.98,1.25l-.42-.99Zm6.88-5.36c.72.51,1.29,1.04,1.86,1.67l-.76.65c-.62-.72-1.23-1.29-1.89-1.75l.8-.56Z"/>
  <path class="cls-1" d="m114.19,7.66c2.98-.71,4.58-.96,5.98-.96,2.43,0,3.75,1.09,3.75,3.13,0,1.67-.92,2.85-2.65,3.57-1.16.46-2.16.66-3.96.92-.11-.3-.25-.62-.45-.9,1.74-.22,2.73-.4,3.81-.83,1.46-.57,2.16-1.5,2.16-2.83,0-1.44-.88-2.15-2.73-2.15-1.29,0-2.7.25-5.69,1.04l-.22-.99Z"/>
  <path class="cls-1" d="m137.47,4.26c-1.73.15-2.82.43-3.86,1.17-1.38.96-2.21,2.38-2.21,4.11,0,2.82,2.64,3.41,4.96,3.41.18,0,.38,0,.56-.02l-.03,1.17h-.24c-3,0-6.25-.85-6.25-4.48,0-1.83.86-3.36,2.1-4.39.31-.21.63-.41,1-.6l-1.21.24c-1.85.27-3.56.5-5.82.81l-.18-1.03c4.11-.45,7.41-.92,11.01-1.46l.1.06.12.95-.06.08Z"/>
  <path class="cls-1" d="m141.57,2.77c1.62,0,3.24-.04,4.86-.13-.21,2.14-.58,4.12-.84,5.04,1.29.1,2.52.31,3.76.66.03-.54.06-1.15.06-1.71,0-.4-.02-.73-.03-1.02-.24-.09-.45-.2-.45-.34,0-.09.09-.17.29-.17.27,0,.74.03,1.21.08.02.34.03.75.03,1.14,0,1.05-.03,1.75-.08,2.34.79.25,1.61.55,2.46.92l-.39.99c-.74-.35-1.47-.65-2.17-.89-.5,3.12-2.34,4.21-4.91,4.8-.15-.25-.29-.48-.54-.79,2.97-.6,4.09-2.08,4.42-4.35-1.5-.45-2.85-.71-3.96-.81-.63,1.86-1.51,3.12-2.07,3.73-.42.46-.93.78-1.58.78-.71,0-1.58-.65-1.58-1.91,0-2.31,2.16-3.54,4.35-3.54h.12c.35-1.09.63-2.74.74-4-.96.05-2.24.09-3.71.11v-.92Zm-.54,8.22c0,.74.41,1.02.62,1.02.29,0,.55-.09.88-.46.62-.69,1.17-1.54,1.72-3.03-1.6.01-3.22.94-3.22,2.47Z"/>
  <path class="cls-1" d="m159.26,7.57c1.12-.51,1.99-.69,2.89-.69,2.28,0,4.04,1.23,4.04,3.39,0,2.35-1.96,4.03-5.33,4.03-2.07,0-3.17-.96-3.17-2.16,0-1.07.9-1.71,1.94-1.71,1.23,0,2.26.94,2.68,2.13l-.87.51c-.46-1.18-1.09-1.74-1.79-1.74-.51,0-1.04.38-1.04.78,0,.79.84,1.25,2.15,1.25,2.52,0,4.27-1.12,4.27-3.17,0-1.16-.88-2.45-3.09-2.45-1.88,0-3.52.79-5.26,2.64h-.13s-.66-.58-.66-.58v-.12c2.58-2.59,4.16-4.14,6.24-6.09-1.54.21-3.12.34-5.12.39l-.04-1c1.88-.03,4.12-.18,5.92-.43l.33-.27h.13c.76.63.88.87.88.99,0,.18-.15.22-.64.39-1.35,1.21-2.36,2.19-3.54,3.23l-.85.61.04.08Z"/>
  <path class="cls-1" d="m169.82,15.22v-.66h4.42V3.87h.72v11.35h-5.15Z"/>
  <path class="cls-1" d="m186.88,4.03c.62.03,1.2.04,1.77.04.62,0,1.2-.01,1.8-.04.29-.51.54-1.06.79-1.67-.24-.1-.39-.22-.39-.36,0-.08.09-.12.27-.12.13,0,.93.12,1.36.21-.33.72-.63,1.33-.92,1.86,1.23-.09,2.52-.24,4.02-.43l.12.93c-1.68.21-3.2.36-4.68.45-.6.97-1.14,1.65-1.8,2.22l.04.04c.65-.34,1.31-.46,1.88-.46,1.12,0,1.75.69,1.88,1.86,1.4-.54,2.62-.95,3.9-1.41-.03-.13-.04-.24-.04-.33,0-.18.07-.24.17-.24s.13.04.21.12c.31.38.58.83.75,1.25-1.7.5-3.44,1.05-4.91,1.58.04.75.08,1.65.09,2.47h-1.04c0-.71-.01-1.49-.04-2.1-.21.08-.42.17-.61.24-1.12.45-2.18,1.14-2.18,1.96,0,.96.71,1.23,2.31,1.23,2.21,0,3.78-.17,4.8-.29l.03,1.05c-1.14.11-2.52.2-4.73.2s-3.39-.64-3.39-2.14c0-1.32,1.37-2.19,2.43-2.66.44-.2.86-.38,1.26-.54-.12-1.04-.3-1.46-1.31-1.46-1.06,0-1.95.57-3.28,1.62l-.15-.04-.51-.71v-.1c1.27-1,2.28-2.04,3.1-3.32-.48.02-.95.03-1.42.03-.53,0-1.05-.01-1.58-.03v-.92Z"/>
  <path class="cls-1" d="m203.74,8.95c-.74,1.37-1.68,2.45-2.78,3.45-.21-.25-.46-.46-.76-.66,1.2-1.04,2.02-2.05,2.59-3.24-.18-.19-.31-.36-.31-.45,0-.11.09-.15.18-.15.1,0,.41.1,1.37.63l-.29.42Zm6.1-3.67l2.28-.06v1.08l-2.28-.05h-2.82v5.19c0,.57.03.99.03,1.35,0,.92-.46,1.37-1.27,1.37-.56,0-1.31-.15-2.19-.45.06-.33.08-.67.08-.97.81.25,1.42.38,1.86.38.3,0,.43-.14.43-.63v-6.23h-3.03l-2.28.05v-1.08l2.28.06h3.03v-2.26c-.39-.25-.46-.34-.46-.45,0-.09.08-.13.25-.13s.67.09,1.38.27l-.11.72v1.86h2.82Zm-.13,2.68c1.02,1,1.92,2.19,2.73,3.56l-.87.66c-.82-1.44-1.69-2.64-2.68-3.58l.83-.63Zm3.73-5.08c0,.92-.75,1.65-1.65,1.65s-1.63-.73-1.63-1.65.73-1.64,1.63-1.64,1.65.74,1.65,1.64Zm-2.64,0c0,.55.45,1,.99,1s1.02-.45,1.02-1-.46-1-1.02-1-.99.46-.99,1Z"/>
  <path class="cls-1" d="m218.3,7.23l.06,2.28h-1.2l.06-2.28v-3.92c-.44-.3-.5-.36-.5-.5,0-.06.08-.1.25-.1.25,0,.72.1,1.42.28l-.1.72v3.51Zm5.76,1.09c0,3.41-1.86,5.49-6.01,5.88-.12-.33-.27-.66-.47-.97,3.78-.35,5.37-1.95,5.37-4.91V3.1c-.43-.3-.5-.36-.5-.5,0-.06.08-.1.25-.1.26,0,.75.1,1.46.28l-.1.72v4.81Z"/>
  <path class="cls-1" d="m229.05,6.37c1.56.35,2.66.67,4.02,1.23l-.41.94c-1.29-.51-2.43-.87-3.96-1.21l.34-.96Zm.62,7.53c-.33-.92-.46-1.25-.46-1.4,0-.12.08-.19.18-.19.09,0,.24.1.5.33,4.25-.56,7.11-3.03,8.98-8.03.32.39.58.65.86.87-1.82,4.79-4.74,7.35-9.21,8.23l-.84.18Zm.24-10.8c1.59.38,2.89.79,4.15,1.46l-.48.96c-1.14-.63-2.42-1.07-4.02-1.42l.34-.99Z"/>
  <path class="cls-1" d="m242.54,8.92v-1.21l2.28.08h6.63l2.28-.08v1.21l-2.28-.06h-6.63l-2.28.06Z"/>
  <path class="cls-1" d="m257.47,14.14c-.2-1.57-.27-2.86-.27-4.54s.24-3.78.78-6.53c-.32-.17-.45-.3-.45-.42,0-.1.11-.15.3-.15.21,0,.5.04,1.42.27-.73,2.43-1,4.81-1,6.9,0,1.62.08,2.82.35,4.38l-1.12.09Zm4.77-4.29c-.29.46-.42.87-.42,1.46,0,.63.78,1.11,3.21,1.11,1.05,0,2.47-.13,3.55-.33l.08,1.11c-.98.15-2.38.25-3.57.25-3.01,0-4.32-.72-4.32-2.08,0-.6.15-1.18.6-2l.87.48Zm-.76-5.19c1.36-.21,2.85-.31,4.17-.31.95,0,1.67.03,2.4.1v.99c-.81-.06-1.5-.09-2.57-.09-1.27,0-2.67.1-3.94.31l-.06-1Z"/>
  <path class="cls-1" d="m274.42,15.12c-.8-1.28-1.73-2.4-2.88-3.38l.82-.67c1.19.93,2.16,2.02,3,3.25l-.94.79Z"/>
</svg>