<?xml version="1.0" encoding="UTF-8"?>
<svg id="_テキスト" data-name="テキスト" xmlns="http://www.w3.org/2000/svg" viewBox="0 0 294 16">
  <defs>
    <style>
      .cls-1 {
        fill: #444;
      }
    </style>
  </defs>
  <path class="cls-1" d="m12.2,1.98l.06.06-.06,1.89v4.3l.06,1.88-.08.08-1.88-.06h-.49v3.2c0,.43.07.55,1.84.55s1.86-.1,1.89-1.74c.42.1.71.22.99.31-.04,2.04-.42,2.36-2.85,2.36-2.62,0-2.85-.29-2.85-1.26v-3.42h-2.06c-.12,3.3-1.98,4.41-5.32,4.86-.1-.25-.33-.67-.58-.95,2.92-.29,4.77-.93,4.86-3.92h-.3l-1.89.06-.06-.08.06-1.88V3.93l-.06-1.89.06-.06,1.89.06h4.87l1.89-.06Zm-7.69.9v1.59h6.72v-1.59h-6.72Zm0,3.96h6.72v-1.58h-6.72v1.58Zm0,2.44h6.72v-1.65h-6.72v1.65Z"/>
  <path class="cls-1" d="m16.87,4.92c1.06-.02,2.08-.08,3.1-.18.15-.75.3-1.5.42-2.25-.38-.14-.48-.26-.48-.36s.12-.17.24-.17c.25,0,.81.04,1.44.1-.17.86-.33,1.7-.53,2.55.71-.09,1.4-.2,2.12-.32l.13.99c-.84.12-1.65.24-2.47.33-.66,2.86-1.49,5.74-2.55,8.61l-1.02-.34c1.05-2.73,1.86-5.43,2.47-8.16-.94.09-1.89.15-2.86.18l-.02-.99Zm6.63,5.71c-.04.34-.09.61-.09.93,0,1.02.51,1.42,2.47,1.42.99,0,1.89-.06,2.91-.17l.07,1.07c-1.05.07-1.94.13-2.98.13-2.61,0-3.45-.78-3.45-2.24,0-.43.04-.82.13-1.3l.93.15Zm.71-5.25c1.5,0,3.01.06,4.51.31l-.12,1.02c-1.5-.25-2.94-.34-4.44-.38l.05-.96Z"/>
  <path class="cls-1" d="m37.59,3.28c0-.51-.04-1.01-.12-1.37,1.5.06,1.68.18,1.68.36s-.17.27-.5.39c0,1.14-.01,1.89-.04,2.44.29,1.58.79,3.12,1.65,4.47.75,1.2,1.79,2.19,2.96,2.97.69.46,1.42.82,2.17,1.18-.27.2-.54.62-.79.95-3.06-1.28-5.46-4.04-6.37-7.42-.81,3.5-2.88,5.92-5.9,7.5-.24-.31-.48-.58-.84-.87,3.24-1.47,5.34-3.99,5.94-7.72.1-.66.16-1.37.16-2.13v-.75Z"/>
  <path class="cls-1" d="m47.28,4.06c.62.03,1.2.04,1.77.04.62,0,1.2-.01,1.8-.04.29-.51.54-1.06.79-1.67-.24-.1-.39-.22-.39-.36,0-.08.09-.12.27-.12.13,0,.93.12,1.36.21-.33.72-.63,1.33-.92,1.86,1.23-.09,2.52-.24,4.02-.43l.12.93c-1.68.21-3.2.36-4.68.45-.6.97-1.14,1.65-1.8,2.22l.04.04c.65-.34,1.31-.46,1.88-.46,1.12,0,1.75.69,1.88,1.86,1.4-.54,2.62-.95,3.9-1.41-.03-.13-.04-.24-.04-.33,0-.18.07-.24.17-.24s.13.04.21.12c.31.38.58.83.75,1.25-1.7.5-3.44,1.05-4.91,1.58.04.75.08,1.65.09,2.47h-1.04c0-.71-.01-1.49-.04-2.1-.21.08-.42.17-.61.24-1.12.45-2.18,1.14-2.18,1.96,0,.96.71,1.23,2.31,1.23,2.21,0,3.78-.17,4.8-.29l.03,1.05c-1.14.11-2.52.2-4.73.2s-3.39-.64-3.39-2.14c0-1.32,1.37-2.19,2.43-2.66.44-.2.86-.38,1.26-.54-.12-1.04-.3-1.46-1.31-1.46-1.06,0-1.95.57-3.28,1.62l-.15-.04-.51-.71v-.1c1.27-1,2.28-2.04,3.1-3.32-.48.02-.95.03-1.42.03-.53,0-1.05-.01-1.58-.03v-.92Z"/>
  <path class="cls-1" d="m65.12,2.79l1.8-.06v.9l-1.8-.06h-.78c.24.58.42,1.19.58,1.83l-.96.3c-.09-.7-.29-1.45-.55-2.13h-1.04c-.41.51-.85.98-1.41,1.44-.17-.23-.4-.48-.63-.62.88-.71,1.56-1.46,2.07-2.42.09-.18.17-.4.21-.6,1.08.25,1.27.38,1.27.53,0,.1-.07.21-.55.22-.12.22-.25.45-.39.66h2.17Zm2.7,7.24c1.32,2.45,3.24,3.42,6.13,3.99-.26.3-.47.57-.63.93-2.77-.63-4.75-1.88-6.09-4.25-.75,2.37-2.87,3.78-5.85,4.29-.18-.31-.36-.55-.72-.84,3.25-.43,5.26-1.81,5.85-4.12h-3.63l-2.25.06v-.95l2.25.06h3.78c.1-.71.1-1.43.1-2.15-1.47.17-2.97.29-4.63.38-.07-.29-.22-.6-.46-.88,3.57-.11,6.51-.5,8.58-.88.31-.06.6-.15.92-.29.81.58,1,.81,1,.95s-.04.21-.23.21c-.13,0-.34-.03-.64-.12-1.23.21-2.4.39-3.55.52-.02.77-.04,1.52-.15,2.27h4.12l2.25-.06v.95l-2.25-.06h-3.9Zm3.15-6.46c.2.45.32.83.48,1.37l-.94.3c-.11-.55-.24-1.04-.48-1.67h-1.67c-.28.5-.6.95-.96,1.4-.24-.2-.52-.34-.81-.45.67-.74,1.28-1.81,1.62-2.59.08-.18.12-.38.15-.57,1.1.3,1.25.42,1.25.54,0,.15-.03.21-.51.24-.1.22-.21.45-.31.66h3.6l1.8-.06v.9l-1.8-.06h-1.41Z"/>
  <path class="cls-1" d="m83.13,6.39v.88l-1.8-.06h-3.44v2.42c0,2.31-.27,3.57-1.09,4.99-.24-.27-.46-.45-.75-.61.72-1.29.95-2.28.95-4.29v-1.53l-.06-1.74.06-.06,1.38.04c-.11-.63-.27-1.25-.45-1.81l.84-.18c.18.62.35,1.32.45,2.01h1.28c.15-.49.25-1.02.31-1.53.03-.17.04-.33.04-.51,1.14.28,1.28.39,1.28.51,0,.1-.08.18-.48.21-.1.45-.19.88-.33,1.32l1.82-.06Zm-2.04-3l1.8-.06v.87l-1.8-.06h-2.64l-1.8.06v-.87l1.8.06h.88v-.78c0-.43-.03-.79-.11-1.15,1.29.1,1.47.18,1.47.33,0,.13-.08.19-.45.31v1.29h.84Zm2.1,9c0,.09-.07.15-.27.15-.09,0-.2-.01-.32-.03-1.25.87-2.53,1.51-4.35,1.93-.13-.29-.3-.53-.53-.75,1.83-.38,3.25-1.08,4-1.63.21-.15.39-.32.54-.5.77.53.92.71.92.83Zm-.55-2.1c0,.14-.17.2-.58.15-.92.66-1.92,1.12-3.3,1.46-.13-.29-.3-.53-.54-.75,1.33-.29,2.26-.67,2.97-1.14.2-.14.38-.29.54-.48.74.48.92.63.92.76Zm-.36-1.95c0,.13-.15.18-.55.13-.78.48-1.74.85-2.8,1.11-.13-.29-.32-.54-.54-.77,1.08-.22,1.84-.46,2.43-.81.2-.12.38-.24.55-.44.8.53.92.65.92.77Zm.38,6.63c-.18-.3-.38-.54-.63-.74,1.11-.44,1.79-.83,2.48-1.42.21-.2.31-.32.43-.46.83.49.97.63.97.78s-.15.2-.6.17c-.75.66-1.56,1.19-2.66,1.68Zm4.89-10.53l1.74-.06.06.06-.06,1.89v3.84l.06,1.87-.08.08-1.72-.06h-1.94l-1.74.06-.06-.08.06-1.87v-3.84l-.06-1.89.06-.06,1.74.06h.03c.13-.54.24-1.08.31-1.63h-.81l-2.25.06v-.9l2.25.06h2.68l2.25-.06v.9l-2.25-.06h-.94c-.11.55-.23,1.09-.36,1.63h1.02Zm-2.81.78v1.44h3.66v-1.44h-3.66Zm0,3.71h3.66v-1.49h-3.66v1.49Zm0,2.34h3.66v-1.56h-3.66v1.56Zm4.74,3.6c-.76-.75-1.67-1.42-2.7-1.93l.69-.58c.97.51,1.89,1.12,2.7,1.81l-.69.71Z"/>
  <path class="cls-1" d="m93.02,14.17c-.2-1.57-.27-2.86-.27-4.54s.24-3.78.78-6.53c-.31-.17-.45-.3-.45-.42,0-.1.1-.15.3-.15.21,0,.5.04,1.42.27-.74,2.43-1,4.81-1,6.9,0,1.62.08,2.82.34,4.38l-1.12.09Zm4.77-4.29c-.28.46-.42.87-.42,1.46,0,.63.78,1.11,3.21,1.11,1.05,0,2.48-.13,3.55-.33l.08,1.11c-.97.15-2.38.25-3.57.25-3.02,0-4.32-.72-4.32-2.08,0-.6.15-1.18.6-2l.87.48Zm-.76-5.19c1.37-.21,2.85-.31,4.17-.31.95,0,1.67.03,2.4.1v.99c-.81-.06-1.5-.09-2.56-.09-1.28,0-2.67.1-3.95.31l-.06-1Z"/>
  <path class="cls-1" d="m118.19,4.29c-1.72.15-2.82.43-3.85,1.17-1.38.96-2.21,2.38-2.21,4.11,0,2.82,2.64,3.41,4.96,3.41.18,0,.38,0,.55-.02l-.03,1.17h-.24c-3,0-6.25-.85-6.25-4.48,0-1.83.85-3.36,2.1-4.39.32-.21.63-.41,1-.6l-1.21.24c-1.84.27-3.55.5-5.82.81l-.18-1.03c4.11-.45,7.41-.92,11.01-1.46l.11.06.12.95-.06.08Zm-1.74,1.99c.86.68,1.42,1.25,2.07,2.15l-.67.58c-.58-.86-1.19-1.53-2.05-2.22l.66-.51Zm1.56-1.05c.84.69,1.29,1.11,1.95,2.01l-.64.57c-.6-.84-1.07-1.35-1.93-2.04l.63-.54Z"/>
  <path class="cls-1" d="m131.64,3.85c-1.17.41-2.29.72-3.39.96.32.65.67,1.26,1.07,1.84,1.12-.3,2.29-.72,3.45-1.27l.41.79c-1.12.51-2.24.92-3.32,1.21.51.69,1.28,1.54,2.01,2.08l.06.13-.15.58-.12.08c-1.04,0-2.16.01-3.2.04l-.03-.73c.6-.06,1.21-.14,1.82-.2-.45-.51-.98-1.14-1.4-1.74-1.51.36-2.94.51-4.14.51-.42,0-1.25-.07-1.93-.25l.33-.76c.54.08,1.25.17,1.77.17.96,0,2.16-.12,3.46-.41-.38-.62-.72-1.26-1.05-1.9-1.38.25-2.75.39-4.14.42l-.08-.89c1.32,0,2.56-.12,3.83-.34-.25-.54-.45-1.08-.65-1.6-.42-.04-.52-.14-.52-.25,0-.11.17-.18.33-.21.21-.05.43-.08,1.14-.15.18.78.36,1.27.67,2.02,1.09-.24,2.22-.57,3.43-.99l.33.85Zm-7.35,6.99c.18,2.25,2.59,2.32,4.46,2.32.66,0,1.26-.03,2.13-.09v1.04c-.78.08-1.44.09-2.14.09-2.4,0-5.22-.41-5.31-3.3l.87-.06Z"/>
  <path class="cls-1" d="m139.56,7.6c1.12-.51,2-.69,2.89-.69,2.28,0,4.04,1.23,4.04,3.39,0,2.35-1.96,4.03-5.32,4.03-2.07,0-3.17-.96-3.17-2.16,0-1.07.9-1.71,1.93-1.71,1.23,0,2.26.94,2.68,2.13l-.87.51c-.47-1.18-1.1-1.74-1.79-1.74-.51,0-1.04.38-1.04.78,0,.79.84,1.25,2.14,1.25,2.52,0,4.28-1.12,4.28-3.17,0-1.16-.88-2.45-3.09-2.45-1.88,0-3.53.79-5.26,2.64h-.14s-.66-.58-.66-.58v-.12c2.58-2.59,4.15-4.14,6.24-6.09-1.54.21-3.12.34-5.11.39l-.05-1c1.88-.03,4.12-.18,5.92-.43l.33-.27h.14c.76.63.88.87.88.99,0,.18-.15.22-.65.39-1.35,1.21-2.35,2.19-3.54,3.23l-.85.61.04.08Z"/>
  <path class="cls-1" d="m150.56,7.59c.21.63.62.96,2.52,1.02.06-.97.15-1.95.24-2.92h-.4c-.98,0-1.94.01-2.87.01v-.87c1.17-.05,2.26-.05,3.34-.05.06-.63.12-1.33.18-2.14-.3-.1-.49-.25-.49-.38,0-.09.09-.15.27-.15.41,0,.85.01,1.3.04-.1,1-.18,1.86-.25,2.62h2.92l-.03.96c-1-.03-1.99-.05-2.98-.06-.11.97-.18,1.95-.24,2.92,1.05-.03,2.05-.13,2.9-.29l.1.96c-.81.14-1.8.24-3.06.27-.03.51-.04.92-.04,1.62,0,1.63.52,2.19,2.43,2.19,2.26,0,3.85-.9,3.85-2.05,0-.96-.64-1.82-2.43-2.88.29-.21.5-.48.63-.69,2.45,1.46,2.91,2.45,2.91,3.65,0,1.57-1.62,2.94-4.77,2.94-2.81,0-3.62-.92-3.62-3.04,0-.75.03-1.25.04-1.72-2.23-.06-2.71-.48-3.22-1.52l.76-.45Z"/>
  <path class="cls-1" d="m175.35,8.55c0-2.4-1.83-4.28-4.78-4.28s-5.22,2.34-5.22,5.03c0,1.72.53,2.61,1.22,2.61.46,0,1.05-.57,1.77-2.01.72-1.42,1.32-3.31,1.42-4.48-.2-.17-.36-.3-.36-.42,0-.09.07-.15.25-.15.19,0,.78.15,1.26.31-.36,2-.84,3.72-1.68,5.31-.99,1.92-1.8,2.58-2.67,2.58-1.23,0-2.27-1.33-2.27-3.72,0-3.37,2.82-5.97,6.32-5.97,3.72,0,5.91,2.4,5.91,5.31,0,2.71-1.95,4.84-5.65,5.34-.23-.35-.39-.63-.66-.96,3.19-.3,5.14-1.89,5.14-4.5Z"/>
  <path class="cls-1" d="m179.11,5.52c3.29-.78,5.65-1.18,7.39-1.18,3.17,0,4.58,1.47,4.58,3.85,0,3.21-2.57,4.86-8.1,5.54-.14-.38-.27-.67-.47-.99,5.61-.6,7.42-2.19,7.42-4.63,0-1.75-1.05-2.78-3.54-2.78-1.6,0-3.7.39-7.03,1.26l-.25-1.07Zm9.97-3.61c.85.67,1.42,1.24,2.07,2.14l-.67.58c-.58-.86-1.18-1.53-2.05-2.22l.66-.51Zm1.56-1.05c.84.69,1.29,1.11,1.95,2.01l-.65.57c-.6-.84-1.06-1.35-1.93-2.04l.63-.54Z"/>
  <path class="cls-1" d="m201.41,14.53c-1.89-2.17-3.53-3.67-5.88-5.5-.29-.21-.39-.41-.39-.71s.13-.51.48-.85c1.73-1.68,3.39-3.45,4.67-5.12-.15-.24-.21-.34-.21-.45,0-.09.08-.17.17-.17.13,0,.3.07,1.37.82-1.85,2.13-3.27,3.65-5.07,5.4-.12.12-.21.21-.21.31,0,.12.09.2.24.32,2.05,1.58,3.76,3.03,5.7,5.08l-.85.85Z"/>
  <path class="cls-1" d="m208.88,2.73c-.38,1.53-.69,3.51-.69,4.67,0,.72.03,1.33.12,1.56.04.11.09.17.15.17s.13-.06.21-.18c.3-.43.63-1.06,1.02-2.21.22.29.43.5.69.72-.27.84-.63,1.65-1.07,2.37-.3.51-.54.69-.84.69-.5,0-1.3-.57-1.3-2.92,0-1.16.19-2.87.55-4.58-.22-.17-.38-.31-.38-.41s.08-.13.18-.13c.17,0,.69.09,1.35.25Zm3.93-.17c0-.1.1-.15.25-.15.42-.02.84-.02,1.35-.02.15,2.27.24,4.19.24,5.66,0,4.5-1.82,5.89-6.15,6.38-.11-.29-.27-.71-.47-1.02,3.89-.3,5.52-1.44,5.52-5.14,0-1.89-.06-3-.24-5.34-.34-.09-.51-.24-.51-.36Z"/>
  <path class="cls-1" d="m219.32,4.06c.62.03,1.2.04,1.77.04.62,0,1.2-.01,1.8-.04.29-.51.54-1.06.79-1.67-.24-.1-.39-.22-.39-.36,0-.08.09-.12.27-.12.13,0,.93.12,1.36.21-.33.72-.63,1.33-.92,1.86,1.23-.09,2.52-.24,4.02-.43l.12.93c-1.68.21-3.2.36-4.68.45-.6.97-1.14,1.65-1.8,2.22l.04.04c.65-.34,1.31-.46,1.88-.46,1.12,0,1.75.69,1.88,1.86,1.4-.54,2.62-.95,3.9-1.41-.03-.13-.04-.24-.04-.33,0-.18.07-.24.17-.24s.13.04.21.12c.31.38.58.83.75,1.25-1.7.5-3.44,1.05-4.91,1.58.04.75.08,1.65.09,2.47h-1.04c0-.71-.01-1.49-.04-2.1-.21.08-.42.17-.61.24-1.12.45-2.18,1.14-2.18,1.96,0,.96.71,1.23,2.31,1.23,2.21,0,3.78-.17,4.8-.29l.03,1.05c-1.14.11-2.52.2-4.73.2s-3.39-.64-3.39-2.14c0-1.32,1.37-2.19,2.43-2.66.44-.2.86-.38,1.26-.54-.12-1.04-.3-1.46-1.31-1.46-1.06,0-1.95.57-3.28,1.62l-.15-.04-.51-.71v-.1c1.27-1,2.28-2.04,3.1-3.32-.48.02-.95.03-1.42.03-.53,0-1.05-.01-1.58-.03v-.92Z"/>
  <path class="cls-1" d="m234.99,13.89v.97h-1.05l.06-2.55v-7.74l-.06-2.19.06-.06,2.19.06h5.49l2.19-.06.06.06-.06,2.19v7.74l.06,2.49h-1.07v-.92h-7.88Zm7.88-10.63h-7.88v2.61h7.88v-2.61Zm0,3.45h-7.88v2.76h7.88v-2.76Zm0,3.6h-7.88v2.73h7.88v-2.73Z"/>
  <path class="cls-1" d="m249.1,5.32h-.38l-1.8.06v-.93l1.8.06h.38v-2.05c0-.44-.03-.79-.1-1.16,1.32.08,1.53.18,1.53.33,0,.12-.1.22-.48.32v2.56h.21l1.8-.06v.93l-1.8-.06h-.21v2.67c.63-.17,1.27-.36,2.07-.58,0,.27,0,.54.02.79-.67.21-1.38.42-2.08.63v1.8l.06,2.68c0,1.2-.15,1.49-1.89,1.49h-.41c-.07-.35-.25-.77-.42-1.05.57.08.93.09,1.26.09.38,0,.45-.14.45-.48v-4.25c-.46.14-.92.25-1.33.38-.06.44-.1.56-.3.56-.15,0-.27-.25-.63-1.35.42-.06.67-.1,1.02-.18.44-.09.84-.2,1.25-.29v-2.91Zm4.72.26c0,.45.14.55,2.93.55,2.95,0,3-.06,3.04-1.61.27.17.62.29.9.36-.08,1.88-.36,2.1-3.9,2.1s-3.9-.17-3.9-1.03v-3.71c0-.32-.03-.6-.09-.87,1.29.1,1.51.21,1.51.38,0,.13-.08.21-.5.31v1.65c1.61-.29,3.48-.72,4.65-1.11.2-.06.45-.18.66-.33.81.69.88.86.88.99,0,.09-.06.15-.23.15-.12,0-.31-.03-.6-.11-1.51.42-3.57.86-5.37,1.12v1.14Zm.17,8.58v.9h-.99l.06-2.19v-2.75l-.04-1.74.06-.06,1.74.06h3.11l1.77-.06.06.06-.04,1.74v2.73l.06,2.13h-1v-.83h-4.77Zm4.77-5h-4.77v1.67h4.77v-1.67Zm0,2.42h-4.77v1.8h4.77v-1.8Z"/>
  <path class="cls-1" d="m273.65,11.61c-1.8,1.65-4.17,2.67-6.01,2.67-2.13,0-3.27-.79-3.27-3.18,0-2.05.06-5.17.13-8.34-.36-.13-.45-.24-.45-.36,0-.1.12-.18.35-.18.18,0,.6.01,1.26.08-.17,3.6-.24,6.06-.24,8.68,0,1.65.45,2.19,2.15,2.19,1.87,0,3.97-1.02,5.56-2.59.18.41.36.77.52,1.04Z"/>
  <path class="cls-1" d="m285.87,4.29c-1.73.15-2.82.43-3.86,1.17-1.38.96-2.21,2.38-2.21,4.11,0,2.82,2.64,3.41,4.96,3.41.18,0,.38,0,.56-.02l-.03,1.17h-.24c-3,0-6.25-.85-6.25-4.48,0-1.83.86-3.36,2.1-4.39.31-.21.63-.41,1-.6l-1.21.24c-1.85.27-3.56.5-5.82.81l-.18-1.03c4.11-.45,7.41-.92,11.01-1.46l.1.06.12.95-.06.08Z"/>
  <path class="cls-1" d="m292.2,15.15c-.79-1.28-1.72-2.4-2.88-3.38l.83-.67c1.18.93,2.16,2.02,3,3.25l-.95.79Z"/>
</svg>