<?xml version="1.0" encoding="UTF-8"?>
<svg id="_カラー40_40px" data-name="カラー40*40px" xmlns="http://www.w3.org/2000/svg" viewBox="0 0 114 114">
  <defs>
    <style>
      .cls-1 {
        fill: #01005e;
      }

      .cls-2 {
        fill: #9999f8;
      }
    </style>
  </defs>
  <g id="Ae">
    <rect class="cls-1" x="1" y="1" width="112" height="112" rx="19.91" ry="19.91"/>
    <g>
      <path class="cls-2" d="M29.78,28.68h11.3l18.54,50.94h-11.54l-3.9-11.72H26.36l-3.9,11.72H11.08L29.78,28.68Zm-.96,31.05h12.73l-2.31-6.79c-.74-2.1-1.43-4.22-2.07-6.35-.64-2.13-1.25-4.27-1.83-6.43h-.16c-.58,2.05-1.22,4.14-1.91,6.27-.69,2.13-1.41,4.3-2.15,6.51l-2.31,6.79Z"/>
      <path class="cls-2" d="M98.32,63.81h-24.7v.31c0,2.96,1.04,5.17,3.12,6.62,2.08,1.45,4.75,2.18,8.03,2.18,2.08,0,3.91-.21,5.49-.62,1.58-.42,3.03-.91,4.33-1.48l1.87,7.24c-1.4,.68-3.17,1.26-5.3,1.75-2.13,.49-4.65,.74-7.56,.74s-5.44-.38-7.91-1.13c-2.47-.75-4.62-1.91-6.47-3.46-1.85-1.56-3.31-3.53-4.4-5.92-1.09-2.39-1.64-5.24-1.64-8.57,0-2.96,.44-5.64,1.32-8.06,.88-2.41,2.14-4.48,3.78-6.19,1.64-1.71,3.6-3.05,5.88-4.01,2.29-.96,4.83-1.44,7.64-1.44,5.04,0,9.05,1.53,12.04,4.59,2.99,3.06,4.48,7.35,4.48,12.85v4.59Zm-10.6-7.09c0-.98-.12-1.95-.35-2.88-.23-.93-.61-1.75-1.13-2.45-.52-.7-1.17-1.26-1.95-1.67-.78-.41-1.74-.62-2.88-.62-2.08,0-3.79,.7-5.14,2.1-1.35,1.4-2.16,3.3-2.42,5.68l13.87-.16Z"/>
    </g>
  </g>
</svg>