<?xml version="1.0" encoding="UTF-8"?>
<svg id="_カラー40_40px" data-name="カラー40*40px" xmlns="http://www.w3.org/2000/svg" viewBox="0 0 114 114">
  <defs>
    <style>
      .cls-1 {
        fill: #f89800;
      }

      .cls-2 {
        fill: #300;
      }
    </style>
  </defs>
  <g id="Ai">
    <rect class="cls-2" x="1" y="1" width="112" height="112" rx="19.91" ry="19.91"/>
    <g>
      <path class="cls-1" d="M41.08,28.15h11.33l18.59,51.99h-11.57l-3.91-11.97h-17.87l-3.91,11.97h-11.41L41.08,28.15Zm-.96,31.69h12.77l-2.31-6.93c-.75-2.15-1.44-4.3-2.07-6.48-.64-2.17-1.25-4.36-1.84-6.56h-.16c-.59,2.09-1.22,4.22-1.91,6.4-.69,2.17-1.41,4.39-2.15,6.64l-2.31,6.93Z"/>
      <path class="cls-1" d="M80.83,36.22c-1.72,0-3.06-.49-4.02-1.48s-1.44-2.21-1.44-3.68,.48-2.69,1.44-3.68,2.3-1.48,4.02-1.48,3,.49,3.98,1.48,1.48,2.21,1.48,3.68-.48,2.69-1.44,3.68c-.96,.99-2.3,1.48-4.02,1.48Zm-5.09,43.92V41.48h10.1v38.67h-10.1Z"/>
    </g>
  </g>
</svg>