<?xml version="1.0" encoding="UTF-8"?>
<svg id="_カラー40_40px" data-name="カラー40*40px" xmlns="http://www.w3.org/2000/svg" viewBox="0 0 114 114">
  <defs>
    <style>
      .cls-1 {
        fill: #e87c0c;
      }

      .cls-2 {
        fill: #fff;
      }

      .cls-3 {
        fill: #255787;
      }
    </style>
  </defs>
  <g id="blender">
    <path class="cls-1" d="M96.88,38.14L64.56,11.85c-2.6-2.12-6.4-1.7-8.49,.93-2.09,2.63-1.68,6.47,.92,8.59l11.38,9.25H22.99c-3.33,0-6.04,2.73-6.04,6.11s2.7,6.11,6.04,6.11h22.04L3.29,76.27c-2.61,2.09-3.06,5.93-.99,8.58,1.19,1.52,2.96,2.32,4.74,2.32,1.31,0,2.63-.43,3.74-1.32l24.95-19.98c-.02,.52-.04,1.05-.04,1.57,0,19.92,17.31,36.06,38.65,36.06s38.65-16.15,38.65-36.06c0-12.07-6.36-22.74-16.12-29.29Z"/>
    <g>
      <ellipse class="cls-3" cx="74.39" cy="64.77" rx="23.69" ry="21.35"/>
      <path class="cls-2" d="M74.39,51.19c8.83,0,16.01,6.09,16.01,13.58s-7.18,13.58-16.01,13.58-16.01-6.09-16.01-13.58,7.18-13.58,16.01-13.58m0-7.77c-13.08,0-23.69,9.56-23.69,21.35s10.61,21.35,23.69,21.35,23.69-9.56,23.69-21.35-10.61-21.35-23.69-21.35h0Z"/>
    </g>
  </g>
</svg>