<?xml version="1.0" encoding="UTF-8"?>
<svg id="_カラー40_40px" data-name="カラー40*40px" xmlns="http://www.w3.org/2000/svg" xmlns:xlink="http://www.w3.org/1999/xlink" viewBox="0 0 114 114">
  <defs>
    <style>
      .cls-1 {
        fill: none;
      }

      .cls-2 {
        clip-path: url(#clippath);
      }

      .cls-3 {
        fill: #fff;
      }

      .cls-4 {
        fill: #eceeee;
      }

      .cls-5 {
        fill: #1074b8;
      }

      .cls-6 {
        fill: #222;
      }

      .cls-7 {
        fill: #33aada;
      }
    </style>
    <clipPath id="clippath">
      <polygon class="cls-1" points="56.78 29.35 56.78 106.18 83.29 98.56 89.26 29.35 56.78 29.35"/>
    </clipPath>
  </defs>
  <g id="html">
    <polygon class="cls-5" points="89.09 104.62 57 113 24.91 104.62 17.5 22.92 96.5 22.92 89.09 104.62"/>
    <polygon class="cls-7" points="56.78 29.35 56.78 106.18 83.29 98.56 89.26 29.35 56.78 29.35"/>
    <polygon class="cls-4" points="32.17 38.54 82.33 38.54 77.77 89.39 57.25 95.16 36.83 89.28 35.52 73.59 45.75 73.59 46.46 81.38 57.25 84.52 68.55 81.59 69.46 68.62 46.46 68.62 45.35 58.6 70.27 58.6 71.08 48.77 33.49 48.77 32.17 38.54"/>
    <polygon class="cls-4" points="32.17 38.54 82.33 38.54 77.77 89.39 57.25 95.16 36.83 89.28 35.52 73.59 45.75 73.59 46.46 81.38 57.25 84.52 68.55 81.59 69.46 68.62 46.46 68.62 45.35 58.6 70.27 58.6 71.08 48.77 33.49 48.77 32.17 38.54"/>
    <g class="cls-2">
      <polygon class="cls-3" points="32.17 38.54 82.33 38.54 77.77 89.39 57.25 95.16 36.83 89.28 35.52 73.59 45.75 73.59 46.46 81.38 57.25 84.52 68.55 81.59 69.46 68.62 46.46 68.62 45.35 58.6 70.27 58.6 71.08 48.77 33.49 48.77 32.17 38.54"/>
    </g>
    <polygon class="cls-6" points="46.59 1 34.59 1 34.59 16.05 46.59 16.05 46.59 12.05 39.61 12.05 39.61 4.92 46.59 4.92 46.59 1"/>
    <polygon class="cls-6" points="49.37 1 49.37 4.57 56.57 12.01 49.37 12.01 49.37 16.05 63.44 16.05 63.44 12.64 56.41 5.08 63.13 5.15 63.13 1 49.37 1"/>
    <polygon points="65.98 1 65.98 4.57 73.18 12.01 65.98 12.01 65.98 16.05 80.06 16.05 80.06 12.64 73.02 5.08 79.74 5.15 79.74 1 65.98 1"/>
  </g>
</svg>