<?xml version="1.0" encoding="UTF-8"?>
<svg id="_カラー40_40px" data-name="カラー40*40px" xmlns="http://www.w3.org/2000/svg" viewBox="0 0 114 114">
  <defs>
    <style>
      .cls-1 {
        fill: #023201;
      }

      .cls-2 {
        fill: #17ff52;
      }
    </style>
  </defs>
  <g id="Dn">
    <rect class="cls-1" x="1" y="1" width="112" height="112" rx="19.91" ry="19.91"/>
    <g>
      <path class="cls-2" d="M32.31,28.6c3.69,0,7.05,.52,10.07,1.54,3.03,1.03,5.63,2.58,7.8,4.63,2.17,2.06,3.85,4.62,5.04,7.68,1.19,3.06,1.78,6.63,1.78,10.69,0,4.66-.71,8.66-2.12,11.99-1.41,3.33-3.33,6.1-5.76,8.29-2.42,2.19-5.26,3.81-8.52,4.84-3.26,1.03-6.7,1.55-10.34,1.55H15.64V28.6h16.66Zm-6.29,42.6h3.56c2.12,0,4.18-.29,6.17-.85,1.99-.57,3.75-1.55,5.26-2.93,1.52-1.38,2.73-3.22,3.64-5.53,.91-2.3,1.36-5.21,1.36-8.74,0-5.15-1.36-9.09-4.09-11.83-2.73-2.74-6.39-4.11-10.98-4.11h-4.92v33.98Z"/>
      <path class="cls-2" d="M73.77,79.81h-10.81V41.03h8.45l1.3,4.96c1.79-1.84,3.75-3.27,5.89-4.27,2.14-1,4.51-1.5,7.11-1.5,4.28,0,7.56,1.17,9.84,3.49,2.28,2.33,3.41,5.72,3.41,10.16v25.93h-10.81v-24.79c0-2.01-.49-3.59-1.46-4.76-.98-1.16-2.41-1.75-4.31-1.75-1.41,0-2.89,.39-4.43,1.18-1.55,.79-2.94,1.86-4.19,3.21v26.91Z"/>
    </g>
  </g>
</svg>