<?xml version="1.0" encoding="UTF-8"?>
<svg id="_カラー40_40px" data-name="カラー40*40px" xmlns="http://www.w3.org/2000/svg" xmlns:xlink="http://www.w3.org/1999/xlink" viewBox="0 0 114 114">
  <defs>
    <style>
      .cls-1 {
        fill: #ff8376;
      }

      .cls-2 {
        fill: #ae6fff;
      }

      .cls-3 {
        fill: #13dc90;
      }

      .cls-4 {
        fill: #232222;
      }

      .cls-5 {
        fill: #4fccff;
      }

      .cls-6 {
        fill: url(#_名称未設定グラデーション_11);
      }
    </style>
    <radialGradient id="_名称未設定グラデーション_11" data-name="名称未設定グラデーション 11" cx="47.59" cy="31.08" fx="31.69" fy="31.08" r="15.93" gradientTransform="translate(-3.11 -1.25)" gradientUnits="userSpaceOnUse">
      <stop offset="0" stop-color="#ea623b"/>
      <stop offset=".48" stop-color="#ff6a3f"/>
    </radialGradient>
  </defs>
  <g id="Figma">
    <rect class="cls-4" x="1" y="1" width="112" height="112" rx="19.91" ry="19.91"/>
    <g>
      <path class="cls-2" d="M44.32,43h13.28v26.56h-13.28c-7.33,0-13.28-5.95-13.28-13.28h0c0-7.33,5.95-13.28,13.28-13.28Z"/>
      <rect class="cls-5" x="57.61" y="43" width="26.56" height="26.56" rx="13.28" ry="13.28"/>
      <path class="cls-3" d="M44.32,69.57h13.28v15.98c0,5.84-4.74,10.58-10.58,10.58h-2.7c-7.33,0-13.28-5.95-13.28-13.28h0c0-7.33,5.95-13.28,13.28-13.28Z"/>
      <path class="cls-6" d="M44.32,16.44h13.28v26.56h-13.28c-7.33,0-13.28-5.95-13.28-13.28h0c0-7.33,5.95-13.28,13.28-13.28Z"/>
      <path class="cls-1" d="M57.61,16.44h13.28c7.33,0,13.28,5.95,13.28,13.28h0c0,7.33-5.95,13.28-13.28,13.28h-13.28V16.44h0Z"/>
    </g>
  </g>
</svg>