<?xml version="1.0" encoding="UTF-8"?>
<svg id="_カラー40_40px" data-name="カラー40*40px" xmlns="http://www.w3.org/2000/svg" xmlns:xlink="http://www.w3.org/1999/xlink" viewBox="0 0 114 114">
  <defs>
    <style>
      .cls-1 {
        fill: none;
      }

      .cls-2 {
        clip-path: url(#clippath);
      }

      .cls-3 {
        fill: #e65224;
      }

      .cls-4 {
        fill: #fff;
      }

      .cls-5 {
        fill: #eceef0;
      }

      .cls-6 {
        fill: #f16a2d;
      }

      .cls-7 {
        fill: #222;
      }
    </style>
    <clipPath id="clippath">
      <polygon class="cls-1" points="57 29.22 57 106.17 83.51 98.54 89.48 29.22 57 29.22"/>
    </clipPath>
  </defs>
  <g id="css">
    <polygon class="cls-3" points="89.09 104.61 57 113 24.91 104.61 17.5 22.78 96.5 22.78 89.09 104.61"/>
    <polygon class="cls-6" points="57 29.22 57 106.17 83.51 98.54 89.48 29.22 57 29.22"/>
    <polygon class="cls-5" points="82.31 39.41 32.38 39.41 34.91 69.59 69.58 69.59 68.29 82.01 57 85.4 45.71 82.01 45.07 74.1 35.07 74.1 36.69 90.08 57 96.05 77.53 89.76 80.06 59.42 43.41 59.42 42.65 49.41 81.02 49.41 82.31 39.41"/>
    <g>
      <path class="cls-7" d="M29.62,1V6.02h5.1V1h4.73V15.82h-4.73v-4.81h-5.1v4.81h-4.73V1h4.73Z"/>
      <path class="cls-7" d="M42.01,5.73V1h13.6V5.73h-4.44V15.82h-4.73V5.73h-4.44Z"/>
      <path class="cls-7" d="M62.92,1l3.3,5.46h-.38l3.13-5.46h5.78V15.82h-4.32V5.32h.38l-4.66,7.39-5.08-7.29h1.37V15.82h-4.32V1h4.79Z"/>
      <path class="cls-7" d="M82.27,1V11.1h7.21v4.72h-11.95V1h4.73Z"/>
    </g>
    <g class="cls-2">
      <polygon class="cls-4" points="82.31 39.41 32.38 39.41 34.91 69.59 69.58 69.59 68.29 82.01 57 85.4 45.71 82.01 45.07 74.1 35.07 74.1 36.69 90.08 57 96.05 77.53 89.76 80.06 59.42 43.41 59.42 42.65 49.41 81.02 49.41 82.31 39.41"/>
    </g>
  </g>
</svg>