<?xml version="1.0" encoding="UTF-8"?>
<svg id="_カラー40_40px" data-name="カラー40*40px" xmlns="http://www.w3.org/2000/svg" viewBox="0 0 114 114">
  <defs>
    <style>
      .cls-1 {
        fill: #ff3066;
      }

      .cls-2 {
        fill: #4c021f;
      }
    </style>
  </defs>
  <g id="Id">
    <rect class="cls-2" x="1" y="1" width="112" height="112" rx="19.91" ry="19.91"/>
    <g>
      <path class="cls-1" d="M42.78,27.75v53.28h-11.03V27.75h11.03Z"/>
      <path class="cls-1" d="M75.64,22.06h10.26v57.84h-7.33l-1.08-4.21h-.39c-.92,1.35-2.25,2.54-3.97,3.56-1.72,1.03-3.97,1.54-6.75,1.54-2.31,0-4.48-.46-6.48-1.38-2.01-.92-3.76-2.24-5.25-3.97-1.49-1.73-2.66-3.83-3.51-6.32-.85-2.48-1.27-5.32-1.27-8.51s.38-5.86,1.16-8.35c.77-2.48,1.88-4.6,3.32-6.36,1.44-1.75,3.21-3.1,5.32-4.05,2.11-.94,4.53-1.42,7.25-1.42,1.75,0,3.41,.27,4.98,.81,1.57,.54,2.82,1.24,3.74,2.11V22.06Zm0,29.33c-.67-.86-1.54-1.59-2.62-2.19-1.08-.59-2.26-.89-3.55-.89s-2.41,.22-3.51,.65c-1.11,.43-2.08,1.12-2.93,2.07-.85,.95-1.53,2.19-2.04,3.73-.52,1.54-.77,3.42-.77,5.63s.23,4.02,.69,5.59c.46,1.57,1.08,2.86,1.85,3.89,.77,1.03,1.68,1.78,2.74,2.27,1.05,.49,2.17,.73,3.36,.73,1.64,0,3.05-.42,4.2-1.26s2.02-1.82,2.59-2.96v-17.26Z"/>
    </g>
  </g>
</svg>