<?xml version="1.0" encoding="UTF-8"?>
<svg id="_カラー40_40px" data-name="カラー40*40px" xmlns="http://www.w3.org/2000/svg" viewBox="0 0 114 114">
  <defs>
    <style>
      .cls-1 {
        fill: #01005e;
      }

      .cls-2 {
        fill: #9999f8;
      }
    </style>
  </defs>
  <g id="Pr">
    <rect class="cls-1" x="1" y="1" width="112" height="112" rx="19.91" ry="19.91"/>
    <g>
      <path class="cls-2" d="M27.24,28.74h18.04c2.99,0,5.7,.35,8.12,1.06,2.42,.71,4.49,1.74,6.2,3.1,1.71,1.36,3.03,3.01,3.96,4.94,.93,1.93,1.39,4.15,1.39,6.65,0,2.94-.54,5.47-1.63,7.59s-2.57,3.88-4.45,5.26c-1.88,1.39-4.07,2.42-6.57,3.1-2.5,.68-5.17,1.02-8,1.02h-5.88v18.69h-11.18V28.74Zm11.18,24.16h4.57c1.41,0,2.76-.12,4.04-.37,1.28-.24,2.39-.68,3.35-1.31,.95-.63,1.7-1.44,2.24-2.45,.54-1.01,.82-2.27,.82-3.8,0-2.67-.9-4.62-2.69-5.88-1.8-1.25-4.08-1.88-6.86-1.88h-5.47v15.67Z"/>
      <path class="cls-2" d="M70.81,80.16V40.95h8.47l1.23,7.07c.93-2.08,2.41-3.92,4.44-5.51,2.03-1.59,4.57-2.38,7.65-2.38,1.26,0,2.38,.14,3.37,.41,.99,.28,1.81,.6,2.47,.99l-1.81,8.63c-.6-.33-1.37-.62-2.3-.86-.93-.25-2.03-.37-3.29-.37-2.69,0-4.92,.89-6.7,2.67-1.78,1.78-2.67,4.7-2.67,8.75v19.81h-10.85Z"/>
    </g>
  </g>
</svg>