<?xml version="1.0" encoding="UTF-8"?>
<svg id="_カラー40_40px" data-name="カラー40*40px" xmlns="http://www.w3.org/2000/svg" viewBox="0 0 114 114">
  <defs>
    <style>
      .cls-1 {
        fill: #021f37;
      }

      .cls-2 {
        fill: #2ea8ff;
      }
    </style>
  </defs>
  <g id="Ps">
    <rect class="cls-1" x="1" y="5.25" width="112" height="112" rx="19.91" ry="19.91"/>
    <g>
      <path class="cls-2" d="M23.36,33.08h17.99c2.98,0,5.68,.35,8.1,1.06,2.41,.7,4.48,1.74,6.19,3.09,1.71,1.36,3.02,3,3.95,4.92,.92,1.93,1.38,4.14,1.38,6.63,0,2.93-.54,5.45-1.63,7.57s-2.56,3.87-4.44,5.25c-1.87,1.38-4.06,2.42-6.55,3.09-2.5,.68-5.15,1.02-7.98,1.02h-5.86v18.64h-11.15V33.08Zm11.15,24.09h4.56c1.41,0,2.75-.12,4.03-.37,1.27-.24,2.39-.68,3.34-1.3,.95-.62,1.7-1.44,2.24-2.44,.54-1,.81-2.27,.81-3.79,0-2.66-.9-4.61-2.69-5.86-1.79-1.25-4.07-1.87-6.84-1.87h-5.45v15.63Z"/>
      <path class="cls-2" d="M89.85,54.81c-3.2-1.52-6.29-2.28-9.28-2.28-1.74,0-3.08,.3-4.03,.9-.95,.6-1.43,1.41-1.43,2.44s.42,1.87,1.26,2.52c.84,.65,2.54,1.36,5.09,2.12l2.44,.73c3.36,.98,5.91,2.39,7.65,4.23,1.74,1.85,2.6,4.23,2.6,7.16,0,3.85-1.48,6.92-4.44,9.2-2.96,2.28-6.96,3.42-12.01,3.42s-9.58-.92-13.27-2.77l2.44-7.98c1.57,.81,3.23,1.48,4.96,1.99,1.74,.52,3.5,.77,5.29,.77,2.17,0,3.76-.34,4.76-1.02,1-.68,1.51-1.56,1.51-2.65,0-1.14-.49-2.02-1.47-2.65-.98-.62-2.82-1.32-5.53-2.08l-2.52-.73c-3.26-1.09-5.64-2.52-7.16-4.31-1.52-1.79-2.28-4.18-2.28-7.16,0-3.53,1.33-6.4,3.99-8.63,2.66-2.22,6.38-3.34,11.15-3.34s8.9,.84,12.53,2.52l-2.28,7.57Z"/>
    </g>
  </g>
</svg>