<?xml version="1.0" encoding="UTF-8"?>
<svg id="_カラー40_40px" data-name="カラー40*40px" xmlns="http://www.w3.org/2000/svg" viewBox="0 0 114 114">
  <defs>
    <style>
      .cls-1 {
        fill: #fff;
      }

      .cls-2 {
        fill: #848f65;
      }
    </style>
  </defs>
  <g id="touchdesigner">
    <rect class="cls-2" x="2.36" y="3.26" width="108.32" height="108.32"/>
    <circle class="cls-1" cx="57" cy="57" r="25.71"/>
    <rect x="50.68" y="50.68" width="12.64" height="12.64"/>
    <path d="M1,1V113H113V1H1ZM77.71,57c0,11.42-9.29,20.71-20.71,20.71s-20.71-9.29-20.71-20.71,9.29-20.71,20.71-20.71,20.71,9.29,20.71,20.71ZM5,5H54.5V31.42c-5.22,.5-9.99,2.57-13.82,5.72l-8.93-8.93V15.27H15.54V31.48h12.4l9.2,9.2c-3.65,4.44-5.85,10.12-5.85,16.32s2.19,11.88,5.85,16.32l-9.71,9.71H15.54v16.21H31.75v-13.46l8.93-8.93c3.84,3.16,8.6,5.22,13.82,5.72v26.42H5V5ZM109,109H59.5v-26.42c5.22-.5,9.99-2.57,13.82-5.72l9.16,9.16v13.23h16.21v-16.21h-12.13l-9.71-9.71c3.65-4.44,5.85-10.12,5.85-16.32s-2.19-11.88-5.85-16.32l9.2-9.2h12.64V15.27h-16.21v12.72l-9.16,9.16c-3.84-3.16-8.6-5.22-13.82-5.72V5h49.5V109Z"/>
  </g>
</svg>