<?xml version="1.0" encoding="UTF-8"?>
<svg id="_カラー40_40px" data-name="カラー40*40px" xmlns="http://www.w3.org/2000/svg" viewBox="0 0 114 114">
  <defs>
    <style>
      .cls-1 {
        fill: #040907;
      }

      .cls-2 {
        fill: #818382;
      }

      .cls-3 {
        fill: #4e4e50;
      }
    </style>
  </defs>
  <g id="Unity">
    <polygon class="cls-2" points="61.2 20.85 61.2 1 106 27.05 57.16 55.73 8 26.84 52.7 1 52.7 21.06 34.03 31.88 57 45.5 80.07 31.99 61.2 20.85"/>
    <polygon class="cls-3" points="8 79.21 8 26.84 57.16 55.73 57.16 113 12.48 86.65 29.79 76.57 48.33 87.57 48.33 60.88 25.49 47.59 25.49 69.24 8 79.21"/>
    <polygon class="cls-1" points="106 79.21 106 26.84 57.16 55.73 57.16 113 101.83 86.65 84.52 76.57 65.98 87.57 65.98 60.88 88.82 47.59 88.82 69.24 106 79.21"/>
  </g>
</svg>