<?xml version="1.0" encoding="UTF-8"?>
<svg id="_カラー40_40px" data-name="カラー40*40px" xmlns="http://www.w3.org/2000/svg" viewBox="0 0 114 114">
  <defs>
    <style>
      .cls-1 {
        fill: #ff66f7;
      }

      .cls-2 {
        fill: #42043a;
      }
    </style>
  </defs>
  <g id="Xd">
    <rect class="cls-2" x="1" y="1" width="112" height="112" rx="19.91" ry="19.91"/>
    <g>
      <path class="cls-1" d="M27.73,28.77l10.18,17.82,10.19-17.82h12.11l-15.66,25.11,16.43,25.92h-12.5l-11.11-18.63-10.65,18.63H14.69l15.82-25.92L15.38,28.77h12.34Z"/>
      <path class="cls-1" d="M88.05,21.97h10.26v57.84h-7.33l-1.08-4.21h-.39c-.93,1.35-2.25,2.54-3.97,3.57-1.72,1.02-3.97,1.54-6.75,1.54-2.32,0-4.47-.46-6.48-1.38-2.01-.92-3.76-2.24-5.25-3.97-1.49-1.73-2.66-3.83-3.51-6.32-.85-2.48-1.27-5.32-1.27-8.51s.39-5.86,1.16-8.34c.77-2.48,1.88-4.6,3.32-6.36,1.44-1.75,3.21-3.11,5.32-4.05,2.11-.94,4.53-1.42,7.25-1.42,1.75,0,3.41,.27,4.98,.81,1.57,.54,2.82,1.24,3.74,2.11V21.97Zm0,29.33c-.67-.87-1.54-1.59-2.62-2.19s-2.26-.89-3.55-.89-2.41,.22-3.51,.65c-1.11,.43-2.08,1.12-2.93,2.07-.85,.95-1.53,2.19-2.04,3.73-.52,1.54-.77,3.42-.77,5.63s.23,4.02,.69,5.59c.46,1.57,1.08,2.86,1.85,3.89,.77,1.03,1.68,1.78,2.74,2.27,1.05,.49,2.17,.73,3.36,.73,1.65,0,3.05-.42,4.2-1.25,1.16-.84,2.02-1.82,2.58-2.96v-17.25Z"/>
    </g>
  </g>
</svg>