<?xml version="1.0" encoding="UTF-8"?>
<svg id="_テキスト" data-name="テキスト" xmlns="http://www.w3.org/2000/svg" viewBox="0 0 148 15">
  <defs>
    <style>
      .cls-1 {
        fill: #444;
      }
    </style>
  </defs>
  <path class="cls-1" d="m11.84,5.09c.13.62.3,1.23.53,1.82.67,1.71,1.71,3.23,3.07,4.45.48.43.99.82,1.52,1.17.56.37,1.15.69,1.74.99-.37.34-.62.66-.85,1.06-3.23-1.86-5.63-4.59-6.58-7.86-.19,1.3-.56,2.51-1.1,3.51-.99,1.84-2.66,3.38-5.6,4.58-.24-.37-.46-.62-.82-.88,2.77-1.01,4.53-2.34,5.51-4.24.66-1.26.99-2.77,1.12-4.59h-3.58l-2.4.06v-1.09l2.4.06h3.62c.02-.26.02-.53.02-.8v-1.68c0-.59-.05-1.07-.13-1.46,1.55.13,1.79.24,1.79.43,0,.16-.16.27-.56.37v2.23c0,.3,0,.61-.02.91h4.27l2.4-.06v1.09l-2.4-.06h-3.95Z"/>
  <path class="cls-1" d="m25.94.47c.67.58.93.85.93,1.02s-.14.26-.56.38c-.67,1.66-.99,2.45-1.62,3.84,1.15,1.14,1.63,2.11,1.63,3.52,0,1.52-.93,2.27-2.24,2.34-.13-.43-.26-.7-.5-1.06,1.18.08,1.71-.14,1.71-1.46,0-1.14-.38-2.05-1.65-3.11.74-1.68,1.18-2.83,1.71-4.32h-2.32v10.71l.03,2.4h-1.07l.08-2.4V2.67l-.06-1.86.06-.06,1.86.06h1.46l.35-.35h.19Zm8.36,3.71c.74.64.91.82.91.98,0,.14-.1.24-.56.34-.32,2.48-.94,4.35-2.02,5.84.83.82,1.89,1.47,3.28,2.13-.22.26-.43.56-.61.88-1.3-.61-2.38-1.34-3.28-2.26-.85.93-1.92,1.7-3.25,2.37-.16-.27-.4-.56-.64-.8,1.33-.59,2.4-1.34,3.25-2.32-.99-1.28-1.67-2.9-2.02-4.99l.91-.11c.35,1.92.86,3.28,1.68,4.35.91-1.36,1.46-3.06,1.65-5.17h-5.04v2.02c0,3.35-.7,5.28-2.67,6.96-.19-.24-.5-.5-.75-.64,1.89-1.44,2.45-3.17,2.45-6.43V2.95l-.05-1.86.06-.06,1.86.06h3.79l2.4-.06v.98l-2.4-.06h-4.69v2.59h5.17l.37-.35h.19Z"/>
  <path class="cls-1" d="m45.66,3.68V1.49c0-.46-.05-.88-.13-1.26,1.5.05,1.75.16,1.75.34,0,.14-.18.24-.53.38v2.74h3.36l2.4-.06v1.06l-2.4-.06h-3.36v3.47h2.45l2.4-.06v1.04l-2.4-.06h-2.45v3.89h4.18l2.4-.06v1.06l-2.4-.06h-9.59l-2.4.06v-1.06l2.4.06h4.32v-3.89h-1.89l-2.4.06v-1.04l2.4.06h1.89v-3.47h-3.83c-.48,1.49-1.17,2.88-2.06,4.23-.3-.19-.62-.32-.99-.38,1.39-1.89,2.21-4,2.62-6.31.11-.62.14-.98.13-1.31,1.44.35,1.52.43,1.52.61s-.18.24-.53.34c-.11.66-.24,1.3-.42,1.9h3.55Z"/>
  <path class="cls-1" d="m56.98,3.31c1.7-.14,3.43-.26,5.17-.3v-1.68c-.42-.11-.56-.24-.56-.38,0-.13.14-.18.34-.18s.48,0,1.36.03c-.03.78-.05,1.5-.06,2.16.86-.02,1.71-.03,2.56-.03.61,0,1.38.02,1.98.03l.03.96c-.61-.02-1.39-.03-2-.03-.8,0-1.68.02-2.59.03-.02.45-.02.85-.02,1.2s0,.8.02,1.3c1.14-.1,2.37-.27,3.75-.5l.22.96c-1.33.24-2.66.42-3.94.53.03,1.04.08,2.18.11,3.14,1.49.59,3.07,1.38,4.59,2.19l-.62,1.01c-1.26-.78-2.66-1.47-3.94-2.08-.16,1.63-1.31,2.24-2.77,2.24-2.19,0-3.31-.98-3.31-1.98,0-.91,1.46-2.05,3.31-2.05.34,0,1.1.14,1.66.32-.03-.86-.06-1.81-.1-2.72-.64.05-1.28.06-1.89.06-1.38,0-2.21-.35-2.8-.7l.61-.75c.56.32,1.14.48,2.19.48.59,0,1.22-.02,1.87-.06-.02-.48-.02-.93-.02-1.31v-1.23c-1.7.05-3.47.14-5.11.29l-.06-.93Zm3.52,7.52c-1.2,0-2.14.59-2.14,1.1,0,.46.82.98,2.26.98,1.12,0,1.66-.67,1.66-1.65-.64-.26-1.33-.43-1.78-.43Z"/>
  <path class="cls-1" d="m76.1,1.63l-.03,1.94c.26-.02.45-.03.7-.03l.16.06.26.46-.02.14c-.53.8-.85,1.46-1.15,1.98v.38c2.3-2.43,3.94-3.99,5.28-3.99,1.17,0,1.62.64,1.62,1.82,0,.72-.08,1.92-.16,3.41-.08,1.34-.14,2.48-.14,3.15,0,.61.1.91.67.91.7,0,1.34-.35,2.23-1.63.26.4.45.61.7.86-.99,1.26-1.94,1.92-3.2,1.92-.8,0-1.49-.62-1.49-1.94,0-.96.05-1.94.13-3.27.11-1.67.13-2.72.13-3.31,0-.48-.14-.93-.53-.93-.61,0-1.79.56-5.3,4.34,0,1.76,0,4.4.02,6.13h-1.06v-4.37l.06-1.15-.48.82c-.4.61-.86,1.3-1.58,2.34l-.14.02-.71-.61-.02-.14c1.12-1.57,1.67-2.32,2.91-4.07.03-.78.05-1.73.05-2.24-.86.13-1.86.32-2.72.54l-.22-.98c.9-.16,1.95-.34,2.96-.5l.02-2.43c-.37-.1-.51-.26-.51-.37,0-.08.1-.16.26-.16.42,0,.88.03,1.39.06l-.08.8Z"/>
</svg>