<?xml version="1.0" encoding="UTF-8"?>
<svg id="_テキスト" data-name="テキスト" xmlns="http://www.w3.org/2000/svg" viewBox="0 0 148 15">
  <defs>
    <style>
      .cls-1 {
        fill: #444;
      }
    </style>
  </defs>
  <path class="cls-1" d="m7.76,2.16c1.06-.62,2.43-.93,3.46-.93,2.31,0,3.52,1.26,3.52,3.15,0,2.37-1.07,3.91-6,8h6.74v1.04H7.15v-1.1c4.98-4.07,6.23-5.67,6.23-7.81,0-1.3-.82-2.21-2.51-2.21-.64,0-1.38.19-1.91.43l-.13,2.26h-1.07v-2.83Z"/>
  <path class="cls-1" d="m20.99,7.68c0-4.37,1.44-6.45,4.48-6.45,2.74,0,4.26,2.11,4.26,5.89,0,4.37-1.44,6.45-4.48,6.45-2.74,0-4.26-2.11-4.26-5.89Zm1.38-.22c0,3.62,1.06,5.03,3.04,5.03s2.93-1.5,2.93-5.14-1.04-5.03-3.03-5.03-2.95,1.5-2.95,5.14Z"/>
  <path class="cls-1" d="m35.62,7.68c0-4.37,1.44-6.45,4.48-6.45,2.74,0,4.26,2.11,4.26,5.89,0,4.37-1.44,6.45-4.48,6.45-2.74,0-4.26-2.11-4.26-5.89Zm1.38-.22c0,3.62,1.06,5.03,3.04,5.03s2.93-1.5,2.93-5.14-1.04-5.03-3.03-5.03-2.95,1.5-2.95,5.14Z"/>
  <path class="cls-1" d="m50.6,2.16c1.06-.62,2.43-.93,3.46-.93,2.31,0,3.52,1.26,3.52,3.15,0,2.37-1.07,3.91-6,8h6.74v1.04h-8.32v-1.1c4.98-4.07,6.23-5.67,6.23-7.81,0-1.3-.82-2.21-2.51-2.21-.64,0-1.38.19-1.91.43l-.13,2.26h-1.07v-2.83Z"/>
  <path class="cls-1" d="m69.91,3.09h-4.13c-.62,1.01-1.38,1.98-2.24,2.93-.27-.26-.59-.45-.86-.56,1.23-1.28,2.26-2.75,2.98-4.42.13-.32.22-.64.26-.94,1.15.27,1.55.42,1.55.61,0,.22-.1.27-.61.34-.16.38-.35.77-.54,1.14h7.96l2.4-.06v1.04l-2.4-.06h-3.25v2.79h2.32l2.4-.06v1.02l-2.4-.06h-2.32v3.44h3.71l2.4-.06v1.04l-2.4-.06h-3.71v1.28l.06,2.4h-1.23l.06-2.4v-1.28h-5.11l-2.4.06v-1.04l2.4.06h.53v-2.48l-.06-1.86.06-.06,1.86.06h2.72v-2.79Zm-3.5,3.68v3.44h3.5v-3.44h-3.5Z"/>
  <path class="cls-1" d="m88.99,2.56h-5.35l-.22,3.97c.64-.18,1.41-.29,2.24-.29,2.9,0,3.92,1.6,3.92,3.36,0,2.58-1.65,3.91-4.13,3.91-2.32,0-3.52-.93-3.68-2.66h1.33c.06.8.5,1.58,2.46,1.58,1.68,0,2.71-.94,2.71-2.56s-.9-2.59-3.14-2.59c-.83,0-2.14.24-2.93.51l.34-6.39h6.53l-.08,1.15Z"/>
  <path class="cls-1" d="m96.99,9.2c-.3,2.79-1.41,4.26-2.99,5.7-.22-.27-.58-.56-.88-.74,1.92-1.5,2.9-3.22,2.9-6.75V2.9l-.06-1.86.06-.06,1.86.06h4.83l1.86-.06.06.06-.06,1.86v7.79l.05,2.66c0,1.1-.42,1.38-1.6,1.38h-1.15c-.08-.38-.19-.78-.38-1.15.74.08,1.2.1,1.52.1.38,0,.51-.11.51-.58v-3.89h-6.51Zm6.51-3.7h-6.43v2.05c0,.27,0,.53-.02.77h6.45v-2.82Zm0-3.59h-6.43v2.71h6.43V1.92Z"/>
  <path class="cls-1" d="m113.83,2.67l-2.95,1.25v-1.02l3.36-1.47h.88v11.01l2.48.16v.83h-6.18v-.83l2.4-.16V2.67Z"/>
  <path class="cls-1" d="m130.93,1.43v1.31c-2.19,3.36-3.47,6.85-4.02,10.69h-1.33c.3-2.95,1.78-6.98,4.23-10.9h-5.51l-.16,2.71h-1.04V1.43h7.83Z"/>
  <path class="cls-1" d="m137.85,13.53v1.26h-1.1l.06-2.4V3.63l-.06-2.34.06-.06,2.34.06h4.96l2.34-.06.06.06-.06,2.34v8.69l.06,2.42h-1.1v-1.22h-7.55Zm7.55-11.32h-7.55v4.69h7.55V2.21Zm0,5.59h-7.55v4.82h7.55v-4.82Z"/>
</svg>