<?xml version="1.0" encoding="UTF-8"?>
<svg id="_テキスト" data-name="テキスト" xmlns="http://www.w3.org/2000/svg" viewBox="0 0 92 24">
  <defs>
    <style>
      .cls-1 {
        fill: #444;
      }
    </style>
  </defs>
  <path class="cls-1" d="m18.04,8.33l4.06-.1v2.09l-4.06-.1H4.57v3.07c0,4.2-.84,6.91-2.64,9.41-.46-.6-1.1-1.08-1.73-1.39,1.66-2.33,2.21-4.39,2.21-7.97v-1.87l-.1-3.14.1-.1,3.79.1h11.83Zm-7.66-5.69c0-.74-.07-1.13-.22-1.75,2.74.14,3.17.24,3.17.67,0,.24-.22.36-.77.5v2.69h5.26v-1.44c0-.67-.05-1.15-.22-1.75,2.74.14,3.14.26,3.14.67,0,.24-.22.36-.77.5v1.61l.07,2.18-.1.14-3.34-.07H6.44l-3.31.07-.12-.17.07-2.16v-1.03c0-.7-.05-1.1-.22-1.75,2.74.14,3.12.26,3.12.67,0,.24-.22.36-.77.5v2.02h5.16v-2.11Zm1.54,11.26h-2.02l-3.84.1v-2.02l3.84.1h6.58l3.84-.1v2.02l-3.84-.1h-2.38v2.5h4.46l3.84-.1v2.06l-3.84-.1h-4.46v1.51l.1,3.43h-2.38l.1-3.43v-1.51h-3.29l-3.84.1v-2.06l3.84.1h3.29v-2.5Z"/>
  <path class="cls-1" d="m50.12,11.74l-3.84.1v-1.9l3.84.1h3.17c.36-.6.7-1.22.96-1.87h-1.3l-3.86.1v-1.85l3.86.1h1.92c.19-.5.31-1.03.46-1.56h-3.79l-3.84.1v-1.9l3.84.1h4.13c.14-.77.22-1.44.22-1.94,0-.05,0-.17-.02-.58,2.28.31,3.05.53,3.05.89s-.12.41-.82.55c-.07.38-.14.74-.22,1.08h4.94l3.86-.1v1.9l-3.86-.1h-5.33c-.12.53-.26,1.06-.43,1.56h4.32l3.86-.1v1.85l-3.86-.1h-1.08c.26.65.6,1.27.98,1.87h2.95l3.84-.1v1.9l-3.84-.1h-1.63l.38.38c1.46,1.46,2.78,2.28,5.93,3.26-.5.53-1.08,1.3-1.46,2.04-1.75-.86-3.14-1.63-4.39-2.64l-.05,1.7v2.78l.1,3.91h-2.23v-1.03h-7.2v1.13h-2.21l.1-3.86v-2.93l-.05-1.51c-1.18,1.01-2.57,1.99-4.34,3.02-.67-.79-1.03-1.06-1.66-1.51,2.71-1.39,3.67-2.04,5.06-3.26.53-.46,1.03-.96,1.46-1.49h-1.92Zm4.27.12c-.38.53-.82,1.06-1.27,1.56l1.51.02h5.3l1.63-.02c-.05-.07-.12-.12-.17-.19-.46-.5-.86-.98-1.22-1.49h-5.69l-.1.12Zm6.48,3.31h-7.2v1.68h7.2v-1.68Zm0,3.36h-7.2v1.9h7.2v-1.9Zm-1.75-8.5c-.31-.6-.58-1.25-.86-1.87h-1.78c-.26.65-.58,1.27-.91,1.87h3.55Z"/>
  <path class="cls-1" d="m73.52,15.22c-1.08.77-2.28,1.46-3.58,2.18-.19-.5-.6-1.18-1.25-1.78,3.53-1.37,5.67-3.12,7.22-5.18h-2.98l-3.87.1v-2.04l3.87.1h4.2c.19-.36.41-.74.6-1.13.17-.34.31-.67.43-1.01-2.3.6-4.63,1.03-6.82,1.37-.17-.5-.62-1.18-1.22-1.78,3.48-.48,6.14-.91,8.59-1.61-2.11-.72-4.13-1.32-5.81-1.75l1.15-1.49c2.06.53,4.68,1.27,7.27,2.21.89-.36,1.75-.77,2.59-1.22.74-.41,1.34-.72,1.73-1.2,1.97,1.25,2.11,1.37,2.11,1.66s-.29.36-1.13.29c-.86.53-1.8,1.01-2.78,1.44,1.3.53,2.52,1.08,3.62,1.68l-1.08,1.78c-1.49-.89-3.19-1.68-4.94-2.38-.79.26-1.58.5-2.38.74,1.61.6,1.85.77,1.85,1.06-.02.29-.29.36-.89.38-.17.34-.34.65-.5.96h7.46l3.86-.1v2.04l-3.86-.1h-8.59c-.77,1.08-1.63,2.09-2.62,2.98h4.2v-.29c0-.84-.02-1.08-.19-2.16,2.59.07,3.05.22,3.05.58,0,.26-.24.38-.74.53v1.34h3.91l2.88-.07.1.1-.1,2.33v1.87l.05,1.85c0,1.54-.62,2.06-2.66,2.06h-1.22c-.17-.67-.53-1.63-.91-2.26,1.03.12,1.54.14,2.09.14.38,0,.53-.12.53-.58v-3.62h-4.66v4.08l.1,3.86h-2.3l.1-3.86v-4.08h-4.44v6.5h-2.21l.1-3.38v-1.1l.07-2.04Z"/>
</svg>