<?xml version="1.0" encoding="UTF-8"?>
<svg id="_テキスト" data-name="テキスト" xmlns="http://www.w3.org/2000/svg" viewBox="0 0 552 15">
  <defs>
    <style>
      .cls-1 {
        fill: #444;
      }
    </style>
  </defs>
  <path class="cls-1" d="m10.58.16v.7h-4.72v11.41h-.77V.16h5.49Z"/>
  <path class="cls-1" d="m15.2,3.63c1.7-.14,3.43-.26,5.17-.3v-1.68c-.42-.11-.56-.24-.56-.38,0-.13.14-.18.34-.18s.48,0,1.36.03c-.03.79-.05,1.5-.06,2.16.86-.02,1.71-.03,2.56-.03.61,0,1.38.02,1.98.03l.03.96c-.61-.02-1.39-.03-2-.03-.8,0-1.68.02-2.59.03-.02.45-.02.85-.02,1.2s0,.8.02,1.3c1.14-.1,2.37-.27,3.75-.5l.22.96c-1.33.24-2.66.42-3.94.53.03,1.04.08,2.18.11,3.14,1.49.59,3.07,1.38,4.59,2.19l-.62,1.01c-1.26-.78-2.66-1.47-3.94-2.08-.16,1.63-1.31,2.24-2.77,2.24-2.19,0-3.31-.98-3.31-1.98,0-.91,1.46-2.05,3.31-2.05.34,0,1.1.14,1.66.32-.03-.86-.06-1.81-.1-2.72-.64.05-1.28.06-1.89.06-1.38,0-2.21-.35-2.8-.7l.61-.75c.56.32,1.14.48,2.19.48.59,0,1.22-.02,1.87-.06-.02-.48-.02-.93-.02-1.31v-1.23c-1.7.05-3.47.14-5.11.29l-.06-.93Zm3.52,7.52c-1.2,0-2.15.59-2.15,1.1,0,.46.82.98,2.26.98,1.12,0,1.66-.67,1.66-1.65-.64-.26-1.33-.43-1.78-.43Z"/>
  <path class="cls-1" d="m38.48,3.63h.58c2.21,0,3.17,0,4.39.05l-.02,1.04c-1.79-.11-3.07-.13-4.34-.13h-.61v2.9c.24.66.34,1.22.34,1.9,0,2.69-1.23,4.5-5.04,5.04-.11-.32-.29-.64-.53-.99,3.22-.32,4.43-2.02,4.51-3.34-.32.5-.96.85-2.05.85-1.36,0-2-.66-2-1.86,0-1.55,1.42-3.09,2.64-3.09.4,0,.82.11,1.1.5-.02-.62-.02-1.25-.03-1.87-1.7.03-3.81.14-6.72.35l-.05-1.02c2.95-.16,5.09-.26,6.75-.3,0-.64-.02-1.28-.02-1.92-.4-.14-.54-.24-.54-.37,0-.11.1-.21.29-.21.35,0,.93.02,1.39.03l-.05.99v1.46Zm-3.81,5.35c0,.72.32,1.01,1.31,1.01s1.54-.7,1.58-1.58c-.21-1.1-.85-1.44-1.26-1.44-.61,0-1.63.93-1.63,2.02ZM40.85.38c.86.79,1.42,1.42,2.05,2.43l-.77.58c-.56-.96-1.15-1.73-2.02-2.53l.74-.48Zm2.05-.59c.85.8,1.3,1.28,1.92,2.29l-.72.56c-.58-.95-1.04-1.52-1.9-2.32l.7-.53Z"/>
  <path class="cls-1" d="m48.59,14.33c-.48-1.58-.67-3.22-.67-4.88,0-2.64.34-5.04.94-7.44-.32-.21-.42-.32-.42-.43,0-.1.1-.13.22-.13.21,0,.56.08,1.41.34-.72,2.58-1.07,5.31-1.07,7.44,0,1.79.26,3.28.66,4.85l-1.07.26Zm2.93-9.75c.94.05,2.06.06,3.01.06.5,0,1.04-.02,1.63-.03-.02-.8-.02-1.62-.03-2.42-.38-.11-.56-.22-.56-.38,0-.11.14-.18.37-.18s.74.02,1.33.05c-.02.48-.02.91-.02,1.33,0,.56,0,1.07.02,1.54.82-.05,1.73-.11,2.71-.22l.02,1.02c-.98.08-1.86.14-2.72.21.02,1.58.06,3.76.16,5.54.85.48,1.89,1.07,2.82,1.71l-.69.98c-.75-.58-1.54-1.1-2.31-1.57-.48,1.12-1.46,1.73-2.88,1.73-1.7,0-2.82-.8-2.82-1.84s1.42-2.02,2.59-2.02c.67,0,1.47.14,2.18.46-.06-1.3-.11-3.36-.16-4.95-.74.03-1.46.05-2.22.05-.64,0-1.44,0-2.4-.03l-.02-1.04Zm2.58,6.43c-.75,0-1.52.56-1.52,1.04,0,.42.59.91,1.49.91,1.18,0,1.89-.42,2.15-1.31-.64-.4-1.44-.64-2.11-.64Z"/>
  <path class="cls-1" d="m65.81,13.94v1.02h-1.1l.06-2.4v-7.89l-.06-2.34.06-.06,2.34.06h1.63c.18-.37.34-.75.48-1.18.13-.38.19-.61.24-.93,1.34.29,1.58.42,1.58.56,0,.18-.13.24-.61.29-.18.4-.4.86-.62,1.26h3.43l2.34-.06.06.06-.06,2.34v7.86l.06,2.4h-1.1v-.99h-8.72Zm8.72-10.71h-8.72v2.56h8.72v-2.56Zm0,3.46h-8.72v2.64h8.72v-2.64Zm0,3.54h-8.72v2.8h8.72v-2.8Z"/>
  <path class="cls-1" d="m84.08,1.43c1.31.3,1.57.42,1.57.61,0,.13-.14.26-.62.3-1.04,2.69-2.72,4.95-4.56,6.29-.18-.27-.46-.54-.77-.77,1.84-1.3,3.35-3.38,4.11-5.46.13-.35.22-.69.27-.98Zm2.62,6.71c-.18,3.63-1.52,5.78-5.73,6.59-.13-.3-.42-.67-.62-.9,3.55-.56,5.07-2.16,5.25-5.7h-.62l-2.4.06v-1.06l2.4.06h4.85l1.86-.06.06.06-.06,1.95c-.05,1.63-.1,2.75-.24,3.47-.29,1.49-1.14,1.91-2.5,1.91h-.86c-.08-.38-.24-.77-.45-1.07.61.06.86.08,1.28.08,1.17,0,1.44-.5,1.58-1.78.11-.96.14-2.43.14-3.63h-3.94Zm2.79-7.52c1.17,3.07,2.83,5.23,5.19,6.83-.29.21-.58.51-.85.86-2.27-1.68-4.03-4.05-5.3-7.38l.96-.32Z"/>
  <path class="cls-1" d="m109.11,3.51c-1.84.16-3.01.46-4.11,1.25-1.47,1.02-2.35,2.54-2.35,4.39,0,3.01,2.82,3.63,5.3,3.63.19,0,.4,0,.59-.02l-.03,1.25h-.26c-3.2,0-6.67-.91-6.67-4.79,0-1.95.91-3.58,2.24-4.69.34-.22.67-.43,1.07-.64l-1.3.26c-1.97.29-3.79.53-6.21.86l-.19-1.1c4.39-.48,7.91-.98,11.75-1.55l.11.06.13,1.01-.06.08Zm-1.86,2.13c.91.72,1.52,1.33,2.21,2.29l-.72.62c-.62-.91-1.26-1.63-2.19-2.37l.7-.54Zm1.67-1.12c.9.74,1.38,1.18,2.08,2.15l-.69.61c-.64-.9-1.14-1.44-2.06-2.18l.67-.58Z"/>
  <path class="cls-1" d="m114.31,6.71c1.02-.4,2.16-.82,3.35-1.23-.3-.96-.62-1.97-.98-3.03-.42-.02-.59-.08-.59-.22,0-.08.13-.16.26-.21.37-.13.8-.22,1.31-.34.35,1.1.7,2.24,1.06,3.41,2.19-.74,4.4-1.33,5.71-1.33,1.74,0,3.39.88,3.39,2.96,0,1.65-1.38,3.03-3.52,3.03-1.06,0-1.94-.21-2.82-.74.19-.37.3-.56.43-.96.82.48,1.6.62,2.27.62,1.39,0,2.5-.78,2.5-2,0-1.44-1.14-1.92-2.23-1.92s-3.27.56-5.46,1.3c.77,2.61,1.54,5.33,2.29,8.13l-1.14.32c-.77-2.99-1.41-5.43-2.21-8.07-1.09.42-2,.8-3.19,1.33l-.45-1.06Zm7.35-5.71c.77.54,1.38,1.1,1.98,1.78l-.82.69c-.66-.77-1.31-1.38-2.02-1.87l.85-.59Z"/>
  <path class="cls-1" d="m132.35,7.14c3.19-.75,4.88-1.02,6.39-1.02,2.59,0,4,1.17,4,3.35,0,1.78-.98,3.04-2.83,3.81-1.23.5-2.3.7-4.23.98-.11-.32-.27-.66-.48-.96,1.86-.24,2.91-.43,4.07-.88,1.55-.61,2.31-1.6,2.31-3.03,0-1.54-.94-2.29-2.91-2.29-1.38,0-2.88.27-6.07,1.1l-.24-1.06Z"/>
  <path class="cls-1" d="m158.14,3.51c-1.84.16-3.01.46-4.11,1.25-1.47,1.02-2.35,2.54-2.35,4.39,0,3.01,2.82,3.63,5.3,3.63.19,0,.4,0,.59-.02l-.03,1.25h-.26c-3.2,0-6.67-.91-6.67-4.79,0-1.95.91-3.58,2.24-4.69.34-.22.67-.43,1.07-.64l-1.3.26c-1.97.29-3.79.53-6.21.86l-.19-1.1c4.39-.48,7.91-.98,11.75-1.55l.11.06.13,1.01-.06.08Z"/>
  <path class="cls-1" d="m163.46,1.92c1.73,0,3.46-.05,5.19-.14-.22,2.29-.62,4.4-.9,5.38,1.38.11,2.69.34,4.02.7.03-.58.06-1.23.06-1.83,0-.43-.02-.78-.03-1.09-.26-.1-.48-.21-.48-.37,0-.1.1-.18.3-.18.29,0,.78.03,1.3.08.02.37.03.8.03,1.22,0,1.12-.03,1.87-.08,2.5.85.27,1.71.59,2.62.98l-.42,1.06c-.78-.37-1.57-.69-2.32-.94-.53,3.33-2.5,4.5-5.23,5.12-.16-.27-.3-.51-.58-.85,3.17-.64,4.37-2.22,4.72-4.64-1.6-.48-3.04-.75-4.23-.86-.67,1.98-1.62,3.33-2.21,3.99-.45.5-.99.83-1.68.83-.75,0-1.68-.69-1.68-2.03,0-2.47,2.31-3.78,4.64-3.78h.13c.37-1.17.67-2.93.78-4.27-1.02.05-2.38.1-3.95.11l-.02-.98Zm-.58,8.77c0,.78.43,1.09.66,1.09.3,0,.59-.1.94-.5.66-.74,1.25-1.65,1.84-3.23-1.71.02-3.44,1.01-3.44,2.64Z"/>
  <path class="cls-1" d="m183.29,7.04c1.2-.54,2.13-.74,3.09-.74,2.43,0,4.31,1.31,4.31,3.62,0,2.51-2.1,4.31-5.68,4.31-2.21,0-3.38-1.02-3.38-2.3,0-1.14.96-1.82,2.06-1.82,1.31,0,2.42,1.01,2.87,2.27l-.93.54c-.5-1.26-1.17-1.86-1.9-1.86-.54,0-1.1.4-1.1.83,0,.85.9,1.33,2.29,1.33,2.69,0,4.56-1.2,4.56-3.38,0-1.23-.94-2.61-3.3-2.61-2,0-3.76.85-5.62,2.82l-.14.02-.7-.64v-.13c2.75-2.77,4.43-4.42,6.66-6.5-1.65.22-3.33.37-5.46.42l-.05-1.07c2-.03,4.4-.19,6.32-.46l.35-.29h.14c.82.67.94.93.94,1.06,0,.19-.16.24-.69.42-1.44,1.3-2.51,2.34-3.78,3.44l-.91.66.05.08Z"/>
  <path class="cls-1" d="m195.51,15.21v-.7h4.72V3.09h.77v12.12h-5.49Z"/>
  <path class="cls-1" d="m214.66,3.27c.66.03,1.28.05,1.89.05.66,0,1.28-.02,1.92-.05.3-.54.58-1.14.85-1.78-.26-.11-.42-.24-.42-.38,0-.08.1-.13.29-.13.14,0,.99.13,1.46.22-.35.77-.67,1.42-.98,1.99,1.31-.1,2.69-.26,4.29-.46l.13.99c-1.79.22-3.41.38-4.99.48-.64,1.04-1.22,1.76-1.92,2.37l.05.05c.69-.37,1.39-.5,2-.5,1.2,0,1.87.74,2,1.99,1.49-.58,2.8-1.01,4.16-1.5-.03-.14-.05-.26-.05-.35,0-.19.08-.26.18-.26s.14.05.22.13c.34.4.62.88.8,1.33-1.81.53-3.67,1.12-5.23,1.68.05.8.08,1.76.1,2.64l-1.1.02c0-.77-.02-1.6-.05-2.26-.22.08-.45.18-.66.26-1.2.48-2.32,1.22-2.32,2.1,0,1.02.75,1.31,2.46,1.31,2.35,0,4.03-.18,5.12-.3l.03,1.12c-1.22.11-2.69.21-5.04.21s-3.62-.69-3.62-2.29c0-1.41,1.46-2.34,2.59-2.83.46-.21.91-.4,1.34-.58-.13-1.1-.32-1.55-1.39-1.55-1.14,0-2.08.61-3.51,1.73l-.16-.05-.54-.75.02-.11c1.34-1.07,2.42-2.18,3.3-3.54-.51.02-1.01.03-1.52.03-.56,0-1.12-.02-1.68-.03l-.02-.98Z"/>
  <path class="cls-1" d="m233.61,8.52c-.78,1.46-1.79,2.61-2.96,3.68-.22-.27-.5-.5-.82-.7,1.28-1.1,2.16-2.19,2.77-3.46-.19-.21-.34-.38-.34-.48,0-.11.1-.16.19-.16.11,0,.43.11,1.46.67l-.3.45Zm6.51-3.92l2.43-.06v1.15l-2.43-.05h-3.01v5.54c0,.61.03,1.06.03,1.44,0,.98-.5,1.46-1.36,1.46-.59,0-1.39-.16-2.34-.48.06-.35.08-.72.08-1.04.86.27,1.52.4,1.98.4.32,0,.46-.14.46-.67v-6.64h-3.23l-2.43.05v-1.15l2.43.06h3.23v-2.42c-.42-.27-.5-.37-.5-.48,0-.1.08-.14.27-.14s.72.1,1.47.29l-.11.77v1.98h3.01Zm-.14,2.87c1.09,1.07,2.05,2.34,2.91,3.79l-.93.7c-.88-1.54-1.81-2.82-2.86-3.83l.88-.67Zm3.99-5.43c0,.98-.8,1.76-1.76,1.76s-1.74-.78-1.74-1.76.78-1.75,1.74-1.75,1.76.78,1.76,1.75Zm-2.82,0c0,.59.48,1.07,1.06,1.07s1.09-.48,1.09-1.07-.5-1.07-1.09-1.07-1.06.5-1.06,1.07Z"/>
  <path class="cls-1" d="m250.08,6.68l.06,2.43h-1.28l.06-2.43V2.5c-.46-.32-.53-.38-.53-.53,0-.06.08-.11.27-.11.27,0,.77.11,1.52.3l-.11.77v3.75Zm6.15,1.17c0,3.63-1.98,5.86-6.42,6.28-.13-.35-.29-.71-.5-1.04,4.03-.37,5.73-2.08,5.73-5.23V2.27c-.46-.32-.53-.38-.53-.53,0-.06.08-.11.27-.11.27,0,.8.11,1.55.3l-.11.77v5.14Z"/>
  <path class="cls-1" d="m262.5,5.76c1.67.37,2.83.72,4.29,1.31l-.43,1.01c-1.38-.54-2.59-.93-4.23-1.3l.37-1.02Zm.66,8.04c-.35-.98-.5-1.33-.5-1.49,0-.13.08-.21.19-.21.1,0,.26.11.53.35,4.53-.59,7.59-3.23,9.59-8.56.34.42.62.69.91.93-1.94,5.11-5.06,7.84-9.83,8.79l-.9.19Zm.26-11.52c1.7.4,3.09.85,4.43,1.55l-.51,1.02c-1.22-.67-2.58-1.14-4.29-1.52l.37-1.06Z"/>
  <path class="cls-1" d="m277.85,8.48v-1.3l2.43.08h7.07l2.43-.08v1.3l-2.43-.06h-7.07l-2.43.06Z"/>
  <path class="cls-1" d="m294.72,14.05c-.21-1.68-.29-3.06-.29-4.85s.26-4.03.83-6.96c-.34-.18-.48-.32-.48-.45,0-.11.11-.16.32-.16.22,0,.53.05,1.52.29-.78,2.59-1.07,5.14-1.07,7.36,0,1.73.08,3.01.37,4.67l-1.2.1Zm5.09-4.58c-.3.5-.45.93-.45,1.55,0,.67.83,1.18,3.43,1.18,1.12,0,2.64-.14,3.79-.35l.08,1.18c-1.04.16-2.55.27-3.81.27-3.22,0-4.61-.77-4.61-2.22,0-.64.16-1.26.64-2.13l.93.51Zm-.82-5.54c1.46-.22,3.04-.34,4.45-.34,1.01,0,1.78.03,2.56.11l-.02,1.06c-.85-.06-1.58-.1-2.72-.1-1.36,0-2.85.11-4.21.34l-.06-1.07Z"/>
  <path class="cls-1" d="m313.76,15.09c-.85-1.36-1.84-2.56-3.07-3.6l.88-.72c1.26.99,2.3,2.16,3.2,3.47l-1.01.85Z"/>
  <path class="cls-1" d="m327.77,4.21v-.98l1.98.06h1.73l1.9-.06v.98l-1.9-.06h-1.73l-1.98.06Zm1.78,9.76v.99h-1.01l.06-1.92v-1.86l-.06-1.22.08-.06,1.36.06h1.47l1.36-.06.08.06-.05,1.22v1.55l.08,1.92h-1.01v-.69h-2.37Zm-.9-12v-.98l1.44.06h1.25l1.44-.06v.98l-1.44-.06h-1.25l-1.44.06Zm0,4.47v-.98l1.44.06h1.25l1.44-.06v.98l-1.44-.06h-1.25l-1.44.06Zm0,2.22v-.98l1.44.06h1.25l1.44-.06v.98l-1.44-.06h-1.25l-1.44.06Zm3.27,2.1h-2.37v2.43h2.37v-2.43Zm4.55.8c.74-.11,1.52-.26,2.21-.4-.03.29-.06.56-.06.85-1.42.32-2.91.59-4.23.83,0,.29-.1.48-.24.48-.21,0-.34-.18-.78-1.38.43-.02.77-.03,1.14-.08.29-.03.62-.08.98-.14v-3.71h-.37l-1.44.06v-.96l1.44.06h1.65l1.44-.06v.96l-1.44-.06h-.29v3.55Zm1.97-8.08c-.02-.66-.02-1.31-.02-1.94,0-.35-.02-.72-.08-1.09,1.46.13,1.65.24,1.65.4,0,.19-.14.24-.58.35,0,.77,0,1.54.02,2.27h.75l2.4-.06v.99l-2.4-.06h-.74c.05,1.63.13,2.98.18,3.47.18,1.87.54,3.57,1.17,4.91.35.75.53.96.7.96.26,0,.32-.75.43-2.02.3.24.66.37.9.46-.13,2.26-.62,2.74-1.33,2.74-.5,0-1.07-.54-1.6-1.7-.53-1.15-1.02-2.95-1.26-5.55-.06-.74-.13-1.95-.16-3.28h-2.24l-2.4.06v-.99l2.4.06h2.21Zm2.31-2.77c.5.32,1.06.77,1.49,1.22l-.67.69c-.4-.46-.91-.94-1.38-1.3l.56-.61Z"/>
  <path class="cls-1" d="m348.1,7.68c-.54.67-1.14,1.31-1.74,1.87-.22-.27-.54-.53-.78-.66,1.26-1.22,2.34-2.5,2.99-3.55.21-.35.43-.83.5-1.17,1.2.45,1.49.61,1.49.78,0,.22-.16.27-.74.27-.3.54-.67,1.09-1.06,1.63.72.08.8.18.8.32s-.18.24-.53.38v7.49h-1.06l.06-2.4v-2.83l.06-2.14Zm.9-7c1.15.5,1.34.64,1.34.85,0,.19-.22.21-.67.16-.88.9-1.98,1.75-3.19,2.42-.18-.29-.43-.58-.67-.75,1.12-.59,2.11-1.33,2.71-1.95.27-.29.38-.48.48-.72Zm8.55,10.23l.06,2.55c0,1.26-.29,1.58-1.73,1.58h-1.1c-.06-.3-.22-.82-.45-1.12.61.08,1.38.1,1.73.1s.45-.14.45-.51v-6.93h-3.01l-2.4.06v-1.02l2.4.06h4.53l2.4-.06v1.02l-2.4-.06h-.48v4.34Zm-5.39-8.55v-1.01l2.4.06h2.54l2.4-.06v1.01l-2.4-.06h-2.54l-2.4.06Z"/>
  <path class="cls-1" d="m368.76,3.92c-.72-.77-1.39-1.34-2.13-1.84-.82,1.38-1.66,2.42-2.69,3.34-.19-.29-.42-.5-.7-.69,1.14-.93,2.11-2.26,2.77-3.65.14-.3.22-.54.26-.85,1.28.3,1.47.43,1.47.59s-.14.27-.58.27c-.05.08-.1.18-.13.26.85.5,1.68,1.14,2.4,1.83l-.67.74Zm-2.66,1.87h-.22l-1.28.06v-.93l1.28.06h1.73l1.28-.06v.93l-1.28-.06h-.58v1.81h.58l1.6-.06v.93l-1.6-.06h-.58v4.37c.8-.16,1.6-.34,2.3-.53-.02.26-.02.56-.02.83-1.3.37-3.17.75-4.8,1.1-.05.32-.13.43-.27.43-.19,0-.34-.14-.8-1.33.43-.02.74-.05,1.09-.1.46-.06.99-.14,1.57-.24v-4.55h-.8l-1.6.06v-.93l1.6.06h.8v-1.81Zm-1.47,3.75c.34.62.64,1.47.78,2.1l-.82.35c-.16-.67-.45-1.5-.77-2.11l.8-.34Zm4.85.35c0,.13-.11.21-.5.29-.16.56-.34,1.09-.61,1.7-.27-.13-.5-.21-.77-.27.26-.56.42-1.12.54-1.71.05-.22.08-.38.1-.56,1.15.32,1.23.43,1.23.56Zm2.18-6.35l-1.82.05v-.93l1.82.05v-1.26c0-.37-.03-.72-.13-1.1,1.55.14,1.68.24,1.68.42,0,.13-.18.26-.58.34v1.62h2.13v-1.26c0-.37-.03-.72-.13-1.1,1.55.14,1.68.24,1.68.42,0,.13-.18.26-.58.34v1.62h.13l1.92-.05v.93l-1.92-.05h-.13v2.51h.56l1.92-.05v.96l-1.92-.05h-5.06l-1.92.05v-.96l1.92.05h.42v-2.51Zm-.11,10.76v.8h-1.02l.06-2.5v-2.42l-.05-1.86.06-.06,1.86.06h2.61l1.86-.06.06.06-.05,1.86v2.4l.06,2.46h-1.04v-.75h-4.42Zm4.42-5.14h-4.42v1.73h4.42v-1.73Zm0,2.53h-4.42v1.78h4.42v-1.78Zm-1.2-5.63v-2.51h-2.13v2.51h2.13Z"/>
  <path class="cls-1" d="m381.09,4.18v-.98l1.98.06h1.74l1.9-.06v.98l-1.9-.06h-1.74l-1.98.06Zm1.78,9.76v.99h-1.01l.06-1.92v-1.86l-.06-1.22.08-.06,1.36.06h1.47l1.36-.06.08.06-.05,1.22v1.55l.08,1.92h-1.01v-.69h-2.37Zm-.9-12v-.98l1.44.06h1.25l1.44-.06v.98l-1.44-.06h-1.25l-1.44.06Zm0,4.47v-.98l1.44.06h1.25l1.44-.06v.98l-1.44-.06h-1.25l-1.44.06Zm0,2.23v-.98l1.44.06h1.25l1.44-.06v.98l-1.44-.06h-1.25l-1.44.06Zm3.27,2.1h-2.37v2.43h2.37v-2.43Zm2.15,4.15c-.21-.22-.53-.46-.83-.61.96-.61,1.84-1.36,2.45-2.18.19-.24.37-.51.46-.8,1.07.43,1.28.58,1.28.74,0,.18-.24.26-.67.22-.69.99-1.68,1.87-2.69,2.62Zm8.66-5.17v.98l-2.4-.06h-4.53l-2.4.06v-.98l2.4.06h4.45v-1.76h-3.71l-2.34.06-.06-.06.06-1.86v-2.62c0-.46-.03-.85-.11-1.23,1.41.11,1.54.19,1.54.35,0,.18-.08.24-.48.37v4.15h3.73l2.34-.08.06.06-.06,1.38v1.23l1.52-.05Zm-6.21-4.07l-.06-.05.06-1.39v-1.68l-.06-1.38.06-.06,1.7.06h1.42l1.7-.06.06.06-.06,1.38v1.68l.06,1.38-.06.06-1.7-.06h-1.42l-1.7.06Zm3.89-.87V1.95h-2.96v2.82h2.96Zm-.53,6.53c1.14.86,1.97,1.76,2.77,2.75l-.86.67c-.8-1.09-1.57-2-2.64-2.88l.74-.54Z"/>
  <path class="cls-1" d="m399.43,3.27c.66.03,1.28.05,1.89.05.66,0,1.28-.02,1.92-.05.3-.54.58-1.14.85-1.78-.26-.11-.42-.24-.42-.38,0-.08.1-.13.29-.13.14,0,.99.13,1.46.22-.35.77-.67,1.42-.98,1.99,1.31-.1,2.69-.26,4.29-.46l.13.99c-1.79.22-3.41.38-4.99.48-.64,1.04-1.22,1.76-1.92,2.37l.05.05c.69-.37,1.39-.5,2-.5,1.2,0,1.87.74,2,1.99,1.49-.58,2.8-1.01,4.16-1.5-.03-.14-.05-.26-.05-.35,0-.19.08-.26.18-.26s.14.05.22.13c.34.4.62.88.8,1.33-1.81.53-3.67,1.12-5.23,1.68.05.8.08,1.76.1,2.64l-1.1.02c0-.77-.02-1.6-.05-2.26-.22.08-.45.18-.66.26-1.2.48-2.32,1.22-2.32,2.1,0,1.02.75,1.31,2.46,1.31,2.35,0,4.03-.18,5.12-.3l.03,1.12c-1.22.11-2.69.21-5.04.21s-3.62-.69-3.62-2.29c0-1.41,1.46-2.34,2.59-2.83.46-.21.91-.4,1.34-.58-.13-1.1-.32-1.55-1.39-1.55-1.14,0-2.08.61-3.51,1.73l-.16-.05-.54-.75.02-.11c1.34-1.07,2.42-2.18,3.3-3.54-.51.02-1.01.03-1.52.03-.56,0-1.12-.02-1.68-.03l-.02-.98Z"/>
  <path class="cls-1" d="m424.89,5.3l1.86-.06.06.06-.06,1.86v1.3l.06,1.86-.06.06-1.86-.06h-2.96v1.26h2.96l2.4-.06v.94l-2.4-.06h-2.96v1.3h4.53l2.4-.06v.96l-2.4-.06h-9.89l-2.4.06v-.96l2.4.06h4.37v-1.3h-2.72l-2.4.06v-.94l2.4.06h2.72v-1.26h-2.88l-1.79.06-.08-.08.06-1.84v-1.3l-.06-1.86.06-.06,1.86.06h2.83v-1.22h-4.21l-2.4.06v-.96l2.4.06h4.21v-1.28c-1.81.11-3.62.18-5.49.22-.1-.3-.26-.56-.51-.87,4.02-.02,7.59-.24,10.29-.59.34-.05.64-.14.94-.29.86.62,1.1.86,1.1,1.04,0,.11-.06.16-.24.16-.14,0-.37-.03-.69-.13-1.5.16-2.96.29-4.42.38v1.34h4.42l2.4-.06v.96l-2.4-.06h-4.42v1.22h2.96Zm-3.95.78h-3.71v1.3h3.71v-1.3Zm-3.71,2.07v1.38h3.71v-1.38h-3.71Zm4.71-.77h3.84v-1.3h-3.84v1.3Zm0,2.14h3.84v-1.38h-3.84v1.38Z"/>
  <path class="cls-1" d="m436.25,2.15l-.05,1.87c.26-.02.42-.02.7-.02l.16.08.24.3.02.16c-.48.69-.83,1.2-1.22,1.89l-.03.48c2.71-2.71,4.58-3.76,5.73-3.76,1.5,0,2.72,1.33,2.72,4.82,0,1.47-.1,2.62-.35,3.52.7.58,1.04.86,1.65,1.47l-.72.91c-.54-.62-.83-.9-1.38-1.41-.69.88-1.62,1.26-2.69,1.26-1.55,0-2.58-.74-2.58-1.84,0-.91,1.23-1.94,2.42-1.94.8,0,1.63.32,2.34.85.14-.69.16-1.46.16-2.43,0-2.93-.59-4.21-1.58-4.21s-3.23,1.5-5.75,4.08v2.87c0,.94,0,2.02.02,3.12h-1.07v-4.24l.08-1.01-.54.85c-.53.64-1.1,1.44-1.63,2.1h-.14l-.67-.64.02-.16c1.01-1.17,2.05-2.58,2.98-4.02l.02-2.02c-.88.11-1.78.27-2.66.48l-.16-.98c.98-.18,1.87-.32,2.85-.46l.05-2.46c-.37-.14-.51-.26-.51-.38,0-.11.13-.18.29-.18.22,0,.59.02,1.42.1l-.11.94Zm4.55,8.76c-.58,0-1.38.58-1.38,1.01,0,.53.67.86,1.6.86.7,0,1.28-.26,1.81-.98-.61-.53-1.47-.9-2.03-.9Z"/>
  <path class="cls-1" d="m449.39,3.68c.5.03.93.06,1.42.06.54,0,1.18-.03,1.87-.08.18-.71.32-1.41.43-2.11-.35-.19-.45-.3-.45-.43,0-.1.1-.16.22-.16.21,0,.43.03,1.54.24-.16.78-.34,1.58-.54,2.39.82-.08,1.63-.18,2.37-.29l.08,1.02c-.83.11-1.79.22-2.72.29-.78,2.77-1.82,5.54-3.12,8.28l-1.07-.5c1.26-2.56,2.31-5.12,3.01-7.7-.64.05-1.22.06-1.66.06s-.86,0-1.3-.03l-.08-1.04Zm9.94,2.74c-.4.48-.58.93-.58,1.49,0,.62.14,1.12.53,2.79,1.2.45,2.46,1.18,3.49,1.92l-.62,1.01c-.98-.77-1.84-1.34-2.74-1.73-.02,1.63-1.15,2.43-2.77,2.43-1.73,0-2.9-.74-2.9-1.86,0-1.22,1.01-2.19,2.91-2.19.53,0,.98.06,1.42.14-.26-1.22-.4-1.95-.4-2.58,0-.72.19-1.28.66-1.86l.99.43Zm-2.85,4.83c-1.23,0-1.73.56-1.73,1.12s.66.96,1.79.96,1.74-.51,1.74-1.34c0-.11,0-.35-.03-.46-.61-.16-1.04-.27-1.78-.27Zm1.97-7.92c1.39.34,2.8.88,4.19,1.62l-.53.96c-1.34-.74-2.75-1.3-4.1-1.66l.43-.91Z"/>
  <path class="cls-1" d="m466.72,4.88c1.38-.16,2.62-.29,3.63-.38.29-.91.53-1.83.75-2.74-.32-.13-.45-.24-.45-.37,0-.1.11-.16.26-.16.27,0,.59.06,1.44.26-.26.96-.54,1.94-.85,2.91.43-.03.77-.05.99-.05,1.71,0,2.45.58,2.45,2.8,0,1.68-.32,3.7-.86,5.2-.45,1.23-1.09,1.74-1.86,1.74-.67,0-1.76-.56-2.53-1.23.19-.29.34-.56.48-.9.72.62,1.5.96,1.9.96s.74-.38.98-1.12c.5-1.47.78-3.33.78-4.64,0-1.52-.3-1.82-1.49-1.82-.27,0-.69.02-1.2.06-.98,2.8-2.22,5.63-3.7,8.4l-.98-.48c1.52-2.69,2.67-5.27,3.54-7.81-.9.08-1.97.22-3.17.38l-.13-1.02Zm10.1-1.04c1.62,1.73,2.62,3.49,3.28,5.28l-1.07.62c-.54-1.91-1.74-3.89-3.15-5.3l.94-.61Zm.32-2.56c.91.72,1.52,1.33,2.21,2.29l-.72.62c-.62-.91-1.26-1.63-2.19-2.37l.7-.54Zm1.67-1.12c.9.74,1.38,1.18,2.08,2.14l-.69.61c-.64-.9-1.14-1.44-2.06-2.18l.67-.58Z"/>
  <path class="cls-1" d="m486.47,4.1c-.34,1.62-.54,3.55-.66,4.93,1.26-1.15,2.93-2.11,5.19-2.11,2.5,0,4.08,1.25,4.08,3.15,0,2.69-3.2,4.13-7.07,4.13-.64,0-1.22,0-1.92-.06-.06-.34-.16-.67-.29-1.06.46.05.86.08,1.58.08,3.47-.02,6.43-.88,6.43-3.31,0-.8-.78-1.94-2.99-1.94-1.55,0-2.75.56-4.05,1.58-.38.32-.64.54-.85.86l-.16.11-.98-.13-.08-.13c.1-2.5.27-4.03.62-6.23l1.14.11Zm.88-2.8c1.57.38,3.04.9,4.4,1.54l-.53.99c-1.42-.72-2.75-1.2-4.31-1.6l.43-.93Z"/>
  <path class="cls-1" d="m501.56,7.12c-.37,1.57-.91,2.95-1.92,4.56-.16-.29-.35-.54-.59-.77,1.07-1.62,1.97-3.91,2.31-6.21h-.32l-1.73.06v-.96l1.73.06h.45V1.59c0-.46-.05-.88-.13-1.26,1.42.1,1.57.21,1.57.37,0,.18-.14.27-.53.35v2.83h.42l1.47-.06v.96l-1.47-.06h-.42v2.53l.51-.37c.53.56.93,1.09,1.3,1.73l-.72.56c-.3-.59-.67-1.17-1.09-1.68v2.42l.06,5.19h-1.04l.14-7.96Zm3.15,5.31c1.09-.38,2.05-.83,3.07-1.42-.03.32-.03.72-.02.98-.94.58-1.92,1.07-2.98,1.54-.02.4-.1.53-.27.53s-.38-.26-.85-1.34c.42-.08.86-.21,1.04-.27Zm4.82-9.56c.3-.51.59-1.07.82-1.57.16-.35.27-.69.32-.91,1.09.37,1.33.53,1.33.69s-.13.21-.51.22c-.26.5-.59,1.04-.93,1.57h.77l2.4-.06v.91l-2.4-.06h-1.82v1.31h1.15l2.24-.06v.93l-2.24-.06h-1.15v1.46h2.02l2.4-.06v.94l-2.4-.06h-2.02v.66c.32.7.74,1.34,1.22,1.95.42-.37.78-.77,1.09-1.2.18-.24.29-.4.42-.69.98.56,1.12.7,1.12.86s-.19.19-.58.18c-.51.58-.94,1.01-1.49,1.47.77.79,1.7,1.42,2.79,1.99-.32.22-.54.5-.74.85-1.94-1.22-3.04-2.42-3.87-4.03l.1,3.47c0,1.07-.42,1.38-1.86,1.38h-.45c-.06-.37-.22-.79-.4-1.09.61.06.94.08,1.31.08.3,0,.38-.06.38-.51v-5.36h-1.81l-2.4.06v-.94l2.4.06h1.81v-1.46h-1.14l-2.24.06v-.93l2.24.06h1.14v-1.31h-1.5l-2.4.06v-.91l2.4.06h2.5Zm-3.7,5.89c.53.34,1.09.83,1.55,1.38l-.72.69c-.46-.58-.98-1.07-1.52-1.44l.69-.62Zm1.25-8.16c.38.37.82.93,1.14,1.52l-.88.53c-.34-.64-.69-1.15-1.07-1.57l.82-.48Z"/>
  <path class="cls-1" d="m527.74,4.21c1.04.82,1.17.98,1.17,1.15s-.08.27-.54.46c-1.04,2.32-2.16,3.97-3.43,5.47.61.38,1.47,1.01,2.06,1.46l-.75.91c-1.66-1.44-3.78-2.71-5.57-3.65l.66-.77c.94.46,1.82.96,2.72,1.5,1.22-1.46,2.31-3.09,3.19-5.22l-5.49.13c-.9,1.5-2.02,2.85-3.62,4.31-.24-.3-.53-.59-.8-.75,1.87-1.55,3.54-3.89,4.47-6.07.16-.38.37-.8.48-1.23,1.25.38,1.47.53,1.47.74,0,.18-.14.24-.61.27-.18.42-.58,1.28-.9,1.78l4.9-.13.4-.37h.19Z"/>
  <path class="cls-1" d="m533.34,3.68c.5.03.93.06,1.42.06.54,0,1.18-.03,1.87-.08.18-.71.32-1.41.43-2.11-.35-.19-.45-.3-.45-.43,0-.1.1-.16.22-.16.21,0,.43.03,1.54.24-.16.78-.34,1.58-.54,2.39.82-.08,1.63-.18,2.37-.29l.08,1.02c-.83.11-1.79.22-2.72.29-.78,2.77-1.82,5.54-3.12,8.28l-1.07-.5c1.26-2.56,2.31-5.12,3.01-7.7-.64.05-1.22.06-1.66.06s-.86,0-1.3-.03l-.08-1.04Zm9.94,2.74c-.4.48-.58.93-.58,1.49,0,.62.14,1.12.53,2.79,1.2.45,2.46,1.18,3.49,1.92l-.62,1.01c-.98-.77-1.84-1.34-2.74-1.73-.02,1.63-1.15,2.43-2.77,2.43-1.73,0-2.9-.74-2.9-1.86,0-1.22,1.01-2.19,2.91-2.19.53,0,.98.06,1.42.14-.26-1.22-.4-1.95-.4-2.58,0-.72.19-1.28.66-1.86l.99.43Zm-2.85,4.83c-1.23,0-1.73.56-1.73,1.12s.66.96,1.79.96,1.74-.51,1.74-1.34c0-.11,0-.35-.03-.46-.61-.16-1.04-.27-1.78-.27Zm1.97-7.92c1.39.34,2.8.88,4.19,1.62l-.53.96c-1.34-.74-2.75-1.3-4.1-1.66l.43-.91Z"/>
</svg>