<?xml version="1.0" encoding="UTF-8"?>
<svg id="_テキスト" data-name="テキスト" xmlns="http://www.w3.org/2000/svg" viewBox="0 0 552 15">
  <defs>
    <style>
      .cls-1 {
        fill: #444;
      }
    </style>
  </defs>
  <path class="cls-1" d="m14.99,3.2l.38-.3h.19c.7.69,1.02,1.1,1.02,1.28s-.18.27-.45.38c-2.14,5.12-4.59,7.78-9.09,9.56-.14-.26-.37-.59-.69-.91,4.53-1.79,6.88-4.51,8.55-9.01l-4.8.02c-1.04,1.58-2.21,2.82-3.6,4.03-.27-.3-.56-.51-.88-.72,2.06-1.74,3.52-3.5,4.37-5.62-.29-.26-.38-.38-.38-.5,0-.1.1-.16.16-.16.22,0,.51.1,1.65.62-.22.48-.46.93-.7,1.34l4.27-.02Z"/>
  <path class="cls-1" d="m23.79,6.72l.06,2.43h-1.28l.06-2.43V2.55c-.46-.32-.53-.38-.53-.53,0-.06.08-.11.27-.11.27,0,.77.11,1.52.3l-.11.77v3.75Zm6.15,1.17c0,3.63-1.98,5.86-6.42,6.28-.13-.35-.29-.71-.5-1.04,4.03-.37,5.73-2.08,5.73-5.23V2.32c-.46-.32-.53-.38-.53-.53,0-.06.08-.11.27-.11.27,0,.8.11,1.55.3l-.11.77v5.14Z"/>
  <path class="cls-1" d="m41.91,11.12h3.25l2.43-.06v1.17l-2.43-.06h-7.47l-2.43.06v-1.17l2.43.06h3.04v-6.11h-2.02l-2.43.05v-1.17l2.43.08h5.51l2.43-.08v1.17l-2.43-.05h-2.3v6.11Z"/>
  <path class="cls-1" d="m60.77,3.07c-1.02,1.09-2.11,2.05-3.27,2.93.34.08.7.19,1.04.29l-.06,1.04v4.39l.06,2.45h-1.33l.06-2.43v-5.12l-.26-.26c-1.68,1.2-3.51,2.22-5.54,3.12-.19-.3-.45-.61-.72-.86,3.62-1.52,6.93-3.78,9.28-6.64-.14-.22-.26-.43-.26-.51,0-.11.1-.18.21-.18.14,0,.4.16,1.54.99l-.77.8Z"/>
  <path class="cls-1" d="m73.1,7.67c0,3.44-1.55,5.25-4.74,6.45-.18-.35-.45-.67-.7-.94,2.82-1.01,4.19-2.64,4.19-5.49v-.58h-3.6l-2.43.05v-1.14l2.43.06h7.3l2.43-.06v1.14l-2.43-.05h-2.45v.56Zm-3.09-5.14h3.92l2.43-.06v1.15l-2.43-.05h-3.92l-2.43.05v-1.15l2.43.06Z"/>
  <path class="cls-1" d="m89.98,5.43c-.85.91-1.73,1.7-2.67,2.39.29.08.5.13.75.21l-.06.82v3.55l.05,2.03h-1.18l.05-2.02v-4.07l-.14-.13c-1.34.93-2.83,1.71-4.58,2.46-.18-.29-.35-.51-.66-.78,3.04-1.33,5.65-2.93,7.65-5.35-.13-.21-.21-.37-.21-.45,0-.13.06-.19.19-.19s.48.18,1.46.9l-.64.62Z"/>
  <path class="cls-1" d="m106.65,4.18c-.18,5.3-3.68,9.06-8.53,9.86-.14-.35-.34-.69-.59-1.01,4.39-.7,7.78-4.03,7.84-8.8h-6.53l-2.42.06v-1.17l2.42.06h5.43l2.32-.06.1.08-.03.98Zm-.37-3.19c.91.72,1.52,1.33,2.21,2.29l-.72.62c-.62-.91-1.26-1.63-2.19-2.37l.7-.54Zm1.66-1.12c.9.74,1.38,1.18,2.08,2.14l-.69.61c-.64-.9-1.14-1.44-2.06-2.18l.67-.58Z"/>
  <path class="cls-1" d="m112.83,14.1c-.21-1.68-.29-3.06-.29-4.85s.26-4.03.83-6.96c-.34-.18-.48-.32-.48-.45,0-.11.11-.16.32-.16.22,0,.53.05,1.52.29-.78,2.59-1.07,5.14-1.07,7.36,0,1.73.08,3.01.37,4.67l-1.2.1Zm5.09-4.58c-.3.5-.45.93-.45,1.55,0,.67.83,1.18,3.43,1.18,1.12,0,2.64-.14,3.79-.35l.08,1.18c-1.04.16-2.55.27-3.81.27-3.22,0-4.61-.77-4.61-2.22,0-.64.16-1.26.64-2.13l.93.51Zm-.82-5.54c1.46-.22,3.04-.34,4.45-.34,1.01,0,1.78.03,2.56.11l-.02,1.06c-.85-.06-1.58-.1-2.72-.1-1.36,0-2.85.11-4.21.34l-.06-1.07Z"/>
  <path class="cls-1" d="m130.43,4.66h-.4l-1.92.06v-.99l1.92.06h.4V1.6c0-.46-.03-.85-.11-1.23,1.41.08,1.63.19,1.63.35,0,.13-.11.24-.51.34v2.72l1.58-.05v.99l-1.58-.05v2.82c.59-.14,1.23-.34,1.9-.53,0,.29,0,.58.02.85-.61.19-1.26.4-1.92.59v1.92l.06,2.87c0,1.28-.16,1.58-2.02,1.58h-.43c-.08-.37-.27-.82-.45-1.12.61.08.99.1,1.34.1.4,0,.48-.14.48-.51v-4.53c-.48.14-.96.27-1.42.4-.06.46-.11.59-.32.59-.16,0-.29-.27-.67-1.44.45-.06.72-.11,1.09-.19.43-.1.86-.19,1.33-.3v-3.1Zm3.23,5.76c.02.43-.1.53-.27.53-.14,0-.35-.32-.82-1.38.24-.03.82-.21.99-.27.56-.22,1.41-.59,2.14-.98.03-1.52.02-3.58,0-6.23,0-.4-.02-.99-.13-1.54,1.34.13,1.65.22,1.65.43,0,.16-.13.22-.51.32-.02,4.67,0,7.57-.14,9-.27,2.47-1.41,3.87-3.95,4.66-.14-.32-.37-.61-.66-.85,2.4-.66,3.44-1.79,3.65-3.94.03-.24.05-.53.06-.85-.62.35-1.34.74-2.02,1.09Zm.46-7.07c.48.75.93,1.58,1.3,2.46l-.98.51c-.26-.77-.69-1.82-1.17-2.56l.85-.42Zm5.57,4.54c1.01.71,1.97,1.5,2.79,2.31l-.82.82c-.67-.75-1.58-1.63-2.58-2.39v4.71c0,.38.06.45,1.06.45,1.44,0,1.52-.08,1.57-1.81.42.24.77.4,1.02.46-.06,2.02-.46,2.31-2.54,2.31-1.9,0-2.08-.21-2.08-1.31V1.81c0-.46-.03-.85-.11-1.23,1.41.06,1.57.18,1.57.34s-.14.24-.48.35v7.19l.61-.56Zm.56-1.5c-.22-.19-.54-.43-.78-.59.43-.46,1.02-1.23,1.34-1.73.18-.26.27-.43.38-.72,1.09.7,1.23.85,1.23,1.01s-.21.21-.58.16c-.46.59-1.04,1.31-1.6,1.87Z"/>
  <path class="cls-1" d="m150.52,9.56v1.49h1.17l2.4-.06v.96l-2.4-.06h-1.17v.66l.06,2.56h-1.07l.06-2.56v-.66h-1.34l-2.4.06v-.96l2.4.06h1.34v-1.49h-1.07l-1.84.06-.08-.11.06-1.81v-1.7l-.06-1.86.06-.06,1.86.06h3.04l1.86-.06.06.06-.06,1.86v1.7l.06,1.82-.06.1-1.86-.06h-1.02Zm-3.57-8.87c.51.72.98,1.57,1.3,2.32l-.99.42c-.32-.86-.75-1.73-1.22-2.4l.91-.34Zm2.62,5.75v-1.5h-2v1.5h2Zm-2,2.34h2v-1.55h-2v1.55Zm1.92-8.28c.51.78.86,1.62,1.14,2.43l-.98.32c-.27-.9-.59-1.66-1.06-2.5l.9-.26Zm2.98,4.43h-1.95v1.5h1.95v-1.5Zm0,3.84v-1.55h-1.95v1.55h1.95Zm1.34-7.63c0,.18-.13.21-.58.26-.29.69-.58,1.33-1.04,2.06-.21-.18-.58-.32-.82-.38.34-.61.62-1.26.78-1.79.11-.35.14-.51.19-.8,1.22.35,1.46.51,1.46.66Zm2.9,4.34c.06,1.6.16,3.23.54,4.8.5-.69.94-1.5,1.38-2.5.16-.35.27-.78.3-1.07,1.22.48,1.41.61,1.41.77,0,.19-.14.22-.54.22-.78,1.58-1.49,2.75-2.24,3.65.16.45.34.85.54,1.23.59,1.12.98,1.36,1.23,1.36s.42-.59.43-1.94c.32.19.7.38.93.46-.16,2.29-.7,2.66-1.34,2.66-.37,0-1.17-.42-1.9-1.73-.22-.4-.43-.82-.61-1.28-.98.93-2.13,1.58-3.7,2.27-.24-.32-.48-.56-.78-.83,1.81-.61,3.1-1.31,4.16-2.4-.54-1.81-.7-3.73-.77-5.62l-1.83.16-.06-1.01,1.86-.05c-.02-.67-.03-1.38-.03-2.14,0-1.23-.05-1.7-.13-2.08,1.42.11,1.63.22,1.63.4,0,.14-.18.24-.53.38v1.25c0,.77,0,1.49.02,2.14l1.65-.11,2.24-.21.05,1.01-2.24.08-1.67.11Zm1.86-4.1c.59.32,1.14.72,1.66,1.22l-.7.7c-.48-.48-1.07-.98-1.63-1.31l.67-.61Z"/>
  <path class="cls-1" d="m175.34,11.37c-1.92,1.76-4.45,2.85-6.42,2.85-2.27,0-3.49-.85-3.49-3.39,0-2.19.06-5.52.14-8.9-.38-.14-.48-.26-.48-.38,0-.11.13-.19.37-.19.19,0,.64.02,1.34.08-.18,3.84-.26,6.47-.26,9.27,0,1.76.48,2.34,2.29,2.34,2,0,4.24-1.09,5.94-2.77.19.43.38.82.56,1.1Z"/>
  <path class="cls-1" d="m189.32,3.55c-1.84.16-3.01.46-4.11,1.25-1.47,1.02-2.35,2.54-2.35,4.39,0,3.01,2.82,3.63,5.3,3.63.19,0,.4,0,.59-.02l-.03,1.25h-.26c-3.2,0-6.67-.91-6.67-4.79,0-1.95.91-3.58,2.24-4.69.34-.22.67-.43,1.07-.64l-1.3.26c-1.97.29-3.79.53-6.21.86l-.19-1.1c4.39-.48,7.91-.98,11.75-1.55l.11.06.13,1.01-.06.08Z"/>
  <path class="cls-1" d="m203.56,3.09c-1.25.43-2.45.77-3.62,1.02.34.69.72,1.34,1.14,1.97,1.2-.32,2.45-.77,3.68-1.36l.43.85c-1.2.54-2.39.98-3.54,1.3.54.74,1.36,1.65,2.15,2.23l.06.14-.16.62-.13.08c-1.1,0-2.31.02-3.41.05l-.03-.78c.64-.06,1.3-.14,1.94-.21-.48-.54-1.04-1.22-1.49-1.86-1.62.38-3.14.54-4.42.54-.45,0-1.33-.08-2.06-.27l.35-.82c.58.08,1.33.18,1.89.18,1.02,0,2.3-.13,3.7-.43-.4-.66-.77-1.34-1.12-2.03-1.47.27-2.93.42-4.42.45l-.08-.94c1.41,0,2.74-.13,4.08-.37-.27-.58-.48-1.15-.69-1.71-.45-.05-.56-.14-.56-.27,0-.11.18-.19.35-.22.22-.05.46-.08,1.22-.16.19.83.38,1.36.72,2.16,1.17-.26,2.37-.61,3.67-1.06l.35.91Zm-7.84,7.46c.19,2.4,2.77,2.48,4.75,2.48.7,0,1.34-.03,2.27-.1l-.02,1.1c-.82.08-1.52.1-2.27.1-2.56,0-5.57-.43-5.67-3.52l.93-.06Z"/>
  <path class="cls-1" d="m209.88,3.68c1.7-.14,3.43-.26,5.17-.3v-1.68c-.42-.11-.56-.24-.56-.38,0-.13.14-.18.34-.18s.48,0,1.36.03c-.03.79-.05,1.5-.06,2.16.86-.02,1.71-.03,2.56-.03.61,0,1.38.02,1.98.03l.03.96c-.61-.02-1.39-.03-2-.03-.8,0-1.68.02-2.59.03-.02.45-.02.85-.02,1.2s0,.8.02,1.3c1.14-.1,2.37-.27,3.75-.5l.22.96c-1.33.24-2.66.42-3.94.53.03,1.04.08,2.18.11,3.14,1.49.59,3.07,1.38,4.59,2.19l-.62,1.01c-1.26-.78-2.66-1.47-3.94-2.08-.16,1.63-1.31,2.24-2.77,2.24-2.19,0-3.31-.98-3.31-1.98,0-.91,1.46-2.05,3.31-2.05.34,0,1.1.14,1.66.32-.03-.86-.06-1.81-.1-2.72-.64.05-1.28.06-1.89.06-1.38,0-2.21-.35-2.8-.7l.61-.75c.56.32,1.14.48,2.19.48.59,0,1.22-.02,1.87-.06-.02-.48-.02-.93-.02-1.31v-1.23c-1.7.05-3.47.14-5.11.29l-.06-.93Zm3.52,7.52c-1.2,0-2.15.59-2.15,1.1,0,.46.82.98,2.26.98,1.12,0,1.66-.67,1.66-1.65-.64-.26-1.33-.43-1.78-.43Z"/>
  <path class="cls-1" d="m236.44,11.37c-1.92,1.76-4.45,2.85-6.42,2.85-2.27,0-3.49-.85-3.49-3.39,0-2.19.06-5.52.14-8.9-.38-.14-.48-.26-.48-.38,0-.11.13-.19.37-.19.19,0,.64.02,1.34.08-.18,3.84-.26,6.47-.26,9.27,0,1.76.48,2.34,2.29,2.34,2,0,4.24-1.09,5.94-2.77.19.43.38.82.56,1.1Z"/>
  <path class="cls-1" d="m240.11,4.23c1.14-.02,2.22-.08,3.31-.19.16-.8.32-1.6.45-2.4-.4-.14-.51-.27-.51-.38s.13-.18.26-.18c.27,0,.86.05,1.54.11-.18.91-.35,1.81-.56,2.72.75-.1,1.49-.21,2.26-.34l.14,1.06c-.9.13-1.76.26-2.64.35-.7,3.06-1.58,6.13-2.72,9.19l-1.09-.37c1.12-2.91,1.98-5.79,2.64-8.71-1.01.1-2.02.16-3.06.19l-.02-1.06Zm7.07,6.1c-.05.37-.1.66-.1.99,0,1.09.54,1.52,2.64,1.52,1.06,0,2.02-.06,3.11-.18l.08,1.14c-1.12.08-2.06.14-3.19.14-2.79,0-3.68-.83-3.68-2.38,0-.46.05-.88.14-1.39l.99.16Zm.75-5.6c1.6,0,3.22.06,4.82.34l-.13,1.09c-1.6-.27-3.14-.37-4.74-.4l.05-1.02Z"/>
  <path class="cls-1" d="m259.17,15.01c-1.23,0-2.21-.99-2.21-2.21s.98-2.18,2.21-2.18,2.21.96,2.21,2.18-.98,2.21-2.21,2.21Zm0-.72c.8,0,1.47-.69,1.47-1.49s-.67-1.46-1.47-1.46-1.47.66-1.47,1.46.67,1.49,1.47,1.49Z"/>
</svg>