<?xml version="1.0" encoding="UTF-8"?>
<svg id="_テキスト" data-name="テキスト" xmlns="http://www.w3.org/2000/svg" viewBox="0 0 552 15">
  <defs>
    <style>
      .cls-1 {
        fill: #444;
      }
    </style>
  </defs>
  <path class="cls-1" d="m8.01,1.59c.83,1.41,1.67,2.98,2.47,4.66,1.57-.86,2.8-1.47,4.16-2.19-.06-.26-.08-.35-.08-.43,0-.18.1-.26.21-.26.1,0,.21.06.32.21.24.3.53.7.83,1.23-1.82.8-3.6,1.57-5.62,2.74-1.94,1.12-2.93,2.06-2.93,3.31s.9,1.75,3.94,1.75c1.49,0,3.36-.16,4.91-.34l.1,1.15c-1.62.18-3.41.27-5.23.27-3.41,0-4.79-.98-4.79-2.87,0-1.38.83-2.66,3.22-4.03-.86-1.87-1.63-3.31-2.48-4.74l.98-.46Z"/>
  <path class="cls-1" d="m23.13,8.85c-.4.54-.66,1.18-.66,1.65,0,1.09.82,1.71,4.42,1.71,1.9,0,3.27-.1,4.85-.35l.05,1.18c-1.57.18-3.03.29-4.83.29-4.05,0-5.59-.9-5.59-2.8,0-.71.34-1.58.8-2.24l.96.56Zm-.32-6.13c.51-.02,1.02-.03,1.54-.03,1.68,0,4.13.14,6.13.45l-.11,1.09c-1.95-.29-4.31-.45-6.07-.46-.53,0-1.04.02-1.57.05l.08-1.09Z"/>
  <path class="cls-1" d="m38.91,1.59c.83,1.41,1.67,2.98,2.47,4.66,1.57-.86,2.8-1.47,4.16-2.19-.06-.26-.08-.35-.08-.43,0-.18.1-.26.21-.26.1,0,.21.06.32.21.24.3.53.7.83,1.23-1.82.8-3.6,1.57-5.62,2.74-1.94,1.12-2.93,2.06-2.93,3.31s.9,1.75,3.94,1.75c1.49,0,3.36-.16,4.91-.34l.1,1.15c-1.62.18-3.41.27-5.23.27-3.41,0-4.79-.98-4.79-2.87,0-1.38.83-2.66,3.22-4.03-.86-1.87-1.63-3.31-2.48-4.74l.98-.46Z"/>
  <path class="cls-1" d="m51.78,13.21c1.9-4.45,3.75-8.26,5.41-11.57-.26-.26-.35-.37-.35-.5,0-.1.08-.14.19-.14.19,0,.42.08,1.49.64-1.44,2.69-2.27,4.35-3.19,6.15l-.42.66.06.03c.93-1.23,1.87-1.84,2.74-1.84,1.25,0,1.73.82,1.73,2.87,0,2.9.32,3.38,1.3,3.38,1.47,0,3.3-1.58,3.73-5.09.3.21.74.42,1.07.56-.5,3.39-2.42,5.65-4.87,5.65-1.57,0-2.32-.7-2.32-3.52,0-2.02-.1-2.9-.83-2.9s-1.86.83-2.83,2.13c-.61.82-.99,1.86-1.84,3.92l-.14.1-.91-.37-.02-.14Z"/>
  <path class="cls-1" d="m76.89,9.73c1.42,2.45,3.43,3.35,6.4,4-.27.32-.5.61-.67.99-2.95-.74-5.03-1.98-6.45-4.45-.27.85-.72,1.57-1.3,2.16-1.3,1.36-2.75,1.94-4.99,2.34-.19-.34-.38-.59-.77-.9,2.51-.34,3.99-1.01,5.01-2.11.53-.58.93-1.22,1.15-2.03h-3.79l-2.4.06v-.98l2.4.06h3.95c.03-.24.05-.51.05-.78,0-.54-.05-1.09-.13-1.47,1.55.06,1.71.19,1.71.35s-.18.26-.53.38c0,.58-.02,1.07-.06,1.52h4.43l2.4-.06v.98l-2.4-.06h-4.02Zm-1.3-8.21c0-.46-.03-.85-.11-1.23,1.46.08,1.68.19,1.68.35,0,.13-.11.24-.51.34v1.09h3.92l2.34-.06.06.06-.06,1.5.06,1.82h-1.07v-2.45h-4.03v2.24c0,.51.18.54,1.04.54,1.38,0,1.49-.14,1.49-1.2.27.18.69.32.99.4-.06,1.5-.75,1.67-2.51,1.67-1.57,0-1.98-.08-1.98-1.15v-2.5h-2.59c.83.19,1.14.34,1.14.5,0,.19-.1.24-.56.3-.34,2.19-1.67,2.98-3.89,3.52-.14-.29-.38-.62-.66-.86,2.4-.38,3.39-1.1,3.59-3.46h-3.43v2.45h-1.09l.06-1.82-.06-1.5.06-.06,2.34.06h3.79v-.54Z"/>
  <path class="cls-1" d="m96.68,2.9c-1.25.43-2.45.77-3.62,1.02.34.69.72,1.34,1.14,1.97,1.2-.32,2.45-.77,3.68-1.36l.43.85c-1.2.54-2.39.98-3.54,1.3.54.74,1.36,1.65,2.15,2.23l.06.14-.16.62-.13.08c-1.1,0-2.31.02-3.41.05l-.03-.78c.64-.06,1.3-.14,1.94-.21-.48-.54-1.04-1.22-1.49-1.86-1.62.38-3.14.54-4.42.54-.45,0-1.33-.08-2.06-.27l.35-.82c.58.08,1.33.18,1.89.18,1.02,0,2.3-.13,3.7-.43-.4-.66-.77-1.34-1.12-2.03-1.47.27-2.93.42-4.42.45l-.08-.94c1.41,0,2.74-.13,4.08-.37-.27-.58-.48-1.15-.69-1.71-.45-.05-.56-.14-.56-.27,0-.11.18-.19.35-.22.22-.05.46-.08,1.22-.16.19.83.38,1.36.72,2.16,1.17-.26,2.37-.61,3.67-1.06l.35.91Zm-7.84,7.46c.19,2.4,2.77,2.48,4.75,2.48.7,0,1.34-.03,2.27-.1l-.02,1.1c-.82.08-1.52.1-2.27.1-2.56,0-5.57-.43-5.67-3.52l.93-.06Z"/>
  <path class="cls-1" d="m101.9,4.03v-.98l1.92.06h1.87l1.92-.06v.98l-1.92-.06h-1.87l-1.92.06Zm1.89,9.76v.99h-1.01l.06-1.92v-1.86l-.06-1.22.08-.06,1.52.06h1.26l1.52-.06.08.06-.05,1.22v1.58l.08,1.92h-1.01v-.72h-2.48Zm-.9-12v-.98l1.44.06h1.36l1.44-.06v.98l-1.44-.06h-1.36l-1.44.06Zm0,4.47v-.98l1.44.06h1.36l1.44-.06v.98l-1.44-.06h-1.36l-1.44.06Zm0,2.23v-.98l1.44.06h1.36l1.44-.06v.98l-1.44-.06h-1.36l-1.44.06Zm3.38,2.1h-2.48v2.43h2.48v-2.43Zm5.49-9.04c0-.46-.05-.88-.13-1.26,1.46.05,1.65.16,1.65.34,0,.14-.16.27-.51.38v1.92h1.62l2.4-.06v.99l-2.4-.06h-1.62v2.62h.88l2.4-.06v.99l-2.4-.06h-2.74l-2.4.06v-.99l2.4.06h.85v-2.62h-1.28l-2.4.06v-.99l2.4.06h1.28v-1.38Zm-1.74,12.21v.98h-1.06l.06-2.34v-1.36l-.06-1.86.06-.06,1.86.06h2.75l1.86-.06.06.06-.06,1.86v1.31l.06,2.34h-1.06v-.93h-4.48Zm4.48-3.76h-4.48v2.95h4.48v-2.95Z"/>
  <path class="cls-1" d="m125.85,11.3c-.37-.26-.69-.51-.99-.78-.53.58-1.04,1.02-1.5,1.34-.88.62-1.49.86-1.9.86-1.04,0-1.66-1.2-1.66-2.59,0-1.92,1.01-3.41,2.45-4.4-.19-.9-.29-1.9-.34-3.02-.35-.1-.5-.19-.5-.34,0-.08.06-.14.26-.16.38-.02.85-.02,1.28-.02.02,1.17.1,2.14.24,2.98,1.26-.64,2.72-.96,4.07-.96h.27c.26-.91.38-1.5.48-2.13-.3-.19-.42-.32-.42-.43s.1-.18.22-.18c.22,0,.62.08,1.41.27-.14.9-.3,1.52-.64,2.62,3.17.61,4.07,2.83,4.07,4.43,0,2.66-2.26,4.91-6.39,5.06-.11-.34-.27-.7-.45-1.04h.3c2.88,0,5.33-1.52,5.33-4.18,0-1.52-1.26-3.12-3.22-3.35-.72,1.71-1.68,3.22-2.64,4.39.29.24.59.48.91.72l-.64.9Zm-5.04-1.38c0,1.01.37,1.63.74,1.63.4,0,.56-.11.91-.35.5-.34,1.07-.83,1.65-1.44-.75-.9-1.3-1.92-1.63-3.04-1.06.94-1.66,2.14-1.66,3.2Zm4.02-.98c.93-1.12,1.78-2.48,2.27-3.83h-.27c-1.34,0-2.53.37-3.47.94.24,1.07.75,2.06,1.47,2.88Z"/>
  <path class="cls-1" d="m147.71,3.36c-1.84.16-3.01.46-4.11,1.25-1.47,1.02-2.35,2.54-2.35,4.39,0,3.01,2.82,3.63,5.3,3.63.19,0,.4,0,.59-.02l-.03,1.25h-.26c-3.2,0-6.67-.91-6.67-4.79,0-1.95.91-3.58,2.24-4.69.34-.22.67-.43,1.07-.64l-1.3.26c-1.97.29-3.79.53-6.21.86l-.19-1.1c4.39-.48,7.91-.98,11.75-1.55l.11.06.13,1.01-.06.08Z"/>
  <path class="cls-1" d="m159.29,4.71c1.07-1.02,2.05-2.13,2.91-3.31.22-.3.38-.61.51-.93,1.06.53,1.31.74,1.31.91,0,.16-.21.21-.67.21-.83,1.1-1.74,2.15-2.75,3.12h2.69l2.4-.06v.99l-2.4-.06h-3.62c-.77.69-1.58,1.33-2.43,1.94,1.44-.11,3.01-.32,4.34-.58.34-.06.64-.16.94-.32.86.62,1.04.83,1.04.98,0,.18-.06.24-.27.24-.14,0-.35-.03-.67-.1-1.95.34-3.99.54-6.13.67-.06.43-.14.86-.22,1.3h5.73l1.86-.06.06.06-.08.83c-.11,1.1-.27,2.02-.5,2.79-.34,1.14-.91,1.5-2.13,1.5h-1.18c-.1-.4-.21-.72-.46-1.15.51.08.99.11,1.5.11.88,0,1.07-.14,1.26-.72.21-.62.35-1.54.43-2.53h-6.64c-.11.54-.21,1.09-.32,1.63l-1.04-.08c.27-1.1.48-2.22.66-3.34-1.2.75-2.47,1.42-3.78,2.05-.21-.34-.46-.56-.8-.74,2.83-1.15,5.33-2.66,7.48-4.48h-4.56l-2.4.06v-.99l2.4.06h2.85v-1.86h-1.5l-2.4.06v-.98l2.4.06h1.5v-.56c0-.46-.05-.88-.13-1.26,1.5.1,1.66.21,1.66.38,0,.14-.14.26-.53.35v1.09h.74l2.4-.06v.98l-2.4-.06h-.74v1.86h1.68Z"/>
  <path class="cls-1" d="m181.38,3.36c-1.84.16-3.01.46-4.11,1.25-1.47,1.02-2.35,2.54-2.35,4.39,0,3.01,2.82,3.63,5.3,3.63.19,0,.4,0,.59-.02l-.03,1.25h-.26c-3.2,0-6.67-.91-6.67-4.79,0-1.95.91-3.58,2.24-4.69.34-.22.67-.43,1.07-.64l-1.3.26c-1.97.29-3.79.53-6.21.86l-.19-1.1c4.39-.48,7.91-.98,11.75-1.55l.11.06.13,1.01-.06.08Z"/>
  <path class="cls-1" d="m191.83,10.65c-.78,2.15-1.66,2.91-2.43,2.91-1.76,0-3.22-3.25-3.22-6.27,0-1.55.1-2.69.35-4.34-.26-.19-.43-.32-.43-.48,0-.1.16-.13.29-.13.18,0,.45.06,1.46.29-.38,1.84-.51,2.87-.51,4.63,0,3.02,1.38,5.09,2.03,5.09.4,0,.98-.59,1.57-2.35.3.27.58.46.9.66Zm3.47-6.08c1.79,2.03,2.71,3.54,3.54,5.63l-1.1.58c-.8-2.1-1.74-3.78-3.31-5.62l.88-.59Z"/>
  <path class="cls-1" d="m212.36,2.9c-1.25.43-2.45.77-3.62,1.02.34.69.72,1.34,1.14,1.97,1.2-.32,2.45-.77,3.68-1.36l.43.85c-1.2.54-2.39.98-3.54,1.3.54.74,1.36,1.65,2.15,2.23l.06.14-.16.62-.13.08c-1.1,0-2.31.02-3.41.05l-.03-.78c.64-.06,1.3-.14,1.94-.21-.48-.54-1.04-1.22-1.49-1.86-1.62.38-3.14.54-4.42.54-.45,0-1.33-.08-2.06-.27l.35-.82c.58.08,1.33.18,1.89.18,1.02,0,2.3-.13,3.7-.43-.4-.66-.77-1.34-1.12-2.03-1.47.27-2.93.42-4.42.45l-.08-.94c1.41,0,2.74-.13,4.08-.37-.27-.58-.48-1.15-.69-1.71-.45-.05-.56-.14-.56-.27,0-.11.18-.19.35-.22.22-.05.46-.08,1.22-.16.19.83.38,1.36.72,2.16,1.17-.26,2.37-.61,3.67-1.06l.35.91Zm-7.84,7.46c.19,2.4,2.77,2.48,4.75,2.48.7,0,1.34-.03,2.27-.1l-.02,1.1c-.82.08-1.52.1-2.27.1-2.56,0-5.57-.43-5.67-3.52l.93-.06Z"/>
  <path class="cls-1" d="m218.69,3.49c1.7-.14,3.43-.26,5.17-.3v-1.68c-.42-.11-.56-.24-.56-.38,0-.13.14-.18.34-.18s.48,0,1.36.03c-.03.79-.05,1.5-.06,2.16.86-.02,1.71-.03,2.56-.03.61,0,1.38.02,1.98.03l.03.96c-.61-.02-1.39-.03-2-.03-.8,0-1.68.02-2.59.03-.02.45-.02.85-.02,1.2s0,.8.02,1.3c1.14-.1,2.37-.27,3.75-.5l.22.96c-1.33.24-2.66.42-3.94.53.03,1.04.08,2.18.11,3.14,1.49.59,3.07,1.38,4.59,2.19l-.62,1.01c-1.26-.78-2.66-1.47-3.94-2.08-.16,1.63-1.31,2.24-2.77,2.24-2.19,0-3.31-.98-3.31-1.98,0-.91,1.46-2.05,3.31-2.05.34,0,1.1.14,1.66.32-.03-.86-.06-1.81-.1-2.72-.64.05-1.28.06-1.89.06-1.38,0-2.21-.35-2.8-.7l.61-.75c.56.32,1.14.48,2.19.48.59,0,1.22-.02,1.87-.06-.02-.48-.02-.93-.02-1.31v-1.23c-1.7.05-3.47.14-5.11.29l-.06-.93Zm3.52,7.52c-1.2,0-2.14.59-2.14,1.1,0,.46.82.98,2.26.98,1.12,0,1.66-.67,1.66-1.65-.64-.26-1.33-.43-1.78-.43Z"/>
  <path class="cls-1" d="m242.01,3.36h.58c1.46,0,2.93,0,4.39.05l-.02,1.04c-1.79-.11-3.07-.13-4.34-.13h-.61v2.9c.24.66.34,1.22.34,1.9,0,2.69-1.23,4.5-5.04,5.04-.11-.32-.29-.64-.53-.99,3.22-.32,4.43-2.02,4.51-3.35-.32.5-.96.85-2.05.85-1.36,0-2-.66-2-1.86,0-1.55,1.42-3.09,2.64-3.09.4,0,.82.11,1.1.5-.02-.62-.02-1.25-.03-1.87-1.7.03-3.81.14-6.72.35l-.05-1.02c2.95-.16,5.09-.26,6.75-.3,0-.64-.02-1.28-.02-1.92-.4-.14-.54-.24-.54-.37,0-.11.1-.21.29-.21.35,0,.93.02,1.39.03l-.05.99v1.46Zm-3.81,5.35c0,.72.32,1.01,1.31,1.01s1.54-.7,1.58-1.58c-.21-1.1-.85-1.44-1.26-1.44-.61,0-1.63.93-1.63,2.02Z"/>
  <path class="cls-1" d="m253.13,14.82c-1.23,0-2.21-.99-2.21-2.21s.98-2.18,2.21-2.18,2.21.96,2.21,2.18-.98,2.21-2.21,2.21Zm0-.72c.8,0,1.47-.69,1.47-1.49s-.67-1.46-1.47-1.46-1.47.66-1.47,1.46.67,1.49,1.47,1.49Z"/>
</svg>