<?xml version="1.0" encoding="UTF-8"?>
<svg id="_テキスト" data-name="テキスト" xmlns="http://www.w3.org/2000/svg" viewBox="0 0 552 15">
  <defs>
    <style>
      .cls-1 {
        fill: #444;
      }
    </style>
  </defs>
  <path class="cls-1" d="m15.94,1.05l.06.06-.06,2.02v4.59l.06,2-.08.08-2-.06h-.53v3.41c0,.46.08.59,1.97.59s1.98-.11,2.02-1.86c.45.11.75.24,1.06.34-.05,2.18-.45,2.51-3.04,2.51-2.8,0-3.04-.3-3.04-1.34v-3.65h-2.19c-.13,3.52-2.11,4.71-5.68,5.19-.11-.27-.35-.72-.62-1.01,3.12-.3,5.09-.99,5.19-4.18h-.32l-2.02.06-.06-.08.06-2V3.13l-.06-2.02.06-.06,2.02.06h5.2l2.02-.06Zm-8.21.96v1.7h7.17v-1.7h-7.17Zm0,4.23h7.17v-1.68h-7.17v1.68Zm0,2.61h7.17v-1.76h-7.17v1.76Z"/>
  <path class="cls-1" d="m21.86,4.19c1.14-.02,2.22-.08,3.31-.19.16-.8.32-1.6.45-2.4-.4-.14-.51-.27-.51-.38s.13-.18.26-.18c.27,0,.86.05,1.54.11-.18.91-.35,1.81-.56,2.72.75-.1,1.49-.21,2.26-.34l.14,1.06c-.9.13-1.76.26-2.64.35-.7,3.06-1.58,6.13-2.72,9.19l-1.09-.37c1.12-2.91,1.98-5.79,2.64-8.71-1.01.1-2.02.16-3.06.19l-.02-1.06Zm7.07,6.1c-.05.37-.1.66-.1.99,0,1.09.54,1.52,2.64,1.52,1.06,0,2.02-.06,3.11-.18l.08,1.14c-1.12.08-2.06.14-3.19.14-2.79,0-3.68-.83-3.68-2.38,0-.46.05-.88.14-1.39l.99.16Zm.75-5.6c1.6,0,3.22.06,4.82.34l-.13,1.09c-1.6-.27-3.14-.37-4.74-.4l.05-1.02Z"/>
  <path class="cls-1" d="m44.92,2.44c0-.54-.05-1.07-.13-1.46,1.6.06,1.79.19,1.79.38s-.18.29-.53.42c0,1.22-.02,2.02-.05,2.61.3,1.68.85,3.33,1.76,4.77.8,1.28,1.9,2.34,3.15,3.17.74.5,1.52.88,2.32,1.26-.29.21-.58.66-.85,1.01-3.27-1.36-5.83-4.31-6.8-7.92-.86,3.73-3.07,6.32-6.29,8-.26-.34-.51-.62-.9-.93,3.46-1.57,5.7-4.26,6.34-8.24.11-.7.18-1.46.18-2.27v-.8Z"/>
  <path class="cls-1" d="m56.2,3.27c.66.03,1.28.05,1.89.05.66,0,1.28-.02,1.92-.05.3-.54.58-1.14.85-1.78-.26-.11-.42-.24-.42-.38,0-.08.1-.13.29-.13.14,0,.99.13,1.46.22-.35.77-.67,1.42-.98,1.99,1.31-.1,2.69-.26,4.29-.46l.13.99c-1.79.22-3.41.38-4.99.48-.64,1.04-1.22,1.76-1.92,2.37l.05.05c.69-.37,1.39-.5,2-.5,1.2,0,1.87.74,2,1.99,1.49-.58,2.8-1.01,4.16-1.5-.03-.14-.05-.26-.05-.35,0-.19.08-.26.18-.26s.14.05.22.13c.34.4.62.88.8,1.33-1.81.53-3.67,1.12-5.23,1.68.05.8.08,1.76.1,2.64l-1.1.02c0-.77-.02-1.6-.05-2.26-.22.08-.45.18-.66.26-1.2.48-2.32,1.22-2.32,2.1,0,1.02.75,1.31,2.46,1.31,2.35,0,4.03-.18,5.12-.3l.03,1.12c-1.22.11-2.69.21-5.04.21s-3.62-.69-3.62-2.29c0-1.41,1.46-2.34,2.59-2.83.46-.21.91-.4,1.34-.58-.13-1.1-.32-1.55-1.39-1.55-1.14,0-2.08.61-3.51,1.73l-.16-.05-.54-.75.02-.11c1.34-1.07,2.42-2.18,3.3-3.54-.51.02-1.01.03-1.52.03-.56,0-1.12-.02-1.68-.03l-.02-.98Z"/>
  <path class="cls-1" d="m76.19,1.91l1.92-.06v.96l-1.92-.06h-.83c.26.62.45,1.26.62,1.95l-1.02.32c-.1-.75-.3-1.55-.59-2.27h-1.1c-.43.54-.91,1.04-1.5,1.54-.18-.24-.43-.51-.67-.66.94-.75,1.66-1.55,2.21-2.58.1-.19.18-.43.22-.64,1.15.27,1.36.4,1.36.56,0,.11-.08.22-.59.24-.13.24-.27.48-.42.71h2.32Zm2.88,7.73c1.41,2.61,3.46,3.65,6.55,4.26-.27.32-.5.61-.67.99-2.96-.67-5.07-2-6.5-4.53-.8,2.53-3.06,4.03-6.24,4.58-.19-.34-.38-.59-.77-.9,3.47-.46,5.62-1.94,6.24-4.4h-3.87l-2.4.06v-1.01l2.4.06h4.03c.11-.75.11-1.52.11-2.29-1.57.18-3.17.3-4.95.4-.08-.3-.24-.64-.5-.94,3.81-.11,6.95-.53,9.16-.94.34-.06.64-.16.98-.3.86.62,1.07.86,1.07,1.01s-.05.22-.24.22c-.14,0-.37-.03-.69-.13-1.31.22-2.56.42-3.79.56-.02.82-.05,1.62-.16,2.42h4.4l2.4-.06v1.01l-2.4-.06h-4.16Zm3.36-6.9c.21.48.34.88.51,1.46l-1.01.32c-.11-.59-.26-1.1-.51-1.78h-1.78c-.3.53-.64,1.01-1.02,1.49-.26-.21-.56-.37-.86-.48.72-.78,1.36-1.94,1.73-2.77.08-.19.13-.4.16-.61,1.17.32,1.33.45,1.33.58,0,.16-.03.22-.54.26-.11.24-.22.48-.34.71h3.84l1.92-.06v.96l-1.92-.06h-1.5Z"/>
  <path class="cls-1" d="m96.36,5.75v.94l-1.92-.06h-3.67v2.58c0,2.46-.29,3.81-1.17,5.33-.26-.29-.5-.48-.8-.66.77-1.38,1.01-2.43,1.01-4.58v-1.63l-.06-1.86.06-.06,1.47.05c-.11-.67-.29-1.33-.48-1.94l.9-.19c.19.66.37,1.41.48,2.14h1.36c.16-.53.27-1.09.34-1.63.03-.18.05-.35.05-.54,1.22.3,1.36.42,1.36.54,0,.11-.08.19-.51.22-.11.48-.21.95-.35,1.41l1.94-.06Zm-2.18-3.2l1.92-.06v.93l-1.92-.06h-2.82l-1.92.06v-.93l1.92.06h.94v-.83c0-.46-.03-.85-.11-1.23,1.38.11,1.57.19,1.57.35,0,.14-.08.21-.48.34v1.38h.9Zm2.24,9.6c0,.1-.08.16-.29.16-.1,0-.21-.02-.34-.03-1.33.93-2.71,1.62-4.64,2.06-.14-.3-.32-.56-.56-.8,1.95-.4,3.47-1.15,4.27-1.75.22-.16.42-.34.58-.53.82.56.98.75.98.88Zm-.59-2.24c0,.14-.18.21-.62.16-.98.7-2.05,1.2-3.52,1.55-.14-.3-.32-.56-.58-.8,1.42-.3,2.42-.72,3.17-1.22.21-.14.4-.3.58-.51.78.51.98.67.98.82Zm-.38-2.08c0,.14-.16.19-.59.14-.83.51-1.86.91-2.99,1.18-.14-.3-.34-.58-.58-.82,1.15-.24,1.97-.5,2.59-.87.21-.13.4-.26.59-.46.85.56.98.69.98.82Zm.4,7.08c-.19-.32-.4-.58-.67-.78,1.18-.46,1.9-.88,2.64-1.52.22-.21.34-.34.46-.5.88.53,1.04.67,1.04.83s-.16.21-.64.18c-.8.7-1.67,1.26-2.83,1.79Zm5.22-11.24l1.86-.06.06.06-.06,2.02v4.1l.06,2-.08.08-1.84-.06h-2.06l-1.86.06-.06-.08.06-2v-4.1l-.06-2.02.06-.06,1.86.06h.03c.14-.58.26-1.15.34-1.75h-.86l-2.4.06v-.96l2.4.06h2.87l2.4-.06v.96l-2.4-.06h-1.01c-.11.59-.24,1.17-.38,1.75h1.09Zm-2.99.83v1.54h3.91v-1.54h-3.91Zm0,3.95h3.91v-1.58h-3.91v1.58Zm0,2.5h3.91v-1.66h-3.91v1.66Zm5.06,3.84c-.82-.8-1.78-1.52-2.88-2.06l.74-.62c1.04.54,2.02,1.2,2.88,1.94l-.74.75Z"/>
  <path class="cls-1" d="m107.86,14.06c-.21-1.68-.29-3.06-.29-4.85s.26-4.03.83-6.96c-.34-.18-.48-.32-.48-.45,0-.11.11-.16.32-.16.22,0,.53.05,1.52.29-.78,2.59-1.07,5.14-1.07,7.36,0,1.73.08,3.01.37,4.67l-1.2.1Zm5.09-4.58c-.3.5-.45.93-.45,1.55,0,.67.83,1.18,3.43,1.18,1.12,0,2.64-.14,3.79-.35l.08,1.18c-1.04.16-2.55.27-3.81.27-3.22,0-4.61-.77-4.61-2.22,0-.64.16-1.26.64-2.13l.93.51Zm-.82-5.54c1.46-.22,3.04-.34,4.45-.34,1.01,0,1.78.03,2.56.11l-.02,1.06c-.85-.06-1.58-.1-2.72-.1-1.36,0-2.85.11-4.21.34l-.06-1.07Z"/>
  <path class="cls-1" d="m135.66,3.51c-1.84.16-3.01.46-4.11,1.25-1.47,1.02-2.35,2.54-2.35,4.39,0,3.01,2.82,3.63,5.3,3.63.19,0,.4,0,.59-.02l-.03,1.25h-.26c-3.2,0-6.67-.91-6.67-4.79,0-1.95.91-3.58,2.24-4.69.34-.22.67-.43,1.07-.64l-1.3.26c-1.97.29-3.79.53-6.21.86l-.19-1.1c4.39-.48,7.91-.98,11.75-1.55l.11.06.13,1.01-.06.08Zm-1.86,2.13c.91.72,1.52,1.33,2.21,2.29l-.72.62c-.62-.91-1.26-1.63-2.19-2.37l.7-.54Zm1.67-1.12c.9.74,1.38,1.18,2.08,2.15l-.69.61c-.64-.9-1.14-1.44-2.06-2.18l.67-.58Z"/>
  <path class="cls-1" d="m150.97,3.05c-1.25.43-2.45.77-3.62,1.02.34.69.72,1.34,1.14,1.97,1.2-.32,2.45-.77,3.68-1.36l.43.85c-1.2.54-2.39.98-3.54,1.3.54.74,1.36,1.65,2.15,2.23l.06.14-.16.62-.13.08c-1.1,0-2.31.02-3.41.05l-.03-.78c.64-.06,1.3-.14,1.94-.21-.48-.54-1.04-1.22-1.49-1.86-1.62.38-3.14.54-4.42.54-.45,0-1.33-.08-2.06-.27l.35-.82c.58.08,1.33.18,1.89.18,1.02,0,2.3-.13,3.7-.43-.4-.66-.77-1.34-1.12-2.03-1.47.27-2.93.42-4.42.45l-.08-.94c1.41,0,2.74-.13,4.08-.37-.27-.58-.48-1.15-.69-1.71-.45-.05-.56-.14-.56-.27,0-.11.18-.19.35-.22.22-.05.46-.08,1.22-.16.19.83.38,1.36.72,2.16,1.17-.26,2.37-.61,3.67-1.06l.35.91Zm-7.84,7.46c.19,2.4,2.77,2.48,4.75,2.48.7,0,1.34-.03,2.27-.1l-.02,1.1c-.82.08-1.52.1-2.27.1-2.56,0-5.57-.43-5.67-3.52l.93-.06Z"/>
  <path class="cls-1" d="m160.36,7.05c1.2-.54,2.13-.74,3.09-.74,2.43,0,4.31,1.31,4.31,3.62,0,2.51-2.1,4.31-5.68,4.31-2.21,0-3.38-1.02-3.38-2.3,0-1.14.96-1.82,2.06-1.82,1.31,0,2.42,1.01,2.87,2.27l-.93.54c-.5-1.26-1.17-1.86-1.9-1.86-.54,0-1.1.4-1.1.83,0,.85.9,1.33,2.29,1.33,2.69,0,4.56-1.2,4.56-3.38,0-1.23-.94-2.61-3.3-2.61-2,0-3.76.85-5.62,2.82l-.14.02-.7-.64v-.13c2.75-2.77,4.43-4.42,6.66-6.5-1.65.22-3.33.37-5.46.42l-.05-1.07c2-.03,4.4-.19,6.32-.46l.35-.29h.14c.82.67.94.93.94,1.06,0,.19-.16.24-.69.42-1.44,1.3-2.51,2.34-3.78,3.44l-.91.66.05.08Z"/>
  <path class="cls-1" d="m173.05,7.04c.22.67.66,1.02,2.69,1.09.06-1.04.16-2.08.26-3.12h-.43c-1.04,0-2.06.02-3.06.02l.02-.93c1.23-.05,2.4-.05,3.55-.05.06-.67.13-1.42.19-2.29-.32-.11-.53-.27-.53-.4,0-.1.1-.16.29-.16.43,0,.91.02,1.39.05-.11,1.07-.19,1.99-.27,2.8h3.12l-.03,1.03c-1.07-.03-2.13-.05-3.19-.06-.11,1.04-.19,2.08-.26,3.12,1.12-.03,2.19-.14,3.09-.3l.11,1.02c-.86.14-1.92.26-3.27.29-.03.54-.05.98-.05,1.73,0,1.74.56,2.34,2.59,2.34,2.42,0,4.11-.96,4.11-2.19,0-1.02-.69-1.94-2.59-3.07.3-.22.53-.51.67-.74,2.61,1.55,3.11,2.61,3.11,3.89,0,1.68-1.73,3.14-5.09,3.14-2.99,0-3.86-.98-3.86-3.25,0-.8.03-1.33.05-1.84-2.38-.06-2.9-.51-3.44-1.62l.82-.48Z"/>
  <path class="cls-1" d="m200.45,8.06c0-2.56-1.95-4.56-5.11-4.56s-5.57,2.5-5.57,5.36c0,1.84.56,2.79,1.3,2.79.5,0,1.12-.61,1.89-2.14.77-1.52,1.41-3.54,1.52-4.79-.21-.18-.38-.32-.38-.45,0-.1.08-.16.27-.16.21,0,.83.16,1.34.34-.38,2.13-.9,3.97-1.79,5.67-1.06,2.05-1.92,2.75-2.85,2.75-1.31,0-2.42-1.42-2.42-3.97,0-3.6,3.01-6.37,6.74-6.37,3.97,0,6.31,2.56,6.31,5.67,0,2.9-2.08,5.17-6.03,5.7-.24-.37-.42-.67-.7-1.02,3.41-.32,5.49-2.02,5.49-4.8Z"/>
  <path class="cls-1" d="m205.41,4.83c3.51-.83,6.03-1.26,7.89-1.26,3.38,0,4.88,1.57,4.88,4.11,0,3.43-2.74,5.19-8.64,5.91-.14-.4-.29-.72-.5-1.06,5.99-.64,7.92-2.34,7.92-4.95,0-1.87-1.12-2.96-3.78-2.96-1.71,0-3.95.42-7.51,1.34l-.27-1.14Zm10.64-3.86c.91.72,1.52,1.33,2.21,2.29l-.72.62c-.62-.91-1.26-1.63-2.19-2.37l.7-.54Zm1.67-1.12c.9.74,1.38,1.18,2.08,2.14l-.69.61c-.64-.9-1.14-1.44-2.06-2.18l.67-.58Z"/>
  <path class="cls-1" d="m230.15,14.45c-2.02-2.32-3.76-3.92-6.27-5.87-.3-.22-.42-.43-.42-.75s.14-.54.51-.91c1.84-1.79,3.62-3.68,4.98-5.46-.16-.26-.22-.37-.22-.48,0-.1.08-.18.18-.18.14,0,.32.08,1.46.88-1.97,2.27-3.49,3.89-5.41,5.76-.13.13-.22.22-.22.34,0,.13.1.21.26.34,2.19,1.68,4.02,3.23,6.08,5.43l-.91.91Z"/>
  <path class="cls-1" d="m239.07,1.85c-.4,1.63-.74,3.75-.74,4.98,0,.77.03,1.42.13,1.67.05.11.1.18.16.18s.14-.06.22-.19c.32-.46.67-1.14,1.09-2.35.24.3.46.53.74.77-.29.9-.67,1.76-1.14,2.53-.32.54-.58.74-.9.74-.53,0-1.39-.61-1.39-3.12,0-1.23.21-3.06.59-4.88-.24-.18-.4-.34-.4-.43s.08-.14.19-.14c.18,0,.74.1,1.44.27Zm4.19-.18c0-.11.11-.16.27-.16.45-.02.9-.02,1.44-.02.16,2.42.26,4.47.26,6.04,0,4.8-1.94,6.29-6.56,6.8-.11-.3-.29-.75-.5-1.09,4.15-.32,5.89-1.54,5.89-5.49,0-2.02-.06-3.2-.26-5.7-.37-.1-.54-.26-.54-.38Z"/>
  <path class="cls-1" d="m251.16,3.27c.66.03,1.28.05,1.89.05.66,0,1.28-.02,1.92-.05.3-.54.58-1.14.85-1.78-.26-.11-.42-.24-.42-.38,0-.08.1-.13.29-.13.14,0,.99.13,1.46.22-.35.77-.67,1.42-.98,1.99,1.31-.1,2.69-.26,4.29-.46l.13.99c-1.79.22-3.41.38-4.99.48-.64,1.04-1.22,1.76-1.92,2.37l.05.05c.69-.37,1.39-.5,2-.5,1.2,0,1.87.74,2,1.99,1.49-.58,2.8-1.01,4.16-1.5-.03-.14-.05-.26-.05-.35,0-.19.08-.26.18-.26s.14.05.22.13c.34.4.62.88.8,1.33-1.81.53-3.67,1.12-5.23,1.68.05.8.08,1.76.1,2.64l-1.1.02c0-.77-.02-1.6-.05-2.26-.22.08-.45.18-.66.26-1.2.48-2.32,1.22-2.32,2.1,0,1.02.75,1.31,2.46,1.31,2.35,0,4.03-.18,5.12-.3l.03,1.12c-1.22.11-2.69.21-5.04.21s-3.62-.69-3.62-2.29c0-1.41,1.46-2.34,2.59-2.83.46-.21.91-.4,1.34-.58-.13-1.1-.32-1.55-1.39-1.55-1.14,0-2.08.61-3.51,1.73l-.16-.05-.54-.75.02-.11c1.34-1.07,2.42-2.18,3.3-3.54-.51.02-1.01.03-1.52.03-.56,0-1.12-.02-1.68-.03l-.02-.98Z"/>
  <path class="cls-1" d="m268.83,13.76v1.04h-1.12l.06-2.72V3.82l-.06-2.34.06-.06,2.34.06h5.86l2.34-.06.06.06-.06,2.34v8.26l.06,2.66h-1.14v-.98h-8.4Zm8.4-11.35h-8.4v2.79h8.4v-2.79Zm0,3.68h-8.4v2.95h8.4v-2.95Zm0,3.84h-8.4v2.91h8.4v-2.91Z"/>
  <path class="cls-1" d="m284.83,4.62h-.4l-1.92.06v-.99l1.92.06h.4V1.56c0-.46-.03-.85-.11-1.23,1.41.08,1.63.19,1.63.35,0,.13-.11.24-.51.34v2.74h.22l1.92-.06v.99l-1.92-.06h-.22v2.85c.67-.18,1.36-.38,2.21-.62,0,.29,0,.58.02.85-.72.22-1.47.45-2.23.67v1.92l.06,2.87c0,1.28-.16,1.58-2.02,1.58h-.43c-.08-.37-.27-.82-.45-1.12.61.08.99.1,1.34.1.4,0,.48-.14.48-.51v-4.53c-.5.14-.98.27-1.42.4-.06.46-.11.59-.32.59-.16,0-.29-.27-.67-1.44.45-.06.72-.11,1.09-.19.46-.1.9-.21,1.33-.3v-3.1Zm5.04.27c0,.48.14.59,3.12.59,3.15,0,3.2-.06,3.25-1.71.29.18.66.3.96.38-.08,2-.38,2.24-4.16,2.24s-4.16-.18-4.16-1.1V1.34c0-.34-.03-.64-.1-.93,1.38.11,1.62.22,1.62.4,0,.14-.08.22-.53.34v1.76c1.71-.3,3.71-.77,4.96-1.18.21-.06.48-.19.7-.35.86.74.94.91.94,1.06,0,.1-.06.16-.24.16-.13,0-.34-.03-.64-.11-1.62.45-3.81.91-5.73,1.2v1.22Zm.18,9.16v.96h-1.06l.06-2.34v-2.93l-.05-1.86.06-.06,1.86.06h3.31l1.89-.06.06.06-.05,1.86v2.91l.06,2.27h-1.07v-.88h-5.09Zm5.09-5.33h-5.09v1.78h5.09v-1.78Zm0,2.58h-5.09v1.92h5.09v-1.92Z"/>
  <path class="cls-1" d="m311.98,11.33c-1.92,1.76-4.45,2.85-6.42,2.85-2.27,0-3.49-.85-3.49-3.39,0-2.19.06-5.52.14-8.9-.38-.14-.48-.26-.48-.38,0-.11.13-.19.37-.19.19,0,.64.02,1.34.08-.18,3.84-.26,6.47-.26,9.27,0,1.76.48,2.34,2.29,2.34,2,0,4.24-1.09,5.94-2.77.19.43.38.82.56,1.1Z"/>
  <path class="cls-1" d="m325.96,3.51c-1.84.16-3.01.46-4.11,1.25-1.47,1.02-2.35,2.54-2.35,4.39,0,3.01,2.82,3.63,5.3,3.63.19,0,.4,0,.59-.02l-.03,1.25h-.26c-3.2,0-6.67-.91-6.67-4.79,0-1.95.91-3.58,2.24-4.69.34-.22.67-.43,1.07-.64l-1.3.26c-1.97.29-3.79.53-6.21.86l-.19-1.1c4.39-.48,7.91-.98,11.75-1.55l.11.06.13,1.01-.06.08Z"/>
  <path class="cls-1" d="m333.67,15.1c-.85-1.36-1.84-2.56-3.07-3.6l.88-.72c1.26.99,2.3,2.16,3.2,3.47l-1.01.85Z"/>
  <path class="cls-1" d="m355.93,10.59c1.62,1.54,4.15,2.5,6.74,2.87-.32.35-.5.7-.61,1.06-2.54-.62-5.01-1.67-6.55-3.25l.11,3.89h-1.1l.11-3.81c-1.44,1.42-3.79,2.45-6.29,3.22-.14-.29-.35-.58-.66-.86,2.56-.61,4.9-1.6,6.45-3.11h-3.46l-2.4.06v-.99l2.4.06h3.91v-.3c0-.43-.05-.85-.13-1.2,1.44.08,1.63.18,1.63.32s-.11.22-.53.34v.85h4.08l2.4-.06v.99l-2.4-.06h-3.71Zm-6.91-3.99c.7-.27,1.66-.69,2.71-1.26,0,.34.02.69.06,1.02-.91.54-1.78.94-2.67,1.36.02.43-.1.53-.27.53-.14,0-.35-.32-.82-1.38.24-.03.82-.21.99-.27Zm.11-5.55c.82.35,1.65.8,2.45,1.33l-.51.98c-.67-.5-1.62-1.1-2.43-1.49l.5-.82Zm3.38,6.77l-.06-.06.05-1.54v-2.72l-.05-1.54.06-.06,1.39.06h.53c.11-.4.22-.82.29-1.1.05-.22.08-.38.08-.64,1.34.34,1.5.45,1.5.59,0,.16-.21.22-.59.27-.11.29-.22.59-.34.88h1.12l1.41-.06.06.06-.05,1.54v2.71l.05,1.54-.06.06-1.41-.05h-2.59l-1.39.06Zm4.47-5.07h-3.55v1.63h3.55v-1.63Zm0,4.19v-1.78h-3.55v1.78h3.55Zm2.11-3.31c-.21-.27-.42-.48-.67-.67.69-.46,1.25-.93,1.7-1.39.24-.24.38-.4.53-.67,1.06.82,1.12.94,1.12,1.09,0,.11-.08.18-.24.18-.1,0-.21-.03-.37-.08-.62.56-1.33,1.09-2.06,1.55Zm.1,1.57c1.01.53,1.92,1.04,2.85,1.74l-.74.88c-.78-.69-1.65-1.28-2.75-1.91l.64-.72Z"/>
  <path class="cls-1" d="m377.04,11.33c-1.92,1.76-4.45,2.85-6.42,2.85-2.27,0-3.49-.85-3.49-3.39,0-2.19.06-5.52.14-8.9-.38-.14-.48-.26-.48-.38,0-.11.13-.19.37-.19.19,0,.64.02,1.34.08-.18,3.84-.26,6.47-.26,9.27,0,1.76.48,2.34,2.29,2.34,2,0,4.24-1.09,5.94-2.77.19.43.38.82.56,1.1Z"/>
  <path class="cls-1" d="m381.46,4.68c1.71-.02,3.51-.18,5.3-.45-.32-.67-.64-1.42-.94-2.3-.43-.03-.58-.11-.58-.22,0-.1.08-.18.22-.22.19-.06.46-.13,1.31-.29.34,1.09.69,2.03,1.07,2.85,1.39-.26,2.77-.58,4.1-.98l.21,1.07c-1.25.35-2.51.64-3.81.88.77,1.34,1.68,2.37,2.86,3.35l.05.11-.32.94-.1.05c-1.3-.14-2.53-.22-3.79-.26l.03-.82c.83-.02,1.79-.05,2.51-.08-.86-.91-1.63-1.86-2.34-3.12-1.89.3-3.79.5-5.6.58l-.19-1.09Zm1.62,5.38c.19,2.69,2.71,2.95,5.06,2.95.58,0,1.36-.05,2.31-.13v1.1c-.86.08-1.38.13-2.18.13-3.01,0-6.05-.59-6.13-3.92l.94-.13Z"/>
  <path class="cls-1" d="m397.68,7.04c.22.67.66,1.02,2.69,1.09.06-1.04.16-2.08.26-3.12h-.43c-1.04,0-2.06.02-3.06.02l.02-.93c1.23-.05,2.4-.05,3.55-.05.06-.67.13-1.42.19-2.29-.32-.11-.53-.27-.53-.4,0-.1.1-.16.29-.16.43,0,.91.02,1.39.05-.11,1.07-.19,1.99-.27,2.8h3.12l-.03,1.03c-1.07-.03-2.13-.05-3.19-.06-.11,1.04-.19,2.08-.26,3.12,1.12-.03,2.19-.14,3.09-.3l.11,1.02c-.86.14-1.92.26-3.27.29-.03.54-.05.98-.05,1.73,0,1.74.56,2.34,2.59,2.34,2.42,0,4.11-.96,4.11-2.19,0-1.02-.69-1.94-2.59-3.07.3-.22.53-.51.67-.74,2.61,1.55,3.11,2.61,3.11,3.89,0,1.68-1.73,3.14-5.09,3.14-2.99,0-3.86-.98-3.86-3.25,0-.8.03-1.33.05-1.84-2.38-.06-2.9-.51-3.44-1.62l.82-.48Z"/>
  <path class="cls-1" d="m420.92,10.72c1.46,1.71,3.68,2.77,6.39,3.2-.3.37-.53.67-.72,1.02-2.67-.48-5.01-1.92-6.58-4.02-.91,2.5-3.28,3.55-6.43,4.05-.19-.34-.4-.61-.69-.9,3.25-.35,5.31-1.36,6.1-3.36h-3.28l-2.4.06v-.99l2.4.06h3.52c.05-.26.08-.53.1-.82.02-.24.02-.42-.06-.8,1.49.13,1.65.19,1.65.38,0,.14-.18.26-.53.37-.03.29-.06.58-.11.86h3.97l2.4-.06v.99l-2.4-.06h-3.31Zm-.48-5.92h2.45l2.4-.06v.99l-2.4-.06h-2.45v1.47h4.18l2.4-.06v.99l-2.4-.06h-9.28l-2.4.06v-.99l2.4.06h4.07v-1.47h-2.34l-2.4.06v-.99l2.4.06h2.34v-1.47h-3.38l-2.4.06v-.99l2.4.06h1.42c-.27-.53-.61-1.02-1.07-1.58l.9-.38c.5.53,1.01,1.28,1.34,1.97h2.8c.22-.51.42-.96.54-1.34.1-.27.14-.5.16-.69,1.25.3,1.46.4,1.46.56,0,.14-.06.21-.54.3-.19.38-.4.8-.61,1.17h1.5l2.4-.06v.99l-2.4-.06h-3.49v1.47Z"/>
  <path class="cls-1" d="m441.93,11.33c-1.92,1.76-4.45,2.85-6.42,2.85-2.27,0-3.49-.85-3.49-3.39,0-2.19.06-5.52.14-8.9-.38-.14-.48-.26-.48-.38,0-.11.13-.19.37-.19.19,0,.64.02,1.34.08-.18,3.84-.26,6.47-.26,9.27,0,1.76.48,2.34,2.29,2.34,2,0,4.24-1.09,5.94-2.77.19.43.38.82.56,1.1Z"/>
  <path class="cls-1" d="m446.35,4.68c1.71-.02,3.51-.18,5.3-.45-.32-.67-.64-1.42-.94-2.3-.43-.03-.58-.11-.58-.22,0-.1.08-.18.22-.22.19-.06.46-.13,1.31-.29.34,1.09.69,2.03,1.07,2.85,1.39-.26,2.77-.58,4.1-.98l.21,1.07c-1.25.35-2.51.64-3.81.88.77,1.34,1.68,2.37,2.86,3.35l.05.11-.32.94-.1.05c-1.3-.14-2.53-.22-3.79-.26l.03-.82c.83-.02,1.79-.05,2.51-.08-.86-.91-1.63-1.86-2.34-3.12-1.89.3-3.79.5-5.6.58l-.19-1.09Zm1.62,5.38c.19,2.69,2.71,2.95,5.06,2.95.58,0,1.36-.05,2.31-.13v1.1c-.86.08-1.38.13-2.18.13-3.01,0-6.05-.59-6.13-3.92l.94-.13Z"/>
  <path class="cls-1" d="m462.57,7.04c.22.67.66,1.02,2.69,1.09.06-1.04.16-2.08.26-3.12h-.43c-1.04,0-2.06.02-3.06.02l.02-.93c1.23-.05,2.4-.05,3.55-.05.06-.67.13-1.42.19-2.29-.32-.11-.53-.27-.53-.4,0-.1.1-.16.29-.16.43,0,.91.02,1.39.05-.11,1.07-.19,1.99-.27,2.8h3.12l-.03,1.03c-1.07-.03-2.13-.05-3.19-.06-.11,1.04-.19,2.08-.26,3.12,1.12-.03,2.19-.14,3.09-.3l.11,1.02c-.86.14-1.92.26-3.27.29-.03.54-.05.98-.05,1.73,0,1.74.56,2.34,2.59,2.34,2.42,0,4.11-.96,4.11-2.19,0-1.02-.69-1.94-2.59-3.07.3-.22.53-.51.67-.74,2.61,1.55,3.11,2.61,3.11,3.89,0,1.68-1.73,3.14-5.09,3.14-2.99,0-3.86-.98-3.86-3.25,0-.8.03-1.33.05-1.84-2.38-.06-2.9-.51-3.44-1.62l.82-.48Z"/>
  <path class="cls-1" d="m483.27,10.67c.4-.34.75-.69,1.09-1.04,1.18-1.25,2.59-3.06,4.16-6.93.21-.51.34-1.04.4-1.5,1.49.54,1.54.66,1.54.85,0,.16-.27.24-.62.24-1.73,4.53-3.39,6.74-4.71,8.08-.54.56-1.14,1.12-1.86,1.65v.29c0,.56.11.75,2.3.75,2.43,0,2.56-.21,2.59-2.67.35.18.82.35,1.14.43-.14,2.82-.43,3.23-3.68,3.23-2.99,0-3.38-.16-3.41-1.33-1.01.61-2.22,1.18-3.78,1.7-.18-.38-.35-.62-.66-.98,1.87-.43,3.3-1.15,4.43-1.94v-5.89c0-.59-.03-.94-.11-1.28,1.49.11,1.74.24,1.74.42s-.18.3-.58.38v5.54Zm-2.61-4.5c-.38,2-.94,3.81-1.66,5.36l-.98-.53c.75-1.55,1.34-3.33,1.62-5.2l1.02.37Zm3.39-5.31c.9.62,1.78,1.42,2.45,2.22l-.9.75c-.66-.83-1.44-1.68-2.31-2.34l.75-.64Zm5.86,5.33c1.31,1.63,1.84,2.83,2.56,4.47l-1.06.64c-.7-1.74-1.2-2.86-2.37-4.51l.86-.59Z"/>
  <path class="cls-1" d="m497.59,6.06c.83.27,1.5.59,2.11.94.26-.37.48-.78.67-1.2-.72-.4-1.44-.72-2.11-.94l.45-.7c.78.22,1.42.48,2,.8.19-.56.34-1.15.43-1.78h-2.64c-.64,1.36-1.38,2.48-2.26,3.46-.18-.24-.56-.5-.82-.62,1.18-1.31,2.05-2.71,2.67-4.51.13-.35.19-.64.22-.99,1.26.37,1.49.48,1.49.67,0,.16-.14.27-.61.27-.11.32-.24.64-.37.94h2.37l.34-.32h.19c.62.53.85.72.85.88,0,.14-.1.22-.5.37-.59,3.25-2.13,5.92-5.89,7.49-.1-.27-.34-.61-.61-.85,1.5-.5,2.66-1.25,3.52-2.21-.69-.4-1.39-.75-2.03-.99l.51-.7Zm1.06,6.08c-.58,1.2-1.06,2.02-1.74,2.82l-.98-.53c.69-.69,1.28-1.62,1.76-2.67l.96.38Zm2.62-.32c.42.93.62,1.75.8,2.67l-1.06.3c-.14-.91-.38-1.9-.72-2.67l.98-.3Zm5.15-7.11c.61,3.06,2.34,4.39,4,5.23-.26.18-.53.53-.8.91-1.46-.86-3.2-2.62-3.73-5.04-.53,2.74-2.48,4.39-4.63,5.12-.16-.29-.38-.64-.66-.86,2.13-.58,4.1-2.19,4.5-4.91.02-.16.05-.3.06-.45h-.9l-1.92.06v-.96l1.92.06h.98c.03-.53.03-1.06.03-1.67,0-.56-.03-1.15-.14-1.7,1.36.06,1.65.14,1.65.35,0,.16-.13.22-.51.4-.02.93-.05,1.82-.1,2.61h1.95l1.92-.06v.96l-1.92-.06h-1.71Zm-1.79,7.04c.43.7.83,1.54,1.17,2.48l-1.01.43c-.29-.98-.64-1.75-1.09-2.56l.93-.35Zm3.3-.29c.86.83,1.39,1.52,2.08,2.5l-.9.7c-.59-.98-1.04-1.73-2-2.67l.82-.53Zm.35-10.24c.51.37.96.77,1.41,1.23l-.74.7c-.43-.5-.94-.98-1.38-1.31l.7-.62Z"/>
  <path class="cls-1" d="m514.58,2.78c-.08,1.63-.3,3.57-.54,4.85l-.93-.21c.27-1.46.46-3.14.53-4.77l.94.13Zm1.68,9.97l.06,2.4h-1.12l.06-2.4V1.53c0-.46-.05-.85-.13-1.23,1.39.08,1.7.22,1.7.4s-.18.26-.58.35v11.7Zm.77-10.02c.5.46,1.01,1.07,1.34,1.58l-.8.56c-.37-.64-.8-1.18-1.23-1.65l.69-.5Zm5.71,1.52V1.77c0-.46-.05-.88-.13-1.26,1.5.05,1.7.16,1.7.34,0,.14-.18.24-.53.38v3.03h1.26l2.4-.06v.99l-2.4-.06h-1.26v3.34h.88l2.4-.06v1.02l-2.4-.06h-.88v3.92h1.81l2.4-.06v1.02l-2.4-.06h-5.44l-2.4.06v-1.02l2.4.06h2.59v-3.92h-.78l-2.4.06v-1.02l2.4.06h.78v-3.34h-2.8c-.4,1.23-.88,2.38-1.46,3.49-.27-.19-.59-.35-.9-.45.98-1.79,1.66-3.86,2.05-5.78.06-.35.11-.66.13-.99,1.25.35,1.54.48,1.54.67,0,.16-.16.26-.62.29-.14.66-.3,1.3-.48,1.91h2.54Z"/>
  <path class="cls-1" d="m532.13,7.04c.22.67.66,1.02,2.69,1.09.06-1.04.16-2.08.26-3.12h-.43c-1.04,0-2.06.02-3.06.02l.02-.93c1.23-.05,2.4-.05,3.55-.05.06-.67.13-1.42.19-2.29-.32-.11-.53-.27-.53-.4,0-.1.1-.16.29-.16.43,0,.91.02,1.39.05-.11,1.07-.19,1.99-.27,2.8h3.12l-.03,1.03c-1.07-.03-2.13-.05-3.19-.06-.11,1.04-.19,2.08-.26,3.12,1.12-.03,2.19-.14,3.09-.3l.11,1.02c-.86.14-1.92.26-3.27.29-.03.54-.05.98-.05,1.73,0,1.74.56,2.34,2.59,2.34,2.42,0,4.11-.96,4.11-2.19,0-1.02-.69-1.94-2.59-3.07.3-.22.53-.51.67-.74,2.61,1.55,3.11,2.61,3.11,3.89,0,1.68-1.73,3.14-5.09,3.14-2.99,0-3.86-.98-3.86-3.25,0-.8.03-1.33.05-1.84-2.38-.06-2.9-.51-3.44-1.62l.82-.48Z"/>
  <path class="cls-1" d="m550.84,15.1c-.85-1.36-1.84-2.56-3.07-3.6l.88-.72c1.26.99,2.3,2.16,3.2,3.47l-1.01.85Z"/>
</svg>