<?xml version="1.0" encoding="UTF-8"?>
<svg id="top_仮_" data-name="top(仮)" xmlns="http://www.w3.org/2000/svg" viewBox="0 0 100 140">
  <defs>
    <style>
      .cls-1 {
        fill: #444;
      }
    </style>
  </defs>
  <path class="cls-1" d="m40.76,34.95v67.47c0,4.29.7,7.37,2.1,9.26,1.4,1.89,3.78,2.83,7.14,2.83s5.74-.95,7.14-2.83c1.4-1.89,2.1-4.98,2.1-9.26V34.95h37.8v102.25h-36.54v-12.47h-.42c-4.76,9.7-13.93,14.55-27.51,14.55-4.2,0-8.08-.35-11.66-1.04-3.57-.69-6.69-2.08-9.34-4.16-2.66-2.08-4.76-4.91-6.3-8.5-1.54-3.59-2.31-8.09-2.31-13.51V34.95h37.8Z"/>
</svg>