<?xml version="1.0" encoding="UTF-8"?>
<svg id="top_仮_" data-name="top(仮)" xmlns="http://www.w3.org/2000/svg" viewBox="0 0 100 140">
  <defs>
    <style>
      .cls-1 {
        fill: #444;
      }
    </style>
  </defs>
  <path class="cls-1" d="m60.19,131.78c-.28-1.89-.56-3.9-.84-6.05h-.42c-2.1,4.54-5.43,7.94-9.97,10.21-4.55,2.27-9.76,3.4-15.64,3.4s-10.61-.66-14.6-1.98c-3.99-1.32-7.25-3.31-9.76-5.95-2.52-2.65-4.34-5.79-5.46-9.45-1.12-3.65-1.68-7.68-1.68-12.1,0-4.79.52-8.94,1.57-12.47,1.05-3.53,2.76-6.58,5.15-9.17,2.38-2.58,5.6-4.79,9.66-6.61,4.06-1.83,9.1-3.37,15.12-4.63l14.91-3.21c4.06-.88,6.93-2.17,8.61-3.88,1.68-1.7,2.52-4.12,2.52-7.28,0-6.3-3.22-9.45-9.66-9.45-3.64,0-6.3.92-7.98,2.74-1.68,1.83-2.59,5.45-2.73,10.87H6.21c0-7.43,1.47-13.39,4.41-17.86,2.94-4.47,6.58-7.94,10.92-10.4,4.34-2.46,9.03-4.09,14.07-4.91,5.04-.82,9.73-1.23,14.07-1.23,6.58,0,12.63.47,18.17,1.42,5.53.94,10.29,2.65,14.28,5.1,3.99,2.46,7.07,5.8,9.24,10.02,2.17,4.22,3.25,9.67,3.25,16.35v49.9c0,4.79.21,9.01.63,12.66.42,3.66,1.4,6.8,2.94,9.45h-36.54c-.7-1.76-1.19-3.59-1.47-5.48Zm-3.57-18.9c1.82-2.77,2.73-6.99,2.73-12.66v-12.29h-.42c-1.12,1.39-2.83,2.24-5.14,2.55-2.31.32-4.87,1.04-7.67,2.17-2.94,1.26-4.97,2.93-6.09,5.01-1.12,2.08-1.68,4.82-1.68,8.22s.84,6.11,2.52,8.13c1.68,2.02,3.92,3.02,6.72,3.02,4.2,0,7.21-1.39,9.03-4.16Z"/>
</svg>