<?xml version="1.0" encoding="UTF-8"?>
<svg id="top_仮_" data-name="top(仮)" xmlns="http://www.w3.org/2000/svg" viewBox="0 0 30 35">
  <defs>
    <style>
      .cls-1 {
        fill: #444;
      }
    </style>
  </defs>
  <path class="cls-1" d="m16.79,2.1c1.73,0,3.23.25,4.51.75,1.27.5,2.33,1.18,3.16,2.05.83.87,1.45,1.89,1.84,3.07.39,1.18.59,2.46.59,3.84,0,3.26-.97,5.71-2.92,7.34-1.94,1.63-4.79,2.45-8.55,2.45h-3.19v12H3.12V2.1h13.67Zm-2.84,13.58c1.14,0,2.02-.31,2.62-.93.6-.62.91-1.59.91-2.91,0-2.56-1.18-3.84-3.53-3.84h-1.71v7.67h1.71Z"/>
</svg>