<?xml version="1.0" encoding="UTF-8"?>
<svg id="top_仮_" data-name="top(仮)" xmlns="http://www.w3.org/2000/svg" viewBox="0 0 30 35">
  <defs>
    <style>
      .cls-1 {
        fill: #444;
      }
    </style>
  </defs>
  <path class="cls-1" d="m3.14,9.83c.42-2.07,1.13-3.76,2.11-5.07.98-1.31,2.27-2.26,3.87-2.87,1.6-.6,3.56-.9,5.88-.9s4.28.3,5.88.9c1.6.6,2.89,1.56,3.87,2.87.98,1.31,1.68,3,2.11,5.07.42,2.07.64,4.58.64,7.52s-.21,5.45-.64,7.52c-.43,2.07-1.13,3.76-2.11,5.07-.98,1.31-2.27,2.24-3.87,2.8-1.6.56-3.56.84-5.88.84s-4.28-.28-5.88-.84c-1.6-.56-2.89-1.49-3.87-2.8-.98-1.31-1.68-3-2.11-5.07s-.64-4.58-.64-7.52.21-5.45.64-7.52Zm8.87,12.79c.07,1.4.2,2.51.42,3.33.21.82.52,1.4.93,1.72.41.32.96.48,1.64.48s1.23-.16,1.64-.48c.41-.32.72-.9.93-1.72.21-.82.35-1.93.42-3.33.06-1.4.1-3.15.1-5.27s-.03-3.87-.1-5.27c-.07-1.4-.21-2.51-.42-3.33-.21-.82-.52-1.4-.93-1.72-.41-.32-.96-.48-1.64-.48s-1.23.16-1.64.48c-.41.32-.72.9-.93,1.72-.21.82-.35,1.93-.42,3.33s-.1,3.15-.1,5.27.03,3.87.1,5.27Z"/>
</svg>