<?xml version="1.0" encoding="UTF-8"?>
<svg id="top_仮_" data-name="top(仮)" xmlns="http://www.w3.org/2000/svg" viewBox="0 0 30 35">
  <defs>
    <style>
      .cls-1 {
        fill: #444;
      }
    </style>
  </defs>
  <path class="cls-1" d="m16.71,2.1c1.73,0,3.21.21,4.43.62,1.22.41,2.22.99,2.99,1.74.77.75,1.32,1.64,1.67,2.67.34,1.03.51,2.15.51,3.35,0,2.12-.47,3.82-1.42,5.12-.95,1.29-2.47,2.09-4.56,2.38v.09c2.19.18,3.69.87,4.51,2.07s1.23,2.87,1.23,4.98v3.97c0,.44.02.86.05,1.26.03.4.08.76.15,1.08.07.32.15.57.25.75.13.18.26.35.39.51.13.16.34.32.64.46v.44h-9.7c-.23-.41-.4-.9-.51-1.46s-.2-1.12-.25-1.68-.08-1.09-.1-1.61c-.02-.51-.02-.93-.02-1.26v-2.12c0-.88-.05-1.62-.15-2.21-.1-.59-.27-1.05-.51-1.39-.24-.34-.56-.57-.93-.71-.38-.13-.84-.2-1.4-.2h-2.4v12.61H2.46V2.1h14.26Zm-3.33,13.32c1.31,0,2.27-.35,2.89-1.04s.93-1.59.93-2.71c0-1.32-.3-2.26-.91-2.82-.6-.56-1.59-.84-2.96-.84h-1.76v7.41h1.81Z"/>
</svg>