<?xml version="1.0" encoding="UTF-8"?>
<svg id="top_仮_" data-name="top(仮)" xmlns="http://www.w3.org/2000/svg" viewBox="0 0 100 140">
  <defs>
    <style>
      .cls-1 {
        fill: #444;
      }
    </style>
  </defs>
  <path class="cls-1" d="m40.76,2.22v44.04h.42c3.22-5.42,7.25-9.1,12.08-11.06,4.83-1.95,9.55-2.93,14.17-2.93,3.92,0,7.67.44,11.23,1.32,3.57.88,6.72,2.39,9.45,4.54,2.73,2.14,4.9,5.01,6.51,8.6,1.61,3.59,2.42,8.03,2.42,13.32v77.11h-37.8v-67.47c0-4.28-.7-7.37-2.1-9.26-1.4-1.89-3.78-2.83-7.14-2.83s-5.74.94-7.14,2.83c-1.4,1.89-2.1,4.98-2.1,9.26v67.47H2.96V2.22h37.8Z"/>
</svg>