<?xml version="1.0" encoding="UTF-8"?>
<svg id="_テキスト" data-name="テキスト" xmlns="http://www.w3.org/2000/svg" viewBox="0 0 560 536">
  <defs>
    <style>
      .cls-1 {
        fill: #444;
      }
    </style>
  </defs>
  <g>
    <path class="cls-1" d="M18.61,8.43l4.06-.1v2.09l-4.06-.1H5.14v3.07c0,4.2-.84,6.91-2.64,9.41-.46-.6-1.1-1.08-1.73-1.39,1.66-2.33,2.21-4.39,2.21-7.97v-1.87l-.1-3.14,.1-.1,3.79,.1h11.83ZM10.95,2.74c0-.74-.07-1.13-.22-1.75,2.74,.14,3.17,.24,3.17,.67,0,.24-.22,.36-.77,.5v2.69h5.26v-1.44c0-.67-.05-1.15-.22-1.75,2.74,.14,3.14,.26,3.14,.67,0,.24-.22,.36-.77,.5v1.61l.07,2.18-.1,.14-3.34-.07H7.02l-3.31,.07-.12-.17,.07-2.16v-1.03c0-.7-.05-1.1-.22-1.75,2.74,.14,3.12,.26,3.12,.67,0,.24-.22,.36-.77,.5v2.02h5.16V2.74Zm1.54,11.26h-2.02l-3.84,.1v-2.02l3.84,.1h6.58l3.84-.1v2.02l-3.84-.1h-2.38v2.5h4.46l3.84-.1v2.06l-3.84-.1h-4.46v1.51l.1,3.43h-2.38l.1-3.43v-1.51h-3.29l-3.84,.1v-2.06l3.84,.1h3.29v-2.5Z"/>
    <path class="cls-1" d="M50.7,11.84l-3.84,.1v-1.9l3.84,.1h3.17c.36-.6,.7-1.22,.96-1.87h-1.3l-3.86,.1v-1.85l3.86,.1h1.92c.19-.5,.31-1.03,.46-1.56h-3.79l-3.84,.1v-1.9l3.84,.1h4.13c.14-.77,.22-1.44,.22-1.94,0-.05,0-.17-.02-.58,2.28,.31,3.05,.53,3.05,.89s-.12,.41-.82,.55c-.07,.38-.14,.74-.22,1.08h4.94l3.86-.1v1.9l-3.86-.1h-5.33c-.12,.53-.26,1.06-.43,1.56h4.32l3.86-.1v1.85l-3.86-.1h-1.08c.26,.65,.6,1.27,.98,1.87h2.95l3.84-.1v1.9l-3.84-.1h-1.63l.38,.38c1.46,1.46,2.78,2.28,5.93,3.26-.5,.53-1.08,1.3-1.46,2.04-1.75-.86-3.14-1.63-4.39-2.64l-.05,1.7v2.78l.1,3.91h-2.23v-1.03h-7.2v1.13h-2.21l.1-3.86v-2.93l-.05-1.51c-1.18,1.01-2.57,1.99-4.34,3.02-.67-.79-1.03-1.06-1.66-1.51,2.71-1.39,3.67-2.04,5.06-3.26,.53-.46,1.03-.96,1.46-1.49h-1.92Zm4.27,.12c-.38,.53-.82,1.06-1.27,1.56l1.51,.02h5.3l1.63-.02c-.05-.07-.12-.12-.17-.19-.46-.5-.86-.98-1.22-1.49h-5.69l-.1,.12Zm6.48,3.31h-7.2v1.68h7.2v-1.68Zm0,3.36h-7.2v1.9h7.2v-1.9Zm-1.75-8.5c-.31-.6-.58-1.25-.86-1.87h-1.78c-.26,.65-.58,1.27-.91,1.87h3.55Z"/>
    <path class="cls-1" d="M74.1,15.32c-1.08,.77-2.28,1.46-3.58,2.18-.19-.5-.6-1.18-1.25-1.78,3.53-1.37,5.67-3.12,7.22-5.18h-2.98l-3.87,.1v-2.04l3.87,.1h4.2c.19-.36,.41-.74,.6-1.13,.17-.34,.31-.67,.43-1.01-2.3,.6-4.63,1.03-6.82,1.37-.17-.5-.62-1.18-1.22-1.78,3.48-.48,6.14-.91,8.59-1.61-2.11-.72-4.13-1.32-5.81-1.75l1.15-1.49c2.06,.53,4.68,1.27,7.27,2.21,.89-.36,1.75-.77,2.59-1.22,.74-.41,1.34-.72,1.73-1.2,1.97,1.25,2.11,1.37,2.11,1.66s-.29,.36-1.13,.29c-.86,.53-1.8,1.01-2.78,1.44,1.3,.53,2.52,1.08,3.62,1.68l-1.08,1.78c-1.49-.89-3.19-1.68-4.94-2.38-.79,.26-1.58,.5-2.38,.74,1.61,.6,1.85,.77,1.85,1.06-.02,.29-.29,.36-.89,.38-.17,.34-.34,.65-.5,.96h7.46l3.86-.1v2.04l-3.86-.1h-8.59c-.77,1.08-1.63,2.09-2.62,2.98h4.2v-.29c0-.84-.02-1.08-.19-2.16,2.59,.07,3.05,.22,3.05,.58,0,.26-.24,.38-.74,.53v1.34h3.91l2.88-.07,.1,.1-.1,2.33v1.87l.05,1.85c0,1.54-.62,2.06-2.66,2.06h-1.22c-.17-.67-.53-1.63-.91-2.26,1.03,.12,1.54,.14,2.09,.14,.38,0,.53-.12,.53-.58v-3.62h-4.66v4.08l.1,3.86h-2.3l.1-3.86v-4.08h-4.44v6.5h-2.21l.1-3.38v-1.1l.07-2.04Z"/>
  </g>
  <g>
    <path class="cls-1" d="M11.15,339.73v.7H6.43v11.41h-.77v-12.12h5.49Z"/>
    <path class="cls-1" d="M15.77,343.21c1.7-.14,3.43-.26,5.17-.3v-1.68c-.42-.11-.56-.24-.56-.38,0-.13,.14-.18,.34-.18s.48,0,1.36,.03c-.03,.79-.05,1.5-.06,2.16,.87-.02,1.71-.03,2.56-.03,.61,0,1.38,.02,1.99,.03l.03,.96c-.61-.02-1.39-.03-2-.03-.8,0-1.68,.02-2.59,.03-.02,.45-.02,.85-.02,1.2s0,.8,.02,1.3c1.14-.1,2.37-.27,3.75-.5l.22,.96c-1.33,.24-2.66,.42-3.94,.53,.03,1.04,.08,2.18,.11,3.14,1.49,.59,3.07,1.38,4.59,2.19l-.62,1.01c-1.26-.78-2.66-1.47-3.94-2.08-.16,1.63-1.31,2.24-2.77,2.24-2.19,0-3.31-.98-3.31-1.98,0-.91,1.46-2.05,3.31-2.05,.34,0,1.1,.14,1.67,.32-.03-.86-.06-1.81-.1-2.72-.64,.05-1.28,.06-1.89,.06-1.38,0-2.21-.35-2.8-.7l.61-.75c.56,.32,1.14,.48,2.19,.48,.59,0,1.22-.02,1.87-.06-.02-.48-.02-.93-.02-1.31v-1.23c-1.7,.05-3.47,.14-5.11,.29l-.06-.93Zm3.52,7.52c-1.2,0-2.14,.59-2.14,1.1,0,.46,.82,.98,2.26,.98,1.12,0,1.67-.67,1.67-1.65-.64-.26-1.33-.43-1.78-.43Z"/>
    <path class="cls-1" d="M39.05,343.21h.58c2.21,0,3.17,0,4.39,.05l-.02,1.04c-1.79-.11-3.07-.13-4.34-.13h-.61v2.9c.24,.66,.34,1.22,.34,1.9,0,2.69-1.23,4.5-5.04,5.04-.11-.32-.29-.64-.53-.99,3.22-.32,4.43-2.02,4.51-3.34-.32,.5-.96,.85-2.05,.85-1.36,0-2-.66-2-1.86,0-1.55,1.42-3.09,2.64-3.09,.4,0,.82,.11,1.1,.5-.02-.62-.02-1.25-.03-1.87-1.7,.03-3.81,.14-6.72,.35l-.05-1.02c2.95-.16,5.09-.26,6.75-.3,0-.64-.02-1.28-.02-1.92-.4-.14-.54-.24-.54-.37,0-.11,.1-.21,.29-.21,.35,0,.93,.02,1.39,.03l-.05,.99v1.46Zm-3.81,5.35c0,.72,.32,1.01,1.31,1.01s1.54-.7,1.58-1.58c-.21-1.1-.85-1.44-1.26-1.44-.61,0-1.63,.93-1.63,2.02Zm6.18-8.6c.86,.79,1.42,1.42,2.05,2.43l-.77,.58c-.56-.96-1.15-1.73-2.02-2.53l.74-.48Zm2.05-.59c.85,.8,1.3,1.28,1.92,2.29l-.72,.56c-.58-.95-1.04-1.52-1.91-2.32l.7-.53Z"/>
    <path class="cls-1" d="M49.17,353.9c-.48-1.58-.67-3.22-.67-4.88,0-2.64,.34-5.04,.95-7.44-.32-.21-.42-.32-.42-.43,0-.1,.1-.13,.22-.13,.21,0,.56,.08,1.41,.34-.72,2.58-1.07,5.31-1.07,7.44,0,1.79,.26,3.28,.66,4.85l-1.07,.26Zm2.93-9.75c.95,.05,2.06,.06,3.01,.06,.5,0,1.04-.02,1.63-.03-.02-.8-.02-1.62-.03-2.42-.38-.11-.56-.22-.56-.38,0-.11,.14-.18,.37-.18s.74,.02,1.33,.05c-.02,.48-.02,.91-.02,1.33,0,.56,0,1.07,.02,1.54,.82-.05,1.73-.11,2.71-.22l.02,1.02c-.98,.08-1.86,.14-2.72,.21,.02,1.58,.06,3.76,.16,5.54,.85,.48,1.89,1.07,2.82,1.71l-.69,.98c-.75-.58-1.54-1.1-2.3-1.57-.48,1.12-1.46,1.73-2.88,1.73-1.7,0-2.82-.8-2.82-1.84s1.42-2.02,2.59-2.02c.67,0,1.47,.14,2.18,.46-.06-1.3-.11-3.36-.16-4.95-.74,.03-1.46,.05-2.22,.05-.64,0-1.44,0-2.4-.03l-.02-1.04Zm2.58,6.43c-.75,0-1.52,.56-1.52,1.04,0,.42,.59,.91,1.49,.91,1.19,0,1.89-.42,2.15-1.31-.64-.4-1.44-.64-2.11-.64Z"/>
    <path class="cls-1" d="M66.38,353.51v1.02h-1.1l.06-2.4v-7.89l-.06-2.34,.06-.06,2.34,.06h1.63c.18-.37,.34-.75,.48-1.18,.13-.38,.19-.61,.24-.93,1.34,.29,1.58,.42,1.58,.56,0,.18-.13,.24-.61,.29-.18,.4-.4,.86-.62,1.26h3.43l2.34-.06,.06,.06-.06,2.34v7.86l.06,2.4h-1.1v-.99h-8.72Zm8.72-10.71h-8.72v2.56h8.72v-2.56Zm0,3.46h-8.72v2.64h8.72v-2.64Zm0,3.54h-8.72v2.8h8.72v-2.8Z"/>
    <path class="cls-1" d="M84.65,341c1.31,.3,1.57,.42,1.57,.61,0,.13-.14,.26-.62,.3-1.04,2.69-2.72,4.95-4.56,6.29-.18-.27-.46-.54-.77-.77,1.84-1.3,3.35-3.38,4.11-5.46,.13-.35,.22-.69,.27-.98Zm2.62,6.71c-.18,3.63-1.52,5.78-5.73,6.59-.13-.3-.42-.67-.62-.9,3.55-.56,5.07-2.16,5.25-5.7h-.62l-2.4,.06v-1.06l2.4,.06h4.85l1.86-.06,.06,.06-.06,1.95c-.05,1.63-.1,2.75-.24,3.47-.29,1.49-1.14,1.91-2.5,1.91h-.87c-.08-.38-.24-.77-.45-1.07,.61,.06,.86,.08,1.28,.08,1.17,0,1.44-.5,1.58-1.78,.11-.96,.14-2.43,.14-3.63h-3.94Zm2.79-7.52c1.17,3.07,2.83,5.23,5.19,6.83-.29,.21-.58,.51-.85,.86-2.27-1.68-4.03-4.05-5.3-7.38l.96-.32Z"/>
    <path class="cls-1" d="M109.69,343.08c-1.84,.16-3.01,.46-4.11,1.25-1.47,1.02-2.35,2.54-2.35,4.39,0,3.01,2.82,3.63,5.3,3.63,.19,0,.4,0,.59-.02l-.03,1.25h-.26c-3.2,0-6.68-.91-6.68-4.79,0-1.95,.91-3.58,2.24-4.69,.34-.22,.67-.43,1.07-.64l-1.3,.26c-1.97,.29-3.79,.53-6.21,.86l-.19-1.1c4.38-.48,7.91-.98,11.75-1.55l.11,.06,.13,1.01-.06,.08Zm-1.86,2.13c.91,.72,1.52,1.33,2.21,2.29l-.72,.62c-.62-.91-1.27-1.63-2.19-2.37l.7-.54Zm1.67-1.12c.9,.74,1.38,1.18,2.08,2.15l-.69,.61c-.64-.9-1.14-1.44-2.06-2.18l.67-.58Z"/>
    <path class="cls-1" d="M114.88,346.28c1.03-.4,2.16-.82,3.35-1.23-.3-.96-.62-1.97-.98-3.03-.42-.02-.59-.08-.59-.22,0-.08,.13-.16,.26-.21,.37-.13,.8-.22,1.31-.34,.35,1.1,.71,2.24,1.06,3.41,2.19-.74,4.4-1.33,5.71-1.33,1.74,0,3.39,.88,3.39,2.96,0,1.65-1.38,3.03-3.52,3.03-1.06,0-1.94-.21-2.82-.74,.19-.37,.3-.56,.43-.96,.82,.48,1.6,.62,2.27,.62,1.39,0,2.5-.78,2.5-2,0-1.44-1.14-1.92-2.22-1.92s-3.27,.56-5.46,1.3c.77,2.61,1.54,5.33,2.29,8.13l-1.14,.32c-.77-2.99-1.41-5.43-2.21-8.07-1.09,.42-2,.8-3.18,1.33l-.45-1.06Zm7.35-5.71c.77,.54,1.38,1.1,1.98,1.78l-.82,.69c-.66-.77-1.31-1.38-2.02-1.87l.85-.59Z"/>
    <path class="cls-1" d="M132.93,346.71c3.19-.75,4.88-1.02,6.39-1.02,2.59,0,4,1.17,4,3.35,0,1.78-.98,3.04-2.83,3.81-1.23,.5-2.3,.7-4.22,.98-.11-.32-.27-.66-.48-.96,1.86-.24,2.91-.43,4.07-.88,1.55-.61,2.31-1.6,2.31-3.03,0-1.54-.95-2.29-2.91-2.29-1.38,0-2.88,.27-6.07,1.1l-.24-1.06Z"/>
    <path class="cls-1" d="M158.72,343.08c-1.84,.16-3.01,.46-4.11,1.25-1.47,1.02-2.35,2.54-2.35,4.39,0,3.01,2.82,3.63,5.3,3.63,.19,0,.4,0,.59-.02l-.03,1.25h-.26c-3.2,0-6.67-.91-6.67-4.79,0-1.95,.91-3.58,2.24-4.69,.34-.22,.67-.43,1.07-.64l-1.3,.26c-1.97,.29-3.79,.53-6.21,.86l-.19-1.1c4.39-.48,7.91-.98,11.75-1.55l.11,.06,.13,1.01-.06,.08Z"/>
    <path class="cls-1" d="M164.03,341.49c1.73,0,3.46-.05,5.19-.14-.22,2.29-.62,4.4-.9,5.38,1.38,.11,2.69,.34,4.02,.7,.03-.58,.06-1.23,.06-1.83,0-.43-.02-.78-.03-1.09-.26-.1-.48-.21-.48-.37,0-.1,.1-.18,.3-.18,.29,0,.78,.03,1.3,.08,.02,.37,.03,.8,.03,1.22,0,1.12-.03,1.87-.08,2.5,.85,.27,1.71,.59,2.62,.98l-.42,1.06c-.79-.37-1.57-.69-2.32-.94-.53,3.33-2.5,4.5-5.23,5.12-.16-.27-.3-.51-.58-.85,3.17-.64,4.37-2.22,4.72-4.64-1.6-.48-3.04-.75-4.23-.86-.67,1.98-1.62,3.33-2.21,3.99-.45,.5-.99,.83-1.68,.83-.75,0-1.68-.69-1.68-2.03,0-2.47,2.31-3.78,4.64-3.78h.13c.37-1.17,.67-2.93,.78-4.27-1.02,.05-2.38,.1-3.95,.11l-.02-.98Zm-.58,8.77c0,.78,.43,1.09,.66,1.09,.3,0,.59-.1,.94-.5,.66-.74,1.25-1.65,1.84-3.23-1.71,.02-3.44,1.01-3.44,2.64Z"/>
    <path class="cls-1" d="M183.86,346.61c1.2-.54,2.13-.74,3.09-.74,2.43,0,4.31,1.31,4.31,3.62,0,2.51-2.1,4.31-5.68,4.31-2.21,0-3.38-1.02-3.38-2.3,0-1.14,.96-1.82,2.06-1.82,1.31,0,2.42,1.01,2.87,2.27l-.93,.54c-.5-1.26-1.17-1.86-1.9-1.86-.54,0-1.11,.4-1.11,.83,0,.85,.9,1.33,2.29,1.33,2.69,0,4.56-1.2,4.56-3.38,0-1.23-.95-2.61-3.3-2.61-2,0-3.76,.85-5.62,2.82l-.14,.02-.7-.64v-.13c2.75-2.77,4.43-4.42,6.66-6.5-1.65,.22-3.33,.37-5.46,.42l-.05-1.07c2-.03,4.4-.19,6.32-.46l.35-.29h.14c.82,.67,.94,.93,.94,1.06,0,.19-.16,.24-.69,.42-1.44,1.3-2.51,2.34-3.78,3.44l-.91,.66,.05,.08Z"/>
    <path class="cls-1" d="M196.08,354.78v-.7h4.72v-11.41h.77v12.12h-5.49Z"/>
    <path class="cls-1" d="M215.23,342.84c.66,.03,1.28,.05,1.89,.05,.66,0,1.28-.02,1.92-.05,.3-.54,.58-1.14,.85-1.78-.26-.11-.42-.24-.42-.38,0-.08,.1-.13,.29-.13,.14,0,.99,.13,1.46,.22-.35,.77-.67,1.42-.98,1.99,1.31-.1,2.69-.26,4.29-.46l.13,.99c-1.79,.22-3.41,.38-4.99,.48-.64,1.04-1.22,1.76-1.92,2.37l.05,.05c.69-.37,1.39-.5,2-.5,1.2,0,1.87,.74,2,1.99,1.49-.58,2.8-1.01,4.16-1.5-.03-.14-.05-.26-.05-.35,0-.19,.08-.26,.18-.26s.14,.05,.22,.13c.34,.4,.62,.88,.8,1.33-1.81,.53-3.67,1.12-5.23,1.68,.05,.8,.08,1.76,.1,2.64l-1.1,.02c0-.77-.02-1.6-.05-2.26-.22,.08-.45,.18-.66,.26-1.2,.48-2.32,1.22-2.32,2.1,0,1.02,.75,1.31,2.46,1.31,2.35,0,4.03-.18,5.12-.3l.03,1.12c-1.22,.11-2.69,.21-5.04,.21s-3.62-.69-3.62-2.29c0-1.41,1.46-2.34,2.59-2.83,.46-.21,.91-.4,1.34-.58-.13-1.1-.32-1.55-1.39-1.55-1.14,0-2.08,.61-3.51,1.73l-.16-.05-.54-.75,.02-.11c1.34-1.07,2.42-2.18,3.3-3.54-.51,.02-1.01,.03-1.52,.03-.56,0-1.12-.02-1.68-.03l-.02-.98Z"/>
    <path class="cls-1" d="M234.18,348.09c-.79,1.46-1.79,2.61-2.96,3.68-.22-.27-.5-.5-.82-.7,1.28-1.1,2.16-2.19,2.77-3.46-.19-.21-.34-.38-.34-.48,0-.11,.1-.16,.19-.16,.11,0,.43,.11,1.46,.67l-.3,.45Zm6.51-3.92l2.43-.06v1.15l-2.43-.05h-3.01v5.54c0,.61,.03,1.06,.03,1.44,0,.98-.5,1.46-1.36,1.46-.59,0-1.39-.16-2.34-.48,.06-.35,.08-.72,.08-1.04,.86,.27,1.52,.4,1.98,.4,.32,0,.46-.14,.46-.67v-6.64h-3.23l-2.43,.05v-1.15l2.43,.06h3.23v-2.42c-.42-.27-.5-.37-.5-.48,0-.1,.08-.14,.27-.14s.72,.1,1.47,.29l-.11,.77v1.98h3.01Zm-.14,2.87c1.09,1.07,2.05,2.34,2.91,3.79l-.93,.7c-.88-1.54-1.81-2.82-2.86-3.83l.88-.67Zm3.99-5.43c0,.98-.8,1.76-1.76,1.76s-1.75-.78-1.75-1.76,.79-1.75,1.75-1.75,1.76,.78,1.76,1.75Zm-2.82,0c0,.59,.48,1.07,1.06,1.07s1.09-.48,1.09-1.07-.5-1.07-1.09-1.07-1.06,.5-1.06,1.07Z"/>
    <path class="cls-1" d="M250.65,346.25l.06,2.43h-1.28l.06-2.43v-4.18c-.46-.32-.53-.38-.53-.53,0-.06,.08-.11,.27-.11,.27,0,.77,.11,1.52,.3l-.11,.77v3.75Zm6.15,1.17c0,3.63-1.98,5.86-6.42,6.28-.13-.35-.29-.71-.5-1.04,4.03-.37,5.73-2.08,5.73-5.23v-5.57c-.46-.32-.53-.38-.53-.53,0-.06,.08-.11,.27-.11,.27,0,.8,.11,1.55,.3l-.11,.77v5.14Z"/>
    <path class="cls-1" d="M263.07,345.33c1.66,.37,2.83,.72,4.29,1.31l-.43,1.01c-1.38-.54-2.59-.93-4.23-1.3l.37-1.02Zm.66,8.04c-.35-.98-.5-1.33-.5-1.49,0-.13,.08-.21,.19-.21,.1,0,.26,.11,.53,.35,4.53-.59,7.59-3.23,9.59-8.56,.34,.42,.62,.69,.91,.93-1.94,5.11-5.06,7.84-9.83,8.79l-.9,.19Zm.26-11.52c1.7,.4,3.09,.85,4.43,1.55l-.51,1.02c-1.22-.67-2.58-1.14-4.29-1.52l.37-1.06Z"/>
    <path class="cls-1" d="M278.42,348.05v-1.3l2.43,.08h7.08l2.43-.08v1.3l-2.43-.06h-7.08l-2.43,.06Z"/>
    <path class="cls-1" d="M295.29,353.63c-.21-1.68-.29-3.06-.29-4.85s.26-4.03,.83-6.96c-.34-.18-.48-.32-.48-.45,0-.11,.11-.16,.32-.16,.22,0,.53,.05,1.52,.29-.78,2.59-1.07,5.14-1.07,7.36,0,1.73,.08,3.01,.37,4.67l-1.2,.1Zm5.09-4.58c-.3,.5-.45,.93-.45,1.55,0,.67,.83,1.18,3.43,1.18,1.12,0,2.64-.14,3.79-.35l.08,1.18c-1.04,.16-2.54,.27-3.81,.27-3.22,0-4.61-.77-4.61-2.22,0-.64,.16-1.26,.64-2.13l.93,.51Zm-.82-5.54c1.46-.22,3.04-.34,4.45-.34,1.01,0,1.78,.03,2.56,.11l-.02,1.06c-.85-.06-1.59-.1-2.72-.1-1.36,0-2.85,.11-4.21,.34l-.06-1.07Z"/>
    <path class="cls-1" d="M314.33,354.67c-.85-1.36-1.84-2.56-3.07-3.6l.88-.72c1.27,.99,2.3,2.16,3.2,3.47l-1.01,.85Z"/>
    <path class="cls-1" d="M328.35,343.78v-.98l1.99,.06h1.73l1.9-.06v.98l-1.9-.06h-1.73l-1.99,.06Zm1.78,9.76v.99h-1.01l.06-1.92v-1.86l-.06-1.22,.08-.06,1.36,.06h1.47l1.36-.06,.08,.06-.05,1.22v1.55l.08,1.92h-1.01v-.69h-2.37Zm-.9-12v-.98l1.44,.06h1.25l1.44-.06v.98l-1.44-.06h-1.25l-1.44,.06Zm0,4.47v-.98l1.44,.06h1.25l1.44-.06v.98l-1.44-.06h-1.25l-1.44,.06Zm0,2.22v-.98l1.44,.06h1.25l1.44-.06v.98l-1.44-.06h-1.25l-1.44,.06Zm3.27,2.1h-2.37v2.43h2.37v-2.43Zm4.55,.8c.74-.11,1.52-.26,2.21-.4-.03,.29-.06,.56-.06,.85-1.43,.32-2.91,.59-4.23,.83,0,.29-.1,.48-.24,.48-.21,0-.34-.18-.78-1.38,.43-.02,.77-.03,1.14-.08,.29-.03,.62-.08,.98-.14v-3.71h-.37l-1.44,.06v-.96l1.44,.06h1.65l1.44-.06v.96l-1.44-.06h-.29v3.55Zm1.97-8.08c-.02-.66-.02-1.31-.02-1.94,0-.35-.02-.72-.08-1.09,1.46,.13,1.65,.24,1.65,.4,0,.19-.14,.24-.58,.35,0,.77,0,1.54,.02,2.27h.75l2.4-.06v.99l-2.4-.06h-.74c.05,1.63,.13,2.98,.18,3.47,.18,1.87,.54,3.57,1.17,4.91,.35,.75,.53,.96,.71,.96,.26,0,.32-.75,.43-2.02,.3,.24,.66,.37,.9,.46-.13,2.26-.62,2.74-1.33,2.74-.5,0-1.07-.54-1.6-1.7-.53-1.15-1.02-2.95-1.26-5.55-.06-.74-.13-1.95-.16-3.28h-2.24l-2.4,.06v-.99l2.4,.06h2.21Zm2.31-2.77c.5,.32,1.06,.77,1.49,1.22l-.67,.69c-.4-.46-.91-.94-1.38-1.3l.56-.61Z"/>
    <path class="cls-1" d="M348.67,347.26c-.54,.67-1.14,1.31-1.74,1.87-.22-.27-.54-.53-.79-.66,1.26-1.22,2.34-2.5,2.99-3.55,.21-.35,.43-.83,.5-1.17,1.2,.45,1.49,.61,1.49,.78,0,.22-.16,.27-.74,.27-.3,.54-.67,1.09-1.06,1.63,.72,.08,.8,.18,.8,.32s-.18,.24-.53,.38v7.49h-1.06l.06-2.4v-2.83l.06-2.14Zm.9-7c1.15,.5,1.34,.64,1.34,.85,0,.19-.22,.21-.67,.16-.88,.9-1.98,1.75-3.19,2.42-.18-.29-.43-.58-.67-.75,1.12-.59,2.11-1.33,2.71-1.95,.27-.29,.38-.48,.48-.72Zm8.55,10.23l.06,2.55c0,1.26-.29,1.58-1.73,1.58h-1.1c-.06-.3-.22-.82-.45-1.12,.61,.08,1.38,.1,1.73,.1s.45-.14,.45-.51v-6.93h-3.01l-2.4,.06v-1.02l2.4,.06h4.53l2.4-.06v1.02l-2.4-.06h-.48v4.34Zm-5.39-8.55v-1.01l2.4,.06h2.54l2.4-.06v1.01l-2.4-.06h-2.54l-2.4,.06Z"/>
    <path class="cls-1" d="M369.34,343.49c-.72-.77-1.39-1.34-2.13-1.84-.82,1.38-1.67,2.42-2.69,3.34-.19-.29-.42-.5-.7-.69,1.14-.93,2.11-2.26,2.77-3.65,.14-.3,.22-.54,.26-.85,1.28,.3,1.47,.43,1.47,.59s-.14,.27-.58,.27c-.05,.08-.1,.18-.13,.26,.85,.5,1.68,1.14,2.4,1.83l-.67,.74Zm-2.66,1.87h-.22l-1.28,.06v-.93l1.28,.06h1.73l1.28-.06v.93l-1.28-.06h-.58v1.81h.58l1.6-.06v.93l-1.6-.06h-.58v4.37c.8-.16,1.6-.34,2.3-.53-.02,.26-.02,.56-.02,.83-1.3,.37-3.17,.75-4.8,1.1-.05,.32-.13,.43-.27,.43-.19,0-.34-.14-.8-1.33,.43-.02,.74-.05,1.09-.1,.46-.06,.99-.14,1.57-.24v-4.55h-.8l-1.6,.06v-.93l1.6,.06h.8v-1.81Zm-1.47,3.75c.34,.62,.64,1.47,.78,2.1l-.82,.35c-.16-.67-.45-1.5-.77-2.11l.8-.34Zm4.85,.35c0,.13-.11,.21-.5,.29-.16,.56-.34,1.09-.61,1.7-.27-.13-.5-.21-.77-.27,.26-.56,.42-1.12,.54-1.71,.05-.22,.08-.38,.1-.56,1.15,.32,1.23,.43,1.23,.56Zm2.18-6.35l-1.82,.05v-.93l1.82,.05v-1.26c0-.37-.03-.72-.13-1.1,1.55,.14,1.68,.24,1.68,.42,0,.13-.18,.26-.58,.34v1.62h2.13v-1.26c0-.37-.03-.72-.13-1.1,1.55,.14,1.68,.24,1.68,.42,0,.13-.18,.26-.58,.34v1.62h.13l1.92-.05v.93l-1.92-.05h-.13v2.51h.56l1.92-.05v.96l-1.92-.05h-5.06l-1.92,.05v-.96l1.92,.05h.42v-2.51Zm-.11,10.76v.8h-1.03l.06-2.5v-2.42l-.05-1.86,.06-.06,1.86,.06h2.61l1.86-.06,.06,.06-.05,1.86v2.4l.06,2.46h-1.04v-.75h-4.42Zm4.42-5.14h-4.42v1.73h4.42v-1.73Zm0,2.53h-4.42v1.78h4.42v-1.78Zm-1.2-5.63v-2.51h-2.13v2.51h2.13Z"/>
    <path class="cls-1" d="M381.66,343.75v-.98l1.98,.06h1.75l1.91-.06v.98l-1.91-.06h-1.75l-1.98,.06Zm1.78,9.76v.99h-1.01l.06-1.92v-1.86l-.06-1.22,.08-.06,1.36,.06h1.47l1.36-.06,.08,.06-.05,1.22v1.55l.08,1.92h-1.01v-.69h-2.37Zm-.9-12v-.98l1.44,.06h1.25l1.44-.06v.98l-1.44-.06h-1.25l-1.44,.06Zm0,4.47v-.98l1.44,.06h1.25l1.44-.06v.98l-1.44-.06h-1.25l-1.44,.06Zm0,2.23v-.98l1.44,.06h1.25l1.44-.06v.98l-1.44-.06h-1.25l-1.44,.06Zm3.26,2.1h-2.37v2.43h2.37v-2.43Zm2.15,4.15c-.21-.22-.53-.46-.83-.61,.96-.61,1.84-1.36,2.45-2.18,.19-.24,.37-.51,.46-.8,1.07,.43,1.28,.58,1.28,.74,0,.18-.24,.26-.67,.22-.69,.99-1.68,1.87-2.69,2.62Zm8.66-5.17v.98l-2.4-.06h-4.53l-2.4,.06v-.98l2.4,.06h4.45v-1.76h-3.71l-2.34,.06-.06-.06,.06-1.86v-2.62c0-.46-.03-.85-.11-1.23,1.41,.11,1.54,.19,1.54,.35,0,.18-.08,.24-.48,.37v4.15h3.73l2.34-.08,.06,.06-.06,1.38v1.23l1.52-.05Zm-6.21-4.07l-.06-.05,.06-1.39v-1.68l-.06-1.38,.06-.06,1.7,.06h1.43l1.7-.06,.06,.06-.06,1.38v1.68l.06,1.38-.06,.06-1.7-.06h-1.43l-1.7,.06Zm3.89-.87v-2.82h-2.96v2.82h2.96Zm-.53,6.53c1.14,.86,1.97,1.76,2.77,2.75l-.86,.67c-.8-1.09-1.57-2-2.64-2.88l.74-.54Z"/>
    <path class="cls-1" d="M400,342.84c.66,.03,1.28,.05,1.89,.05,.66,0,1.28-.02,1.92-.05,.3-.54,.58-1.14,.85-1.78-.26-.11-.42-.24-.42-.38,0-.08,.1-.13,.29-.13,.14,0,.99,.13,1.46,.22-.35,.77-.67,1.42-.98,1.99,1.31-.1,2.69-.26,4.29-.46l.13,.99c-1.79,.22-3.41,.38-4.99,.48-.64,1.04-1.22,1.76-1.92,2.37l.05,.05c.69-.37,1.39-.5,2-.5,1.2,0,1.87,.74,2,1.99,1.49-.58,2.8-1.01,4.16-1.5-.03-.14-.05-.26-.05-.35,0-.19,.08-.26,.18-.26s.14,.05,.22,.13c.34,.4,.62,.88,.8,1.33-1.81,.53-3.67,1.12-5.23,1.68,.05,.8,.08,1.76,.1,2.64l-1.1,.02c0-.77-.02-1.6-.05-2.26-.22,.08-.45,.18-.66,.26-1.2,.48-2.32,1.22-2.32,2.1,0,1.02,.75,1.31,2.46,1.31,2.35,0,4.03-.18,5.12-.3l.03,1.12c-1.22,.11-2.69,.21-5.04,.21s-3.62-.69-3.62-2.29c0-1.41,1.46-2.34,2.59-2.83,.46-.21,.91-.4,1.34-.58-.13-1.1-.32-1.55-1.39-1.55-1.14,0-2.08,.61-3.51,1.73l-.16-.05-.54-.75,.02-.11c1.34-1.07,2.42-2.18,3.3-3.54-.51,.02-1.01,.03-1.52,.03-.56,0-1.12-.02-1.68-.03l-.02-.98Z"/>
    <path class="cls-1" d="M425.46,344.87l1.86-.06,.06,.06-.06,1.86v1.3l.06,1.86-.06,.06-1.86-.06h-2.96v1.26h2.96l2.4-.06v.94l-2.4-.06h-2.96v1.3h4.53l2.4-.06v.96l-2.4-.06h-9.89l-2.4,.06v-.96l2.4,.06h4.37v-1.3h-2.72l-2.4,.06v-.94l2.4,.06h2.72v-1.26h-2.88l-1.79,.06-.08-.08,.06-1.84v-1.3l-.06-1.86,.06-.06,1.86,.06h2.83v-1.22h-4.21l-2.4,.06v-.96l2.4,.06h4.21v-1.28c-1.81,.11-3.62,.18-5.49,.22-.1-.3-.26-.56-.51-.87,4.02-.02,7.59-.24,10.29-.59,.34-.05,.64-.14,.95-.29,.86,.62,1.1,.86,1.1,1.04,0,.11-.06,.16-.24,.16-.14,0-.37-.03-.69-.13-1.5,.16-2.96,.29-4.42,.38v1.34h4.42l2.4-.06v.96l-2.4-.06h-4.42v1.22h2.96Zm-3.95,.78h-3.71v1.3h3.71v-1.3Zm-3.71,2.07v1.38h3.71v-1.38h-3.71Zm4.71-.77h3.84v-1.3h-3.84v1.3Zm0,2.14h3.84v-1.38h-3.84v1.38Z"/>
    <path class="cls-1" d="M436.82,341.72l-.05,1.87c.26-.02,.42-.02,.71-.02l.16,.08,.24,.3,.02,.16c-.48,.69-.83,1.2-1.22,1.89l-.03,.48c2.71-2.71,4.58-3.76,5.73-3.76,1.5,0,2.72,1.33,2.72,4.82,0,1.47-.1,2.62-.35,3.52,.7,.58,1.04,.86,1.65,1.47l-.72,.91c-.54-.62-.83-.9-1.38-1.41-.69,.88-1.62,1.26-2.69,1.26-1.55,0-2.58-.74-2.58-1.84,0-.91,1.23-1.94,2.42-1.94,.8,0,1.63,.32,2.34,.85,.14-.69,.16-1.46,.16-2.43,0-2.93-.59-4.21-1.58-4.21s-3.23,1.5-5.75,4.08v2.87c0,.94,0,2.02,.02,3.12h-1.07v-4.24l.08-1.01-.54,.85c-.53,.64-1.11,1.44-1.63,2.1h-.14l-.67-.64,.02-.16c1.01-1.17,2.05-2.58,2.98-4.02l.02-2.02c-.88,.11-1.78,.27-2.66,.48l-.16-.98c.98-.18,1.87-.32,2.85-.46l.05-2.46c-.37-.14-.51-.26-.51-.38,0-.11,.13-.18,.29-.18,.22,0,.59,.02,1.42,.1l-.11,.94Zm4.54,8.76c-.58,0-1.38,.58-1.38,1.01,0,.53,.67,.86,1.6,.86,.71,0,1.28-.26,1.81-.98-.61-.53-1.47-.9-2.03-.9Z"/>
    <path class="cls-1" d="M449.97,343.25c.5,.03,.93,.06,1.42,.06,.54,0,1.18-.03,1.87-.08,.18-.71,.32-1.41,.43-2.11-.35-.19-.45-.3-.45-.43,0-.1,.1-.16,.22-.16,.21,0,.43,.03,1.54,.24-.16,.78-.34,1.58-.54,2.39,.82-.08,1.63-.18,2.37-.29l.08,1.02c-.83,.11-1.79,.22-2.72,.29-.78,2.77-1.82,5.54-3.12,8.28l-1.07-.5c1.26-2.56,2.3-5.12,3.01-7.7-.64,.05-1.22,.06-1.67,.06s-.86,0-1.3-.03l-.08-1.04Zm9.94,2.74c-.4,.48-.58,.93-.58,1.49,0,.62,.14,1.12,.53,2.79,1.2,.45,2.46,1.18,3.49,1.92l-.62,1.01c-.98-.77-1.84-1.34-2.74-1.73-.02,1.63-1.15,2.43-2.77,2.43-1.73,0-2.9-.74-2.9-1.86,0-1.22,1.01-2.19,2.91-2.19,.53,0,.98,.06,1.43,.14-.26-1.22-.4-1.95-.4-2.58,0-.72,.19-1.28,.66-1.86l.99,.43Zm-2.85,4.83c-1.23,0-1.73,.56-1.73,1.12s.66,.96,1.79,.96,1.74-.51,1.74-1.34c0-.11,0-.35-.03-.46-.61-.16-1.04-.27-1.78-.27Zm1.97-7.92c1.39,.34,2.8,.88,4.19,1.62l-.53,.96c-1.34-.74-2.75-1.3-4.1-1.66l.43-.91Z"/>
    <path class="cls-1" d="M467.3,344.45c1.38-.16,2.62-.29,3.63-.38,.29-.91,.53-1.83,.75-2.74-.32-.13-.45-.24-.45-.37,0-.1,.11-.16,.26-.16,.27,0,.59,.06,1.44,.26-.26,.96-.54,1.94-.85,2.91,.43-.03,.77-.05,.99-.05,1.71,0,2.45,.58,2.45,2.8,0,1.68-.32,3.7-.86,5.2-.45,1.23-1.09,1.74-1.86,1.74-.67,0-1.76-.56-2.53-1.23,.19-.29,.34-.56,.48-.9,.72,.62,1.5,.96,1.91,.96s.74-.38,.98-1.12c.5-1.47,.78-3.33,.78-4.64,0-1.52-.3-1.82-1.49-1.82-.27,0-.69,.02-1.2,.06-.98,2.8-2.22,5.63-3.7,8.4l-.98-.48c1.52-2.69,2.67-5.27,3.54-7.81-.9,.08-1.97,.22-3.17,.38l-.13-1.02Zm10.1-1.04c1.62,1.73,2.62,3.49,3.28,5.28l-1.07,.62c-.54-1.91-1.75-3.89-3.15-5.3l.94-.61Zm.32-2.56c.91,.72,1.52,1.33,2.21,2.29l-.72,.62c-.62-.91-1.26-1.63-2.19-2.37l.7-.54Zm1.67-1.12c.9,.74,1.38,1.18,2.08,2.14l-.69,.61c-.64-.9-1.14-1.44-2.07-2.18l.67-.58Z"/>
    <path class="cls-1" d="M487.05,343.67c-.34,1.62-.54,3.55-.66,4.93,1.27-1.15,2.93-2.11,5.19-2.11,2.5,0,4.08,1.25,4.08,3.15,0,2.69-3.2,4.13-7.07,4.13-.64,0-1.22,0-1.92-.06-.06-.34-.16-.67-.29-1.06,.46,.05,.87,.08,1.58,.08,3.47-.02,6.43-.88,6.43-3.31,0-.8-.79-1.94-2.99-1.94-1.55,0-2.75,.56-4.05,1.58-.38,.32-.64,.54-.85,.86l-.16,.11-.98-.13-.08-.13c.1-2.5,.27-4.03,.62-6.23l1.14,.11Zm.88-2.8c1.57,.38,3.04,.9,4.4,1.54l-.53,.99c-1.42-.72-2.75-1.2-4.3-1.6l.43-.93Z"/>
    <path class="cls-1" d="M502.14,346.69c-.37,1.57-.91,2.95-1.92,4.56-.16-.29-.35-.54-.59-.77,1.07-1.62,1.97-3.91,2.3-6.21h-.32l-1.73,.06v-.96l1.73,.06h.45v-2.29c0-.46-.05-.88-.13-1.26,1.42,.1,1.57,.21,1.57,.37,0,.18-.14,.27-.53,.35v2.83h.42l1.47-.06v.96l-1.47-.06h-.42v2.53l.51-.37c.53,.56,.93,1.09,1.3,1.73l-.72,.56c-.3-.59-.67-1.17-1.09-1.68v2.42l.06,5.19h-1.04l.14-7.96Zm3.15,5.31c1.09-.38,2.05-.83,3.07-1.42-.03,.32-.03,.72-.02,.98-.94,.58-1.92,1.07-2.98,1.54-.02,.4-.1,.53-.27,.53s-.38-.26-.85-1.34c.42-.08,.86-.21,1.04-.27Zm4.82-9.56c.3-.51,.59-1.07,.82-1.57,.16-.35,.27-.69,.32-.91,1.09,.37,1.33,.53,1.33,.69s-.13,.21-.51,.22c-.26,.5-.59,1.04-.93,1.57h.77l2.4-.06v.91l-2.4-.06h-1.82v1.31h1.15l2.24-.06v.93l-2.24-.06h-1.15v1.46h2.02l2.4-.06v.94l-2.4-.06h-2.02v.66c.32,.7,.74,1.34,1.22,1.95,.42-.37,.78-.77,1.09-1.2,.18-.24,.29-.4,.42-.69,.98,.56,1.12,.7,1.12,.86s-.19,.19-.58,.18c-.51,.58-.94,1.01-1.49,1.47,.77,.79,1.7,1.42,2.79,1.99-.32,.22-.54,.5-.74,.85-1.94-1.22-3.04-2.42-3.87-4.03l.1,3.47c0,1.07-.42,1.38-1.86,1.38h-.45c-.06-.37-.22-.79-.4-1.09,.61,.06,.95,.08,1.31,.08,.3,0,.38-.06,.38-.51v-5.36h-1.81l-2.4,.06v-.94l2.4,.06h1.81v-1.46h-1.14l-2.24,.06v-.93l2.24,.06h1.14v-1.31h-1.5l-2.4,.06v-.91l2.4,.06h2.5Zm-3.7,5.89c.53,.34,1.09,.83,1.55,1.38l-.72,.69c-.46-.58-.98-1.07-1.52-1.44l.69-.62Zm1.25-8.16c.38,.37,.82,.93,1.14,1.52l-.88,.53c-.34-.64-.69-1.15-1.07-1.57l.82-.48Z"/>
    <path class="cls-1" d="M528.32,343.78c1.04,.82,1.17,.98,1.17,1.15s-.08,.27-.54,.46c-1.04,2.32-2.16,3.97-3.42,5.47,.61,.38,1.47,1.01,2.07,1.46l-.75,.91c-1.67-1.44-3.78-2.71-5.57-3.65l.66-.77c.94,.46,1.83,.96,2.72,1.5,1.22-1.46,2.3-3.09,3.19-5.22l-5.49,.13c-.9,1.5-2.02,2.85-3.62,4.31-.24-.3-.53-.59-.8-.75,1.87-1.55,3.54-3.89,4.46-6.07,.16-.38,.37-.8,.48-1.23,1.25,.38,1.47,.53,1.47,.74,0,.18-.14,.24-.61,.27-.18,.42-.58,1.28-.9,1.78l4.9-.13,.4-.37h.19Z"/>
    <path class="cls-1" d="M533.91,343.25c.5,.03,.93,.06,1.42,.06,.54,0,1.19-.03,1.87-.08,.18-.71,.32-1.41,.43-2.11-.35-.19-.45-.3-.45-.43,0-.1,.1-.16,.22-.16,.21,0,.43,.03,1.54,.24-.16,.78-.34,1.58-.54,2.39,.82-.08,1.63-.18,2.37-.29l.08,1.02c-.83,.11-1.79,.22-2.72,.29-.78,2.77-1.83,5.54-3.12,8.28l-1.07-.5c1.27-2.56,2.31-5.12,3.01-7.7-.64,.05-1.22,.06-1.66,.06s-.87,0-1.3-.03l-.08-1.04Zm9.94,2.74c-.4,.48-.58,.93-.58,1.49,0,.62,.14,1.12,.53,2.79,1.2,.45,2.46,1.18,3.49,1.92l-.62,1.01c-.98-.77-1.84-1.34-2.74-1.73-.02,1.63-1.15,2.43-2.77,2.43-1.73,0-2.9-.74-2.9-1.86,0-1.22,1.01-2.19,2.91-2.19,.53,0,.98,.06,1.42,.14-.26-1.22-.4-1.95-.4-2.58,0-.72,.19-1.28,.66-1.86l.99,.43Zm-2.85,4.83c-1.23,0-1.73,.56-1.73,1.12s.66,.96,1.79,.96,1.75-.51,1.75-1.34c0-.11,0-.35-.03-.46-.61-.16-1.04-.27-1.78-.27Zm1.97-7.92c1.39,.34,2.8,.88,4.19,1.62l-.53,.96c-1.34-.74-2.75-1.3-4.1-1.66l.43-.91Z"/>
    <path class="cls-1" d="M15.56,402.72l.38-.3h.19c.7,.69,1.02,1.1,1.02,1.28s-.18,.27-.45,.38c-2.14,5.12-4.59,7.78-9.09,9.56-.14-.26-.37-.59-.69-.91,4.53-1.79,6.88-4.51,8.55-9.01l-4.8,.02c-1.04,1.58-2.21,2.82-3.6,4.03-.27-.3-.56-.51-.88-.72,2.07-1.74,3.52-3.5,4.37-5.62-.29-.26-.38-.38-.38-.5,0-.1,.1-.16,.16-.16,.22,0,.51,.1,1.65,.62-.22,.48-.46,.93-.71,1.34l4.27-.02Z"/>
    <path class="cls-1" d="M24.36,406.25l.06,2.43h-1.28l.06-2.43v-4.18c-.46-.32-.53-.38-.53-.53,0-.06,.08-.11,.27-.11,.27,0,.77,.11,1.52,.3l-.11,.77v3.75Zm6.15,1.17c0,3.63-1.98,5.86-6.42,6.28-.13-.35-.29-.71-.5-1.04,4.03-.37,5.73-2.08,5.73-5.23v-5.57c-.46-.32-.53-.38-.53-.53,0-.06,.08-.11,.27-.11,.27,0,.8,.11,1.55,.3l-.11,.77v5.14Z"/>
    <path class="cls-1" d="M42.48,410.65h3.25l2.43-.06v1.17l-2.43-.06h-7.47l-2.43,.06v-1.17l2.43,.06h3.04v-6.11h-2.02l-2.43,.05v-1.17l2.43,.08h5.51l2.43-.08v1.17l-2.43-.05h-2.3v6.11Z"/>
    <path class="cls-1" d="M61.34,402.6c-1.02,1.09-2.11,2.05-3.27,2.93,.34,.08,.71,.19,1.04,.29l-.06,1.04v4.39l.06,2.45h-1.33l.06-2.43v-5.12l-.26-.26c-1.68,1.2-3.5,2.22-5.54,3.12-.19-.3-.45-.61-.72-.86,3.62-1.52,6.93-3.78,9.28-6.64-.14-.22-.26-.43-.26-.51,0-.11,.1-.18,.21-.18,.14,0,.4,.16,1.54,.99l-.77,.8Z"/>
    <path class="cls-1" d="M73.67,407.19c0,3.44-1.55,5.25-4.74,6.45-.18-.35-.45-.67-.7-.94,2.82-1.01,4.19-2.64,4.19-5.49v-.58h-3.6l-2.43,.05v-1.14l2.43,.06h7.3l2.43-.06v1.14l-2.43-.05h-2.45v.56Zm-3.09-5.14h3.92l2.43-.06v1.15l-2.43-.05h-3.92l-2.43,.05v-1.15l2.43,.06Z"/>
    <path class="cls-1" d="M90.56,404.95c-.85,.91-1.73,1.7-2.67,2.39,.29,.08,.5,.13,.75,.21l-.06,.82v3.55l.05,2.03h-1.18l.05-2.02v-4.07l-.14-.13c-1.34,.93-2.83,1.71-4.58,2.46-.18-.29-.35-.51-.66-.78,3.04-1.33,5.65-2.93,7.65-5.35-.13-.21-.21-.37-.21-.45,0-.13,.06-.19,.19-.19s.48,.18,1.46,.9l-.64,.62Z"/>
    <path class="cls-1" d="M107.22,403.7c-.18,5.3-3.68,9.06-8.53,9.86-.14-.35-.34-.69-.59-1.01,4.39-.7,7.78-4.03,7.84-8.8h-6.53l-2.42,.06v-1.17l2.42,.06h5.43l2.32-.06,.1,.08-.03,.98Zm-.37-3.19c.91,.72,1.52,1.33,2.21,2.29l-.72,.62c-.62-.91-1.26-1.63-2.19-2.37l.7-.54Zm1.67-1.12c.9,.74,1.38,1.18,2.08,2.14l-.69,.61c-.64-.9-1.14-1.44-2.07-2.18l.67-.58Z"/>
    <path class="cls-1" d="M113.4,413.63c-.21-1.68-.29-3.06-.29-4.85s.26-4.03,.83-6.96c-.34-.18-.48-.32-.48-.45,0-.11,.11-.16,.32-.16,.22,0,.53,.05,1.52,.29-.78,2.59-1.07,5.14-1.07,7.36,0,1.73,.08,3.01,.37,4.67l-1.2,.1Zm5.09-4.58c-.3,.5-.45,.93-.45,1.55,0,.67,.83,1.18,3.43,1.18,1.12,0,2.64-.14,3.79-.35l.08,1.18c-1.04,.16-2.54,.27-3.81,.27-3.22,0-4.61-.77-4.61-2.22,0-.64,.16-1.26,.64-2.13l.93,.51Zm-.82-5.54c1.46-.22,3.04-.34,4.45-.34,1.01,0,1.78,.03,2.56,.11l-.02,1.06c-.85-.06-1.59-.1-2.72-.1-1.36,0-2.85,.11-4.21,.34l-.06-1.07Z"/>
    <path class="cls-1" d="M131.01,404.18h-.4l-1.92,.06v-.99l1.92,.06h.4v-2.19c0-.46-.03-.85-.11-1.23,1.41,.08,1.63,.19,1.63,.35,0,.13-.11,.24-.51,.34v2.72l1.58-.05v.99l-1.58-.05v2.82c.59-.14,1.23-.34,1.9-.53,0,.29,0,.58,.02,.85-.61,.19-1.26,.4-1.92,.59v1.92l.06,2.87c0,1.28-.16,1.58-2.02,1.58h-.43c-.08-.37-.27-.82-.45-1.12,.61,.08,.99,.1,1.34,.1,.4,0,.48-.14,.48-.51v-4.53c-.48,.14-.96,.27-1.42,.4-.06,.46-.11,.59-.32,.59-.16,0-.29-.27-.67-1.44,.45-.06,.72-.11,1.09-.19,.43-.1,.87-.19,1.33-.3v-3.1Zm3.23,5.76c.02,.43-.1,.53-.27,.53-.14,0-.35-.32-.82-1.38,.24-.03,.82-.21,.99-.27,.56-.22,1.41-.59,2.14-.98,.03-1.52,.02-3.58,0-6.23,0-.4-.02-.99-.13-1.54,1.35,.13,1.65,.22,1.65,.43,0,.16-.13,.22-.51,.32-.02,4.67,0,7.57-.14,9-.27,2.47-1.41,3.87-3.95,4.66-.14-.32-.37-.61-.66-.85,2.4-.66,3.44-1.79,3.65-3.94,.03-.24,.05-.53,.06-.85-.62,.35-1.34,.74-2.02,1.09Zm.46-7.07c.48,.75,.93,1.58,1.3,2.46l-.98,.51c-.26-.77-.69-1.82-1.17-2.56l.85-.42Zm5.57,4.54c1.01,.71,1.97,1.5,2.79,2.31l-.82,.82c-.67-.75-1.58-1.63-2.58-2.39v4.71c0,.38,.06,.45,1.06,.45,1.44,0,1.52-.08,1.57-1.81,.42,.24,.77,.4,1.02,.46-.06,2.02-.46,2.31-2.54,2.31-1.91,0-2.08-.21-2.08-1.31v-11.62c0-.46-.03-.85-.11-1.23,1.41,.06,1.57,.18,1.57,.34s-.14,.24-.48,.35v7.19l.61-.56Zm.56-1.5c-.22-.19-.54-.43-.78-.59,.43-.46,1.02-1.23,1.34-1.73,.18-.26,.27-.43,.38-.72,1.09,.7,1.23,.85,1.23,1.01s-.21,.21-.58,.16c-.46,.59-1.04,1.31-1.6,1.87Z"/>
    <path class="cls-1" d="M151.09,409.08v1.49h1.17l2.4-.06v.96l-2.4-.06h-1.17v.66l.06,2.56h-1.07l.06-2.56v-.66h-1.35l-2.4,.06v-.96l2.4,.06h1.35v-1.49h-1.07l-1.84,.06-.08-.11,.06-1.81v-1.7l-.06-1.86,.06-.06,1.86,.06h3.04l1.86-.06,.06,.06-.06,1.86v1.7l.06,1.82-.06,.1-1.86-.06h-1.03Zm-3.57-8.87c.51,.72,.98,1.57,1.3,2.32l-.99,.42c-.32-.86-.75-1.73-1.22-2.4l.91-.34Zm2.62,5.75v-1.5h-2v1.5h2Zm-2,2.34h2v-1.55h-2v1.55Zm1.92-8.28c.51,.78,.86,1.62,1.14,2.43l-.98,.32c-.27-.9-.59-1.66-1.06-2.5l.9-.26Zm2.98,4.43h-1.95v1.5h1.95v-1.5Zm0,3.84v-1.55h-1.95v1.55h1.95Zm1.34-7.63c0,.18-.13,.21-.58,.26-.29,.69-.58,1.33-1.04,2.06-.21-.18-.58-.32-.82-.38,.34-.61,.62-1.26,.78-1.79,.11-.35,.14-.51,.19-.8,1.22,.35,1.46,.51,1.46,.66Zm2.9,4.34c.06,1.6,.16,3.23,.54,4.8,.5-.69,.94-1.5,1.38-2.5,.16-.35,.27-.78,.3-1.07,1.22,.48,1.41,.61,1.41,.77,0,.19-.14,.22-.54,.22-.78,1.58-1.49,2.75-2.24,3.65,.16,.45,.34,.85,.54,1.23,.59,1.12,.98,1.36,1.23,1.36s.42-.59,.43-1.94c.32,.19,.71,.38,.93,.46-.16,2.29-.7,2.66-1.34,2.66-.37,0-1.17-.42-1.9-1.73-.22-.4-.43-.82-.61-1.28-.98,.93-2.13,1.58-3.7,2.27-.24-.32-.48-.56-.78-.83,1.81-.61,3.1-1.31,4.16-2.4-.54-1.81-.7-3.73-.77-5.62l-1.82,.16-.06-1.01,1.86-.05c-.02-.67-.03-1.38-.03-2.14,0-1.23-.05-1.7-.13-2.08,1.42,.11,1.63,.22,1.63,.4,0,.14-.18,.24-.53,.38v1.25c0,.77,0,1.49,.02,2.14l1.65-.11,2.24-.21,.05,1.01-2.24,.08-1.66,.11Zm1.86-4.1c.59,.32,1.14,.72,1.67,1.22l-.71,.7c-.48-.48-1.07-.98-1.63-1.31l.67-.61Z"/>
    <path class="cls-1" d="M175.91,410.89c-1.92,1.76-4.45,2.85-6.42,2.85-2.27,0-3.49-.85-3.49-3.39,0-2.19,.06-5.52,.14-8.9-.38-.14-.48-.26-.48-.38,0-.11,.13-.19,.37-.19,.19,0,.64,.02,1.34,.08-.18,3.84-.26,6.47-.26,9.27,0,1.76,.48,2.34,2.29,2.34,2,0,4.24-1.09,5.94-2.77,.19,.43,.38,.82,.56,1.1Z"/>
    <path class="cls-1" d="M189.9,403.08c-1.84,.16-3.01,.46-4.11,1.25-1.47,1.02-2.35,2.54-2.35,4.39,0,3.01,2.82,3.63,5.3,3.63,.19,0,.4,0,.59-.02l-.03,1.25h-.26c-3.2,0-6.67-.91-6.67-4.79,0-1.95,.91-3.58,2.24-4.69,.34-.22,.67-.43,1.07-.64l-1.3,.26c-1.97,.29-3.79,.53-6.21,.86l-.19-1.1c4.39-.48,7.91-.98,11.75-1.55l.11,.06,.13,1.01-.06,.08Z"/>
    <path class="cls-1" d="M204.13,402.61c-1.25,.43-2.45,.77-3.62,1.02,.34,.69,.72,1.34,1.14,1.97,1.2-.32,2.45-.77,3.68-1.36l.43,.85c-1.2,.54-2.39,.98-3.54,1.3,.54,.74,1.36,1.65,2.15,2.23l.06,.14-.16,.62-.13,.08c-1.1,0-2.3,.02-3.41,.05l-.03-.78c.64-.06,1.3-.14,1.94-.21-.48-.54-1.04-1.22-1.49-1.86-1.62,.38-3.14,.54-4.42,.54-.45,0-1.33-.08-2.07-.27l.35-.82c.58,.08,1.33,.18,1.89,.18,1.02,0,2.3-.13,3.7-.43-.4-.66-.77-1.34-1.12-2.03-1.47,.27-2.93,.42-4.42,.45l-.08-.94c1.41,0,2.74-.13,4.08-.37-.27-.58-.48-1.15-.69-1.71-.45-.05-.56-.14-.56-.27,0-.11,.18-.19,.35-.22,.22-.05,.46-.08,1.22-.16,.19,.83,.38,1.36,.72,2.16,1.17-.26,2.37-.61,3.67-1.06l.35,.91Zm-7.84,7.46c.19,2.4,2.77,2.48,4.75,2.48,.71,0,1.34-.03,2.27-.1l-.02,1.1c-.82,.08-1.52,.1-2.27,.1-2.56,0-5.57-.43-5.67-3.52l.93-.06Z"/>
    <path class="cls-1" d="M210.45,403.21c1.7-.14,3.42-.26,5.17-.3v-1.68c-.42-.11-.56-.24-.56-.38,0-.13,.14-.18,.34-.18s.48,0,1.36,.03c-.03,.79-.05,1.5-.06,2.16,.86-.02,1.71-.03,2.56-.03,.61,0,1.38,.02,1.98,.03l.03,.96c-.61-.02-1.39-.03-2-.03-.8,0-1.68,.02-2.59,.03-.02,.45-.02,.85-.02,1.2s0,.8,.02,1.3c1.14-.1,2.37-.27,3.75-.5l.22,.96c-1.33,.24-2.66,.42-3.94,.53,.03,1.04,.08,2.18,.11,3.14,1.49,.59,3.07,1.38,4.59,2.19l-.62,1.01c-1.27-.78-2.66-1.47-3.94-2.08-.16,1.63-1.31,2.24-2.77,2.24-2.19,0-3.31-.98-3.31-1.98,0-.91,1.46-2.05,3.31-2.05,.34,0,1.1,.14,1.66,.32-.03-.86-.06-1.81-.1-2.72-.64,.05-1.28,.06-1.89,.06-1.38,0-2.21-.35-2.8-.7l.61-.75c.56,.32,1.14,.48,2.19,.48,.59,0,1.22-.02,1.87-.06-.02-.48-.02-.93-.02-1.31v-1.23c-1.7,.05-3.47,.14-5.11,.29l-.06-.93Zm3.52,7.52c-1.2,0-2.15,.59-2.15,1.1,0,.46,.82,.98,2.26,.98,1.12,0,1.66-.67,1.66-1.65-.64-.26-1.33-.43-1.78-.43Z"/>
    <path class="cls-1" d="M237.01,410.89c-1.92,1.76-4.45,2.85-6.42,2.85-2.27,0-3.49-.85-3.49-3.39,0-2.19,.06-5.52,.14-8.9-.38-.14-.48-.26-.48-.38,0-.11,.13-.19,.37-.19,.19,0,.64,.02,1.34,.08-.18,3.84-.26,6.47-.26,9.27,0,1.76,.48,2.34,2.29,2.34,2,0,4.24-1.09,5.94-2.77,.19,.43,.38,.82,.56,1.1Z"/>
    <path class="cls-1" d="M240.69,403.75c1.14-.02,2.22-.08,3.31-.19,.16-.8,.32-1.6,.45-2.4-.4-.14-.51-.27-.51-.38s.13-.18,.26-.18c.27,0,.86,.05,1.54,.11-.18,.91-.35,1.81-.56,2.72,.75-.1,1.49-.21,2.26-.34l.14,1.06c-.9,.13-1.76,.26-2.64,.35-.7,3.06-1.58,6.13-2.72,9.19l-1.09-.37c1.12-2.91,1.99-5.79,2.64-8.71-1.01,.1-2.02,.16-3.06,.19l-.02-1.06Zm7.08,6.1c-.05,.37-.1,.66-.1,.99,0,1.09,.54,1.52,2.64,1.52,1.06,0,2.02-.06,3.11-.18l.08,1.14c-1.12,.08-2.07,.14-3.19,.14-2.79,0-3.68-.83-3.68-2.38,0-.46,.05-.88,.14-1.39l.99,.16Zm.75-5.6c1.6,0,3.22,.06,4.82,.34l-.13,1.09c-1.6-.27-3.14-.37-4.74-.4l.05-1.02Z"/>
    <path class="cls-1" d="M259.74,414.54c-1.23,0-2.21-.99-2.21-2.21s.98-2.18,2.21-2.18,2.21,.96,2.21,2.18-.98,2.21-2.21,2.21Zm0-.72c.8,0,1.47-.69,1.47-1.49s-.67-1.46-1.47-1.46-1.47,.66-1.47,1.46,.67,1.49,1.47,1.49Z"/>
    <path class="cls-1" d="M16.51,460.61l.06,.06-.06,2.02v4.59l.06,2-.08,.08-2-.06h-.53v3.41c0,.46,.08,.59,1.97,.59s1.98-.11,2.02-1.86c.45,.11,.75,.24,1.06,.34-.05,2.18-.45,2.51-3.04,2.51-2.8,0-3.04-.3-3.04-1.34v-3.65h-2.19c-.13,3.52-2.11,4.71-5.68,5.19-.11-.27-.35-.72-.62-1.01,3.12-.3,5.09-.99,5.19-4.18h-.32l-2.02,.06-.06-.08,.06-2v-4.59l-.06-2.02,.06-.06,2.02,.06h5.2l2.02-.06Zm-8.21,.96v1.7h7.17v-1.7h-7.17Zm0,4.23h7.17v-1.68h-7.17v1.68Zm0,2.61h7.17v-1.76h-7.17v1.76Z"/>
    <path class="cls-1" d="M22.43,463.75c1.14-.02,2.22-.08,3.31-.19,.16-.8,.32-1.6,.45-2.4-.4-.14-.51-.27-.51-.38s.13-.18,.26-.18c.27,0,.86,.05,1.54,.11-.18,.91-.35,1.81-.56,2.72,.75-.1,1.49-.21,2.26-.34l.14,1.06c-.9,.13-1.76,.26-2.64,.35-.7,3.06-1.58,6.13-2.72,9.19l-1.09-.37c1.12-2.91,1.98-5.79,2.64-8.71-1.01,.1-2.02,.16-3.06,.19l-.02-1.06Zm7.07,6.1c-.05,.37-.1,.66-.1,.99,0,1.09,.54,1.52,2.64,1.52,1.06,0,2.02-.06,3.11-.18l.08,1.14c-1.12,.08-2.06,.14-3.19,.14-2.79,0-3.68-.83-3.68-2.38,0-.46,.05-.88,.14-1.39l.99,.16Zm.75-5.6c1.6,0,3.22,.06,4.82,.34l-.13,1.09c-1.6-.27-3.14-.37-4.74-.4l.05-1.02Z"/>
    <path class="cls-1" d="M45.49,462c0-.54-.05-1.07-.13-1.46,1.6,.06,1.79,.19,1.79,.38s-.18,.29-.53,.42c0,1.22-.02,2.02-.05,2.61,.3,1.68,.85,3.33,1.76,4.77,.8,1.28,1.9,2.34,3.15,3.17,.74,.5,1.52,.88,2.32,1.26-.29,.21-.58,.66-.85,1.01-3.26-1.36-5.83-4.31-6.8-7.92-.86,3.73-3.07,6.32-6.29,8-.26-.34-.51-.62-.9-.93,3.46-1.57,5.7-4.26,6.34-8.24,.11-.7,.18-1.46,.18-2.27v-.8Z"/>
    <path class="cls-1" d="M56.78,462.84c.66,.03,1.28,.05,1.89,.05,.66,0,1.28-.02,1.92-.05,.3-.54,.58-1.14,.85-1.78-.26-.11-.42-.24-.42-.38,0-.08,.1-.13,.29-.13,.14,0,.99,.13,1.46,.22-.35,.77-.67,1.42-.98,1.99,1.31-.1,2.69-.26,4.29-.46l.13,.99c-1.79,.22-3.41,.38-4.99,.48-.64,1.04-1.22,1.76-1.92,2.37l.05,.05c.69-.37,1.39-.5,2-.5,1.2,0,1.87,.74,2,1.99,1.49-.58,2.8-1.01,4.16-1.5-.03-.14-.05-.26-.05-.35,0-.19,.08-.26,.18-.26s.14,.05,.22,.13c.34,.4,.62,.88,.8,1.33-1.81,.53-3.67,1.12-5.23,1.68,.05,.8,.08,1.76,.1,2.64l-1.1,.02c0-.77-.02-1.6-.05-2.26-.22,.08-.45,.18-.66,.26-1.2,.48-2.32,1.22-2.32,2.1,0,1.02,.75,1.31,2.46,1.31,2.35,0,4.03-.18,5.12-.3l.03,1.12c-1.22,.11-2.69,.21-5.04,.21s-3.62-.69-3.62-2.29c0-1.41,1.46-2.34,2.59-2.83,.46-.21,.91-.4,1.34-.58-.13-1.1-.32-1.55-1.39-1.55-1.14,0-2.08,.61-3.51,1.73l-.16-.05-.54-.75,.02-.11c1.34-1.07,2.42-2.18,3.3-3.54-.51,.02-1.01,.03-1.52,.03-.56,0-1.12-.02-1.68-.03l-.02-.98Z"/>
    <path class="cls-1" d="M76.76,461.48l1.92-.06v.96l-1.92-.06h-.83c.26,.62,.45,1.26,.62,1.95l-1.02,.32c-.1-.75-.3-1.55-.59-2.27h-1.1c-.43,.54-.91,1.04-1.5,1.54-.18-.24-.43-.51-.67-.66,.95-.75,1.67-1.55,2.21-2.58,.1-.19,.18-.43,.22-.64,1.15,.27,1.36,.4,1.36,.56,0,.11-.08,.22-.59,.24-.13,.24-.27,.48-.42,.71h2.32Zm2.88,7.73c1.41,2.61,3.46,3.65,6.55,4.26-.27,.32-.5,.61-.67,.99-2.96-.67-5.07-2-6.5-4.53-.8,2.53-3.06,4.03-6.24,4.58-.19-.34-.38-.59-.77-.9,3.47-.46,5.62-1.94,6.24-4.4h-3.87l-2.4,.06v-1.01l2.4,.06h4.03c.11-.75,.11-1.52,.11-2.29-1.57,.18-3.17,.3-4.95,.4-.08-.3-.24-.64-.5-.94,3.81-.11,6.95-.53,9.16-.94,.34-.06,.64-.16,.98-.3,.87,.62,1.07,.86,1.07,1.01s-.05,.22-.24,.22c-.14,0-.37-.03-.69-.13-1.31,.22-2.56,.42-3.79,.56-.02,.82-.05,1.62-.16,2.42h4.4l2.4-.06v1.01l-2.4-.06h-4.16Zm3.36-6.9c.21,.48,.34,.88,.51,1.46l-1.01,.32c-.11-.59-.26-1.1-.51-1.78h-1.78c-.3,.53-.64,1.01-1.03,1.49-.26-.21-.56-.37-.86-.48,.72-.78,1.36-1.94,1.73-2.77,.08-.19,.13-.4,.16-.61,1.17,.32,1.33,.45,1.33,.58,0,.16-.03,.22-.54,.26-.11,.24-.22,.48-.34,.71h3.84l1.92-.06v.96l-1.92-.06h-1.5Z"/>
    <path class="cls-1" d="M96.93,465.32v.94l-1.92-.06h-3.67v2.58c0,2.46-.29,3.81-1.17,5.33-.26-.29-.5-.48-.8-.66,.77-1.38,1.01-2.43,1.01-4.58v-1.63l-.06-1.86,.06-.06,1.47,.05c-.11-.67-.29-1.33-.48-1.94l.9-.19c.19,.66,.37,1.41,.48,2.14h1.36c.16-.53,.27-1.09,.34-1.63,.03-.18,.05-.35,.05-.54,1.22,.3,1.36,.42,1.36,.54,0,.11-.08,.19-.51,.22-.11,.48-.21,.95-.35,1.41l1.94-.06Zm-2.18-3.2l1.92-.06v.93l-1.92-.06h-2.82l-1.92,.06v-.93l1.92,.06h.95v-.83c0-.46-.03-.85-.11-1.23,1.38,.11,1.57,.19,1.57,.35,0,.14-.08,.21-.48,.34v1.38h.9Zm2.24,9.6c0,.1-.08,.16-.29,.16-.1,0-.21-.02-.34-.03-1.33,.93-2.71,1.62-4.64,2.06-.14-.3-.32-.56-.56-.8,1.95-.4,3.47-1.15,4.27-1.75,.22-.16,.42-.34,.58-.53,.82,.56,.98,.75,.98,.88Zm-.59-2.24c0,.14-.18,.21-.62,.16-.98,.7-2.05,1.2-3.52,1.55-.14-.3-.32-.56-.58-.8,1.42-.3,2.42-.72,3.17-1.22,.21-.14,.4-.3,.58-.51,.78,.51,.98,.67,.98,.82Zm-.38-2.08c0,.14-.16,.19-.59,.14-.83,.51-1.86,.91-2.99,1.18-.14-.3-.34-.58-.58-.82,1.15-.24,1.97-.5,2.59-.87,.21-.13,.4-.26,.59-.46,.85,.56,.98,.69,.98,.82Zm.4,7.08c-.19-.32-.4-.58-.67-.78,1.18-.46,1.91-.88,2.64-1.52,.22-.21,.34-.34,.46-.5,.88,.53,1.04,.67,1.04,.83s-.16,.21-.64,.18c-.8,.7-1.67,1.26-2.83,1.79Zm5.22-11.24l1.86-.06,.06,.06-.06,2.02v4.1l.06,2-.08,.08-1.84-.06h-2.07l-1.86,.06-.06-.08,.06-2v-4.1l-.06-2.02,.06-.06,1.86,.06h.03c.14-.58,.26-1.15,.34-1.75h-.87l-2.4,.06v-.96l2.4,.06h2.87l2.4-.06v.96l-2.4-.06h-1.01c-.11,.59-.24,1.17-.38,1.75h1.09Zm-2.99,.83v1.54h3.91v-1.54h-3.91Zm0,3.95h3.91v-1.58h-3.91v1.58Zm0,2.5h3.91v-1.66h-3.91v1.66Zm5.06,3.84c-.82-.8-1.78-1.52-2.88-2.06l.74-.62c1.04,.54,2.02,1.2,2.88,1.94l-.74,.75Z"/>
    <path class="cls-1" d="M108.43,473.63c-.21-1.68-.29-3.06-.29-4.85s.26-4.03,.83-6.96c-.34-.18-.48-.32-.48-.45,0-.11,.11-.16,.32-.16,.22,0,.53,.05,1.52,.29-.78,2.59-1.07,5.14-1.07,7.36,0,1.73,.08,3.01,.37,4.67l-1.2,.1Zm5.09-4.58c-.3,.5-.45,.93-.45,1.55,0,.67,.83,1.18,3.43,1.18,1.12,0,2.64-.14,3.79-.35l.08,1.18c-1.04,.16-2.55,.27-3.81,.27-3.22,0-4.61-.77-4.61-2.22,0-.64,.16-1.26,.64-2.13l.93,.51Zm-.82-5.54c1.46-.22,3.04-.34,4.45-.34,1.01,0,1.78,.03,2.56,.11l-.02,1.06c-.85-.06-1.58-.1-2.72-.1-1.36,0-2.85,.11-4.21,.34l-.06-1.07Z"/>
    <path class="cls-1" d="M136.24,463.08c-1.84,.16-3.01,.46-4.11,1.25-1.47,1.02-2.35,2.54-2.35,4.39,0,3.01,2.82,3.63,5.3,3.63,.19,0,.4,0,.59-.02l-.03,1.25h-.26c-3.2,0-6.67-.91-6.67-4.79,0-1.95,.91-3.58,2.24-4.69,.34-.22,.67-.43,1.07-.64l-1.3,.26c-1.97,.29-3.79,.53-6.21,.86l-.19-1.1c4.39-.48,7.91-.98,11.75-1.55l.11,.06,.13,1.01-.06,.08Zm-1.86,2.13c.91,.72,1.52,1.33,2.21,2.29l-.72,.62c-.62-.91-1.26-1.63-2.19-2.37l.7-.54Zm1.67-1.12c.9,.74,1.38,1.18,2.08,2.15l-.69,.61c-.64-.9-1.14-1.44-2.07-2.18l.67-.58Z"/>
    <path class="cls-1" d="M151.54,462.61c-1.25,.43-2.45,.77-3.62,1.02,.34,.69,.72,1.34,1.14,1.97,1.2-.32,2.45-.77,3.68-1.36l.43,.85c-1.2,.54-2.38,.98-3.54,1.3,.54,.74,1.36,1.65,2.14,2.23l.06,.14-.16,.62-.13,.08c-1.1,0-2.3,.02-3.41,.05l-.03-.78c.64-.06,1.3-.14,1.94-.21-.48-.54-1.04-1.22-1.49-1.86-1.62,.38-3.14,.54-4.42,.54-.45,0-1.33-.08-2.07-.27l.35-.82c.58,.08,1.33,.18,1.89,.18,1.02,0,2.3-.13,3.7-.43-.4-.66-.77-1.34-1.12-2.03-1.47,.27-2.93,.42-4.42,.45l-.08-.94c1.41,0,2.74-.13,4.08-.37-.27-.58-.48-1.15-.69-1.71-.45-.05-.56-.14-.56-.27,0-.11,.18-.19,.35-.22,.22-.05,.46-.08,1.22-.16,.19,.83,.38,1.36,.72,2.16,1.17-.26,2.37-.61,3.67-1.06l.35,.91Zm-7.84,7.46c.19,2.4,2.77,2.48,4.75,2.48,.71,0,1.35-.03,2.27-.1l-.02,1.1c-.82,.08-1.52,.1-2.27,.1-2.56,0-5.57-.43-5.67-3.52l.93-.06Z"/>
    <path class="cls-1" d="M160.93,466.61c1.2-.54,2.13-.74,3.09-.74,2.43,0,4.31,1.31,4.31,3.62,0,2.51-2.1,4.31-5.68,4.31-2.21,0-3.38-1.02-3.38-2.3,0-1.14,.96-1.82,2.06-1.82,1.31,0,2.42,1.01,2.87,2.27l-.93,.54c-.5-1.26-1.17-1.86-1.9-1.86-.54,0-1.11,.4-1.11,.83,0,.85,.9,1.33,2.29,1.33,2.69,0,4.56-1.2,4.56-3.38,0-1.23-.95-2.61-3.3-2.61-2,0-3.76,.85-5.62,2.82l-.14,.02-.7-.64v-.13c2.75-2.77,4.43-4.42,6.66-6.5-1.65,.22-3.33,.37-5.46,.42l-.05-1.07c2-.03,4.4-.19,6.32-.46l.35-.29h.14c.82,.67,.94,.93,.94,1.06,0,.19-.16,.24-.69,.42-1.44,1.3-2.51,2.34-3.78,3.44l-.91,.66,.05,.08Z"/>
    <path class="cls-1" d="M173.62,466.6c.22,.67,.66,1.02,2.69,1.09,.06-1.04,.16-2.08,.26-3.12h-.43c-1.04,0-2.07,.02-3.06,.02l.02-.93c1.23-.05,2.4-.05,3.55-.05,.06-.67,.13-1.42,.19-2.29-.32-.11-.53-.27-.53-.4,0-.1,.1-.16,.29-.16,.43,0,.91,.02,1.39,.05-.11,1.07-.19,1.99-.27,2.8h3.12l-.03,1.03c-1.07-.03-2.13-.05-3.18-.06-.11,1.04-.19,2.08-.26,3.12,1.12-.03,2.19-.14,3.09-.3l.11,1.02c-.86,.14-1.92,.26-3.26,.29-.03,.54-.05,.98-.05,1.73,0,1.74,.56,2.34,2.59,2.34,2.42,0,4.11-.96,4.11-2.19,0-1.02-.69-1.94-2.59-3.07,.3-.22,.53-.51,.67-.74,2.61,1.55,3.11,2.61,3.11,3.89,0,1.68-1.73,3.14-5.09,3.14-2.99,0-3.86-.98-3.86-3.25,0-.8,.03-1.33,.05-1.84-2.38-.06-2.9-.51-3.44-1.62l.82-.48Z"/>
    <path class="cls-1" d="M201.03,467.62c0-2.56-1.95-4.56-5.11-4.56s-5.57,2.5-5.57,5.36c0,1.84,.56,2.79,1.3,2.79,.5,0,1.12-.61,1.89-2.14,.77-1.52,1.41-3.54,1.52-4.79-.21-.18-.38-.32-.38-.45,0-.1,.08-.16,.27-.16,.21,0,.83,.16,1.34,.34-.38,2.13-.9,3.97-1.79,5.67-1.06,2.05-1.92,2.75-2.85,2.75-1.31,0-2.42-1.42-2.42-3.97,0-3.6,3.01-6.37,6.74-6.37,3.97,0,6.31,2.56,6.31,5.67,0,2.9-2.08,5.17-6.04,5.7-.24-.37-.42-.67-.7-1.02,3.41-.32,5.49-2.02,5.49-4.8Z"/>
    <path class="cls-1" d="M205.98,464.39c3.51-.83,6.03-1.26,7.89-1.26,3.38,0,4.88,1.57,4.88,4.11,0,3.43-2.74,5.19-8.64,5.91-.14-.4-.29-.72-.5-1.06,5.99-.64,7.92-2.34,7.92-4.95,0-1.87-1.12-2.96-3.78-2.96-1.71,0-3.95,.42-7.51,1.34l-.27-1.14Zm10.64-3.86c.91,.72,1.52,1.33,2.21,2.29l-.72,.62c-.62-.91-1.26-1.63-2.19-2.37l.71-.54Zm1.66-1.12c.9,.74,1.38,1.18,2.08,2.14l-.69,.61c-.64-.9-1.14-1.44-2.06-2.18l.67-.58Z"/>
    <path class="cls-1" d="M230.72,474.01c-2.02-2.32-3.76-3.92-6.27-5.87-.3-.22-.42-.43-.42-.75s.14-.54,.51-.91c1.84-1.79,3.62-3.68,4.98-5.46-.16-.26-.22-.37-.22-.48,0-.1,.08-.18,.18-.18,.14,0,.32,.08,1.46,.88-1.97,2.27-3.49,3.89-5.41,5.76-.13,.13-.22,.22-.22,.34,0,.13,.1,.21,.26,.34,2.19,1.68,4.02,3.23,6.08,5.43l-.91,.91Z"/>
    <path class="cls-1" d="M239.64,461.41c-.4,1.63-.74,3.75-.74,4.98,0,.77,.03,1.42,.13,1.67,.05,.11,.1,.18,.16,.18s.14-.06,.22-.19c.32-.46,.67-1.14,1.09-2.35,.24,.3,.46,.53,.74,.77-.29,.9-.67,1.76-1.14,2.53-.32,.54-.58,.74-.9,.74-.53,0-1.39-.61-1.39-3.12,0-1.23,.21-3.06,.59-4.88-.24-.18-.4-.34-.4-.43s.08-.14,.19-.14c.18,0,.74,.1,1.44,.27Zm4.19-.18c0-.11,.11-.16,.27-.16,.45-.02,.9-.02,1.44-.02,.16,2.42,.26,4.47,.26,6.04,0,4.8-1.94,6.29-6.56,6.8-.11-.3-.29-.75-.5-1.09,4.15-.32,5.89-1.54,5.89-5.49,0-2.02-.06-3.2-.26-5.7-.37-.1-.54-.26-.54-.38Z"/>
    <path class="cls-1" d="M251.73,462.84c.66,.03,1.28,.05,1.89,.05,.66,0,1.28-.02,1.92-.05,.3-.54,.58-1.14,.85-1.78-.26-.11-.42-.24-.42-.38,0-.08,.1-.13,.29-.13,.14,0,.99,.13,1.46,.22-.35,.77-.67,1.42-.98,1.99,1.31-.1,2.69-.26,4.29-.46l.13,.99c-1.79,.22-3.41,.38-4.99,.48-.64,1.04-1.22,1.76-1.92,2.37l.05,.05c.69-.37,1.39-.5,2-.5,1.2,0,1.87,.74,2,1.99,1.49-.58,2.8-1.01,4.16-1.5-.03-.14-.05-.26-.05-.35,0-.19,.08-.26,.18-.26s.14,.05,.22,.13c.34,.4,.62,.88,.8,1.33-1.81,.53-3.67,1.12-5.23,1.68,.05,.8,.08,1.76,.1,2.64l-1.1,.02c0-.77-.02-1.6-.05-2.26-.22,.08-.45,.18-.66,.26-1.2,.48-2.32,1.22-2.32,2.1,0,1.02,.75,1.31,2.46,1.31,2.35,0,4.03-.18,5.12-.3l.03,1.12c-1.22,.11-2.69,.21-5.04,.21s-3.62-.69-3.62-2.29c0-1.41,1.46-2.34,2.59-2.83,.46-.21,.91-.4,1.34-.58-.13-1.1-.32-1.55-1.39-1.55-1.14,0-2.08,.61-3.51,1.73l-.16-.05-.54-.75,.02-.11c1.34-1.07,2.42-2.18,3.3-3.54-.51,.02-1.01,.03-1.52,.03-.56,0-1.12-.02-1.68-.03l-.02-.98Z"/>
    <path class="cls-1" d="M269.4,473.32v1.04h-1.12l.06-2.72v-8.26l-.06-2.34,.06-.06,2.34,.06h5.86l2.34-.06,.06,.06-.06,2.34v8.26l.06,2.66h-1.14v-.98h-8.4Zm8.4-11.35h-8.4v2.79h8.4v-2.79Zm0,3.68h-8.4v2.95h8.4v-2.95Zm0,3.84h-8.4v2.91h8.4v-2.91Z"/>
    <path class="cls-1" d="M285.4,464.18h-.4l-1.92,.06v-.99l1.92,.06h.4v-2.19c0-.46-.03-.85-.11-1.23,1.41,.08,1.63,.19,1.63,.35,0,.13-.11,.24-.51,.34v2.74h.22l1.92-.06v.99l-1.92-.06h-.22v2.85c.67-.18,1.36-.38,2.21-.62,0,.29,0,.58,.02,.85-.72,.22-1.47,.45-2.23,.67v1.92l.06,2.87c0,1.28-.16,1.58-2.02,1.58h-.43c-.08-.37-.27-.82-.45-1.12,.61,.08,.99,.1,1.34,.1,.4,0,.48-.14,.48-.51v-4.53c-.5,.14-.98,.27-1.42,.4-.06,.46-.11,.59-.32,.59-.16,0-.29-.27-.67-1.44,.45-.06,.72-.11,1.09-.19,.46-.1,.9-.21,1.33-.3v-3.1Zm5.04,.27c0,.48,.14,.59,3.12,.59,3.15,0,3.2-.06,3.25-1.71,.29,.18,.66,.3,.96,.38-.08,2-.38,2.24-4.16,2.24s-4.16-.18-4.16-1.1v-3.95c0-.34-.03-.64-.1-.93,1.38,.11,1.62,.22,1.62,.4,0,.14-.08,.22-.53,.34v1.76c1.71-.3,3.71-.77,4.96-1.18,.21-.06,.48-.19,.71-.35,.86,.74,.94,.91,.94,1.06,0,.1-.06,.16-.24,.16-.13,0-.34-.03-.64-.11-1.62,.45-3.81,.91-5.73,1.2v1.22Zm.18,9.16v.96h-1.06l.06-2.34v-2.93l-.05-1.86,.06-.06,1.86,.06h3.31l1.89-.06,.06,.06-.05,1.86v2.91l.06,2.27h-1.07v-.88h-5.09Zm5.09-5.33h-5.09v1.78h5.09v-1.78Zm0,2.58h-5.09v1.92h5.09v-1.92Z"/>
    <path class="cls-1" d="M312.55,470.89c-1.92,1.76-4.45,2.85-6.42,2.85-2.27,0-3.49-.85-3.49-3.39,0-2.19,.06-5.52,.14-8.9-.38-.14-.48-.26-.48-.38,0-.11,.13-.19,.37-.19,.19,0,.64,.02,1.34,.08-.18,3.84-.26,6.47-.26,9.27,0,1.76,.48,2.34,2.29,2.34,2,0,4.24-1.09,5.94-2.77,.19,.43,.38,.82,.56,1.1Z"/>
    <path class="cls-1" d="M326.53,463.08c-1.84,.16-3.01,.46-4.11,1.25-1.47,1.02-2.35,2.54-2.35,4.39,0,3.01,2.82,3.63,5.3,3.63,.19,0,.4,0,.59-.02l-.03,1.25h-.26c-3.2,0-6.67-.91-6.67-4.79,0-1.95,.91-3.58,2.24-4.69,.34-.22,.67-.43,1.07-.64l-1.3,.26c-1.97,.29-3.79,.53-6.21,.86l-.19-1.1c4.39-.48,7.91-.98,11.75-1.55l.11,.06,.13,1.01-.06,.08Z"/>
    <path class="cls-1" d="M334.24,474.67c-.85-1.36-1.84-2.56-3.07-3.6l.88-.72c1.27,.99,2.3,2.16,3.2,3.47l-1.01,.85Z"/>
    <path class="cls-1" d="M356.5,470.15c1.62,1.54,4.15,2.5,6.74,2.87-.32,.35-.5,.7-.61,1.06-2.54-.62-5.01-1.67-6.55-3.25l.11,3.89h-1.1l.11-3.81c-1.44,1.42-3.79,2.45-6.29,3.22-.14-.29-.35-.58-.66-.86,2.56-.61,4.9-1.6,6.45-3.11h-3.46l-2.4,.06v-.99l2.4,.06h3.91v-.3c0-.43-.05-.85-.13-1.2,1.44,.08,1.63,.18,1.63,.32s-.11,.22-.53,.34v.85h4.08l2.4-.06v.99l-2.4-.06h-3.71Zm-6.91-3.99c.7-.27,1.66-.69,2.71-1.26,0,.34,.02,.69,.06,1.02-.91,.54-1.78,.94-2.67,1.36,.02,.43-.1,.53-.27,.53-.14,0-.35-.32-.82-1.38,.24-.03,.82-.21,.99-.27Zm.11-5.55c.82,.35,1.65,.8,2.45,1.33l-.51,.98c-.67-.5-1.62-1.1-2.43-1.49l.5-.82Zm3.38,6.77l-.06-.06,.05-1.54v-2.72l-.05-1.54,.06-.06,1.39,.06h.53c.11-.4,.22-.82,.29-1.1,.05-.22,.08-.38,.08-.64,1.34,.34,1.5,.45,1.5,.59,0,.16-.21,.22-.59,.27-.11,.29-.22,.59-.34,.88h1.12l1.41-.06,.06,.06-.05,1.54v2.71l.05,1.54-.06,.06-1.41-.05h-2.59l-1.39,.06Zm4.47-5.07h-3.55v1.63h3.55v-1.63Zm0,4.19v-1.78h-3.55v1.78h3.55Zm2.11-3.31c-.21-.27-.42-.48-.67-.67,.69-.46,1.25-.93,1.7-1.39,.24-.24,.38-.4,.53-.67,1.06,.82,1.12,.94,1.12,1.09,0,.11-.08,.18-.24,.18-.1,0-.21-.03-.37-.08-.62,.56-1.33,1.09-2.07,1.55Zm.1,1.57c1.01,.53,1.92,1.04,2.85,1.74l-.74,.88c-.78-.69-1.65-1.28-2.75-1.91l.64-.72Z"/>
    <path class="cls-1" d="M377.61,470.89c-1.92,1.76-4.45,2.85-6.42,2.85-2.27,0-3.49-.85-3.49-3.39,0-2.19,.06-5.52,.14-8.9-.38-.14-.48-.26-.48-.38,0-.11,.13-.19,.37-.19,.19,0,.64,.02,1.34,.08-.18,3.84-.26,6.47-.26,9.27,0,1.76,.48,2.34,2.29,2.34,2,0,4.24-1.09,5.94-2.77,.19,.43,.38,.82,.56,1.1Z"/>
    <path class="cls-1" d="M382.04,464.25c1.71-.02,3.5-.18,5.3-.45-.32-.67-.64-1.42-.94-2.3-.43-.03-.58-.11-.58-.22,0-.1,.08-.18,.22-.22,.19-.06,.46-.13,1.31-.29,.34,1.09,.69,2.03,1.07,2.85,1.39-.26,2.77-.58,4.1-.98l.21,1.07c-1.25,.35-2.51,.64-3.81,.88,.77,1.34,1.68,2.37,2.86,3.35l.05,.11-.32,.94-.1,.05c-1.3-.14-2.53-.22-3.79-.26l.03-.82c.83-.02,1.79-.05,2.51-.08-.87-.91-1.63-1.86-2.34-3.12-1.89,.3-3.79,.5-5.6,.58l-.19-1.09Zm1.62,5.38c.19,2.69,2.71,2.95,5.06,2.95,.58,0,1.36-.05,2.3-.13v1.1c-.86,.08-1.38,.13-2.18,.13-3.01,0-6.05-.59-6.13-3.92l.94-.13Z"/>
    <path class="cls-1" d="M398.26,466.6c.22,.67,.66,1.02,2.69,1.09,.06-1.04,.16-2.08,.26-3.12h-.43c-1.04,0-2.07,.02-3.06,.02l.02-.93c1.23-.05,2.4-.05,3.55-.05,.06-.67,.13-1.42,.19-2.29-.32-.11-.53-.27-.53-.4,0-.1,.1-.16,.29-.16,.43,0,.91,.02,1.39,.05-.11,1.07-.19,1.99-.27,2.8h3.12l-.03,1.03c-1.07-.03-2.13-.05-3.19-.06-.11,1.04-.19,2.08-.26,3.12,1.12-.03,2.19-.14,3.09-.3l.11,1.02c-.87,.14-1.92,.26-3.27,.29-.03,.54-.05,.98-.05,1.73,0,1.74,.56,2.34,2.59,2.34,2.42,0,4.11-.96,4.11-2.19,0-1.02-.69-1.94-2.59-3.07,.3-.22,.53-.51,.67-.74,2.61,1.55,3.11,2.61,3.11,3.89,0,1.68-1.73,3.14-5.09,3.14-2.99,0-3.86-.98-3.86-3.25,0-.8,.03-1.33,.05-1.84-2.38-.06-2.9-.51-3.44-1.62l.82-.48Z"/>
    <path class="cls-1" d="M421.49,470.28c1.46,1.71,3.68,2.77,6.39,3.2-.3,.37-.53,.67-.72,1.02-2.67-.48-5.01-1.92-6.58-4.02-.91,2.5-3.28,3.55-6.44,4.05-.19-.34-.4-.61-.69-.9,3.25-.35,5.31-1.36,6.1-3.36h-3.28l-2.4,.06v-.99l2.4,.06h3.52c.05-.26,.08-.53,.1-.82,.02-.24,.02-.42-.06-.8,1.49,.13,1.65,.19,1.65,.38,0,.14-.18,.26-.53,.37-.03,.29-.06,.58-.11,.86h3.97l2.4-.06v.99l-2.4-.06h-3.31Zm-.48-5.92h2.45l2.4-.06v.99l-2.4-.06h-2.45v1.47h4.18l2.4-.06v.99l-2.4-.06h-9.28l-2.4,.06v-.99l2.4,.06h4.06v-1.47h-2.34l-2.4,.06v-.99l2.4,.06h2.34v-1.47h-3.38l-2.4,.06v-.99l2.4,.06h1.42c-.27-.53-.61-1.02-1.07-1.58l.9-.38c.5,.53,1.01,1.28,1.34,1.97h2.8c.22-.51,.42-.96,.54-1.34,.1-.27,.14-.5,.16-.69,1.25,.3,1.46,.4,1.46,.56,0,.14-.06,.21-.54,.3-.19,.38-.4,.8-.61,1.17h1.51l2.4-.06v.99l-2.4-.06h-3.49v1.47Z"/>
    <path class="cls-1" d="M442.5,470.89c-1.92,1.76-4.45,2.85-6.42,2.85-2.27,0-3.49-.85-3.49-3.39,0-2.19,.06-5.52,.14-8.9-.38-.14-.48-.26-.48-.38,0-.11,.13-.19,.37-.19,.19,0,.64,.02,1.34,.08-.18,3.84-.26,6.47-.26,9.27,0,1.76,.48,2.34,2.29,2.34,2,0,4.24-1.09,5.94-2.77,.19,.43,.38,.82,.56,1.1Z"/>
    <path class="cls-1" d="M446.93,464.25c1.71-.02,3.51-.18,5.3-.45-.32-.67-.64-1.42-.95-2.3-.43-.03-.58-.11-.58-.22,0-.1,.08-.18,.22-.22,.19-.06,.46-.13,1.31-.29,.34,1.09,.69,2.03,1.07,2.85,1.39-.26,2.77-.58,4.1-.98l.21,1.07c-1.25,.35-2.51,.64-3.81,.88,.77,1.34,1.68,2.37,2.87,3.35l.05,.11-.32,.94-.1,.05c-1.3-.14-2.53-.22-3.79-.26l.03-.82c.83-.02,1.79-.05,2.51-.08-.86-.91-1.63-1.86-2.34-3.12-1.89,.3-3.79,.5-5.6,.58l-.19-1.09Zm1.62,5.38c.19,2.69,2.71,2.95,5.06,2.95,.58,0,1.36-.05,2.31-.13v1.1c-.87,.08-1.38,.13-2.18,.13-3.01,0-6.05-.59-6.13-3.92l.95-.13Z"/>
    <path class="cls-1" d="M463.15,466.6c.22,.67,.66,1.02,2.69,1.09,.06-1.04,.16-2.08,.26-3.12h-.43c-1.04,0-2.06,.02-3.06,.02l.02-.93c1.23-.05,2.4-.05,3.55-.05,.06-.67,.13-1.42,.19-2.29-.32-.11-.53-.27-.53-.4,0-.1,.1-.16,.29-.16,.43,0,.91,.02,1.39,.05-.11,1.07-.19,1.99-.27,2.8h3.12l-.03,1.03c-1.07-.03-2.13-.05-3.18-.06-.11,1.04-.19,2.08-.26,3.12,1.12-.03,2.19-.14,3.09-.3l.11,1.02c-.86,.14-1.92,.26-3.26,.29-.03,.54-.05,.98-.05,1.73,0,1.74,.56,2.34,2.59,2.34,2.42,0,4.11-.96,4.11-2.19,0-1.02-.69-1.94-2.59-3.07,.3-.22,.53-.51,.67-.74,2.61,1.55,3.11,2.61,3.11,3.89,0,1.68-1.73,3.14-5.09,3.14-2.99,0-3.86-.98-3.86-3.25,0-.8,.03-1.33,.05-1.84-2.38-.06-2.9-.51-3.44-1.62l.82-.48Z"/>
    <path class="cls-1" d="M483.85,470.23c.4-.34,.75-.69,1.09-1.04,1.18-1.25,2.59-3.06,4.16-6.93,.21-.51,.34-1.04,.4-1.5,1.49,.54,1.54,.66,1.54,.85,0,.16-.27,.24-.62,.24-1.73,4.53-3.39,6.74-4.71,8.08-.54,.56-1.14,1.12-1.86,1.65v.29c0,.56,.11,.75,2.3,.75,2.43,0,2.56-.21,2.59-2.67,.35,.18,.82,.35,1.14,.43-.14,2.82-.43,3.23-3.68,3.23-2.99,0-3.38-.16-3.41-1.33-1.01,.61-2.22,1.18-3.78,1.7-.18-.38-.35-.62-.66-.98,1.87-.43,3.3-1.15,4.43-1.94v-5.89c0-.59-.03-.94-.11-1.28,1.49,.11,1.74,.24,1.74,.42s-.18,.3-.58,.38v5.54Zm-2.61-4.5c-.38,2-.94,3.81-1.66,5.36l-.98-.53c.75-1.55,1.34-3.33,1.62-5.2l1.02,.37Zm3.39-5.31c.9,.62,1.78,1.42,2.45,2.22l-.9,.75c-.66-.83-1.44-1.68-2.31-2.34l.75-.64Zm5.86,5.33c1.31,1.63,1.84,2.83,2.56,4.47l-1.06,.64c-.7-1.74-1.2-2.86-2.37-4.51l.86-.59Z"/>
    <path class="cls-1" d="M498.16,465.62c.83,.27,1.5,.59,2.11,.94,.26-.37,.48-.78,.67-1.2-.72-.4-1.44-.72-2.11-.94l.45-.7c.79,.22,1.43,.48,2,.8,.19-.56,.34-1.15,.43-1.78h-2.64c-.64,1.36-1.38,2.48-2.26,3.46-.18-.24-.56-.5-.82-.62,1.19-1.31,2.05-2.71,2.67-4.51,.13-.35,.19-.64,.22-.99,1.26,.37,1.49,.48,1.49,.67,0,.16-.14,.27-.61,.27-.11,.32-.24,.64-.37,.94h2.37l.34-.32h.19c.62,.53,.85,.72,.85,.88,0,.14-.1,.22-.5,.37-.59,3.25-2.13,5.92-5.89,7.49-.1-.27-.34-.61-.61-.85,1.5-.5,2.66-1.25,3.52-2.21-.69-.4-1.39-.75-2.03-.99l.51-.7Zm1.06,6.08c-.58,1.2-1.06,2.02-1.75,2.82l-.98-.53c.69-.69,1.28-1.62,1.76-2.67l.96,.38Zm2.62-.32c.42,.93,.62,1.75,.8,2.67l-1.06,.3c-.14-.91-.38-1.9-.72-2.67l.98-.3Zm5.15-7.11c.61,3.06,2.34,4.39,4,5.23-.26,.18-.53,.53-.8,.91-1.46-.86-3.2-2.62-3.73-5.04-.53,2.74-2.48,4.39-4.63,5.12-.16-.29-.38-.64-.66-.86,2.13-.58,4.1-2.19,4.5-4.91,.02-.16,.05-.3,.06-.45h-.9l-1.92,.06v-.96l1.92,.06h.98c.03-.53,.03-1.06,.03-1.67,0-.56-.03-1.15-.14-1.7,1.36,.06,1.65,.14,1.65,.35,0,.16-.13,.22-.51,.4-.02,.93-.05,1.82-.1,2.61h1.95l1.92-.06v.96l-1.92-.06h-1.71Zm-1.79,7.04c.43,.7,.83,1.54,1.17,2.48l-1.01,.43c-.29-.98-.64-1.75-1.09-2.56l.93-.35Zm3.3-.29c.86,.83,1.39,1.52,2.08,2.5l-.9,.7c-.59-.98-1.04-1.73-2-2.67l.82-.53Zm.35-10.24c.51,.37,.96,.77,1.41,1.23l-.74,.7c-.43-.5-.94-.98-1.38-1.31l.7-.62Z"/>
    <path class="cls-1" d="M515.15,462.34c-.08,1.63-.3,3.57-.54,4.85l-.93-.21c.27-1.46,.46-3.14,.53-4.77l.94,.13Zm1.68,9.97l.06,2.4h-1.12l.06-2.4v-11.22c0-.46-.05-.85-.13-1.23,1.39,.08,1.7,.22,1.7,.4s-.18,.26-.58,.35v11.7Zm.77-10.02c.5,.46,1.01,1.07,1.35,1.58l-.8,.56c-.37-.64-.8-1.18-1.23-1.65l.69-.5Zm5.71,1.52v-2.48c0-.46-.05-.88-.13-1.26,1.5,.05,1.7,.16,1.7,.34,0,.14-.18,.24-.53,.38v3.03h1.26l2.4-.06v.99l-2.4-.06h-1.26v3.34h.88l2.4-.06v1.02l-2.4-.06h-.88v3.92h1.81l2.4-.06v1.02l-2.4-.06h-5.44l-2.4,.06v-1.02l2.4,.06h2.59v-3.92h-.78l-2.4,.06v-1.02l2.4,.06h.78v-3.34h-2.8c-.4,1.23-.88,2.38-1.46,3.49-.27-.19-.59-.35-.9-.45,.98-1.79,1.67-3.86,2.05-5.78,.06-.35,.11-.66,.13-.99,1.25,.35,1.54,.48,1.54,.67,0,.16-.16,.26-.62,.29-.14,.66-.3,1.3-.48,1.91h2.54Z"/>
    <path class="cls-1" d="M532.71,466.6c.22,.67,.66,1.02,2.69,1.09,.06-1.04,.16-2.08,.26-3.12h-.43c-1.04,0-2.06,.02-3.06,.02l.02-.93c1.23-.05,2.4-.05,3.55-.05,.06-.67,.13-1.42,.19-2.29-.32-.11-.53-.27-.53-.4,0-.1,.1-.16,.29-.16,.43,0,.91,.02,1.39,.05-.11,1.07-.19,1.99-.27,2.8h3.12l-.03,1.03c-1.07-.03-2.13-.05-3.19-.06-.11,1.04-.19,2.08-.26,3.12,1.12-.03,2.19-.14,3.09-.3l.11,1.02c-.86,.14-1.92,.26-3.27,.29-.03,.54-.05,.98-.05,1.73,0,1.74,.56,2.34,2.59,2.34,2.42,0,4.11-.96,4.11-2.19,0-1.02-.69-1.94-2.59-3.07,.3-.22,.53-.51,.67-.74,2.61,1.55,3.11,2.61,3.11,3.89,0,1.68-1.73,3.14-5.09,3.14-2.99,0-3.86-.98-3.86-3.25,0-.8,.03-1.33,.05-1.84-2.38-.06-2.9-.51-3.44-1.62l.82-.48Z"/>
    <path class="cls-1" d="M551.41,474.67c-.85-1.36-1.84-2.56-3.07-3.6l.88-.72c1.27,.99,2.3,2.16,3.2,3.47l-1.01,.85Z"/>
    <path class="cls-1" d="M8.58,521.3c.83,1.41,1.67,2.98,2.47,4.66,1.57-.86,2.8-1.47,4.16-2.19-.06-.26-.08-.35-.08-.43,0-.18,.1-.26,.21-.26,.1,0,.21,.06,.32,.21,.24,.3,.53,.7,.83,1.23-1.83,.8-3.6,1.57-5.62,2.74-1.94,1.12-2.93,2.06-2.93,3.31s.9,1.75,3.94,1.75c1.49,0,3.36-.16,4.91-.34l.1,1.15c-1.62,.18-3.41,.27-5.23,.27-3.41,0-4.79-.98-4.79-2.87,0-1.38,.83-2.66,3.22-4.03-.87-1.87-1.63-3.31-2.48-4.74l.98-.46Z"/>
    <path class="cls-1" d="M23.7,528.57c-.4,.54-.66,1.18-.66,1.65,0,1.09,.82,1.71,4.42,1.71,1.9,0,3.26-.1,4.85-.35l.05,1.18c-1.57,.18-3.03,.29-4.83,.29-4.05,0-5.59-.9-5.59-2.8,0-.71,.34-1.58,.8-2.24l.96,.56Zm-.32-6.13c.51-.02,1.02-.03,1.54-.03,1.68,0,4.13,.14,6.13,.45l-.11,1.09c-1.95-.29-4.31-.45-6.07-.46-.53,0-1.04,.02-1.57,.05l.08-1.09Z"/>
    <path class="cls-1" d="M39.48,521.3c.83,1.41,1.67,2.98,2.47,4.66,1.57-.86,2.8-1.47,4.16-2.19-.06-.26-.08-.35-.08-.43,0-.18,.1-.26,.21-.26,.1,0,.21,.06,.32,.21,.24,.3,.53,.7,.83,1.23-1.83,.8-3.6,1.57-5.62,2.74-1.94,1.12-2.93,2.06-2.93,3.31s.9,1.75,3.94,1.75c1.49,0,3.36-.16,4.91-.34l.1,1.15c-1.62,.18-3.41,.27-5.23,.27-3.41,0-4.79-.98-4.79-2.87,0-1.38,.83-2.66,3.22-4.03-.87-1.87-1.63-3.31-2.48-4.74l.98-.46Z"/>
    <path class="cls-1" d="M52.35,532.92c1.91-4.45,3.75-8.26,5.41-11.57-.26-.26-.35-.37-.35-.5,0-.1,.08-.14,.19-.14,.19,0,.42,.08,1.49,.64-1.44,2.69-2.27,4.35-3.19,6.15l-.42,.66,.06,.03c.93-1.23,1.87-1.84,2.74-1.84,1.25,0,1.73,.82,1.73,2.87,0,2.9,.32,3.38,1.3,3.38,1.47,0,3.3-1.58,3.73-5.09,.3,.21,.74,.42,1.07,.56-.5,3.39-2.42,5.65-4.87,5.65-1.57,0-2.32-.7-2.32-3.52,0-2.02-.1-2.9-.83-2.9s-1.86,.83-2.83,2.13c-.61,.82-.99,1.86-1.84,3.92l-.14,.1-.91-.37-.02-.14Z"/>
    <path class="cls-1" d="M77.46,529.45c1.42,2.45,3.42,3.35,6.4,4-.27,.32-.5,.61-.67,.99-2.95-.74-5.03-1.98-6.45-4.45-.27,.85-.72,1.57-1.3,2.16-1.3,1.36-2.75,1.94-4.99,2.34-.19-.34-.38-.59-.77-.9,2.51-.34,3.99-1.01,5.01-2.11,.53-.58,.93-1.22,1.15-2.03h-3.79l-2.4,.06v-.98l2.4,.06h3.95c.03-.24,.05-.51,.05-.78,0-.54-.05-1.09-.13-1.47,1.55,.06,1.71,.19,1.71,.35s-.18,.26-.53,.38c0,.58-.02,1.07-.06,1.52h4.43l2.4-.06v.98l-2.4-.06h-4.02Zm-1.3-8.21c0-.46-.03-.85-.11-1.23,1.46,.08,1.68,.19,1.68,.35,0,.13-.11,.24-.51,.34v1.09h3.92l2.34-.06,.06,.06-.06,1.5,.06,1.82h-1.07v-2.45h-4.03v2.24c0,.51,.18,.54,1.04,.54,1.38,0,1.49-.14,1.49-1.2,.27,.18,.69,.32,.99,.4-.06,1.5-.75,1.67-2.51,1.67-1.57,0-1.99-.08-1.99-1.15v-2.5h-2.59c.83,.19,1.14,.34,1.14,.5,0,.19-.1,.24-.56,.3-.34,2.19-1.67,2.98-3.89,3.52-.14-.29-.38-.62-.66-.86,2.4-.38,3.39-1.1,3.58-3.46h-3.43v2.45h-1.09l.06-1.82-.06-1.5,.06-.06,2.34,.06h3.79v-.54Z"/>
    <path class="cls-1" d="M97.25,522.61c-1.25,.43-2.45,.77-3.62,1.02,.34,.69,.72,1.34,1.14,1.97,1.2-.32,2.45-.77,3.68-1.36l.43,.85c-1.2,.54-2.39,.98-3.54,1.3,.54,.74,1.36,1.65,2.15,2.23l.06,.14-.16,.62-.13,.08c-1.1,0-2.3,.02-3.41,.05l-.03-.78c.64-.06,1.3-.14,1.94-.21-.48-.54-1.04-1.22-1.49-1.86-1.62,.38-3.14,.54-4.42,.54-.45,0-1.33-.08-2.07-.27l.35-.82c.58,.08,1.33,.18,1.89,.18,1.02,0,2.3-.13,3.7-.43-.4-.66-.77-1.34-1.12-2.03-1.47,.27-2.93,.42-4.42,.45l-.08-.94c1.41,0,2.74-.13,4.08-.37-.27-.58-.48-1.15-.69-1.71-.45-.05-.56-.14-.56-.27,0-.11,.18-.19,.35-.22,.22-.05,.46-.08,1.22-.16,.19,.83,.38,1.36,.72,2.16,1.17-.26,2.37-.61,3.67-1.06l.35,.91Zm-7.84,7.46c.19,2.4,2.77,2.48,4.75,2.48,.71,0,1.34-.03,2.27-.1l-.02,1.1c-.82,.08-1.52,.1-2.27,.1-2.56,0-5.57-.43-5.67-3.52l.93-.06Z"/>
    <path class="cls-1" d="M102.47,523.75v-.98l1.92,.06h1.87l1.92-.06v.98l-1.92-.06h-1.87l-1.92,.06Zm1.89,9.76v.99h-1.01l.06-1.92v-1.86l-.06-1.22,.08-.06,1.52,.06h1.26l1.52-.06,.08,.06-.05,1.22v1.58l.08,1.92h-1.01v-.72h-2.48Zm-.9-12v-.98l1.44,.06h1.36l1.44-.06v.98l-1.44-.06h-1.36l-1.44,.06Zm0,4.47v-.98l1.44,.06h1.36l1.44-.06v.98l-1.44-.06h-1.36l-1.44,.06Zm0,2.23v-.98l1.44,.06h1.36l1.44-.06v.98l-1.44-.06h-1.36l-1.44,.06Zm3.38,2.1h-2.48v2.43h2.48v-2.43Zm5.49-9.04c0-.46-.05-.88-.13-1.26,1.46,.05,1.65,.16,1.65,.34,0,.14-.16,.27-.51,.38v1.92h1.62l2.4-.06v.99l-2.4-.06h-1.62v2.62h.88l2.4-.06v.99l-2.4-.06h-2.74l-2.4,.06v-.99l2.4,.06h.85v-2.62h-1.28l-2.4,.06v-.99l2.4,.06h1.28v-1.38Zm-1.75,12.21v.98h-1.06l.06-2.34v-1.36l-.06-1.86,.06-.06,1.86,.06h2.75l1.86-.06,.06,.06-.06,1.86v1.31l.06,2.34h-1.06v-.93h-4.48Zm4.48-3.76h-4.48v2.95h4.48v-2.95Z"/>
    <path class="cls-1" d="M126.43,531.02c-.37-.26-.69-.51-.99-.78-.53,.58-1.04,1.02-1.5,1.34-.88,.62-1.49,.86-1.91,.86-1.04,0-1.66-1.2-1.66-2.59,0-1.92,1.01-3.41,2.45-4.4-.19-.9-.29-1.9-.34-3.02-.35-.1-.5-.19-.5-.34,0-.08,.06-.14,.26-.16,.38-.02,.85-.02,1.28-.02,.02,1.17,.1,2.14,.24,2.98,1.26-.64,2.72-.96,4.07-.96h.27c.26-.91,.38-1.5,.48-2.13-.3-.19-.42-.32-.42-.43s.1-.18,.22-.18c.22,0,.62,.08,1.41,.27-.14,.9-.3,1.52-.64,2.62,3.17,.61,4.07,2.83,4.07,4.43,0,2.66-2.26,4.91-6.39,5.06-.11-.34-.27-.7-.45-1.04h.3c2.88,0,5.33-1.52,5.33-4.18,0-1.52-1.26-3.12-3.22-3.35-.72,1.71-1.68,3.22-2.64,4.39,.29,.24,.59,.48,.91,.72l-.64,.9Zm-5.04-1.38c0,1.01,.37,1.63,.74,1.63,.4,0,.56-.11,.91-.35,.5-.34,1.07-.83,1.65-1.44-.75-.9-1.3-1.92-1.63-3.04-1.06,.94-1.67,2.14-1.67,3.2Zm4.02-.98c.93-1.12,1.78-2.48,2.27-3.83h-.27c-1.34,0-2.53,.37-3.47,.94,.24,1.07,.75,2.06,1.47,2.88Z"/>
    <path class="cls-1" d="M148.29,523.08c-1.84,.16-3.01,.46-4.11,1.25-1.47,1.02-2.35,2.54-2.35,4.39,0,3.01,2.82,3.63,5.3,3.63,.19,0,.4,0,.59-.02l-.03,1.25h-.26c-3.2,0-6.67-.91-6.67-4.79,0-1.95,.91-3.58,2.24-4.69,.34-.22,.67-.43,1.07-.64l-1.3,.26c-1.97,.29-3.79,.53-6.21,.86l-.19-1.1c4.39-.48,7.91-.98,11.75-1.55l.11,.06,.13,1.01-.06,.08Z"/>
    <path class="cls-1" d="M159.87,524.42c1.07-1.02,2.05-2.13,2.91-3.31,.22-.3,.38-.61,.51-.93,1.06,.53,1.31,.74,1.31,.91,0,.16-.21,.21-.67,.21-.83,1.1-1.74,2.15-2.75,3.12h2.69l2.4-.06v.99l-2.4-.06h-3.62c-.77,.69-1.58,1.33-2.43,1.94,1.44-.11,3.01-.32,4.34-.58,.34-.06,.64-.16,.94-.32,.87,.62,1.04,.83,1.04,.98,0,.18-.06,.24-.27,.24-.14,0-.35-.03-.67-.1-1.95,.34-3.98,.54-6.13,.67-.06,.43-.14,.86-.22,1.3h5.73l1.86-.06,.06,.06-.08,.83c-.11,1.1-.27,2.02-.5,2.79-.34,1.14-.91,1.5-2.13,1.5h-1.18c-.1-.4-.21-.72-.46-1.15,.51,.08,.99,.11,1.5,.11,.88,0,1.07-.14,1.27-.72,.21-.62,.35-1.54,.43-2.53h-6.64c-.11,.54-.21,1.09-.32,1.63l-1.04-.08c.27-1.1,.48-2.22,.66-3.34-1.2,.75-2.47,1.42-3.78,2.05-.21-.34-.46-.56-.8-.74,2.83-1.15,5.33-2.66,7.48-4.48h-4.56l-2.4,.06v-.99l2.4,.06h2.85v-1.86h-1.5l-2.4,.06v-.98l2.4,.06h1.5v-.56c0-.46-.05-.88-.13-1.26,1.51,.1,1.67,.21,1.67,.38,0,.14-.14,.26-.53,.35v1.09h.74l2.4-.06v.98l-2.4-.06h-.74v1.86h1.68Z"/>
    <path class="cls-1" d="M178.39,523.89c.7,.7,.83,.9,.83,1.01,0,.13-.13,.22-.69,.4-1.18,.9-1.95,1.57-3.12,2.69,1.09,0,1.71,.54,1.71,1.76v1.17c0,1.36,.26,1.46,1.74,1.46,.99,0,2.1-.19,3.36-.61l.43,1.1c-1.34,.37-2.79,.61-3.86,.61-2.16,0-2.75-.43-2.75-1.91v-1.49c0-.94-.29-1.34-.74-1.34-.5,0-1.2,.48-2.5,1.73-.9,.86-1.6,1.62-2.59,2.74l-.18,.05-.85-.5-.05-.16c1.65-1.76,2.74-2.79,4.42-4.35,1.44-1.34,2.35-2.16,3.33-2.87l-.02-.08c-1.42,.29-3.59,.53-6.08,.62l-.03-1.14c2.51-.03,4.72-.21,7.08-.56l.37-.34h.18Zm-6-2.87c2.29,0,4.47,.19,6.44,.5l-.13,1.04c-2.34-.34-4.08-.5-6.37-.5l.06-1.04Z"/>
    <path class="cls-1" d="M186.64,523.21c1.7-.14,3.43-.26,5.17-.3v-1.68c-.42-.11-.56-.24-.56-.38,0-.13,.14-.18,.34-.18s.48,0,1.36,.03c-.03,.79-.05,1.5-.06,2.16,.87-.02,1.71-.03,2.56-.03,.61,0,1.38,.02,1.99,.03l.03,.96c-.61-.02-1.39-.03-2-.03-.8,0-1.68,.02-2.59,.03-.02,.45-.02,.85-.02,1.2s0,.8,.02,1.3c1.14-.1,2.37-.27,3.75-.5l.22,.96c-1.33,.24-2.66,.42-3.94,.53,.03,1.04,.08,2.18,.11,3.14,1.49,.59,3.07,1.38,4.59,2.19l-.62,1.01c-1.26-.78-2.66-1.47-3.94-2.08-.16,1.63-1.31,2.24-2.77,2.24-2.19,0-3.31-.98-3.31-1.98,0-.91,1.46-2.05,3.31-2.05,.34,0,1.1,.14,1.67,.32-.03-.86-.06-1.81-.1-2.72-.64,.05-1.28,.06-1.89,.06-1.38,0-2.21-.35-2.8-.7l.61-.75c.56,.32,1.14,.48,2.19,.48,.59,0,1.22-.02,1.87-.06-.02-.48-.02-.93-.02-1.31v-1.23c-1.7,.05-3.47,.14-5.11,.29l-.06-.93Zm3.52,7.52c-1.2,0-2.14,.59-2.14,1.1,0,.46,.82,.98,2.26,.98,1.12,0,1.67-.67,1.67-1.65-.64-.26-1.33-.43-1.78-.43Z"/>
    <path class="cls-1" d="M209.97,523.08h.58c1.46,0,2.93,0,4.38,.05l-.02,1.04c-1.79-.11-3.07-.13-4.34-.13h-.61v2.9c.24,.66,.34,1.22,.34,1.9,0,2.69-1.23,4.5-5.04,5.04-.11-.32-.29-.64-.53-.99,3.22-.32,4.43-2.02,4.51-3.35-.32,.5-.96,.85-2.05,.85-1.36,0-2-.66-2-1.86,0-1.55,1.42-3.09,2.64-3.09,.4,0,.82,.11,1.1,.5-.02-.62-.02-1.25-.03-1.87-1.7,.03-3.81,.14-6.72,.35l-.05-1.02c2.95-.16,5.09-.26,6.75-.3,0-.64-.02-1.28-.02-1.92-.4-.14-.54-.24-.54-.37,0-.11,.1-.21,.29-.21,.35,0,.93,.02,1.39,.03l-.05,.99v1.46Zm-3.81,5.35c0,.72,.32,1.01,1.31,1.01s1.54-.7,1.58-1.58c-.21-1.1-.85-1.44-1.26-1.44-.61,0-1.63,.93-1.63,2.02Z"/>
    <path class="cls-1" d="M221.08,534.54c-1.23,0-2.21-.99-2.21-2.21s.98-2.18,2.21-2.18,2.21,.96,2.21,2.18-.98,2.21-2.21,2.21Zm0-.72c.8,0,1.47-.69,1.47-1.49s-.67-1.46-1.47-1.46-1.47,.66-1.47,1.46,.67,1.49,1.47,1.49Z"/>
  </g>
  <g>
    <path class="cls-1" d="M8.33,92.22c1.06-.62,2.43-.93,3.46-.93,2.31,0,3.52,1.26,3.52,3.15,0,2.37-1.07,3.91-6,8h6.74v1.04H7.72v-1.1c4.98-4.07,6.23-5.67,6.23-7.81,0-1.3-.82-2.21-2.51-2.21-.64,0-1.38,.19-1.91,.43l-.13,2.26h-1.07v-2.83Z"/>
    <path class="cls-1" d="M21.56,97.74c0-4.37,1.44-6.45,4.48-6.45,2.74,0,4.26,2.11,4.26,5.89,0,4.37-1.44,6.45-4.48,6.45-2.74,0-4.26-2.11-4.26-5.89Zm1.38-.22c0,3.62,1.06,5.03,3.04,5.03s2.93-1.5,2.93-5.14-1.04-5.03-3.03-5.03-2.95,1.5-2.95,5.14Z"/>
    <path class="cls-1" d="M36.2,97.74c0-4.37,1.44-6.45,4.48-6.45,2.74,0,4.26,2.11,4.26,5.89,0,4.37-1.44,6.45-4.48,6.45-2.74,0-4.26-2.11-4.26-5.89Zm1.38-.22c0,3.62,1.06,5.03,3.04,5.03s2.93-1.5,2.93-5.14-1.04-5.03-3.03-5.03-2.95,1.5-2.95,5.14Z"/>
    <path class="cls-1" d="M51.17,92.22c1.06-.62,2.43-.93,3.46-.93,2.31,0,3.52,1.26,3.52,3.15,0,2.37-1.07,3.91-6,8h6.74v1.04h-8.32v-1.1c4.98-4.07,6.23-5.67,6.23-7.81,0-1.3-.82-2.21-2.51-2.21-.64,0-1.38,.19-1.91,.43l-.13,2.26h-1.07v-2.83Z"/>
    <path class="cls-1" d="M70.48,93.15h-4.13c-.62,1.01-1.38,1.98-2.24,2.93-.27-.26-.59-.45-.86-.56,1.23-1.28,2.26-2.75,2.98-4.42,.13-.32,.22-.64,.26-.94,1.15,.27,1.55,.42,1.55,.61,0,.22-.1,.27-.61,.34-.16,.38-.35,.77-.54,1.14h7.96l2.4-.06v1.04l-2.4-.06h-3.25v2.79h2.32l2.4-.06v1.02l-2.4-.06h-2.32v3.44h3.71l2.4-.06v1.04l-2.4-.06h-3.71v1.28l.06,2.4h-1.23l.06-2.4v-1.28h-5.11l-2.4,.06v-1.04l2.4,.06h.53v-2.48l-.06-1.86,.06-.06,1.86,.06h2.72v-2.79Zm-3.5,3.68v3.44h3.5v-3.44h-3.5Z"/>
    <path class="cls-1" d="M89.56,92.62h-5.35l-.22,3.97c.64-.18,1.41-.29,2.24-.29,2.9,0,3.92,1.6,3.92,3.36,0,2.58-1.65,3.91-4.13,3.91-2.32,0-3.52-.93-3.68-2.66h1.33c.06,.8,.5,1.58,2.46,1.58,1.68,0,2.71-.94,2.71-2.56s-.9-2.59-3.14-2.59c-.83,0-2.14,.24-2.93,.51l.34-6.39h6.53l-.08,1.15Z"/>
    <path class="cls-1" d="M97.56,99.27c-.3,2.79-1.41,4.26-2.99,5.7-.22-.27-.58-.56-.88-.74,1.92-1.5,2.9-3.22,2.9-6.75v-4.51l-.06-1.86,.06-.06,1.86,.06h4.83l1.86-.06,.06,.06-.06,1.86v7.79l.05,2.66c0,1.1-.42,1.38-1.6,1.38h-1.15c-.08-.38-.19-.78-.38-1.15,.74,.08,1.2,.1,1.52,.1,.38,0,.51-.11,.51-.58v-3.89h-6.51Zm6.51-3.7h-6.43v2.05c0,.27,0,.53-.02,.77h6.45v-2.82Zm0-3.59h-6.43v2.71h6.43v-2.71Z"/>
    <path class="cls-1" d="M114.4,92.73l-2.95,1.25v-1.02l3.36-1.47h.88v11.01l2.48,.16v.83h-6.18v-.83l2.4-.16v-9.76Z"/>
    <path class="cls-1" d="M131.5,91.49v1.31c-2.19,3.36-3.47,6.85-4.02,10.69h-1.33c.3-2.95,1.78-6.98,4.23-10.9h-5.51l-.16,2.71h-1.04v-3.81h7.83Z"/>
    <path class="cls-1" d="M138.42,103.59v1.26h-1.1l.06-2.4v-8.76l-.06-2.34,.06-.06,2.34,.06h4.96l2.34-.06,.06,.06-.06,2.34v8.69l.06,2.42h-1.1v-1.22h-7.55Zm7.55-11.32h-7.55v4.69h7.55v-4.69Zm0,5.59h-7.55v4.82h7.55v-4.82Z"/>
    <path class="cls-1" d="M12.41,135.22c.13,.62,.3,1.23,.53,1.82,.67,1.71,1.71,3.23,3.07,4.45,.48,.43,.99,.82,1.52,1.17,.56,.37,1.15,.69,1.74,.99-.37,.34-.62,.66-.85,1.06-3.23-1.86-5.63-4.59-6.58-7.86-.19,1.3-.56,2.51-1.1,3.51-.99,1.84-2.66,3.38-5.6,4.58-.24-.37-.46-.62-.82-.88,2.77-1.01,4.53-2.34,5.51-4.24,.66-1.26,.99-2.77,1.12-4.59h-3.58l-2.4,.06v-1.09l2.4,.06h3.62c.02-.26,.02-.53,.02-.8v-1.68c0-.59-.05-1.07-.13-1.46,1.55,.13,1.79,.24,1.79,.43,0,.16-.16,.27-.56,.37v2.23c0,.3,0,.61-.02,.91h4.27l2.4-.06v1.09l-2.4-.06h-3.95Z"/>
    <path class="cls-1" d="M26.51,130.59c.67,.58,.93,.85,.93,1.02s-.14,.26-.56,.38c-.67,1.66-.99,2.45-1.62,3.84,1.15,1.14,1.63,2.11,1.63,3.52,0,1.52-.93,2.27-2.24,2.34-.13-.43-.26-.7-.5-1.06,1.18,.08,1.71-.14,1.71-1.46,0-1.14-.38-2.05-1.65-3.11,.74-1.68,1.18-2.83,1.71-4.32h-2.32v10.71l.03,2.4h-1.07l.08-2.4v-9.67l-.06-1.86,.06-.06,1.86,.06h1.46l.35-.35h.19Zm8.36,3.71c.74,.64,.91,.82,.91,.98,0,.14-.1,.24-.56,.34-.32,2.48-.94,4.35-2.02,5.84,.83,.82,1.89,1.47,3.28,2.13-.22,.26-.43,.56-.61,.88-1.3-.61-2.38-1.34-3.28-2.26-.85,.93-1.92,1.7-3.25,2.37-.16-.27-.4-.56-.64-.8,1.33-.59,2.4-1.34,3.25-2.32-.99-1.28-1.67-2.9-2.02-4.99l.91-.11c.35,1.92,.86,3.28,1.68,4.35,.91-1.36,1.46-3.06,1.65-5.17h-5.04v2.02c0,3.35-.7,5.28-2.67,6.96-.19-.24-.5-.5-.75-.64,1.89-1.44,2.45-3.17,2.45-6.43v-4.37l-.05-1.86,.06-.06,1.86,.06h3.79l2.4-.06v.98l-2.4-.06h-4.69v2.59h5.17l.37-.35h.19Z"/>
    <path class="cls-1" d="M46.23,133.81v-2.19c0-.46-.05-.88-.13-1.26,1.5,.05,1.75,.16,1.75,.34,0,.14-.18,.24-.53,.38v2.74h3.36l2.4-.06v1.06l-2.4-.06h-3.36v3.47h2.45l2.4-.06v1.04l-2.4-.06h-2.45v3.89h4.18l2.4-.06v1.06l-2.4-.06h-9.59l-2.4,.06v-1.06l2.4,.06h4.32v-3.89h-1.89l-2.4,.06v-1.04l2.4,.06h1.89v-3.47h-3.83c-.48,1.49-1.17,2.88-2.06,4.23-.3-.19-.62-.32-.99-.38,1.39-1.89,2.21-4,2.62-6.31,.11-.62,.14-.98,.13-1.31,1.44,.35,1.52,.43,1.52,.61s-.18,.24-.53,.34c-.11,.66-.24,1.3-.42,1.9h3.55Z"/>
    <path class="cls-1" d="M57.56,133.44c1.7-.14,3.43-.26,5.17-.3v-1.68c-.42-.11-.56-.24-.56-.38,0-.13,.14-.18,.34-.18s.48,0,1.36,.03c-.03,.78-.05,1.5-.06,2.16,.86-.02,1.71-.03,2.56-.03,.61,0,1.38,.02,1.98,.03l.03,.96c-.61-.02-1.39-.03-2-.03-.8,0-1.68,.02-2.59,.03-.02,.45-.02,.85-.02,1.2s0,.8,.02,1.3c1.14-.1,2.37-.27,3.75-.5l.22,.96c-1.33,.24-2.66,.42-3.94,.53,.03,1.04,.08,2.18,.11,3.14,1.49,.59,3.07,1.38,4.59,2.19l-.62,1.01c-1.26-.78-2.66-1.47-3.94-2.08-.16,1.63-1.31,2.24-2.77,2.24-2.19,0-3.31-.98-3.31-1.98,0-.91,1.46-2.05,3.31-2.05,.34,0,1.1,.14,1.66,.32-.03-.86-.06-1.81-.1-2.72-.64,.05-1.28,.06-1.89,.06-1.38,0-2.21-.35-2.8-.7l.61-.75c.56,.32,1.14,.48,2.19,.48,.59,0,1.22-.02,1.87-.06-.02-.48-.02-.93-.02-1.31v-1.23c-1.7,.05-3.47,.14-5.11,.29l-.06-.93Zm3.52,7.52c-1.2,0-2.14,.59-2.14,1.1,0,.46,.82,.98,2.26,.98,1.12,0,1.66-.67,1.66-1.65-.64-.26-1.33-.43-1.78-.43Z"/>
    <path class="cls-1" d="M76.68,131.76l-.03,1.94c.26-.02,.45-.03,.7-.03l.16,.06,.26,.46-.02,.14c-.53,.8-.85,1.46-1.15,1.98v.38c2.3-2.43,3.94-3.99,5.28-3.99,1.17,0,1.62,.64,1.62,1.82,0,.72-.08,1.92-.16,3.41-.08,1.34-.14,2.48-.14,3.15,0,.61,.1,.91,.67,.91,.7,0,1.34-.35,2.23-1.63,.26,.4,.45,.61,.7,.86-.99,1.26-1.94,1.92-3.2,1.92-.8,0-1.49-.62-1.49-1.94,0-.96,.05-1.94,.13-3.27,.11-1.67,.13-2.72,.13-3.31,0-.48-.14-.93-.53-.93-.61,0-1.79,.56-5.3,4.34,0,1.76,0,4.4,.02,6.13h-1.06v-4.37l.06-1.15-.48,.82c-.4,.61-.86,1.3-1.58,2.34l-.14,.02-.71-.61-.02-.14c1.12-1.57,1.67-2.32,2.91-4.07,.03-.78,.05-1.73,.05-2.24-.86,.13-1.86,.32-2.72,.54l-.22-.98c.9-.16,1.95-.34,2.96-.5l.02-2.43c-.37-.1-.51-.26-.51-.37,0-.08,.1-.16,.26-.16,.42,0,.88,.03,1.39,.06l-.08,.8Z"/>
  </g>
  <g>
    <path class="cls-1" d="M12.41,197.24c.13,.62,.3,1.23,.53,1.82,.67,1.71,1.71,3.23,3.07,4.45,.48,.43,.99,.82,1.52,1.17,.56,.37,1.15,.69,1.74,.99-.37,.34-.62,.66-.85,1.06-3.23-1.86-5.63-4.59-6.58-7.86-.19,1.3-.56,2.51-1.1,3.51-.99,1.84-2.66,3.38-5.6,4.58-.24-.37-.46-.62-.82-.88,2.77-1.01,4.53-2.34,5.51-4.24,.66-1.26,.99-2.77,1.12-4.59h-3.58l-2.4,.06v-1.09l2.4,.06h3.62c.02-.26,.02-.53,.02-.8v-1.68c0-.59-.05-1.07-.13-1.46,1.55,.13,1.79,.24,1.79,.43,0,.16-.16,.27-.56,.37v2.23c0,.3,0,.61-.02,.91h4.27l2.4-.06v1.09l-2.4-.06h-3.95Z"/>
    <path class="cls-1" d="M26.51,192.62c.67,.58,.93,.85,.93,1.02s-.14,.26-.56,.38c-.67,1.66-.99,2.45-1.62,3.84,1.15,1.14,1.63,2.11,1.63,3.52,0,1.52-.93,2.27-2.24,2.34-.13-.43-.26-.7-.5-1.06,1.18,.08,1.71-.14,1.71-1.46,0-1.14-.38-2.05-1.65-3.11,.74-1.68,1.18-2.83,1.71-4.32h-2.32v10.71l.03,2.4h-1.07l.08-2.4v-9.67l-.06-1.86,.06-.06,1.86,.06h1.46l.35-.35h.19Zm8.36,3.71c.74,.64,.91,.82,.91,.98,0,.14-.1,.24-.56,.34-.32,2.48-.94,4.35-2.02,5.84,.83,.82,1.89,1.47,3.28,2.13-.22,.26-.43,.56-.61,.88-1.3-.61-2.38-1.34-3.28-2.26-.85,.93-1.92,1.7-3.25,2.37-.16-.27-.4-.56-.64-.8,1.33-.59,2.4-1.34,3.25-2.32-.99-1.28-1.67-2.9-2.02-4.99l.91-.11c.35,1.92,.86,3.28,1.68,4.35,.91-1.36,1.46-3.06,1.65-5.17h-5.04v2.02c0,3.35-.7,5.28-2.67,6.96-.19-.24-.5-.5-.75-.64,1.89-1.44,2.45-3.17,2.45-6.43v-4.37l-.05-1.86,.06-.06,1.86,.06h3.79l2.4-.06v.98l-2.4-.06h-4.69v2.59h5.17l.37-.35h.19Z"/>
    <path class="cls-1" d="M48.16,194.27v-.78c0-.46-.03-.85-.11-1.23,1.41,.08,1.57,.19,1.57,.35,0,.13-.11,.24-.51,.34v1.33h2.21l2.4-.06v.99l-2.4-.06h-2.21v.27l.05,1.28h-1.04l.05-1.28v-.27h-3.58v.27l.05,1.28h-1.04l.05-1.28v-.27h-2.19l-2.4,.06v-.99l2.4,.06h2.19v-.78c0-.46-.03-.85-.11-1.23,1.38,.08,1.57,.19,1.57,.35,0,.13-.11,.24-.51,.34v1.33h3.58Zm-2.75,7.12c-.53,1.23-1.07,2.45-1.7,3.65,2.1-.13,4.19-.3,6.29-.5-.58-.56-1.18-1.1-1.83-1.63l.77-.54c1.67,1.26,2.96,2.53,4.08,3.75l-.91,.66c-.42-.51-.88-.99-1.34-1.47-3.15,.35-6.15,.64-9.94,.98-.05,.3-.14,.51-.3,.51-.22,0-.34-.27-.74-1.58,.43,.02,.78,.02,1.18,0,.54-.03,1.09-.06,1.62-.1,.59-1.22,1.1-2.45,1.6-3.71h-2.71l-2.4,.06v-1.01l2.4,.06h9.75l2.4-.06v1.01l-2.4-.06h-5.83Zm-4.15-2.83v-1.01l2.4,.06h5.47l2.4-.06v1.01l-2.4-.06h-5.47l-2.4,.06Z"/>
    <path class="cls-1" d="M58.81,199.66c-.45,.61-.94,1.17-1.52,1.73-.22-.27-.54-.53-.78-.66,1.26-1.22,2-2.21,2.62-3.27,.21-.35,.43-.83,.5-1.17,1.14,.45,1.42,.61,1.42,.78,0,.22-.16,.27-.69,.24-.29,.48-.58,.93-.86,1.38,.69,.08,.77,.18,.77,.32s-.18,.24-.53,.38v7.49h-1.06l.06-2.4v-2.83l.06-2Zm.93-7.14c1.12,.5,1.31,.64,1.31,.85,0,.16-.22,.18-.67,.16-.88,.9-1.78,1.68-2.96,2.42-.18-.29-.43-.58-.67-.75,1.1-.66,1.92-1.33,2.51-1.95,.27-.29,.38-.48,.48-.72Zm1.71,6c1.09,.08,1.49,.1,1.54,.3,.03,.18-.1,.3-.5,.46-.03,2.77-.37,4.31-1.17,5.95-.3-.22-.59-.42-.88-.46,.75-1.41,1.07-2.74,1.1-5.33,0-.35-.02-.51-.1-.93Zm2.21-4.99c0-.45-.05-.83-.13-1.2,1.34,.08,1.66,.21,1.66,.37,0,.18-.16,.26-.54,.35v2.56h.62l1.92-.06v.94l-1.92-.06h-.62v8.05l.06,2.4h-1.12l.06-2.4v-8.05h-.62l-1.92,.06v-.94l1.92,.06h.62v-2.08Zm2.05-.46c.51,.35,.94,.75,1.33,1.14l-.67,.61c-.35-.48-.75-.83-1.25-1.22l.59-.53Zm.83,5.46c.21,1.65,.35,3.68,.42,5.41l-1.01,.16c.02-1.58-.11-3.84-.37-5.47l.96-.1Zm3.49,3.92l.06,2.87c0,1.28-.43,1.58-1.89,1.58h-.43c-.06-.3-.22-.82-.45-1.12,.61,.08,.88,.1,1.23,.1,.4,0,.48-.14,.48-.51v-6.98h-.42l-1.6,.06v-.94l1.6,.06h1.36l1.6-.06v.94l-1.55-.06v4.07Zm-2.45-8.31v-.94l1.44,.06h.9l1.44-.06v.94l-1.44-.06h-.93l-1.41,.06Z"/>
    <path class="cls-1" d="M82.06,197.24c.13,.62,.3,1.23,.53,1.82,.67,1.71,1.71,3.23,3.07,4.45,.48,.43,.99,.82,1.52,1.17,.56,.37,1.15,.69,1.74,.99-.37,.34-.62,.66-.85,1.06-3.23-1.86-5.63-4.59-6.58-7.86-.19,1.3-.56,2.51-1.1,3.51-.99,1.84-2.66,3.38-5.6,4.58-.24-.37-.46-.62-.82-.88,2.77-1.01,4.53-2.34,5.51-4.24,.66-1.26,.99-2.77,1.12-4.59h-3.58l-2.4,.06v-1.09l2.4,.06h3.62c.02-.26,.02-.53,.02-.8v-1.68c0-.59-.05-1.07-.13-1.46,1.55,.13,1.79,.24,1.79,.43,0,.16-.16,.27-.56,.37v2.23c0,.3,0,.61-.02,.91h4.27l2.4-.06v1.09l-2.4-.06h-3.95Z"/>
    <path class="cls-1" d="M98.22,201.16c0-.53-.03-.8-.11-1.18,.26,.03,.48,.05,.66,.08,.96-.51,1.73-.98,2.43-1.52h-4.69l-2.4,.06v-.99l2.4,.06h5.36l.42-.35h.19c.82,.74,.99,.96,.99,1.12,0,.19-.19,.27-.86,.35-1.14,.69-1.97,1.14-2.87,1.5,.03,.03,.05,.06,.05,.1,0,.16-.11,.24-.54,.37v.85h4.19l2.4-.06v1.02l-2.4-.06h-4.19v.74l.05,2.02c0,1.28-.32,1.58-2.19,1.58h-.62c-.1-.43-.22-.78-.45-1.17,.67,.08,1.18,.1,1.63,.1s.56-.1,.56-.51v-2.75h-4.23l-2.4,.06v-1.02l2.4,.06h4.23v-.45Zm4.95-6l2.34-.06,.06,.06-.06,1.66,.06,1.89h-1.07v-2.66h-11.62v2.71h-1.07l.06-1.94-.06-1.66,.06-.06,2.34,.06h7.12c.45-.67,.9-1.44,1.15-1.97,.18-.35,.27-.64,.35-.94,1.3,.45,1.5,.64,1.5,.78,0,.18-.14,.24-.64,.24-.37,.64-.79,1.3-1.23,1.89h.71Zm-8.98-2.83c.62,.58,1.02,1.1,1.52,1.87l-.96,.59c-.48-.82-.88-1.36-1.47-1.97l.91-.5Zm4.16-.24c.53,.62,.98,1.31,1.34,2.02l-1.01,.5c-.35-.75-.78-1.44-1.26-2.05l.93-.46Z"/>
    <path class="cls-1" d="M112.67,198.43h.75l1.63-.06v.96l-1.63-.06h-.78c-.16,3.95-1.2,5.47-3.25,6.88-.14-.27-.43-.53-.72-.74,.61-.4,1.2-.82,1.67-1.39,.64-.8,.96-1.79,1.14-2.78,.11-.66,.16-1.31,.18-1.97h-1.07l-1.83,.06v-.96l1.83,.06h1.09v-3.14h-.93c-.29,.74-.61,1.44-1.06,2.16-.24-.21-.56-.38-.8-.5,.74-1.25,1.17-2.5,1.49-3.75,.11-.35,.16-.66,.19-.99,1.26,.37,1.52,.48,1.52,.67,0,.16-.18,.26-.64,.27-.14,.45-.27,.88-.42,1.3h1.73l1.79-.06v.96l-1.79-.06h-.08v3.14Zm.27,2.91c.93,.62,1.54,1.18,2.27,1.95l-.75,.75c-.61-.74-1.44-1.54-2.14-2.06l.62-.64Zm8.15,3.87l2.4-.06v.98l-2.4-.06h-4.82l-2.4,.06v-.98l2.4,.06h3.1c.43-1.06,.71-2.03,.91-3.01,.06-.29,.1-.51,.11-.85,1.33,.42,1.6,.56,1.58,.77,0,.16-.14,.22-.64,.26-.24,.78-.61,1.86-1.02,2.83h.77Zm-6.21-11v-.96l2.08,.06h4.13l2.08-.06v.96l-2.08-.06h-4.13l-2.08,.06Zm7.36,1.98l.06,.06-.06,1.52v1.25l.06,1.54-.06,.06-1.86-.06h-2.98l-1.86,.06-.06-.05,.08-1.55v-1.25l-.06-1.52,.06-.06,1.86,.06h2.96l1.86-.06Zm-5.15,5.27c.38,.75,.85,1.91,1.09,2.72l-.94,.42c-.26-.91-.69-2.03-1.06-2.77l.91-.37Zm-.56-4.34v2.53h4.74v-2.53h-4.74Z"/>
    <path class="cls-1" d="M127.02,206.61c-.14-.21-.43-.53-.74-.72,1.18-.74,1.87-1.49,2.32-2.02,.18-.21,.34-.46,.46-.67,1.09,.42,1.31,.54,1.31,.71,0,.18-.13,.29-.7,.27-.66,.91-1.57,1.71-2.66,2.43Zm-.4-11.21v-.94l1.63,.05v-.85c0-.46-.05-.88-.13-1.26,1.46,.05,1.63,.16,1.63,.34,0,.14-.18,.24-.53,.38v1.41h2.83v-.86c0-.46-.05-.88-.13-1.26,1.46,.05,1.65,.16,1.65,.34,0,.14-.18,.24-.53,.38v1.39l1.62-.05v.94l-1.62-.05v6.48l1.81-.05v.94l-2.13-.06h-4.07l-2.24,.06v-.94l1.82,.05v-6.48l-1.63,.05Zm2.61-.06v1.55h2.83v-1.55h-2.83Zm0,2.32v1.68h2.83v-1.68h-2.83Zm2.83,4.19v-1.74h-2.83v1.74h2.83Zm1.26,3.47c-.66-.67-1.31-1.18-1.95-1.55l.74-.56c.66,.35,1.34,.9,1.97,1.41l-.75,.7Zm3.14-4.18c-.1,2.98-.54,4.29-2.1,5.71-.22-.27-.51-.54-.82-.72,1.7-1.39,1.94-2.66,1.94-6.59v-4.69l-.06-1.86,.06-.06,1.86,.06h1.34l1.86-.06,.06,.06-.06,1.86v7.79l.05,2.66c0,1.1-.42,1.38-1.6,1.38h-1.15c-.08-.38-.19-.75-.38-1.12,.74,.08,1.2,.1,1.52,.1,.45,0,.58-.11,.58-.58v-3.94h-3.09Zm3.09-7.28h-3.07v2.72h3.07v-2.72Zm-3.07,6.42h3.07v-2.83h-3.07v2.83Z"/>
    <path class="cls-1" d="M151.85,197.24c.13,.62,.3,1.23,.53,1.82,.67,1.71,1.71,3.23,3.07,4.45,.48,.43,.99,.82,1.52,1.17,.56,.37,1.15,.69,1.74,.99-.37,.34-.62,.66-.85,1.06-3.23-1.86-5.63-4.59-6.58-7.86-.19,1.3-.56,2.51-1.1,3.51-.99,1.84-2.66,3.38-5.6,4.58-.24-.37-.46-.62-.82-.88,2.77-1.01,4.53-2.34,5.51-4.24,.66-1.26,.99-2.77,1.12-4.59h-3.58l-2.4,.06v-1.09l2.4,.06h3.62c.02-.26,.02-.53,.02-.8v-1.68c0-.59-.05-1.07-.13-1.46,1.55,.13,1.79,.24,1.79,.43,0,.16-.16,.27-.56,.37v2.23c0,.3,0,.61-.02,.91h4.27l2.4-.06v1.09l-2.4-.06h-3.95Z"/>
    <path class="cls-1" d="M168.01,201.16c0-.53-.03-.8-.11-1.18,.26,.03,.48,.05,.66,.08,.96-.51,1.73-.98,2.43-1.52h-4.69l-2.4,.06v-.99l2.4,.06h5.36l.42-.35h.19c.82,.74,.99,.96,.99,1.12,0,.19-.19,.27-.86,.35-1.14,.69-1.97,1.14-2.87,1.5,.03,.03,.05,.06,.05,.1,0,.16-.11,.24-.54,.37v.85h4.19l2.4-.06v1.02l-2.4-.06h-4.19v.74l.05,2.02c0,1.28-.32,1.58-2.19,1.58h-.62c-.1-.43-.22-.78-.45-1.17,.67,.08,1.18,.1,1.63,.1s.56-.1,.56-.51v-2.75h-4.23l-2.4,.06v-1.02l2.4,.06h4.23v-.45Zm4.95-6l2.34-.06,.06,.06-.06,1.66,.06,1.89h-1.07v-2.66h-11.62v2.71h-1.07l.06-1.94-.06-1.66,.06-.06,2.34,.06h7.12c.45-.67,.9-1.44,1.15-1.97,.18-.35,.27-.64,.35-.94,1.3,.45,1.5,.64,1.5,.78,0,.18-.14,.24-.64,.24-.37,.64-.79,1.3-1.23,1.89h.71Zm-8.98-2.83c.62,.58,1.02,1.1,1.52,1.87l-.96,.59c-.48-.82-.88-1.36-1.47-1.97l.91-.5Zm4.16-.24c.53,.62,.98,1.31,1.34,2.02l-1.01,.5c-.35-.75-.78-1.44-1.26-2.05l.93-.46Z"/>
    <path class="cls-1" d="M183.42,198.41c.3-.8,.51-1.49,.67-2.1,.06-.29,.11-.5,.14-.85,1.3,.43,1.5,.51,1.5,.72,0,.16-.18,.29-.67,.32-.21,.62-.4,1.18-.7,1.9h.61l2.24-.06v.96l-2.24-.06h-4.08l-2.4,.06v-.96l2.4,.06h2.53Zm-1.04-5.03c0-.46-.03-.85-.11-1.23,1.42,.08,1.62,.19,1.62,.35,0,.13-.11,.24-.51,.34v1.42h1.38l2.08-.06v.96l-2.08-.06h-3.54l-2.24,.06v-.96l2.24,.06h1.17v-.88Zm-1.42,12.13v.98h-1.04l.06-2.34v-1.33l-.06-1.86,.06-.06,1.86,.06h2.16l1.86-.06,.06,.06-.06,1.86v1.2l.06,2.37h-1.06v-.88h-3.91Zm.1-9.94c.38,.67,.67,1.38,.91,2.15l-.99,.38c-.26-.9-.45-1.41-.83-2.14l.91-.38Zm3.81,6.24h-3.91v2.85h3.91v-2.85Zm7.43-9.2c.67,.58,.93,.85,.93,1.02s-.16,.26-.58,.38c-.62,1.6-1.17,2.83-1.91,4.29,1.81,1.31,2.58,2.5,2.58,4.02,0,2.34-1.66,2.62-3.22,2.59-.11-.43-.24-.71-.5-1.06,.34,.03,.62,.05,.88,.05,1.33,0,1.79-.45,1.79-1.63,0-1.34-.74-2.22-2.64-3.73,.86-1.9,1.36-3.09,1.97-4.77h-2.85v10.71l.06,2.4h-1.09l.03-2.4v-9.67l-.06-1.86,.06-.06,1.86,.06h2.13l.35-.35h.19Z"/>
    <path class="cls-1" d="M12.88,239.61c0,3.44-1.55,5.25-4.74,6.45-.18-.35-.45-.67-.7-.94,2.82-1.01,4.19-2.64,4.19-5.49v-.58h-3.6l-2.43,.05v-1.14l2.43,.06h7.3l2.43-.06v1.14l-2.43-.05h-2.45v.56Zm-3.09-5.14h3.28l2.43-.06v1.15l-2.43-.05h-3.28l-2.43,.05v-1.15l2.43,.06Zm6.27-1.46c.91,.72,1.52,1.33,2.21,2.29l-.72,.62c-.62-.91-1.26-1.63-2.19-2.37l.71-.54Zm1.66-1.12c.9,.74,1.38,1.18,2.08,2.14l-.69,.61c-.64-.9-1.14-1.44-2.06-2.18l.67-.58Z"/>
    <path class="cls-1" d="M24.14,237.84l-2.42,.05v-1.14l2.42,.06h1.1v-2.58c-.46-.32-.53-.38-.53-.53,0-.06,.08-.11,.27-.11,.27,0,.77,.11,1.52,.3l-.11,.77v2.15h4.16v-2.79c-.46-.32-.53-.38-.53-.53,0-.06,.08-.11,.27-.11,.27,0,.77,.11,1.52,.3l-.11,.77v2.35h.9l2.42-.06v1.14l-2.42-.05h-.9v.69c0,4.79-1.83,6.64-5.79,7.49-.1-.32-.27-.64-.5-.96,3.86-.88,5.14-2.38,5.14-6.51v-.7h-4.16v1.14l.06,2.42h-1.28l.06-2.42v-1.14h-1.1Zm8.85-5.46c.7,.93,1.14,1.67,1.57,2.77l-.86,.42c-.37-1.04-.8-1.89-1.52-2.83l.82-.35Zm1.89-.67c.69,.94,1.04,1.5,1.49,2.61l-.83,.42c-.38-1.04-.74-1.68-1.44-2.62l.78-.4Z"/>
    <path class="cls-1" d="M47.71,234.86c-1.02,1.09-2.11,2.05-3.26,2.93,.34,.08,.7,.19,1.04,.29l-.06,1.04v4.39l.06,2.45h-1.33l.06-2.43v-5.12l-.26-.26c-1.68,1.2-3.51,2.22-5.54,3.12-.19-.3-.45-.61-.72-.86,3.62-1.52,6.93-3.78,9.28-6.64-.14-.22-.26-.43-.26-.51,0-.11,.1-.18,.21-.18,.14,0,.4,.16,1.54,.99l-.77,.8Z"/>
    <path class="cls-1" d="M54.06,234.63c1.57,.66,2.88,1.31,4.27,2.16l-.67,1.07c-1.36-.9-2.62-1.58-4.23-2.26l.62-.98Zm.29,10.82c-.37-.98-.53-1.38-.53-1.54,0-.13,.08-.21,.19-.21,.1,0,.26,.11,.53,.35,3.89-1.15,7.35-3.42,9.28-8.4,.34,.34,.66,.58,.99,.83-2.1,5.14-5.43,7.19-9.6,8.66l-.86,.3Z"/>
    <path class="cls-1" d="M76.08,242.54c1.46,1.71,3.68,2.77,6.39,3.2-.3,.37-.53,.67-.72,1.02-2.67-.48-5.01-1.92-6.58-4.02-.91,2.5-3.28,3.55-6.43,4.05-.19-.34-.4-.61-.69-.9,3.25-.35,5.31-1.36,6.1-3.36h-3.28l-2.4,.06v-.99l2.4,.06h3.52c.05-.26,.08-.53,.1-.82,.02-.24,.02-.42-.06-.8,1.49,.13,1.65,.19,1.65,.38,0,.14-.18,.26-.53,.37-.03,.29-.06,.58-.11,.86h3.97l2.4-.06v.99l-2.4-.06h-3.31Zm-.48-5.92h2.45l2.4-.06v.99l-2.4-.06h-2.45v1.47h4.18l2.4-.06v.99l-2.4-.06h-9.28l-2.4,.06v-.99l2.4,.06h4.07v-1.47h-2.34l-2.4,.06v-.99l2.4,.06h2.34v-1.47h-3.38l-2.4,.06v-.99l2.4,.06h1.42c-.27-.53-.61-1.02-1.07-1.58l.9-.38c.5,.53,1.01,1.28,1.34,1.97h2.8c.22-.51,.42-.96,.54-1.34,.1-.27,.14-.5,.16-.69,1.25,.3,1.46,.4,1.46,.56,0,.14-.06,.21-.54,.3-.19,.38-.4,.8-.61,1.17h1.5l2.4-.06v.99l-2.4-.06h-3.49v1.47Z"/>
    <path class="cls-1" d="M87.22,239.66c-.45,.61-.94,1.17-1.52,1.73-.22-.27-.54-.53-.78-.66,1.26-1.22,2-2.21,2.62-3.26,.21-.35,.43-.83,.5-1.17,1.14,.45,1.42,.61,1.42,.78,0,.22-.16,.27-.69,.24-.29,.48-.58,.93-.86,1.38,.69,.08,.77,.18,.77,.32s-.18,.24-.53,.38v7.49h-1.06l.06-2.4v-2.83l.06-2Zm.93-7.14c1.12,.5,1.31,.64,1.31,.85,0,.16-.22,.18-.67,.16-.88,.9-1.78,1.68-2.96,2.42-.18-.29-.43-.58-.67-.75,1.1-.66,1.92-1.33,2.51-1.95,.27-.29,.38-.48,.48-.72Zm1.71,6c1.09,.08,1.49,.1,1.54,.3,.03,.18-.1,.3-.5,.46-.03,2.77-.37,4.31-1.17,5.95-.3-.22-.59-.42-.88-.46,.75-1.41,1.07-2.74,1.1-5.33,0-.35-.02-.51-.1-.93Zm2.21-4.99c0-.45-.05-.83-.13-1.2,1.34,.08,1.66,.21,1.66,.37,0,.18-.16,.26-.54,.35v2.56h.62l1.92-.06v.94l-1.92-.06h-.62v8.05l.06,2.4h-1.12l.06-2.4v-8.05h-.62l-1.92,.06v-.94l1.92,.06h.62v-2.08Zm2.05-.46c.51,.35,.94,.75,1.33,1.14l-.67,.61c-.35-.48-.75-.83-1.25-1.22l.59-.53Zm.83,5.46c.21,1.65,.35,3.68,.42,5.41l-1.01,.16c.02-1.58-.11-3.84-.37-5.47l.96-.1Zm3.49,3.92l.06,2.87c0,1.28-.43,1.58-1.89,1.58h-.43c-.06-.3-.22-.82-.45-1.12,.61,.08,.88,.1,1.23,.1,.4,0,.48-.14,.48-.51v-6.98h-.42l-1.6,.06v-.94l1.6,.06h1.36l1.6-.06v.94l-1.55-.06v4.07Zm-2.45-8.31v-.94l1.44,.06h.9l1.44-.06v.94l-1.44-.06h-.93l-1.41,.06Z"/>
    <path class="cls-1" d="M109.52,241.16c0-.53-.03-.8-.11-1.18,.26,.03,.48,.05,.66,.08,.96-.51,1.73-.98,2.43-1.52h-4.69l-2.4,.06v-.99l2.4,.06h5.36l.42-.35h.19c.82,.74,.99,.96,.99,1.12,0,.19-.19,.27-.86,.35-1.14,.69-1.97,1.14-2.87,1.5,.03,.03,.05,.06,.05,.1,0,.16-.11,.24-.54,.37v.85h4.19l2.4-.06v1.02l-2.4-.06h-4.19v.74l.05,2.02c0,1.28-.32,1.58-2.19,1.58h-.62c-.1-.43-.22-.78-.45-1.17,.67,.08,1.18,.1,1.63,.1s.56-.1,.56-.51v-2.75h-4.23l-2.4,.06v-1.02l2.4,.06h4.23v-.45Zm4.95-6l2.34-.06,.06,.06-.06,1.67,.06,1.89h-1.07v-2.66h-11.62v2.71h-1.07l.06-1.94-.06-1.67,.06-.06,2.34,.06h7.12c.45-.67,.9-1.44,1.15-1.97,.18-.35,.27-.64,.35-.94,1.3,.45,1.5,.64,1.5,.78,0,.18-.14,.24-.64,.24-.37,.64-.79,1.3-1.23,1.89h.71Zm-8.98-2.83c.62,.58,1.02,1.1,1.52,1.87l-.96,.59c-.48-.82-.88-1.36-1.47-1.97l.91-.5Zm4.16-.24c.53,.62,.98,1.31,1.34,2.02l-1.01,.5c-.35-.75-.78-1.44-1.26-2.05l.93-.46Z"/>
    <path class="cls-1" d="M123.09,239.26c-.43,1.47-1.33,3.04-2.35,4.35-.14-.32-.38-.56-.62-.77,1.22-1.46,2.22-3.43,2.72-5.57h-.96l-1.6,.06v-.96l1.6,.06h1.14v-2.5c-.69,.11-1.41,.21-2.13,.27-.08-.3-.18-.58-.37-.85,1.42-.08,2.87-.32,3.89-.59,.38-.1,.66-.22,.96-.38,.8,.59,.91,.74,.91,.85,0,.13-.08,.19-.3,.19-.13,0-.29-.02-.5-.05-.5,.14-1.01,.27-1.54,.38v2.67h.9l1.44-.06v.96l-1.44-.06h-.9v2.3l.64-.48c.74,.61,1.25,1.2,1.73,1.79l-.8,.62c-.4-.66-.94-1.36-1.57-1.9v1.82l.06,5.52h-1.06l.14-7.7Zm11.67,1.06l.24,.96-2.3,.46v2.66l.06,2.4h-1.14l.06-2.4v-2.42l-3.06,.74-2.32,.61-.22-.98,2.35-.48,3.25-.77v-7.65c0-.46-.05-.85-.13-1.23,1.39,.08,1.71,.22,1.71,.4s-.18,.26-.58,.35v7.89l2.06-.54Zm-5.51-.86c-.59-.59-1.33-1.12-2-1.47l.67-.77c.7,.37,1.42,.88,2.02,1.39l-.69,.85Zm.34-3.54c-.51-.53-1.15-1.04-1.86-1.47l.74-.7c.72,.42,1.39,.91,1.89,1.39l-.77,.78Z"/>
    <path class="cls-1" d="M158.79,235.4l-2.62,.08v-1.18l2.62,.08h8.02l.29-.27h.19c.9,.8,1.15,1.07,1.15,1.3,0,.16-.1,.26-.62,.38-1.25,1.34-2.13,2.13-3.43,3.07-.24-.27-.56-.58-.86-.79,1.34-.9,2.22-1.65,2.99-2.67h-7.73Zm3.75,3.73c0,3.55-1.68,5.71-4.45,6.69-.21-.37-.4-.64-.69-.98,2.54-.83,3.92-2.5,3.92-5.84v-1.26c-.46-.32-.53-.38-.53-.53,0-.06,.08-.11,.27-.11,.27,0,.83,.08,1.58,.24l-.11,.77v1.02Z"/>
    <path class="cls-1" d="M170.81,240.32v-1.3l2.43,.08h7.08l2.43-.08v1.3l-2.43-.06h-7.08l-2.43,.06Z"/>
    <path class="cls-1" d="M188.97,233.95c-.46-.32-.53-.38-.53-.53,0-.06,.08-.11,.27-.11,.27,0,.8,.11,1.55,.3l-.11,.77v9.04l.06,2.43h-1.31l.06-2.43v-9.48Zm6.19,7.06c-1.52-.91-3.12-1.67-4.96-2.22l.64-.94c1.81,.5,3.46,1.25,4.96,2.11l-.64,1.06Z"/>
    <path class="cls-1" d="M201.92,237.64l-2.42,.05v-1.14l2.42,.06h1.1v-2.58c-.46-.32-.53-.38-.53-.53,0-.06,.08-.11,.27-.11,.27,0,.77,.11,1.52,.3l-.11,.77v2.14h4.16v-2.79c-.46-.32-.53-.38-.53-.53,0-.06,.08-.11,.27-.11,.27,0,.77,.11,1.52,.3l-.11,.77v2.35h.9l2.42-.06v1.14l-2.42-.05h-.9v.69c0,4.79-1.83,6.64-5.79,7.49-.1-.32-.27-.64-.5-.96,3.86-.88,5.14-2.38,5.14-6.51v-.7h-4.16v1.14l.06,2.42h-1.28l.06-2.42v-1.14h-1.1Z"/>
    <path class="cls-1" d="M225.35,234.86c-1.02,1.09-2.11,2.05-3.26,2.93,.34,.08,.7,.19,1.04,.29l-.06,1.04v4.39l.06,2.45h-1.33l.06-2.43v-5.12l-.26-.26c-1.68,1.2-3.51,2.22-5.54,3.12-.19-.3-.45-.61-.72-.86,3.62-1.52,6.93-3.78,9.28-6.64-.14-.22-.26-.43-.26-.51,0-.11,.1-.18,.21-.18,.14,0,.4,.16,1.54,.99l-.77,.8Z"/>
    <path class="cls-1" d="M236.6,242.91h3.25l2.43-.06v1.17l-2.43-.06h-7.48l-2.43,.06v-1.17l2.43,.06h3.04v-6.11h-2.02l-2.43,.05v-1.17l2.43,.08h5.51l2.43-.08v1.17l-2.43-.05h-2.31v6.11Z"/>
    <path class="cls-1" d="M247.19,234.63c1.57,.66,2.88,1.31,4.27,2.16l-.67,1.07c-1.36-.9-2.62-1.58-4.23-2.26l.62-.98Zm.29,10.82c-.37-.98-.53-1.38-.53-1.54,0-.13,.08-.21,.19-.21,.1,0,.26,.11,.53,.35,3.89-1.15,7.35-3.42,9.28-8.4,.34,.34,.66,.58,.99,.83-2.1,5.14-5.43,7.19-9.6,8.66l-.86,.3Z"/>
    <path class="cls-1" d="M270.94,234.28c.85,.82,1.06,1.04,1.06,1.22,0,.14-.16,.29-.53,.43-.56,1.42-1.38,2.77-2.35,4,1.68,1.41,3.04,2.74,4.58,4.56l-.96,.86c-1.44-1.79-2.87-3.28-4.35-4.56-1.75,1.95-3.89,3.58-6.07,4.69-.21-.32-.5-.66-.8-.93,3.71-1.73,7.19-5.19,8.72-8.85h-5.33l-2.43,.05v-1.15l2.43,.06h5.43l.42-.38h.19Z"/>
    <path class="cls-1" d="M288.4,244.09l-.08,.08-2.34-.06h-5.22l-2.42,.06v-1.15l2.42,.05h6.35v-6.56h-6.21l-2.42,.05v-1.15l2.42,.06h5.07l2.34-.06,.08,.08-.06,2.35v3.91l.06,2.35Z"/>
    <path class="cls-1" d="M293.28,240.32v-1.3l2.43,.08h7.08l2.43-.08v1.3l-2.43-.06h-7.08l-2.43,.06Z"/>
    <path class="cls-1" d="M317,234.28c.85,.82,1.06,1.04,1.06,1.22,0,.14-.16,.29-.53,.43-.56,1.42-1.38,2.77-2.35,4,1.68,1.41,3.04,2.74,4.58,4.56l-.96,.86c-1.44-1.79-2.87-3.28-4.35-4.56-1.75,1.95-3.89,3.58-6.07,4.69-.21-.32-.5-.66-.8-.93,3.71-1.73,7.19-5.19,8.72-8.85h-5.33l-2.43,.05v-1.15l2.43,.06h5.43l.42-.38h.19Z"/>
  </g>
</svg>